<?xml version="1.0" standalone="no"?>
<!DOCTYPE svg PUBLIC "-//W3C//DTD SVG 1.1//EN" "http://www.w3.org/Graphics/SVG/1.1/DTD/svg11.dtd" >
<svg>
<metadata>
Created by FontForge 20090914 at Tue Apr 30 15:31:29 2013
 By www-data
Created by Morten Bek anno 1997
</metadata>
<defs>
<font id="Angerthas-Moria" horiz-adv-x="1035" >
  <font-face 
    font-family="Angerthas Moria"
    font-weight="400"
    font-stretch="normal"
    units-per-em="2443"
    panose-1="0 0 0 0 0 0 0 0 0 0"
    ascent="1954"
    descent="-489"
    x-height="1374"
    cap-height="1783"
    bbox="5.99707 -227.999 2648 2000"
    underline-thickness="100"
    underline-position="-173"
    unicode-range="U+0020-U+00FE"
  />
<missing-glyph horiz-adv-x="2000" 
d="M125 0v2000h1750v-2000h-1750zM1750 125v1750h-1500v-1750h1500z" />
    <glyph glyph-name=".notdef" horiz-adv-x="2000" 
d="M125 0v2000h1750v-2000h-1750zM1750 125v1750h-1500v-1750h1500z" />
    <glyph glyph-name="space" unicode=" " horiz-adv-x="1089" 
 />
    <glyph glyph-name="exclam" unicode="!" horiz-adv-x="459" 
d="M243 1795c0 -14 -2.83008 -36.834 -8.49707 -68.501l-17.5 -97.5c-2.66699 -14.667 -4.33398 -42.167 -5.00098 -82.5s-1 -96.833 -1 -169.5v-161c0 -54.667 0.166992 -109.667 0.5 -165s0.833008 -110 1.5 -164c0 -86 -0.666992 -155 -2 -207s-4 -83 -8 -93l-27 -74
c-3.33301 -9.33301 -16 -28.333 -38 -57c-12.667 -16.667 -21 -25 -25 -25c-4.66699 0 -8.5 3.5 -11.5 10.5s-4.5 12.167 -4.5 15.5v37c0 52 -1.83301 163.5 -5.5 334.5l-11 538.5c-3.66699 188 -5.5 291.333 -5.5 310c-2.66699 20 -6.33398 33.333 -11.001 40
c-8 11.333 -12 24.666 -12 39.999c0 7.33301 3.16699 18.333 9.5 33s12.833 23.667 19.5 27l46 34c6 4.66699 16 10.334 30 17.001c18 8.66699 29.667 12.667 35 12c7.33301 -0.666992 17.666 -13.167 30.999 -37.5s20 -40.166 20 -47.499zM92.0029 187.999
c37.333 52 61.666 78.001 72.999 78.001c2 0 4.66699 -1 8 -3c9.33301 -8.66699 17.833 -15.834 25.5 -21.501s21.167 -14.5 40.5 -26.5c25.333 -17.333 38 -30 38 -38c0 -6.66699 -18 -38 -54 -94c-23.333 -39.333 -43.666 -59 -60.999 -59c-1.33301 0 -4 0.666992 -8 2
l-67 35l-40 24c-2.66699 2 -4 5.33301 -4 10c0 16.667 16.333 47.667 49 93z" />
    <glyph glyph-name="quotedbl" unicode="&#x22;" horiz-adv-x="801" 
d="M97 1850c43.333 64 74.002 96.0039 92.002 96.0039c2.66699 0 5.66699 -1 9 -3c7.33301 -6.66699 18.333 -15.334 33 -26.001s31.334 -22 50.001 -34c31.333 -21.333 47 -36.333 47 -45c0 -6.66699 -22.333 -44.334 -67 -113.001c-19.333 -30 -51 -70.333 -95 -121
l-77 -93c-6 -8.66699 -14.333 -13 -25 -13c-2 0 -6.33301 0.666992 -13 2c2.66699 12.667 5.66699 25.667 9 39c15.333 26 40.666 61.333 75.999 106c5.33301 6.66699 8 12 8 16c0 6 -5.33301 10.667 -16 14l-38 16c-6.66699 3.33301 -14.834 7.66602 -24.501 12.999
s-17.834 10.666 -24.501 15.999c-3.33301 2 -5 5.66699 -5 11c0 20 20.333 59.667 61 119zM421.002 1850c43.333 64 74.002 96.0039 92.002 96.0039c2.66699 0 5.66699 -1 9 -3c7.33301 -6.66699 18.333 -15.334 33 -26.001s31.334 -22 50.001 -34
c31.333 -21.333 47 -36.333 47 -45c0 -6.66699 -22.333 -44.334 -67 -113.001c-19.333 -30 -51 -70.333 -95 -121l-77 -93c-6 -8.66699 -14.333 -13 -25 -13c-2 0 -6.33301 0.666992 -13 2c2.66699 12.667 5.66699 25.667 9 39c15.333 26 40.666 61.333 75.999 106
c5.33301 6.66699 8 12 8 16c0 6 -5.33301 10.667 -16 14l-38 16c-6.66699 3.33301 -14.834 7.66602 -24.501 12.999s-17.834 10.666 -24.501 15.999c-3.33301 2 -5 5.66699 -5 11c0 20 20.333 59.667 61 119z" />
    <glyph glyph-name="numbersign" unicode="#" horiz-adv-x="1638" 
d="M880 1112l15.001 150.991c8 93.333 12 159.333 12 198c0 48.667 -6.66699 83.334 -20 104.001c-14.667 17.333 -26.334 32 -35.001 44c45.333 -18 85.333 -46.333 120 -85c44.667 -49.333 67 -102.666 67 -159.999c0 -48.667 -4.66699 -103.334 -14 -164.001
c-3.33301 -22 -9.33301 -56.333 -18 -103l164 -16c93.333 -8 159.333 -12 198 -12c48.667 0 83.334 6.66699 104.001 20c17.333 14.667 32 26.334 44 35.001c-18 -45.333 -46.333 -85.333 -85 -120c-49.333 -44.667 -102.666 -67 -159.999 -67
c-44.667 0 -91.334 3.33301 -140.001 10c-22.667 3.33301 -71.667 11.666 -147 24.999c-8 -47.333 -14.833 -90.166 -20.5 -128.499s-10.834 -80.5 -15.501 -126.5l222 -23c93.333 -8 159.333 -12 198 -12c48.667 0 83.334 6.66699 104.001 20
c17.333 14.667 32 26.334 44 35.001c-18 -45.333 -46.333 -85.333 -85 -120c-49.333 -44.667 -102.666 -67 -159.999 -67c-50 0 -104 4.33301 -162 13c-13.333 2 -69.333 12 -168 30c0 -20.667 0.666992 -55.5 2 -104.5s2 -76.5 2 -82.5c0 -43.333 14.333 -98.333 43 -165
c9.33301 -22 23.666 -51 42.999 -87c-11.333 4.66699 -20.333 8.66699 -27 12c-41.333 20 -73 40 -95 60c-34 32 -58.333 83.333 -73 154c-10 48 -15 100.333 -15 157v28c0 6.66699 0.333008 11.334 1 14.001l2 34c-72 12 -115 19 -129 21
c-51.333 7.33301 -97.666 11 -138.999 11c0 -23.333 0.333008 -61.5 1 -114.5s1 -94.5 1 -124.5c0 -43.333 14.333 -98.333 43 -165c9.33301 -22 23.666 -51 42.999 -87c-11.333 4.66699 -20.333 8.66699 -27 12c-41.333 20 -73 40 -95 60c-34 32 -58.333 83.333 -73 154
c-10 48 -15 100.333 -15 157v28c0 6.66699 0.333008 11.334 1 14.001l5 69c-18.667 0 -43 -0.833008 -73 -2.5s-48 -2.5 -54 -2.5c-43.333 0 -98.333 -14.333 -165 -43c-22 -9.33301 -51 -23.666 -87 -42.999c4.66699 11.333 8.66699 20.333 12 27c20 41.333 40 73 60 95
c32.667 35.333 86 60 160 74c48.667 9.33301 101.667 14 159 14l40 267c-18.667 0 -52.167 -0.666992 -100.5 -2s-74.5 -2 -78.5 -2c-43.333 0 -98.333 -14.333 -165 -43c-22 -9.33301 -51 -23.666 -87 -42.999c4.66699 11.333 8.66699 20.333 12 27c20 41.333 40 73 60 95
c32 34 83.333 58.333 154 73c48 10 100.333 15 157 15h28c6.66699 0 11.334 -0.333008 14.001 -1h10l11 110c8 93.333 12 159.333 12 198c0 48.667 -6.66699 83.334 -20 104.001c-14.667 17.333 -26.334 32 -35.001 44c45.333 -18 85.333 -46.333 120 -85
c44.667 -49.333 67 -102.666 67 -159.999c0 -40 -3.66699 -85.667 -11 -137c-2.66699 -17.333 -7.33398 -46 -14.001 -86zM836.001 729.991l31 263l-131 23c-45.333 8 -88 12 -128 12l-22 -129c-8.66699 -52 -15 -98.333 -19 -139z" />
    <glyph glyph-name="dollar" unicode="$" horiz-adv-x="1224" 
d="M299 1064c17.333 6.66699 48.334 14.668 93.001 24.001c61.333 12.667 113.666 19 156.999 19c2 16 3.33301 33.167 4 51.5s1 38.166 1 59.499c0 30 -0.833008 67.5 -2.5 112.5s-2.5 69.833 -2.5 74.5l-44 -52l-100 -140zM929.001 1005c-2 -0.666992 -23 -4 -63 -10
c-22.667 -3.33301 -43 -7 -61 -11c-42 -8 -79.333 -12 -112 -12v-243c57.333 44.667 109 96.667 155 156c22 28.667 49 68.667 81 120zM506.001 357.001c-8 -9.33301 -17.501 -25.333 -28.501 -48s-18.5 -42 -22.5 -58c-5.33301 -29.333 -10.333 -58.333 -15 -87
c-8 -33.333 -23 -53 -45 -59c-26.667 -5.33301 -64.334 7.16699 -113.001 37.5s-73 57.833 -73 82.5c0 21.333 10.167 41.5 30.5 60.5s45.666 35.333 75.999 49s51.833 25.834 64.5 36.501c27.333 22.667 68 64.667 122 126c61.333 68.667 92 110 92 124
c0 56 -5.33301 128.667 -16 218s-20.334 133.666 -29.001 132.999c-18.667 -2 -48 -9 -88 -21c-26.667 -8 -43 -12.667 -49 -14c-36 -6 -76.667 -15.333 -122 -28c-83.333 -22.667 -131 -34 -143 -34c-10.667 0 -18 2.33301 -22 7c-11.333 14.667 -19.833 28.667 -25.5 42
s-8.5 25 -8.5 35c0 19.333 10.333 39.666 31 60.999l63 65c42.667 56 79.334 109 110.001 159c12.667 20 34.334 43.333 65.001 70c39.333 36.667 80.333 86.334 123 149.001c38 56 57 90.333 57 103c0 114 3.83301 188.833 11.5 224.5s26.167 65.834 55.5 90.501l66 25.5
c15.333 5.66699 26 8.5 32 8.5c5.33301 0 8 -2.66699 8 -8c-10 -30 -18.667 -63 -26 -99s-11 -73.667 -11 -113c0 -9.33301 1.66699 -14 5 -14c4.66699 0 18 17.667 40 53c13.333 21.333 23.666 36.666 30.999 45.999c10.667 12 24.334 44.333 41.001 97
c12.667 40.667 30.667 61 54 61c2 0 7 -0.666992 15 -2c48 -10.667 85.5 -22.334 112.5 -35.001s40.5 -25 40.5 -37c0 -9.33301 -7.33301 -18.666 -22 -27.999c-22.667 -12 -41 -22.333 -55 -31c-28.667 -18 -52 -36.667 -70 -56l-101 -114
c-43.333 -49.333 -77 -84.333 -101 -105c3.33301 -28 5.83301 -70.5 7.5 -127.5s2.5 -152.167 2.5 -285.5c18.667 4 108 16.333 268 37c68.667 8.66699 112.334 15.667 131.001 21c2 0.666992 6.33301 1 13 1c13.333 0 25.166 -3.5 35.499 -10.5s15.5 -19.5 15.5 -37.5
c0 -13.333 -3.33301 -29 -10 -47c-4 -11.333 -9.66699 -21.333 -17 -30l-54 -65c-49.333 -60.667 -102.666 -121.334 -159.999 -182.001c-62 -65.333 -124.333 -126.333 -187 -183c0 -51.333 0.333008 -97.833 1 -139.5l2 -122.5c0 -75.333 -3.33301 -132.333 -10 -171
c-8.66699 -49.333 -24.667 -92 -48 -128c-7.33301 -11.333 -18.166 -20.166 -32.499 -26.499s-28.833 -9.5 -43.5 -9.5c-18 0 -33.833 3.83301 -47.5 11.5s-20.5 17.167 -20.5 28.5c0 12 8 24.667 24 38c26 21.333 44.333 60.333 55 117c8 42.667 12 98.667 12 168
c0 16.667 0.666992 29.334 2 38.001c4.66699 29.333 7 46.666 7 51.999l-56 -56z" />
    <glyph glyph-name="percent" unicode="%" horiz-adv-x="1107" 
d="M790 730c-16 -4.66699 -29.001 -14 -39.001 -28s-15 -29.333 -15 -46c0 -10.667 3 -21 9 -31c13.333 -22 33 -33 59 -33c11.333 0 23.333 2.66699 36 8c30.667 14 46 35.667 46 65c0 4 -0.333008 7.33301 -1 10c-2.66699 17.333 -11 31.333 -25 42s-30 16 -48 16
c-7.33301 0 -14.666 -1 -21.999 -3zM1032 1791c-16 -20 -29.667 -42.832 -41 -68.499l-33 -75.5l-55 -119l-75 -161c-36.667 -80.667 -57 -124.667 -61 -132l-153 -317l-89 -183c-84 -170.667 -127 -258.334 -129 -263.001c-45.333 -94 -72 -151.667 -80 -173
c-37.333 -100.667 -72.666 -173.667 -105.999 -219c-26 -35.333 -50 -53 -72 -53c-6 -8.66699 -14.667 -13 -26 -13c-10.667 0 -23.667 4.33301 -39 13l-9 6c-18.667 6 -28 10 -28 12c0 1.33301 10 8.33301 30 21c4.66699 2.66699 21 14 49 34l56 84
c15.333 26 35 65.667 59 119c15.333 34.667 46.666 101.334 93.999 200.001l141 293l101 209l148 303c10.667 22 31.334 67 62.001 135l72 157c19.333 42.667 32.333 72.667 39 90l49 109c13.333 28 38.666 42 75.999 42c10 0 21.667 -1 35 -3
c24.667 -4.66699 37 -7.33398 37 -8.00098c-7.33301 -4 -15.833 -9 -25.5 -15s-18.5 -14 -26.5 -24zM776.999 761.001c12 4 24.333 5.99902 37 5.99902c25.333 0 48 -7.16699 68 -21.5s32.333 -33.5 37 -57.5c1.33301 -8 2 -14.333 2 -19c0 -23.333 -8 -44.333 -24 -63
s-36.333 -31 -61 -37c-9.33301 -2 -18.333 -3 -27 -3c-24 0 -45.833 6.83301 -65.5 20.5s-32.167 31.834 -37.5 54.501c-2 8 -3 15.667 -3 23c0 21.333 7 41 21 59s31.667 30.667 53 38zM359.999 1360c-16 -4.66699 -29.001 -14 -39.001 -28s-15 -29.333 -15 -46
c0 -10.667 3 -21 9 -31c13.333 -22 33 -33 59 -33c11.333 0 23.333 2.66699 36 8c30.667 14 46 35.667 46 65c0 4 -0.333008 7.33301 -1 10c-2.66699 17.333 -11 31.333 -25 42s-30 16 -48 16c-7.33301 0 -14.666 -1 -21.999 -3zM346.998 1391
c12 4 24.333 5.99902 37 5.99902c25.333 0 48 -7.16699 68 -21.5s32.333 -33.5 37 -57.5c1.33301 -8 2 -14.333 2 -19c0 -23.333 -8 -44.333 -24 -63s-36.333 -31 -61 -37c-9.33301 -2 -18.333 -3 -27 -3c-24 0 -45.833 6.83301 -65.5 20.5s-32.167 31.834 -37.5 54.501
c-2 8 -3 15.667 -3 23c0 21.333 7 41 21 59s31.667 30.667 53 38z" />
    <glyph glyph-name="ampersand" unicode="&#x26;" horiz-adv-x="1163" 
d="M635 238c20 12 41.667 30.3379 65 55.0049l71 75c10.667 6.66699 24.834 21.667 42.501 45l52.5 70c10 12.667 26.667 30.667 50 54c18.667 18.667 32.667 35.667 42 51s17.666 27 24.999 35l32 33c10 14.667 18.667 22 26 22c3.33301 0 5.66602 -2.66699 6.99902 -8
c3.33301 3.33301 6 4.33301 8 3s3 -6.33301 3 -15v-16c-2 -10.667 -3.66699 -21.167 -5 -31.5s-24.666 -37.5 -69.999 -81.5c-31.333 -30.667 -55.333 -56.334 -72 -77.001c-20.667 -25.333 -41 -48.666 -61 -69.999l-85 -86l-157 -155
c-17.333 -17.333 -43.333 -46.333 -78 -87c-18.667 -22 -30.667 -33 -36 -33s-8 14.667 -8 44c0 32.667 0.333008 67.167 1 103.5l2 106.5l-8 624v864l-83 -100l-71 -82.5l-58 -68.5l-122 -162c-4 -6 -6 -10.333 -6 -13c0 -1.33301 2.16699 -5.5 6.5 -12.5
s5.5 -15.167 3.5 -24.5c-2.66699 -14 -7.5 -23.833 -14.5 -29.5s-15.833 -8.5 -26.5 -8.5c-22.667 0 -36.667 7 -42 21v14c0 8.66699 -0.5 16 -1.5 22s-3.83301 18.667 -8.5 38c-1.33301 8 -2 12.667 -2 14c0 6 2.33301 10 7 12c20 9.33301 34.333 18.666 43 27.999l65 73
c28 32 49.667 58.667 65 80c13.333 18.667 40.333 49.667 81 93c20 21.333 33.667 38 41 50l71 79c58 63.333 102.333 110.333 133 141l72 53c0 -36 0.333008 -86.833 1 -152.5l2 -192.5c0 -8.66699 0.333008 -63.334 1 -164.001s1 -163.334 1 -188.001
c0 -40.667 -0.5 -134.834 -1.5 -282.501s-1.83301 -296.834 -2.5 -447.501s-1 -255.667 -1 -315z" />
    <glyph glyph-name="quotesingle" unicode="'" horiz-adv-x="405" 
d="M123 1860c43.333 64 74.002 96.0039 92.002 96.0039c2.66699 0 5.66699 -1 9 -3c7.33301 -6.66699 18.333 -15.334 33 -26.001s31.334 -22 50.001 -34c31.333 -21.333 47 -36.333 47 -45c0 -6.66699 -22.333 -44.334 -67 -113.001c-19.333 -30 -51 -70.333 -95 -121
l-77 -93c-6 -8.66699 -14.333 -13 -25 -13c-2 0 -6.33301 0.666992 -13 2c2.66699 12.667 5.66699 25.667 9 39c15.333 26 40.666 61.333 75.999 106c5.33301 6.66699 8 12 8 16c0 6 -5.33301 10.667 -16 14l-38 16c-6.66699 3.33301 -14.834 7.66602 -24.501 12.999
s-17.834 10.666 -24.501 15.999c-3.33301 2 -5 5.66699 -5 11c0 20 20.333 59.667 61 119z" />
    <glyph glyph-name="parenleft" unicode="(" horiz-adv-x="864" 
d="M50 970l26.001 104.001c24 88 49.333 167.333 76 238c39.333 103.333 81.333 191 126 263c42.667 68 96.667 135.333 162 202c46.667 47.333 96.667 92.333 150 135c41.333 32.667 63.333 49 66 49l182 32c-66.667 -27.333 -148.667 -95.666 -246 -204.999
c-84.667 -95.333 -152.334 -186.333 -203.001 -273c-32 -56 -62.667 -142.333 -92 -259c-22 -87.333 -41 -181 -57 -281c-6.66699 -44 -13 -88 -19 -132l26 -116c23.333 -100 44 -180.333 62 -241c28 -95.333 54 -162.333 78 -201c42 -69.333 109.667 -139 203 -209
c80.667 -60.667 163.667 -109.334 249 -146.001l-109 -158c-10 0 -35 8.66699 -75 26c-60.667 26.667 -120.667 62.667 -180 108c-82 63.333 -155 140.333 -219 231s-114 208 -150 352c-26 104 -43 215 -51 333c-2 49.333 -3.66699 98.666 -5 147.999z" />
    <glyph glyph-name="parenright" unicode=")" horiz-adv-x="940" 
d="M878 804l-26.001 -104.001c-24 -88 -49.333 -167.333 -76 -238c-39.333 -103.333 -80.833 -190 -124.5 -260s-98.167 -138.333 -163.5 -205c-46.667 -47.333 -96.667 -92.333 -150 -135c-41.333 -32.667 -63.333 -49 -66 -49l-182 -32
c66.667 27.333 148.667 95.666 246 204.999c84.667 95.333 152.334 186.333 203.001 273c32 56 62.667 142.333 92 259c22 87.333 41 181 57 281c6 44 12.333 88 19 132l-26 116c-23.333 100 -44 180.333 -62 241c-28 95.333 -54 162.333 -78 201
c-42 69.333 -109.667 139 -203 209c-80.667 60.667 -163.667 109.334 -249 146.001l109 128c12.667 0 37.667 -6.33301 75 -19c62 -20.667 122 -51.667 180 -93c82 -58 155 -132.333 219 -223s114 -208 150 -352c26 -104 43 -215 51 -333
c1.33301 -49.333 3 -98.666 5 -147.999z" />
    <glyph glyph-name="asterisk" unicode="*" horiz-adv-x="1490" 
d="M769 693c0 -25.333 -0.65918 -71.501 -1.99219 -138.501s-2 -105.833 -2 -116.5c0 -82 -14 -142 -42 -180c-17.333 -23.333 -48.333 -38 -93 -44c-2 3.33301 -3.33301 6 -4 8c-2.66699 6.66699 -4 14 -4 22c0 8.66699 1 16.667 3 24s6.66699 16 14 26l6 89
c2 29.333 5.5 88.5 10.5 177.5s7.5 140.5 7.5 154.5c-26.667 -22.667 -55.334 -49 -86.001 -79c-34.667 -34.667 -66 -68 -94 -100c-34.667 -40.667 -78.334 -70 -131.001 -88l-117 -36c-7.33301 -2 -12.666 -3 -15.999 -3c5.33301 11.333 11 22.666 17 33.999
c23.333 21.333 53.333 45 90 71c21.333 14.667 54.333 41.334 99 80.001l62 55l62 68.5c21.333 23 42.333 42.833 63 59.5c-8.66699 1.33301 -21.334 2 -38.001 2s-30.334 0.333008 -41.001 1c-14 0 -38.667 -0.333008 -74 -1s-64 -1 -86 -1c-44 0 -99 -8.33301 -165 -25
c-22 -5.33301 -51 -14 -87 -26l23 32l32 48c12.667 19.333 59.667 34.333 141 45c26.667 3.33301 66 6.66602 118 9.99902c5.33301 0 20.166 0.833008 44.499 2.5s42.166 2.5 53.499 2.5s23 -0.333008 35 -1s24 -2 36 -4l-61 82l-187 163c-27.333 22 -60 35.667 -98 41
c11.333 4.66699 27 12.334 47 23.001c33.333 17.333 59.666 26 78.999 26c15.333 0 30.5 -3.66699 45.5 -11s30.5 -19.666 46.5 -36.999c20.667 -21.333 60 -58 118 -110c24.667 -22 48.334 -45.667 71.001 -71c0 9.33301 0.833008 21.833 2.5 37.5s2.5 24.834 2.5 27.501
c0 158.667 6.66699 260 20 304c17.333 57.333 58.333 86 123 86c-13.333 -27.333 -22.833 -51 -28.5 -71s-8.5 -38 -8.5 -54c0 -4 2.33301 -28 7 -72c2.66699 -25.333 4 -47 4 -65c0 -50.667 -0.666992 -87.334 -2 -110.001c-4.66699 -78.667 -7 -130 -7 -154l123 92l105 83
c15.333 12 48.333 41.333 99 88c68 62.667 120 94 156 94c17.333 0 34.333 -5.33301 51 -16c-45.333 -33.333 -75.333 -57.333 -90 -72c-43.333 -44 -93 -91.667 -149 -143l-94 -87c-44.667 -40.667 -90 -74.667 -136 -102c33.333 -6 77.5 -12.333 132.5 -19
s88.5 -10.667 100.5 -12c30 -4 58.167 -7.33301 84.5 -10s44.166 -4 53.499 -4c21.333 0 40.166 2.66699 56.499 8s34.166 15.333 53.499 30c-15.333 -38.667 -40.333 -69.667 -75 -93c-38 -26 -83 -39 -135 -39c-38 0 -76.333 3.16699 -115 9.5s-76.667 14.5 -114 24.5
l136 -138c40 -40.667 84.667 -78.667 134 -114c16 -11.333 35.667 -24.333 59 -39c-10 -12 -23 -20.333 -39 -25c-28 -8.66699 -63.667 -13 -107 -13l-67 65l-134 131c-55.333 54 -88 86.333 -98 97z" />
    <glyph glyph-name="plus" unicode="+" horiz-adv-x="1480" 
d="M683 735c-39.333 10.667 -72.832 18.1709 -100.499 22.5039s-52.167 6.5 -73.5 6.5c-20.667 0 -39.834 -0.333008 -57.501 -1s-34.5 -1.33398 -50.5 -2.00098c-44 0 -100.667 -10 -170 -30c-23.333 -6.66699 -54 -17 -92 -31c10.667 10.667 19 19.334 25 26.001
c20 22 36.5 43 49.5 63s60.167 37 141.5 51c26.667 4.66699 66 9.66699 118 15c22.667 0 51 -1.33301 85 -4s73.333 -8 118 -16c0 22 1 43.667 3 65c6 63.333 9 98.666 9 105.999c0 37.333 -0.333008 69.666 -1 96.999l-2 80c0 62 8.83301 102.333 26.5 121
s61.5 34.667 131.5 48c-8 -12 -14.167 -20.167 -18.5 -24.5s-8.16602 -6.5 -11.499 -6.5c-2 0 -3.33301 2.33301 -4 7c2 -4 3.33301 -9.33301 4 -16s1 -21 1 -43c0 -51.333 -4.66699 -147 -14 -287c-4.66699 -70 -7 -129 -7 -177c124.667 -22 194.167 -34.167 208.5 -36.5
s45.166 -6.5 92.499 -12.5l64.5 -7.5c21 -2.33301 38.833 -3.5 53.5 -3.5c23.333 0 43.5 3.16699 60.5 9.5s36.833 18.166 59.5 35.499l-34 -93c-27.333 -26 -99.333 -39 -216 -39c-61.333 0 -114.333 6.83301 -159 20.5l-133 42.5c0 -30.667 -0.666992 -65.667 -2 -105
c-3.33301 -98.667 -5 -167 -5 -205c0 -74.667 -16.333 -132.667 -49 -174c-24 -30.667 -55 -51.334 -93 -62.001c-16 -4.66699 -32.667 -7 -50 -7c4 6 7 11 9 15c14 24 27 49 39 75c16 34 27.333 77 34 129c4.66699 35.333 7 71.333 7 108v18.5v7.5
c0 66 0.5 113.667 1.5 143s1.5 53 1.5 71z" />
    <glyph glyph-name="comma" unicode="," horiz-adv-x="442" 
d="M129 210c51.333 75.333 87.335 112.999 108.002 112.999c2.66699 0 6 -1.33301 10 -4c18 -16 50.667 -39.667 98 -71c36.667 -24.667 55 -42 55 -52c0 -8 -26.333 -52.333 -79 -133c-10.667 -16 -25.334 -36.167 -44.001 -60.5s-41 -51.166 -67 -80.499l-59.5 -71
c-17.667 -21.333 -27.834 -34 -30.501 -38c-7.33301 -10 -17.333 -15 -30 -15c-2 0 -7 0.666992 -15 2c-3.33301 1.33301 -5 4 -5 8c0 20 35 74 105 162c6 7.33301 9 13.333 9 18c0 7.33301 -6.33301 13 -19 17l-44 19c-17.333 7.33301 -28.833 12.833 -34.5 16.5
s-13.167 9.5 -22.5 17.5c-4 2 -6 6.33301 -6 13c0 22 23.667 68.333 71 139z" />
    <glyph glyph-name="hyphen" unicode="-" horiz-adv-x="1548" 
d="M563 1065c20.667 0 57.501 -3.66602 110.501 -10.999l163.5 -22c82 -10.667 151.333 -18.667 208 -24s102.334 -9 137.001 -11s66.667 -3 96 -3c48.667 0 84.334 5.33301 107.001 16c5.33301 2.66699 28 19 68 49c-26 -64.667 -48.667 -108.667 -68 -132
c-38 -46 -90 -69 -156 -69c-89.333 0 -175.333 5.33301 -258 16s-171.834 21.5 -267.501 32.5s-209.834 16.5 -342.501 16.5c-50.667 0 -115 -17 -193 -51c-26 -11.333 -60 -28.333 -102 -51c10 22.667 18.333 40.667 25 54c20.667 39.333 40.667 69.333 60 90
c36.667 39.333 95.334 67.666 176.001 84.999c54 11.333 115 17 183 17c13.333 0 24.166 -0.166992 32.499 -0.5s15.166 -0.833008 20.499 -1.5z" />
    <glyph glyph-name="period" unicode="." horiz-adv-x="411" 
d="M106 264c50 75.333 85.666 113.001 106.999 113.001c2.66699 0 5 -0.333008 7 -1c2 -2 3.33301 -3 4 -3c7.33301 -6.66699 20 -16.334 38 -29.001c24.667 -18 44.334 -31.667 59.001 -41c36.667 -25.333 55 -43.666 55 -54.999c0 -10 -26 -56 -78 -138
c-37.333 -57.333 -67.666 -86 -90.999 -86c-4.66699 0 -8.33398 0.666992 -11.001 2l-98 52l-59 35c-3.33301 3.33301 -5 7.66602 -5 12.999c0 22 24 68 72 138z" />
    <glyph glyph-name="slash" unicode="/" horiz-adv-x="1107" 
d="M1023 1809c-16 -20 -29.667 -42.832 -41 -68.499l-33 -75.5l-55 -119l-75 -161c-36.667 -80.667 -57 -124.667 -61 -132l-153 -317l-89 -183c-84 -170.667 -127 -258.334 -129 -263.001c-45.333 -94 -72 -151.667 -80 -173
c-37.333 -100.667 -72.666 -173.667 -105.999 -219c-26 -35.333 -50 -53 -72 -53c-6 -8.66699 -14.667 -13 -26 -13c-10.667 0 -23.667 4.33301 -39 13l-9 6c-18.667 6 -28 10 -28 12c0 1.33301 10 8.33301 30 21c4.66699 2.66699 21 14 49 34l56 84
c15.333 26 35 65.667 59 119c15.333 34.667 46.666 101.334 93.999 200.001l141 293l101 209l148 303c10.667 22 31.334 67 62.001 135l72 157c19.333 42.667 32.333 72.667 39 90l49 109c13.333 28 38.666 42 75.999 42c10 0 21.667 -1 35 -3
c24.667 -4.66699 37 -7.33398 37 -8.00098c-7.33301 -4 -15.833 -9 -25.5 -15s-18.5 -14 -26.5 -24z" />
    <glyph glyph-name="zero" unicode="0" horiz-adv-x="1550" 
d="M263 537c-56 66 -101.669 126 -137.002 180l-40 61c-11.333 20 -17 39.667 -17 59c0 36 14.333 74.333 43 115c18 25.333 56 69 114 131c42.667 44 86 97.333 130 160c33.333 46.667 71.333 105.334 114 176.001l188 297c28.667 50.667 46.334 81.334 53.001 92.001
c26 41.333 53.333 73.666 82 96.999c10.667 8 29.167 -4.83301 55.5 -38.5s52.166 -77.834 77.499 -132.501c15.333 -33.333 34.333 -66.666 57 -99.999c67.333 -98.667 106 -157.334 116 -176.001l109 -192.5l113 -182.5c78 -118.667 117 -185.667 117 -201
c0 -17.333 -6.83301 -36.333 -20.5 -57s-35.5 -43.667 -65.5 -69c-57.333 -49.333 -122.666 -112.333 -195.999 -189c-4.66699 -4.66699 -14 -14.667 -28 -30l-35 -39c-19.333 -19.333 -37 -38.166 -53 -56.499l-60 -69.5l-109 -126
c-14 -16.667 -25.667 -32.334 -35 -47.001c-5.33301 -8.66699 -9.66602 -16 -12.999 -22c-30.667 -58 -57 -100 -79 -126c-18.667 -22 -34.667 -33 -48 -33c-10 0 -20 6.33301 -30 19c-29.333 38 -45.333 57.667 -48 59c-44 42 -89.167 96.5 -135.5 163.5
s-119.5 159.5 -219.5 277.5zM417.998 1182l-78.002 -106.998c-29.333 -41.333 -51 -73 -65 -95c-18 -29.333 -29.667 -52 -35 -68c-6.66699 -21.333 17.666 -72.333 72.999 -153c50.667 -74 120.334 -163 209.001 -267c20 -23.333 39 -48 57 -74l69 -103
c28 -40 53 -63 75 -69c9.33301 -1.33301 30.666 19 63.999 61c20.667 26.667 35.167 44 43.5 52s26.833 31 55.5 69c32.667 43.333 60.667 78.666 84 105.999c30 36 56.667 65.333 80 88c8 8 28.333 26.667 61 56c51.333 46 80.333 72.333 87 79
c39.333 38 60.333 64.667 63 80c2.66699 14.667 -13.666 48.334 -48.999 101.001l-78 118c-21.333 41.333 -70 126.333 -146 255c-35.333 58 -68.666 110.333 -99.999 157l-70 101c-6 9.33301 -13.667 22.166 -23 38.499s-17.333 24.5 -24 24.5
c-3.33301 0 -7.66602 -1 -12.999 -3c-14.667 -6 -35.667 -24.667 -63 -56c-30 -34 -54 -67.333 -72 -100c-15.333 -28.667 -43.333 -70.834 -84 -126.501z" />
    <glyph glyph-name="one" unicode="1" horiz-adv-x="479" 
d="M324 210c0 -18.667 3.66602 -38.9961 10.999 -60.9961c16.667 -50.667 25 -76.667 25 -78c0 -14.667 -8 -25.334 -24 -32.001s-46 -10 -90 -10c-36 0 -64.5 9.5 -85.5 28.5s-31.5 42.167 -31.5 69.5c0 14.667 3.66699 28.667 11 42c14 25.333 25.667 85.166 35 179.499
s14 170.833 14 229.5c0 60 -0.333008 102 -1 126c-2.66699 95.333 -4 171.666 -4 228.999c0 68.667 -1.83301 135.334 -5.5 200.001l-11 199.5c-3.66699 68.333 -5.5 123.5 -5.5 165.5c0 43.333 -2.33301 71.333 -7 84l-30 50.5c-10 17 -19 36.167 -27 57.5
c-11.333 30.667 -17 56.667 -17 78c0 28.667 8.66699 51 26 67c20.667 19.333 54 29 100 29c44.667 0 75.334 -3.66699 92.001 -11s25 -20.333 25 -39c0 -24.667 -8 -71.334 -24 -140.001c-8 -34.667 -12 -64.334 -12 -89.001c0 -54.667 3.16699 -135 9.5 -241
s10.5 -174 12.5 -204c6 -105.333 9 -188 9 -248z" />
    <glyph glyph-name="two" unicode="2" horiz-adv-x="1224" 
d="M1144 -35c8 -20.667 11.9971 -37.333 11.9971 -50c0 -16.667 -7 -29.5 -21 -38.5s-38 -13.5 -72 -13.5c-46 0 -81.5 6.83301 -106.5 20.5s-37.5 30.5 -37.5 50.5c0 4.66699 1.5 11.334 4.5 20.001s8.5 16 16.5 22c14.667 11.333 23 24.666 25 39.999
c1.33301 8.66699 -17.834 14.667 -57.501 18s-92.5 5 -158.5 5c-68.667 0 -133 -0.666992 -193 -2c-210.667 -4.66699 -318 -7 -322 -7c-56.667 0 -100.334 1.5 -131.001 4.5s-46 7.83301 -46 14.5c0 30 0.333008 48.333 1 55s1.66699 10 3 10s2.33301 3.33301 3 10
s1 27.667 1 63c0 20.667 72.333 105.334 217 254.001l405 411c145.333 151.333 218 239 218 263c0 23.333 -25.333 72 -76 146c-40 58.667 -87 122 -141 190c-49.333 62.667 -75 94 -77 94c-7.33301 8 -15.666 12 -24.999 12c-12.667 0 -30 -8.66699 -52 -26
c-16 -12.667 -40.667 -36 -74 -70l-102 -102c-11.333 -11.333 -45 -56.666 -101 -135.999c-39.333 -56 -73.666 -86 -102.999 -90c-4 -0.666992 -9.33301 -1 -16 -1c-26 0 -48 9.33301 -66 28c-14 14.667 -24.333 34.334 -31 59.001c7.33301 -2 13.333 -3 18 -3
c6 0 11.333 1.16699 16 3.5s12.334 7.5 23.001 15.5c20.667 14 60.667 52.333 120 115c48.667 51.333 91.667 99.333 129 144c40 47.333 81 90.666 123 129.999s59 64 51 74c-4 8 3.66699 16.667 23 26c16 10 28.333 17.333 37 22c16.667 9.33301 30.667 14 42 14
c14.667 0 32.667 -7.66699 54 -23c6 -4 16 -12 30 -24c8 -6.66699 16.333 -16.334 25 -29.001c26.667 -38 43.334 -61 50.001 -69c20 -22.667 53 -67.667 99 -135c52 -76 94 -142.333 126 -199c41.333 -73.333 62 -122.333 62 -147c0 -13.333 -21.333 -44 -64 -92
c-24.667 -27.333 -68 -72 -130 -134l-99 -98l-148 -153l-234.5 -245.5c-91 -95.667 -148.833 -157.5 -173.5 -185.5c-5.33301 -6 -8 -12 -8 -18c0 -12.667 18.833 -21.834 56.5 -27.501s88.834 -8.5 153.501 -8.5c51.333 0 110.833 1.33301 178.5 4l214 8.5
c75 3 127.167 4.5 156.5 4.5c48.667 0 85.5 -1.83301 110.5 -5.5s37.5 -10.167 37.5 -19.5v-49c0 -29.333 1.66699 -55.333 5 -78s10 -46.667 20 -72z" />
    <glyph glyph-name="three" unicode="3" horiz-adv-x="1224" 
d="M388 10c14 -14 20.9951 -29 20.9951 -45c0 -16.667 -8.5 -30.334 -25.5 -41.001s-42.5 -16 -76.5 -16c-46 0 -81.5 6.83301 -106.5 20.5s-37.5 30.5 -37.5 50.5c0 4.66699 1.5 11.334 4.5 20.001s8.5 16 16.5 22c14.667 11.333 23 24.833 25 40.5
s62.333 61.167 181 136.5l321 201c112.667 72.667 164.667 115 156 127c-14 18.667 -49.333 47 -106 85c-90.667 60.667 -136.667 91.667 -138 93c-45.333 33.333 -66.333 56 -63 68c5.33301 18.667 39 56.334 101 113.001c98 89.333 153 140 165 152
c58.667 58 88 99 88 123c0 23.333 -26 65.666 -78 126.999c-37.333 44 -86 95.667 -146 155c-51.333 50.667 -77.666 76 -78.999 76c-7.33301 8 -15.666 12 -24.999 12c-12.667 0 -30 -8.66699 -52 -26c-16 -12.667 -40.667 -36 -74 -70l-102 -102
c-11.333 -11.333 -45 -56.666 -101 -135.999c-39.333 -56 -73.666 -86 -102.999 -90c-4 -0.666992 -9.33301 -1 -16 -1c-26 0 -48 9.33301 -66 28c-14 14.667 -24.333 34.334 -31 59.001c7.33301 -2 13.333 -3 18 -3c6 0 11.333 1.16699 16 3.5s12.334 7.5 23.001 15.5
c20.667 14 60.667 52.333 120 115c48.667 51.333 91.667 99.333 129 144c40 47.333 81 90.666 123 129.999s59 64 51 74c-4 8 3.66699 16.667 23 26c16 10 28.333 17.333 37 22c16.667 9.33301 30.667 14 42 14c14.667 0 32.667 -7.66699 54 -23c6 -4 16 -12 30 -24
c8 -6.66699 16.333 -16.334 25 -29.001c26.667 -38 43.334 -61 50.001 -69l102 -116c56 -66 99.333 -120.667 130 -164c42.667 -60.667 64 -103.667 64 -129c0 -12.667 -24.667 -44.667 -74 -96c-36.667 -38.667 -85.667 -86.667 -147 -144
c-68.667 -64.667 -104.667 -99 -108 -103s-5 -8 -5 -12c0 -18.667 29 -50 87 -94l162 -116c58.667 -43.333 88 -73 88 -89c0 -4 -2 -7.66699 -6 -11c-50 -36.667 -143.833 -99.167 -281.5 -187.5s-231.5 -150.166 -281.5 -185.499
c-84.667 -60.667 -127 -101.334 -127 -122.001c0 -2.66699 1 -5.66699 3 -9z" />
    <glyph glyph-name="four" unicode="4" 
d="M930 77c1.33301 -4 2 -9.33105 2 -15.998c0 -13.333 -5.66699 -25.333 -17 -36c-17.333 -14.667 -60 -22 -128 -22c-78.667 0 -118 16.667 -118 50c0 6.66699 2 14.667 6 24c21.333 48.667 32 81.667 32 99c0 28.667 4.33301 64 13 106c19.333 94 29 153 29 177
c0 36.667 0.666992 69 2 97c4.66699 96.667 7 150 7 160c-44 18 -79.833 30.5 -107.5 37.5s-50.167 10.5 -67.5 10.5c-8.66699 0 -19 -0.5 -31 -1.5s-18.333 -1.5 -19 -1.5c-10 0 -22.5 1.66699 -37.5 5s-27.667 5.66602 -38 6.99902s-22.166 2 -35.499 2
c-46.667 0 -98.334 -9.33301 -155.001 -28l-185 -63c-13.333 0 -21.333 4.66699 -24 14c-6.66699 22 -10 40.667 -10 56c0 5.33301 8.66699 38 26 98c9.33301 32 14 65 14 99c0 38.667 2.83301 86.834 8.5 144.501l17.5 176.5c0 30 0.333008 63.5 1 100.5
s1.33398 72.167 2.00098 105.5c0 53.333 -1.16699 98.166 -3.5 134.499s-6.66602 60.5 -12.999 72.5s-9.5 23 -9.5 33c0 26.667 27 40 81 40c93.333 0 140 -20.333 140 -61c0 -6 -1 -12.667 -3 -20c-11.333 -34 -19.333 -62.333 -24 -85c-7.33301 -34 -11 -68 -11 -102
c-4.66699 -40 -8.83398 -79.167 -12.501 -117.5s-5.5 -77.166 -5.5 -116.499c0 -33.333 -4 -85.833 -12 -157.5l-24 -219.5c0 -12.667 11.667 -19 35 -19c22 0 63.667 5.5 125 16.5s100 16.5 116 16.5c46 0 97.667 -6.33301 155 -19c47.333 -10.667 86 -22.334 116 -35.001
c0 110 0.666992 184.833 2 224.5l4.5 128c1.66699 45.667 2.5 103.834 2.5 174.501c0 18.667 -5.66699 40.667 -17 66s-25.333 48.333 -42 69c-8 10 -12 18.667 -12 26c0 24 41 36 123 36c88 0 132 -15 132 -45c0 -2.66699 -0.666992 -6 -2 -10s-3 -8.33301 -5 -13
c-14.667 -25.333 -27.667 -56.833 -39 -94.5s-17 -71.834 -17 -102.501c0 -83.333 -2.33301 -143 -7 -179s-7 -81 -7 -135c0 -26.667 0.333008 -75.834 1 -147.501s1 -128.5 1 -170.5c0 -45.333 -0.666992 -93 -2 -143l-4.5 -173.5
c-1.66699 -65.667 -2.5 -123.5 -2.5 -173.5c0 -6 1 -12.167 3 -18.5s6.66699 -13.833 14 -22.5c17.333 -18.667 29.666 -38 36.999 -58z" />
    <glyph glyph-name="five" unicode="5" horiz-adv-x="997" 
d="M174 991c-2 -20 -3.00684 -36.6699 -3.00684 -50.0029c0 -30.667 9 -46 27 -46c11.333 0 49 12.333 113 37c44.667 17.333 86.667 32 126 44c56.667 17.333 87.334 26.666 92.001 27.999l87 30c43.333 14 80.5 25 111.5 33s54.5 12 70.5 12
c20.667 0 34.834 -5.83301 42.501 -17.5s11.5 -30.834 11.5 -57.501c0 -12.667 -2 -47 -6 -103s-6 -106.333 -6 -151v-173c0 -19.333 -37 -58 -111 -116l-148 -113c-72 -61.333 -124 -106.666 -156 -135.999c-68 -62 -104.333 -101.333 -109 -118
c-1.33301 -4 -4 -10.333 -8 -19c-7.33301 -14.667 -11 -26.667 -11 -36c0 -2 0.666992 -6.33301 2 -13c1.33301 -9.33301 -5 -22.666 -19 -39.999c-8 -9.33301 -12 -17.666 -12 -24.999c-3.33301 -25.333 -15.333 -46 -36 -62c-13.333 -10 -35.666 -15 -66.999 -15h-24
c-12 2 -21.167 3.33301 -27.5 4s-11.666 1.16699 -15.999 1.5s-8.16602 0.5 -11.499 0.5h-8c-2 0 -3.33301 -0.333008 -4 -1c-0.666992 1.33301 -2.83398 6.16602 -6.50098 14.499s-5.5 17.5 -5.5 27.5c0 13.333 3.33301 27.5 10 42.5s13.334 27.833 20.001 38.5
s16 22.667 28 36c8 9.33301 16.5 20.5 25.5 33.5s14.833 22.333 17.5 28s21.334 20.834 56.001 45.501c82.667 58.667 133 98.667 151 120c8.66699 10.667 44.334 37.667 107.001 81c66.667 46 118.334 85 155.001 117c53.333 46 80 82.667 80 110
c0 42.667 -0.5 76.334 -1.5 101.001s-1.5 40.667 -1.5 48c0 26.667 0.833008 54.5 2.5 83.5l5.5 95.5v15c-1.33301 6.66699 -2 11 -2 13c-8 -10 -29.333 -18.667 -64 -26c-24.667 -5.33301 -45.334 -10.333 -62.001 -15c-132 -37.333 -199.667 -56.666 -203 -57.999
c-48.667 -15.333 -110.667 -36.333 -186 -63c-22 -7.33301 -43.333 -16.666 -64 -27.999c-38.667 -20.667 -60.334 -31 -65.001 -31c-14 0 -22.833 15.833 -26.5 47.5s-5.5 99.834 -5.5 204.501c0 60 1.83301 114.167 5.5 162.5s9.33398 107.333 17.001 177l22.5 201.5
c3.33301 8 6.33301 14.333 9 19c15.333 29.333 32.333 56.333 51 81c42 4.66699 97.333 7 166 7c60.667 0 126.667 -1.33301 198 -4s148.333 -5.33398 231 -8.00098c16.667 0 25 3 25 9c0 2.66699 -2 6 -6 10c-1.33301 1.33301 -3.33301 3 -6 5c-2 20 9.33301 36.333 34 49
c5.33301 3.33301 8 6.66602 8 9.99902c0 4 1.66699 6.66699 5 8s17.666 2 42.999 2c23.333 0 35 -7.66699 35 -23c0 -4.66699 -1 -10 -3 -16c-5.33301 -14 -29 -44 -71 -90s-75.667 -77.333 -101 -94c-5.33301 -4 -21.5 -6.66699 -48.5 -8s-62.5 -2 -106.5 -2
c-75.333 0 -160.666 1.66699 -255.999 5c-17.333 0 -39 1 -65 3c-10 -60 -20 -146.333 -30 -259c-6.66699 -74 -14 -148.667 -22 -224z" />
    <glyph glyph-name="six" unicode="6" horiz-adv-x="1332" 
d="M737 168c18 28.667 52.334 76.333 103.001 143l119 157c38 52 55.333 82.667 52 92c-15.333 40.667 -75 94 -179 160c-92.667 58.667 -174.334 100.667 -245.001 126l-18 -16l-116 -121l-106 -107c-43.333 -46 -82.666 -89.667 -117.999 -131
c25.333 -15.333 56.666 -36 93.999 -62c18 -12.667 32 -22 42 -28l96 -59c6 -4 19.333 -12 40 -24c15.333 -8.66699 29.333 -17 42 -25l88 -47zM1150 1453c-36.667 -34 -74.665 -71.3359 -113.998 -112.003l-125 -132l-126 -137c-20.667 -27.333 -44 -55.333 -70 -84
c-8.66699 -10 -20.667 -22.333 -36 -37c6.66699 -6.66699 54.334 -34 143.001 -82c103.333 -56 180.666 -99.333 231.999 -130c81.333 -48.667 122 -80.667 122 -96c0 -12 -37.667 -68 -113 -168l-217 -280c-62 -78 -107 -133.333 -135 -166l-48 23
c-15.333 7.33301 -31 16.333 -47 27c-51.333 33.333 -132.333 79 -243 137l-128.5 72c-37.667 22 -66.834 40 -87.501 54c-41.333 29.333 -64 54 -68 74c-2.66699 20 6.66602 40.333 27.999 61c20.667 18.667 44 47.334 70 86.001c18.667 27.333 62.667 76 132 146
c9.33301 9.33301 52.333 45 129 107c24.667 20 41.667 37.333 51 52c22.667 22.667 38.667 40.667 48 54c12.667 18.667 33 43.667 61 75c51.333 58.667 134 147.334 248 266.001l108 115c30 32.667 87.333 91 172 175c8 8 17.167 15.333 27.5 22s20.5 10 30.5 10
c8.66699 0 17 -3 25 -9c58.667 -46 88 -73.667 88 -83c0 -5.33301 -19.833 -9.16602 -59.5 -11.499s-72.167 -11.833 -97.5 -28.5z" />
    <glyph glyph-name="seven" unicode="7" horiz-adv-x="1278" 
d="M519 51c0 -18 -2.33789 -29.667 -7.00488 -35s-13.667 -8 -27 -8c-3.33301 0 -16 0.833008 -38 2.5s-37.667 2.5 -47 2.5c-34 0 -60 7 -78 21c-14.667 11.333 -22 26.333 -22 45c0 16.667 6 30.334 18 41.001c16.667 14.667 27 34.667 31 60
c2 20.667 3.66699 36.334 5 47.001c10.667 85.333 27.334 170.666 50.001 255.999c27.333 102.667 57.333 181.667 90 237l66 112c16.667 28 44.667 65.667 84 113c43.333 52 76 89.667 98 113c33.333 35.333 71.333 70.666 114 105.999
c32.667 26.667 65.667 56.834 99 90.501s54.666 58.667 63.999 75s14 29.5 14 39.5c0 13.333 -9.33301 20 -28 20c-3.33301 0 -9.66602 -0.666992 -18.999 -2c-60 -18 -121.333 -32.667 -184 -44s-122.667 -17 -180 -17c-25.333 0 -53.666 1.66699 -84.999 5
c-68 8 -124.333 17.333 -169 28c-54.667 13.333 -100.334 30 -137.001 50c-5.33301 2.66699 -20.333 0 -45 -8s-39 -12 -43 -12s-6 1.66699 -6 5c0 7.33301 -2 25.666 -6 54.999s-6 50 -6 62v8c1.33301 3.33301 2 5.66602 2 6.99902c3.33301 12 28 21 74 27l72 8
c2.66699 -9.33301 35.334 -23.166 98.001 -41.499s115.834 -30.5 159.501 -36.5l127.5 -17c21.333 -2.66699 40.333 -4 57 -4c38.667 0 88 8.66699 148 26c4.66699 1.33301 34.334 8.33301 89.001 21c32 7.33301 47.5 14.166 46.5 20.499s6.83301 9.5 23.5 9.5
c4 -0.666992 7.33301 -1 10 -1c5.33301 0 13.666 1.66699 24.999 5s19.666 5 24.999 5c6.66699 0 13 -2 19 -6c22.667 -14.667 39.334 -36.667 50.001 -66c5.33301 -12.667 8 -27.667 8 -45c0 -27.333 -7.66699 -55 -23 -83c-19.333 -34 -61.666 -76 -126.999 -126
c-32 -24 -55 -48 -69 -72l-198 -212c-10 -15.333 -25.333 -42 -46 -80l-113 -204c-23.333 -40.667 -40.666 -94 -51.999 -160c-4 -25.333 -10 -79 -18 -161c-5.33301 -56.667 -13 -93.667 -23 -111c-6.66699 -11.333 -10 -23.333 -10 -36c0 -13.333 4 -29.666 12 -48.999
c18 -43.333 27 -72 27 -86z" />
    <glyph glyph-name="eight" unicode="8" horiz-adv-x="1332" 
d="M640 1572c-22.667 -25.333 -64.999 -66.334 -126.999 -123.001c-80.667 -73.333 -129 -118 -145 -134c-46 -44.667 -68 -71.667 -66 -81c8 -42 58.333 -100.667 151 -176c74 -60.667 147.667 -111.667 221 -153l39 16c36.667 20 74.167 42.833 112.5 68.5
s79.166 54.834 122.499 87.501l139 109c-22.667 20 -40.667 36.667 -54 50l-64 62l-84 75l-73 62c-4 3.33301 -21.667 17.333 -53 42zM567.001 1659c0 19.333 11.167 38.832 33.5 58.499s43.166 29.5 62.499 29.5c6.66699 0 11.667 -1.33301 15 -4l98 -95
c24 -22 52 -46.333 84 -73l131 -104c44.667 -34.667 83.334 -66 116.001 -94c30.667 -26 55.667 -48.667 75 -68c36 -36 54 -64.333 54 -85c0 -19.333 -12.5 -37.333 -37.5 -54s-53.167 -41 -84.5 -73c-22.667 -23.333 -74.334 -63.666 -155.001 -120.999
c-11.333 -8 -59.666 -35.667 -144.999 -83c-28.667 -16 -48.667 -30 -60 -42l126 -91l71 -50l158 -107c102 -66.667 150.667 -111.334 146 -134.001c-6 -22 -88 -91 -246 -207l-126 -94l-200 -143c-11.333 -8 -24 -12 -38 -12s-29.167 4.16699 -45.5 12.5
s-52.833 35.833 -109.5 82.5c-51.333 42 -89 74.667 -113 98c-33.333 24.667 -76.333 62.667 -129 114l-122 124l-55 58c0 14.667 39.667 48 119 100l221 141c80 52.667 120 86 120 100c0 12 -34.667 44.333 -104 97l-195 146c-70 54.667 -105 89.334 -105 104.001
c0 19.333 38 64 114 134l212 192c76 72 114 119.667 114 143zM686.001 126.998c56 36 123.999 83.667 203.999 143l222 168c-45.333 29.333 -97.333 65 -156 107l-165 123l-144 112c-101.333 -50 -191.666 -100.333 -270.999 -151c-86 -54.667 -129 -91 -129 -109
c0 -15.333 27.333 -49 82 -101c46 -44 106 -95.667 180 -155c66 -53.333 125 -99 177 -137z" />
    <glyph glyph-name="nine" unicode="9" horiz-adv-x="1332" 
d="M631 1445c-18 -28.667 -52.333 -76.333 -103 -143l-119 -157c-38 -52 -55.333 -82.667 -52 -92c15.333 -40 75 -91.667 179 -155c92 -56 173.667 -96.667 245 -122c6 4 12 8.33301 18 13l116 115l106 107c43.333 46 82.666 89.667 117.999 131
c-25.333 15.333 -56.666 36 -93.999 62c-18 12.667 -32 22 -42 28l-96 59c-6 4 -19.333 12 -40 24c-15.333 8.66699 -29.333 17 -42 25l-88 47zM218 169.001c36.667 34 74.6631 71.3369 113.996 112.004l125 132l126 137c20.667 27.333 44 55.333 70 84
c8.66699 10 20.667 22.333 36 37c-7.33301 7.33301 -54.333 34.666 -141 81.999c-107.333 58.667 -184.333 102 -231 130c-81.333 48.667 -123 80.667 -125 96c-2 19.333 28.667 70.333 92 153l176 226c62 83.333 90 136.666 84 159.999
c-3.33301 20 5.33398 42.333 26.001 67s40.334 37 59.001 37c2.66699 0 6 -0.666992 10 -2l113 -77c51.333 -33.333 132.333 -79 243 -137l128.5 -72c37.667 -22 66.834 -40 87.501 -54c41.333 -29.333 64 -54 68 -74c2.66699 -20 -6.66602 -40.333 -27.999 -61
c-20.667 -18.667 -44 -47.334 -70 -86.001c-18.667 -27.333 -62.667 -76 -132 -146c-9.33301 -9.33301 -52.333 -45 -129 -107c-24.667 -20 -41.667 -37.333 -51 -52c-22.667 -22.667 -38.667 -40.667 -48 -54c-12.667 -18.667 -33 -43.667 -61 -75
c-51.333 -58.667 -134 -147.334 -248 -266.001l-108 -115c-30 -32.667 -87.333 -91 -172 -175c-13.333 -13.333 -30 -20 -50 -20c-10 0 -21.333 2.16699 -34 6.5s-19 11.5 -19 21.5s7.16699 22.833 21.5 38.5s36.833 33.5 67.5 53.5z" />
    <glyph glyph-name="colon" unicode=":" horiz-adv-x="405" 
d="M115 1528c42.667 63.333 73.666 94.999 92.999 94.999c2.66699 0 5.66699 -1 9 -3c14 -12 41.333 -31.667 82 -59c30.667 -20.667 46 -36.667 46 -48s-21.667 -50.333 -65 -117c-30 -46.667 -55.667 -70 -77 -70c-2.66699 0 -6 0.666992 -10 2
c-19.333 8.66699 -31.666 14.334 -36.999 17.001c-11.333 5.33301 -27 13.333 -47 24c-18 8 -34 18 -48 30c-2.66699 2.66699 -4 6.66699 -4 12c0 20.667 19.333 59.667 58 117zM121.999 508.999c43.333 64 74.001 96 92.001 96c2.66699 0 6 -1.5 10 -4.5l32.5 -23.5
l49.5 -35c31.333 -21.333 47 -37 47 -47c0 -9.33301 -22.333 -48.666 -67 -117.999c-30.667 -48.667 -56.334 -73 -77.001 -73c-4.66699 0 -8 0.666992 -10 2l-84 44l-50 30c-2.66699 2 -4 5.66699 -4 11c0 19.333 20.333 58.666 61 117.999z" />
    <glyph glyph-name="semicolon" unicode=";" horiz-adv-x="369" 
d="M96 1663c42.667 63.333 73.666 94.999 92.999 94.999c2.66699 0 5.66699 -1 9 -3c14 -12 41.333 -31.667 82 -59c30.667 -20.667 46 -36.667 46 -48s-21.667 -50.333 -65 -117c-30 -46.667 -55.667 -70 -77 -70c-2.66699 0 -6 0.666992 -10 2
c-19.333 8.66699 -31.666 14.334 -36.999 17.001c-11.333 5.33301 -27 13.333 -47 24c-18 8 -34 18 -48 30c-2.66699 2.66699 -4 6.66699 -4 12c0 20.667 19.333 59.667 58 117zM102.999 643.999c43.333 64 73.999 96.0029 91.999 96.0029c2.66699 0 5.66699 -1 9 -3
c7.33301 -6.66699 18.333 -15.334 33 -26.001s31.334 -22 50.001 -34c31.333 -21.333 47 -36.333 47 -45c0 -6.66699 -22.333 -44.334 -67 -113.001c-18 -28.667 -49.667 -69.334 -95 -122.001l-77 -92c-6.66699 -8.66699 -15.334 -13 -26.001 -13
c-2 0 -6.33301 0.666992 -13 2c2.66699 12.667 5.66699 25.667 9 39c15.333 26 41 61.333 77 106c5.33301 6.66699 8 12 8 16c0 6 -5.33301 10.667 -16 14l-38 16c-16.667 8.66699 -26.167 13.667 -28.5 15s-9.16602 6 -20.499 14c-3.33301 2 -5 5.66699 -5 11
c0 20 20.333 59.667 61 119z" />
    <glyph glyph-name="less" unicode="&#x3c;" horiz-adv-x="1161" 
d="M299 980c59.333 52.667 154.667 121.999 286 207.999c66 43.333 124.833 84.333 176.5 123s98.167 76.667 139.5 114c10 8.66699 23.333 15.834 40 21.501s37 8.5 61 8.5c40 0 60 -12.667 60 -38c0 -5.33301 -0.833008 -11.833 -2.5 -19.5
s-12.334 -14.834 -32.001 -21.501s-41 -17 -64 -31s-69.833 -44.667 -140.5 -92l-105 -73l-113 -81l-224 -172c-66.667 -52 -121.667 -99 -165 -141l112 -87l181 -142l209 -163l194 -152c38 -29.333 83.333 -57 136 -83c22 -11.333 33 -23 33 -35
c0 -15.333 -18.333 -31.666 -55 -48.999c-27.333 -12 -50.666 -18 -69.999 -18s-35.333 5.33301 -48 16l-83 69l-139 112l-242 187l-242 187l-140 109c-4 15.333 -6 28.333 -6 39c0 24.667 11 40.667 33 48c32 10 102 62 210 156z" />
    <glyph glyph-name="equal" unicode="=" horiz-adv-x="1485" 
d="M514 980c97.333 -9.33301 190.167 -17.668 278.5 -25.001s160.5 -11 216.5 -11c102 -8.66699 170 -13 204 -13c27.333 0 49 3 65 9s32.667 12.667 50 20c0.666992 -4 1 -10.333 1 -19c0 -41.333 -11.333 -74 -34 -98c-26.667 -28.667 -67.334 -43 -122.001 -43
c-78 0 -159.5 4.66699 -244.5 14l-272.5 28.5c-96.667 9.66699 -201.667 14.5 -315 14.5c-43.333 0 -98.333 -14.333 -165 -43c-22 -9.33301 -51 -23.666 -87 -42.999c4.66699 11.333 8.66699 20.333 12 27c20 41.333 40 73 60 95c32 34 83.333 58.333 154 73
c48 10 100.333 15 157 15h28c6.66699 0 11.334 -0.333008 14.001 -1zM514.001 592.998c97.333 -9.33301 190.167 -17.668 278.5 -25.001s160.5 -11 216.5 -11c86 -7.33301 148.667 -11 188 -11c30 0 52.333 3 67 9c27.333 11.333 42.666 17.333 45.999 18
c2.66699 -10.667 4 -21.667 4 -33c0 -41.333 -19.667 -73.333 -59 -96c-36 -20.667 -84.333 -31 -145 -31c-77.333 0 -153.5 4.66699 -228.5 14s-155.333 18.833 -241 28.5s-185.5 14.5 -299.5 14.5c-43.333 0 -98.333 -14.333 -165 -43
c-22 -9.33301 -51 -23.666 -87 -42.999c4.66699 11.333 8.66699 20.333 12 27c20 41.333 40 73 60 95c32 34 83.333 58.333 154 73c48 10 100.333 15 157 15h28c6.66699 0 11.334 -0.333008 14.001 -1z" />
    <glyph glyph-name="greater" unicode="&#x3e;" horiz-adv-x="1089" 
d="M826 517c-59.333 -52.667 -154.664 -122 -285.997 -208c-128 -84 -233.333 -163 -316 -237c-17.333 -16 -51 -26.333 -101 -31c-40 0 -60 13 -60 39c0 5.33301 1 11.666 3 18.999c0.666992 6.66699 11 14 31 22c10.667 4 21.167 8.33301 31.5 13
s20.833 10.334 31.5 17.001c21.333 12.667 39.666 24 54.999 34l87 59l218 154l113 85l111 86c73.333 58 128.333 105.333 165 142l-112 86l-181 143l-209 163l-194 152c-20 14.667 -40.833 28.834 -62.5 42.501s-44.834 26.667 -69.501 39s-37 24.5 -37 36.5
c0 15.333 18.333 31.666 55 48.999c27.333 12 50.666 18 69.999 18s35.333 -5.33301 48 -16l83 -69l139 -112l242 -187l242 -187l140 -109c4 -15.333 6 -28.333 6 -39c0 -24.667 -11 -40.667 -33 -48c-32 -10 -102 -62 -210 -156z" />
    <glyph glyph-name="question" unicode="?" horiz-adv-x="1206" 
d="M216 1579l118.003 89.999c74.667 65.333 124.834 111.5 150.501 138.5s75.5 48.5 149.5 64.5c84 18 164 27 240 27c25.333 0 49.666 1.5 72.999 4.5l71 9.5c12.667 0 21 -3.33301 25 -10s6 -21.334 6 -44.001c-3.33301 -66.667 -6.5 -137.834 -9.5 -213.501
s-4.5 -150.167 -4.5 -223.5c0 -50 1.66699 -91 5 -123c4 -28.667 8.33301 -57 13 -85c0 -1.33301 -30 -19 -90 -53c-54.667 -31.333 -120.667 -79.333 -198 -144c-62 -51.333 -112.333 -81.666 -151 -90.999c-13.333 -3.33301 -20 -18 -20 -44c0 -84 -1 -144.833 -3 -182.5
s-5.33301 -63.167 -10 -76.5l-27 -74c-3.33301 -9.33301 -16 -28.333 -38 -57c-12.667 -16.667 -21 -25 -25 -25c-4.66699 0 -8.5 3.5 -11.5 10.5s-4.5 12.167 -4.5 15.5v37c-2 62.667 -3.66699 123.834 -5 183.501s-2 121.834 -2 186.501c0 19.333 38 56.666 114 111.999
l212 150c76.667 56.667 115 95.334 115 116.001c0 30.667 0.666992 75.167 2 133.5l4.5 195.5c1.66699 72 2.5 109.333 2.5 112c0 18.667 -8.33301 32 -25 40s-40 12 -70 12c-32.667 0 -73.334 -4.33301 -122.001 -13l-149 -27c-20.667 0 -68.334 -33.667 -143.001 -101
l-190 -177l-95 -65c0 2 -10 28.333 -30 79s-27.333 77.334 -22 80.001l46 34c6 4.66699 16 10.334 30 17.001c18 8.66699 29.667 12.667 35 12c7.33301 -0.666992 14.666 -4.33398 21.999 -11.001s11 -13.334 11 -20.001zM470.003 223.999
c37.333 52 61.666 78.001 72.999 78.001c2 0 4.66699 -1 8 -3c9.33301 -8.66699 17.833 -15.834 25.5 -21.501s21.167 -14.5 40.5 -26.5c25.333 -17.333 38 -30 38 -38c0 -6.66699 -18 -38 -54 -94c-23.333 -39.333 -43.666 -59 -60.999 -59c-1.33301 0 -4 0.666992 -8 2
l-67 35l-40 24c-2.66699 2 -4 5.33301 -4 10c0 16.667 16.333 47.667 49 93z" />
    <glyph glyph-name="at" unicode="@" horiz-adv-x="1470" 
d="M549 1261c12 8.66699 21.998 12.9941 29.998 12.9941c8.66699 0 17.334 -4.33301 26.001 -13l49 -55l80 -96l58 -66l56 -61l79 -76l47 -46c10 -8.66699 15 -23 15 -43c0.666992 -3.33301 1 -9 1 -17c0 -4.66699 -0.333008 -15.667 -1 -33s-1 -32 -1 -44
c0 -19.333 -0.333008 -54.166 -1 -104.499s-1 -82.833 -1 -97.5c0 -3.33301 5 -6.33301 15 -9s23 -4 39 -4c58.667 0 108.667 17.333 150 52c58 48.667 87 125 87 229c0 180.667 -58.667 327.667 -176 441c-112 108 -251.333 162 -418 162
c-137.333 0 -256.333 -50.333 -357 -151c-110 -110 -165 -251.667 -165 -425c0 -172 58.333 -309 175 -411c105.333 -92 233 -138 383 -138c16.667 0 31.334 -0.166992 44.001 -0.5s19 -3.16602 19 -8.49902c0 -3.33301 -1.66699 -8.66602 -5 -15.999
c-8 -18 -12.333 -27.667 -13 -29c-5.33301 -13.333 -13.666 -22.5 -24.999 -27.5s-26 -7.5 -44 -7.5c-10.667 0 -27.667 1.33301 -51 4s-40.333 4 -51 4c-36.667 0 -93.334 22.333 -170.001 67c-95.333 56 -173.333 123.667 -234 203c-78.667 104 -118 218 -118 342
c0 218 64 387 192 507c107.333 100.667 250.333 159.667 429 177c9.33301 0.666992 17.666 1.16699 24.999 1.5s13.666 0.5 18.999 0.5c89.333 0 175 -17.667 257 -53c105.333 -45.333 189 -115 251 -209c76 -114.667 114 -259 114 -433c0 -103.333 -24.667 -186 -74 -248
c-34.667 -44 -81 -76.667 -139 -98l-74 -23c0.666992 -5.33301 -15.666 -10.5 -48.999 -15.5s-66 -7.5 -98 -7.5c-24 0 -39.333 5.66699 -46 17c-2.66699 6 -4.5 11.833 -5.5 17.5s-1.5 13.5 -1.5 23.5c2 15.333 6 31 12 47c3.33301 10 5.5 17.167 6.5 21.5
s1.5 8.83301 1.5 13.5l1 123l1 110c0 20.667 1.16699 34.5 3.5 41.5s3.5 13.167 3.5 18.5c0 6.66699 -1.33301 13 -4 19c-4 14 -15.667 32.333 -35 55c-19.333 24.667 -51.333 60.334 -96 107.001c-62.667 64.667 -96 100.334 -100 107.001s-9.16699 10.5 -15.5 11.5
s-13.166 1.5 -20.499 1.5l10 -296c0 -25.333 0.333008 -70.333 1 -135s1 -116.334 1 -155.001c0 -25.333 1.33301 -40.833 4 -46.5s5.16699 -15.667 7.5 -30s4.83301 -27.166 7.5 -38.499c2 -12.667 -3 -22.5 -15 -29.5s-20 -8.83301 -24 -5.5
c-2 2.66699 -6.16699 4.33398 -12.5 5.00098s-26.5 1 -60.5 1c-20.667 0 -31 4.66699 -31 14c0 4 2.66699 9.33301 8 16c16 19.333 24 36 24 50c0 82.667 -0.333008 155.167 -1 217.5l-2 181.5l-6 231l-2 111c0 19.333 3.66699 32 11 38z" />
    <glyph glyph-name="A" unicode="A" 
d="M120 1731c12 9.33301 20.668 15.8271 26.001 19.4941s10.333 5.5 15 5.5c7.33301 0 19 -8.66699 35 -26l98 -110l161 -191l115 -133c37.333 -42.667 75 -83 113 -121l157 -152c14 -14 25.333 -28.667 34 -44c8 -16.667 16.333 -33 25 -49
c8.66699 -8 15.834 -19.333 21.501 -34s8.5 -31.667 8.5 -51c0 -32.667 -0.333008 -65 -1 -97l-2 -92c0 -20.667 -0.666992 -75.667 -2 -165s-2 -168.666 -2 -237.999c0 -126.667 8.66699 -200 26 -220c4 -5.33301 6 -9 6 -11c0 -6 -9.33301 -10.5 -28 -13.5
s-49 -4.5 -91 -4.5c-48.667 0 -79.667 11.667 -93 35c-9.33301 18.667 -14 39.667 -14 63c0 8 0.666992 17.667 2 29s3.66602 23.833 6.99902 37.5s8.33301 29.167 15 46.5c11.333 32 17 55.333 17 70c0 28.667 0.333008 70.334 1 125.001s1 95 1 121
c0 28.667 1.66699 59.667 5 93s5 57.666 5 72.999c0 17.333 1.66699 39 5 65c1.33301 10 2 19 2 27c0 9.33301 -0.333008 16.333 -1 21s-3.33398 13.334 -8.00098 26.001c-4 14 -14.667 32 -32 54c-2 2.66699 -14.667 18.334 -38 47.001c-14.667 18 -46 50.667 -94 98
c-41.333 40 -71.333 70 -90 90c-128 132 -198.333 207.333 -211 226c-9.33301 14.667 -18 25.334 -26 32.001c-14 12.667 -28.333 18.334 -43 17.001l20 -520c0 -58 0.666992 -161.667 2 -311s2 -238.666 2 -267.999c0 -50.667 3.33301 -84 10 -100s15.667 -59.667 27 -131
c3.33301 -22 -4 -40 -22 -54c-14.667 -11.333 -30 -17 -46 -17c-4.66699 0 -7.5 0.833008 -8.5 2.5s-1.5 3.83398 -1.5 6.50098c-2.66699 2.66699 -39 4 -109 4c-42 0 -63 9 -63 27c0 8 5.33301 19 16 33c32 38 48 71.333 48 100c0 134.667 -0.5 242.167 -1.5 322.5
s-2 173.166 -3 278.499s-1.5 171 -1.5 197l-12 463l-4 222c0 38 7.33301 63.333 22 76z" />
    <glyph glyph-name="B" unicode="B" horiz-adv-x="1125" 
d="M259 1463l9 -354l12 -353l-5 -5c-0.666992 -0.666992 -0.5 -1 0.5 -1s25.833 17.333 74.5 52c68.667 48.667 155.667 115 261 199l-40 49l-35 44l-85 112zM106 1583c0 20.667 -13.667 52.3291 -41 94.9961c-5.33301 9.33301 -8 17 -8 23c0 18.667 22.667 28 68 28
c13.333 0 24 -0.333008 32 -1c10.667 -2 18.667 -3 24 -3c28 -4 49.833 -10.667 65.5 -20s33.834 -28.666 54.501 -57.999l86 -123c36 -54 90 -127 162 -219c116.667 -154 185.667 -242.667 207 -266c5.33301 -5.33301 8 -11.666 8 -18.999c0 -16 -14.667 -37.5 -44 -64.5
s-84.166 -67.833 -164.499 -122.5s-140.5 -100 -180.5 -136l189 -168l195 -177c99.333 -95.333 160 -152 182 -170c20.667 -15.333 58 -26.666 112 -33.999c-14 -77.333 -47 -116 -99 -116c-68 0 -108.667 9.66699 -122 29c-12.667 20.667 -77.334 84 -194.001 190
c-38 34 -92.167 85.167 -162.5 153.5s-131.5 120.5 -183.5 156.5c0 -16.667 0.833008 -44.834 2.5 -84.501s2.5 -67.167 2.5 -82.5c0 -33.333 0.333008 -62 1 -86l2 -69c0 -16 2.16699 -31.167 6.5 -45.5s11.166 -30.5 20.499 -48.5c16 -27.333 27.333 -52 34 -74
c2 -6 3 -11.333 3 -16c0 -12 -5.66699 -21.667 -17 -29c-4.66699 -3.33301 -12.667 -5.33301 -24 -6s-27.666 -1 -48.999 -1h-42c-18.667 0 -42.334 1.5 -71.001 4.5s-50.667 5.16699 -66 6.5c-23.333 0 -35 8.33301 -35 25c0 21.333 18.333 53.333 55 96
c0 14 1.33301 48.333 4 103s4 102.334 4 143.001c0 84.667 0.333008 160.667 1 228l2 193c0 51.333 -1.16699 126 -3.5 224s-3.5 163.333 -3.5 196c0 58.667 -2.16699 127.334 -6.5 206.001s-6.5 125 -6.5 139z" />
    <glyph glyph-name="C" unicode="C" horiz-adv-x="1125" 
d="M120 1505c0 62.667 -12.667 116.334 -38 161.001c-4.66699 9.33301 -7 17 -7 23c0 30 44 45 132 45c82 0 123 -12 123 -36c0 -7.33301 -4 -16 -12 -26c-33.333 -41.333 -50 -80.333 -50 -117v-193v-143v-149v-213c48 20.667 114.333 59.334 199 116.001
s137.667 102.334 159 137.001l117 182c54 85.333 81 148.333 81 189c0 78 -8.66699 143.333 -26 196c-2 7.33301 -3 14 -3 20c0 40.667 46.667 61 140 61c54 0 81 -13.333 81 -40c0 -10 -3.33301 -21.333 -10 -34c-13.333 -25.333 -23.333 -49.333 -30 -72s-10 -46 -10 -70
c0 -49.333 -30 -125.833 -90 -229.5s-116.333 -191.5 -169 -263.5c-40 -56.667 -100.167 -111.834 -180.5 -165.501s-166.5 -103.5 -258.5 -149.5v-275c0 -29.333 1 -74.333 3 -135s3 -107 3 -139c0 -17.333 10.667 -50.333 32 -99c4 -9.33301 6 -17.333 6 -24
c0 -33.333 -39.333 -50 -118 -50c-68 0 -110.667 7.33301 -128 22c-11.333 10.667 -17 23 -17 37c0 6.66699 0.666992 11.667 2 15c7.33301 20 19.333 39.167 36 57.5s25.667 32.166 27 41.499v454c0 42 0.166992 88.667 0.5 140s0.833008 107.666 1.5 168.999l3 257z" />
    <glyph glyph-name="D" unicode="D" horiz-adv-x="1053" 
d="M96 186l-3 660.001l-2 650c0 36 -5 62.5 -15 79.5s-16 32.5 -18 46.5c0 14 7.66699 28.833 23 44.5s50 40.5 104 74.5c21.333 12.667 33.666 24.667 36.999 36c0.666992 4.66699 3.83398 5.83398 9.50098 3.50098s13.5 -8.5 23.5 -18.5l54 -55l90 -95l78 -88
c18 -21.333 46 -52 84 -92l123 -128l134 -141c24.667 -26.667 47.334 -44.667 68.001 -54c17.333 -4 35 -7.66699 53 -11c4.66699 -7.33301 7 -15.333 7 -24c0 -18 -8.83301 -34.833 -26.5 -50.5s-35.834 -23.5 -54.501 -23.5c-8 0 -15.667 2 -23 6
c-41.333 24 -69.333 41.333 -84 52c-20 14.667 -38 31 -54 49l-191 192c-33.333 40.667 -72 82.334 -116 125.001c-26.667 26 -62 58.333 -106 97c-30.667 26.667 -46.334 40 -47.001 40l4 -42l6 -165c0 -34.667 0.333008 -96 1 -184s1 -147.667 1 -179
c20 -24 51 -56.667 93 -98l125 -117l104 -97l107 -104c40.667 -37.333 78.667 -64 114 -80l58 -24c16.667 -8.66699 23.667 -21.667 21 -39c-3.33301 -23.333 -10.333 -39.666 -21 -48.999s-24.334 -14 -41.001 -14c-14.667 0 -31 3.33301 -49 10
c-18 2.66699 -33 5.33398 -45 8.00098s-27.333 12 -46 28l-130 111l-117 115c-17.333 18 -49.666 49.667 -96.999 95c-49.333 47.333 -76.333 72.333 -81 75c0 -32.667 1.16699 -71.834 3.5 -117.501s6.5 -99.834 12.5 -162.501c2.66699 -26.667 4.66699 -61.667 6 -105
s2 -79.333 2 -108v-19v-17v-15v-12c0 -12.667 -0.166992 -25.334 -0.5 -38.001s-0.5 -25.334 -0.5 -38.001v-11c0 -8.66699 5.83301 -26.667 17.5 -54s23.167 -49.333 34.5 -66c3.33301 -4 5 -8 5 -12s-5.66699 -6 -17 -6c-24 2 -45.167 3.66699 -63.5 5
s-38.166 2 -59.499 2h-71h-12c-26 0 -44.667 2 -56 6c-14 6 -21 14.333 -21 25c0 1.33301 0.666992 4.66602 2 9.99902c6 15.333 18 32.5 36 51.5s27 37.833 27 56.5z" />
    <glyph glyph-name="E" unicode="E" horiz-adv-x="1062" 
d="M266 1043l-1.00293 -120.999c0 -19.333 -1.33301 -55.666 -4 -108.999s-4 -97.333 -4 -132c0 -32 0.666992 -86 2 -162s2 -118 2 -126c0 -38 2.83301 -84 8.5 -138s8.5 -87.333 8.5 -100c0 -35.333 -0.833008 -60.5 -2.5 -75.5s-6.16699 -25.167 -13.5 -30.5
s-22.333 -8.33301 -45 -9s-46.667 -1 -72 -1c-54.667 0 -82 20.667 -82 62c0 5.33301 1.33301 15.333 4 30c5.33301 24.667 14.333 50.5 27 77.5s19.334 43.5 20.001 49.5l7 131l5 212l4 220l2 157l-1 157l-1 215l-1 190v83c0.666992 5.33301 1 9 1 11
c0 18.667 -4.66699 38.667 -14 60c-1.33301 3.33301 -10.666 20.666 -27.999 51.999c-4 7.33301 -6 13.333 -6 18c0 8.66699 8.33301 14.667 25 18s46 5 88 5c78 0 117 -16 117 -48c0 -7.33301 -2 -15.666 -6 -24.999c-22 -48 -33 -92 -33 -132
c0 -109.333 -2 -181.666 -6 -216.999c-2 -26 -3 -67 -3 -123v-39c17.333 -16.667 47 -40 89 -70l151 -104l257 -172c0 16.667 1.66699 59 5 127s5 116.667 5 146l-6 236l-5 201c0 25.333 -2.33301 50.333 -7 75c-3.33301 12.667 -6.33301 25.667 -9 39
c0 48 11.667 79.667 35 95l22.5 18c4.33301 3.33301 11.5 5 21.5 5c99.333 0 149 -12.333 149 -37c0 -6 -2.33301 -11.667 -7 -17c-14.667 -17.333 -26.334 -41.833 -35.001 -73.5s-13 -69.834 -13 -114.501s-1.66699 -90 -5 -136l-10.5 -141
c-3.66699 -48 -5.5 -84 -5.5 -108l-1 -303c0 -32.667 0.666992 -87.5 2 -164.5s2 -119.5 2 -127.5c0 -45.333 8.33301 -115 25 -209c8 -45.333 12 -87 12 -125c0 -28.667 12 -58 36 -88c8 -10 12 -20 12 -30c0 -16 -12.667 -32.667 -38 -50
c-43.333 -26.667 -95.666 -46 -156.999 -58c-9.33301 -1.33301 -16 -2 -20 -2c-20.667 0 -31 11.667 -31 35c0 5.33301 0.5 12.666 1.5 21.999s2.83301 21.666 5.5 36.999c18.667 110 28 229 28 357c0 65.333 -0.666992 115 -2 149s-3.66602 62.667 -6.99902 86
c-20 16 -53.5 39.833 -100.5 71.5l-156.5 103.5l-115 77c-54 37.333 -96 67.333 -126 90z" />
    <glyph glyph-name="F" unicode="F" horiz-adv-x="1341" 
d="M1174 1597l-3.00098 -693.997l-2 -709c0 -13.333 9.66699 -30 29 -50c20 -18.667 34 -37.667 42 -57c2.66699 -8 4 -13.333 4 -16c0 -11.333 -7 -22 -21 -32c-19.333 -12.667 -67.333 -19 -144 -19c-91.333 0 -147.666 8 -168.999 24
c-11.333 9.33301 -17 19.666 -17 30.999c0 7.33301 2.66699 15.666 8 24.999c14 20.667 34.333 40.834 61 60.501s40.334 33.5 41.001 41.5l-1 186v23v17v13c0 28.667 -1.66699 43.334 -5 44.001l-117.5 59l-149.5 81c-106.667 59.333 -211 109.666 -313 150.999
c-206 80 -325.333 132.333 -358 157c-9.33301 7.33301 -14 16 -14 26c0 24 27.333 56.333 82 97l404 301c174.667 131.333 311.667 243.666 411 336.999c50 47.333 77.167 74.166 81.5 80.499s35.166 9.5 92.499 9.5c40 0 60 -13.667 60 -41zM295.999 1007l166.001 -64
c53.333 -20 97.666 -37.333 132.999 -52c45.333 -18.667 79 -33.667 101 -45l303 -162c0 49.333 -0.333008 123.333 -1 222s-1 172.667 -1 222v445l-209 -177l-146 -121c-44 -36 -92 -73 -144 -111c-5.33301 -4 -34.333 -27.333 -87 -70
c-40.667 -33.333 -79 -62.333 -115 -87z" />
    <glyph glyph-name="G" unicode="G" horiz-adv-x="1206" 
d="M254 800c63.333 10 108.668 23.6641 136.001 40.9971l96 63c66 45.333 141.667 111.333 227 198c81.333 84 141 161.667 179 233c19.333 36.667 35.333 82.334 48 137.001c7.33301 31.333 11 61 11 89c0 24 -2.66699 49.333 -8 76c-2 7.33301 -3.33301 15 -4 23
s-1 16 -1 24c0 31.333 10 53.666 30 66.999c16.667 9.33301 33.667 14 51 14c16.667 0 34.667 -4 54 -12c15.333 -7.33301 23 -19.333 23 -36c0 -6.66699 -1.66699 -15.667 -5 -27c-7.33301 -25.333 -11 -47.333 -11 -66c0 -8.66699 0.333008 -15 1 -19l-35 -176
c-3.33301 -20.667 -9 -41.667 -17 -63s-20 -45.666 -36 -72.999c-38 -68 -104.667 -153.667 -200 -257c-92.667 -100.667 -181 -179.334 -265 -236.001c-40 -27.333 -78.333 -52 -115 -74c-14.667 -8.66699 -34.334 -16.667 -59.001 -24s-55 -14 -91 -20
c0 -34 -0.333008 -79.167 -1 -135.5s-1 -95.5 -1 -117.5c0 -29.333 0.833008 -73.166 2.5 -131.499s2.5 -96.166 2.5 -113.499c0 -16.667 10.333 -49.667 31 -99c4 -9.33301 6 -17.333 6 -24c0 -33.333 -39 -50 -117 -50c-68 0 -110.667 7.33301 -128 22
c-11.333 10.667 -17 23 -17 37c0 6.66699 0.666992 11.667 2 15c7.33301 20 19.333 39.167 36 57.5s25.667 32.166 27 41.499v455c0 42 0.166992 88.667 0.5 140s0.833008 107.666 1.5 168.999l3 257l1 300c0 62.667 -12.667 116.334 -38 161.001
c-4.66699 8.66699 -7 16.334 -7 23.001c0 30 43.667 45 131 45c82.667 0 124 -12 124 -36c0 -7.33301 -4 -16 -12 -26c-33.333 -41.333 -50 -80.333 -50 -117v-147v-40v-47v-166c42.667 14 86 33.167 130 57.5s78.333 49.833 103 76.5
c27.333 29.333 52.833 61.833 76.5 97.5s35.5 73.5 35.5 113.5c0 39.333 -2 74.333 -6 105s-10.667 59 -20 85c-2 7.33301 -3 13.666 -3 18.999c0 37.333 46.667 56 140 56c57.333 0 86 -15 86 -45c0 -10 -2.33301 -20 -7 -30c-20.667 -50 -36.667 -97 -48 -141
c-6 -26.667 -13.5 -53.167 -22.5 -79.5s-20.833 -55.166 -35.5 -86.499c-26 -57.333 -73.833 -116.166 -143.5 -176.499s-126.5 -101.833 -170.5 -124.5c-40 -20 -78 -33.667 -114 -41c0 -30.667 -0.333008 -50 -1 -58c-3.33301 -20 -6 -37.5 -8 -52.5s-3 -34.833 -3 -59.5
c0 -14 0.333008 -24.833 1 -32.5s2 -20.5 4 -38.5z" />
    <glyph glyph-name="H" unicode="H" horiz-adv-x="1306" 
d="M914 670c-64 -70 -164.672 -161.336 -302.005 -274.003c-65.333 -53.333 -126.666 -107 -183.999 -161c-54 -51.333 -103.333 -101.666 -148 -150.999c-18 -19.333 -53.667 -32.666 -107 -39.999c-41.333 0 -62 16.667 -62 50c0 7.33301 1 16 3 26
c0.666992 9.33301 11.334 19 32.001 29c10.667 4.66699 21.834 10.334 33.501 17.001s22.834 14 33.501 22l149 123l230 203l119 112l116 113c77.333 77.333 135.333 139.666 174 186.999l-45 45c-15.333 15.333 -39.666 38.333 -72.999 69l-191 187l-219 215l-108 105
l-96 96c-44 40 -92 76.333 -144 109c-23.333 15.333 -35 30.666 -35 45.999c0 20 19.333 41.333 58 64c28 16 52.333 24 73 24c20 0 37 -7.33301 51 -22l88 -90c16 -18 64.667 -67 146 -147l255 -247l255 -247l148 -143c4 -19.333 6 -35.666 6 -48.999
c0 -32.667 -11.667 -54.667 -35 -66c-32 -11.333 -105.667 -79.666 -221 -204.999z" />
    <glyph glyph-name="I" unicode="I" horiz-adv-x="479" 
d="M315 183c0 -56 10.333 -95.333 31 -118c2.66699 -2.66699 4 -5.66699 4 -9c0 -18 -52.667 -27 -158 -27c-72.667 0 -109 15.667 -109 47c0 10.667 4 23.667 12 39c32.667 60 49 136.333 49 229c0 66.667 -0.833008 166.667 -2.5 300s-2.5 220.666 -2.5 261.999l-4 574
c0 49.333 -15 93.666 -45 132.999s-51.667 70 -65 92c-6 11.333 -9 21 -9 29c0 12 5 21.167 15 27.5s31.5 11.5 64.5 15.5s73.167 6 120.5 6c74 0 111 -12.333 111 -37c0 -3.33301 -1 -7.66602 -3 -12.999c-12 -33.333 -18 -94.666 -18 -183.999
c0 -70 0.666992 -193.5 2 -370.5s2 -281.5 2 -313.5z" />
    <glyph glyph-name="J" unicode="J" horiz-adv-x="1026" 
d="M93 1532c0 62.667 -12.6602 116.333 -37.9932 161c-4.66699 9.33301 -7 17 -7 23c0 30 44 45 132 45c82 0 123 -12 123 -36c0 -7.33301 -4 -16 -12 -26c-33.333 -41.333 -50 -80.333 -50 -117v-193v-143v-149v-150c23.333 10 48.333 22.667 75 38
c31.333 18 66 39.667 104 65s66 47 84 65c12.667 12.667 25.667 29.334 39 50.001c27.333 36.667 51.166 70 71.499 100s37.833 59.667 52.5 89c11.333 22.667 19.166 41.834 23.499 57.501s6.5 29.834 6.5 42.501c0 8.66699 -0.333008 15.667 -1 21
c-2.66699 20.667 -4 31.667 -4 33c0 40.667 -1.66699 70.667 -5 90s-10.333 45.333 -21 78c-2 7.33301 -3 14 -3 20c0 40.667 46.667 61 140 61c54 0 81 -13.333 81 -40c0 -10 -3.33301 -21.333 -10 -34c-12 -22 -21.167 -44.833 -27.5 -68.5s-10.5 -48.167 -12.5 -73.5
c0 -44 -2 -73.833 -6 -89.5s-18.333 -51.167 -43 -106.5c-20.667 -46.667 -47 -91.667 -79 -135l-82 -106c-22 -30.667 -45.667 -58.334 -71 -83.001c-29.333 -28.667 -63.666 -56 -102.999 -82c-18 -12 -38.333 -24.667 -61 -38
c-2.66699 -1.33301 -6.33398 -3.66602 -11.001 -6.99902l91 -56c70.667 -44 120 -77 148 -99c64 -50.667 117.667 -109 161 -175c55.333 -84.667 97 -184.667 125 -300c8.66699 -36 23 -67.333 43 -94c8 -10.667 12 -19.667 12 -27c0 -8.66699 -4.33301 -22 -13 -40
c-13.333 -29.333 -26.333 -49.5 -39 -60.5s-27.667 -16.5 -45 -16.5c-10.667 0 -23.334 2 -38.001 6s-24.834 6.66699 -30.501 8s-9.33398 19.5 -11.001 54.5s-3.16699 58.833 -4.5 71.5c-10.667 98.667 -16.334 149 -17.001 151c-8 44 -23.333 75.333 -46 94
c-14 54.667 -57.333 115.667 -130 183c-59.333 54.667 -128 105 -206 151c-70.667 41.333 -116.334 60.666 -137.001 57.999v-317c0 -29.333 1 -74.333 3 -135s3 -107 3 -139c0 -17.333 10.667 -50.333 32 -99c4 -9.33301 6 -17.333 6 -24c0 -33.333 -39.333 -50 -118 -50
c-68 0 -110.667 7.33301 -128 22c-11.333 10.667 -17 23 -17 37c0 6.66699 0.666992 11.667 2 15c7.33301 20 19.333 39.167 36 57.5s25.667 32.166 27 41.499v454c0 42 0.166992 88.667 0.5 140s0.833008 107.666 1.5 168.999l3 257z" />
    <glyph glyph-name="K" unicode="K" horiz-adv-x="1098" 
d="M138 1523c0 62.667 -12.667 116.334 -38 161.001c-4.66699 9.33301 -7 17 -7 23c0 30 44 45 132 45c82 0 123 -12 123 -36c0 -7.33301 -4 -16 -12 -26c-33.333 -41.333 -50 -80.333 -50 -117v-193v-143v-149v-213c48 20.667 114.333 59.334 199 116.001
s137.667 102.334 159 137.001l117 182c54 85.333 81 148.333 81 189c0 78 -8.66699 143.333 -26 196c-2 7.33301 -3 14 -3 20c0 40.667 46.667 61 140 61c54 0 81 -13.333 81 -40c0 -10 -3.33301 -21.333 -10 -34c-13.333 -25.333 -23.333 -49.333 -30 -72s-10 -46 -10 -70
c0 -49.333 -30 -125.833 -90 -229.5s-116.333 -191.5 -169 -263.5c-40 -56.667 -100.167 -111.834 -180.5 -165.501s-166.5 -103.5 -258.5 -149.5v-275c0 -29.333 1 -74.333 3 -135s3 -107 3 -139c0 -17.333 10.667 -50.333 32 -99c4 -9.33301 6 -17.333 6 -24
c0 -33.333 -39.333 -50 -118 -50c-68 0 -110.667 7.33301 -128 22c-11.333 10.667 -17 23 -17 37c0 6.66699 0.666992 11.667 2 15c7.33301 20 19.333 39.167 36 57.5s25.667 32.166 27 41.499v454c0 42 0.166992 88.667 0.5 140s0.833008 107.666 1.5 168.999l3 257z" />
    <glyph glyph-name="L" unicode="L" horiz-adv-x="1197" 
d="M685 988l151.001 90.999c28.667 16.667 63.667 47 105 91c33.333 35.333 65 77.833 95 127.5s53.667 86.5 71 110.5c10.667 15.333 19.667 23 27 23c4 0 6.83301 -2.16699 8.5 -6.5s2.5 -13.166 2.5 -26.499c0 -25.333 -3.5 -64.5 -10.5 -117.5
s-54.5 -110.167 -142.5 -171.5l-141 -93l-154 -97l-3 -143v-247l1 -237c0 -70.667 1 -109 3 -115c10 -46.667 20 -84.667 30 -114c5.33301 -14 -2.83398 -25.333 -24.501 -34s-55.5 -13 -101.5 -13c-97.333 0 -146 14 -146 42c0 4 1 8.66699 3 14
c10.667 24.667 19 43.334 25 56.001l22 46v98l1 214l-1 220v114l-227 -135c-52 -32 -97 -71 -135 -117c-20 -25.333 -33.667 -56 -41 -92l-12 -80c-1.33301 -9.33301 -2.33301 -14.666 -3 -15.999c-2 1.33301 -3.66699 3 -5 5l-29 118c-2 9.33301 -3 18.666 -3 27.999
c0 34.667 15.667 69.667 47 105c39.333 44 87.333 85.333 144 124s111 70.667 163 96l102 50l3 570c0 74.667 -2.66699 117 -8 127c-35.333 59.333 -51 100.666 -47 123.999c4.66699 17.333 52.667 26 144 26c36 0 63.833 -3.16699 83.5 -9.5s29.5 -14.833 29.5 -25.5
c0 -20 -7.33301 -61.333 -22 -124l-9 -53l-2 -81l2 -166z" />
    <glyph glyph-name="M" unicode="M" horiz-adv-x="882" 
d="M240 1536c0 -32.667 1.33398 -71.668 4.00098 -117.001c6 -102 9 -163.667 9 -185c0 -30 2.33301 -78.333 7 -145s7 -119 7 -157c4 0.666992 8.33301 1.33398 13 2.00098c13.333 7.33301 44.666 26 93.999 56c90.667 54.667 191 123 301 205l-151 121l-93 75l-81 62z
M78.001 1623c0 19.333 -13 44.6689 -39 76.002c-5.33301 6.66699 -8 12.334 -8 17.001c0 21.333 41 38.666 123 51.999l26 2c3.33301 -2 6 -4 8 -6c5.33301 -4.66699 12.666 -11.667 21.999 -21l100 -86c24.667 -20.667 56.167 -45.334 94.5 -74.001l144.5 -103
c98.667 -70 169.334 -124 212.001 -162c40 -36 60 -64.333 60 -85c0 -19.333 -14 -37.666 -42 -54.999c-28 -16 -59 -40 -93 -72c-25.333 -23.333 -83.5 -64 -174.5 -122s-156.5 -105.333 -196.5 -142l189 -123l176 -107c114 -66.667 168 -111.334 162 -134.001
c-6 -20.667 -97 -89.667 -273 -207l-140 -94l-223 -143c-12 -8 -26 -12 -42 -12s-33 4.33301 -51 13c-23.333 10.667 -35 30 -35 58c0 14 3 30.667 9 50c0 8 2 55 6 141c2 43.333 3 83 3 119l2 440c0 46.667 -0.666992 98 -2 154c-3.33301 140 -5 231.333 -5 274
c0 60.667 -2.16699 131.167 -6.5 211.5s-6.5 127.166 -6.5 140.499zM250.001 163.002c138 80 285.668 174.667 443.001 284c-152.667 88 -298.334 181 -437.001 279l-4 -282c0 -30.667 -0.333008 -77.167 -1 -139.5s-1 -109.5 -1 -141.5z" />
    <glyph glyph-name="N" unicode="N" horiz-adv-x="1575" 
d="M680 847c-144.667 18 -294.336 110.661 -449.003 277.994c-68 74 -110.833 163.667 -128.5 269s-48.5 179 -92.5 221c-2.66699 2.66699 -4 6 -4 10c0 7.33301 5 18 15 32l50 68c33.333 44 58.333 66 75 66c4.66699 0 8.66699 -1.66699 12 -5
c44.667 -46.667 67 -132 67 -256c0 -122.667 40.333 -233 121 -331c52.667 -64.667 116.5 -116.5 191.5 -155.5s121.833 -59.833 140.5 -62.5l-1 131c0 22 -0.666992 59.833 -2 113.5s-2 83.834 -2 90.501c0 24.667 -1.33301 59.334 -4 104.001s-4 76.667 -4 96
c0 27.333 -1.5 51.166 -4.5 71.499s-6.66699 36 -11 47s-7.66602 21.5 -9.99902 31.5s-3.5 19.667 -3.5 29c0 23.333 8 41 24 53c12.667 8.66699 26 15.167 40 19.5s30 6.5 48 6.5c35.333 0 68.666 -7.33301 99.999 -22c20 -9.33301 30 -27.666 30 -54.999
c0 -14 -3 -31.667 -9 -53c-8 -26.667 -15.833 -59.167 -23.5 -97.5s-11.5 -68.833 -11.5 -91.5v-221v-257c51.333 0 114.333 24 189 72s126.667 95 156 141c26.667 42 51.334 85.333 74.001 130s44.667 92.334 66 143.001c37.333 92 56 167 56 225
c0 45.333 11.333 71.333 34 78c4.66699 0.666992 9.33398 1.5 14.001 2.5s10 1.5 16 1.5c14 0 28 -3 42 -9c26 -12 39 -28 39 -48c0 -9.33301 -2.33301 -18.666 -7 -27.999c-16.667 -33.333 -25 -55.333 -25 -66c0 -23.333 -20.167 -87.666 -60.5 -192.999
s-98.166 -209 -173.499 -311c-66.667 -90.667 -143.167 -155.167 -229.5 -193.5s-150.5 -61.5 -192.5 -69.5c0 -40 0.833008 -101.167 2.5 -183.5s2.5 -136.166 2.5 -161.499c0 -54.667 1.5 -115.667 4.5 -183s4.5 -103.333 4.5 -108c0 -30.667 11.667 -53.667 35 -69
c16.667 -10.667 25 -27 25 -49c0 -3.33301 -0.166992 -7 -0.5 -11s-1.5 -10 -3.5 -18c-6 -18 -46 -32 -120 -42c-32 -4 -58.333 -6 -79 -6c-25.333 0 -42 4 -50 12s-14 16.5 -18 25.5s-6 17.5 -6 25.5c0 9.33301 2.33301 18.333 7 27c14 24 24 50.333 30 79
c2.66699 14.667 4.66699 34.5 6 59.5s2 52.833 2 83.5v201v167v121l4 11z" />
    <glyph glyph-name="O" unicode="O" horiz-adv-x="1962" 
d="M1819 199c62.667 -22.667 101.002 -33.168 115.002 -31.501s21 -0.166016 21 -5.49902c0 -10.667 -11.333 -30.667 -34 -60c-28.667 -40.667 -74.334 -65.334 -137.001 -74.001c-12 -1.33301 -20.333 -2 -25 -2c-50.667 0 -99 23.667 -145 71l-65 148l-144 333l-152 353
l-93 216c-106 231.333 -167.333 350 -184 356c-15.333 5.33301 -42.333 -36 -81 -124l-118 -250l-89 -186l-100 -203l-67 -136l-68 -133l-68 -131l-89 -164c-27.333 -48 -50.333 -86.333 -69 -115c-7.33301 -10.667 -20 -18.167 -38 -22.5s-42 -6.5 -72 -6.5
c-46 5.33301 -69 27.333 -69 66c0 8 1.16699 17.167 3.5 27.5s21.833 29.833 58.5 58.5c17.333 12.667 33 25.834 47 39.501s26 27.167 36 40.5c18.667 26 55.667 90.333 111 193l57.5 111l59 113.5l66.5 131.5l64 133l64 135l65 136c65.333 142 115 256 149 342
c24 62 36 109.333 36 142c0 25.333 -7.66699 41.666 -23 48.999c-27.333 14.667 -41 35.667 -41 63c0 6.66699 0.5 12.834 1.5 18.501s8 11 21 16s31.5 7.5 55.5 7.5c26 0 46.167 1 60.5 3s24.833 5 31.5 9c24.667 9.33301 75.167 -69 151.5 -235l250.5 -564l89 -201
l87 -193l84 -186c42 -88 78.667 -156.5 110 -205.5s56.666 -76.833 75.999 -83.5z" />
    <glyph glyph-name="P" unicode="P" horiz-adv-x="1251" 
d="M89 1605c0 70 -7.33203 118.334 -21.999 145.001c-2.66699 6.66699 -4 11 -4 13c0 18.667 28 28 84 28s87.167 -2.5 93.5 -7.5s32.833 -32.5 79.5 -82.5c100.667 -107.333 237.334 -225.666 410.001 -354.999c170.667 -127.333 305.667 -221.666 405 -282.999
c57.333 -35.333 86 -65.333 86 -90c0 -10.667 -5 -20 -15 -28c-34 -26.667 -154 -80.667 -360 -162c-100 -40 -205.167 -90.333 -315.5 -151s-198.5 -107.334 -264.5 -140.001c-2 0 -3 -20.333 -3 -61v-47v-75v-14v-12c0 -30.667 -1.33301 -55.334 -4 -74.001
c-2 -14 7.66699 -31.333 29 -52c21.333 -19.333 37.666 -39.333 48.999 -60c4 -7.33301 6 -14 6 -20c0 -10 -5.33301 -19.667 -16 -29c-16 -14 -63.667 -21 -143 -21c-60.667 0 -100.334 6.33301 -119.001 19c-16.667 14 -24 30.333 -22 49
c2.66699 18.667 10.667 38.167 24 58.5s20 36.166 20 47.499l1 710zM992.001 963.001l-238 166l-128 90l-128 101l-239 196c0 -73.333 0.5 -166.333 1.5 -279s1.5 -170 1.5 -172c0 -50 0.333008 -125.167 1 -225.5s1 -175.5 1 -225.5l315 169c46 24 103.333 51 172 81
s149 63 241 99z" />
    <glyph glyph-name="Q" unicode="Q" horiz-adv-x="1278" 
d="M307 1752c-8 -10 8.99805 -34.668 50.998 -74.001s83 -82.666 123 -129.999c128.667 -154 207 -231 235 -231c4.66699 -0.666992 19.5 12.333 44.5 39l89.5 100l148 188c14 16.667 46 58.334 96 125.001c15.333 20 25.666 32.667 30.999 38c20.667 -14 40 -28 58 -42
c36.667 -28 53.667 -48.333 51 -61c-1.33301 -6.66699 -10.666 -20.334 -27.999 -41.001c-40.667 -48.667 -62 -75 -64 -79c-2.66699 -4.66699 -9 -2.66699 -19 6c-23.333 20.667 -36.666 29 -39.999 25l-78 -104l-77 -103c-14.667 -19.333 -35.334 -44.333 -62.001 -75
c-41.333 -47.333 -62.333 -71.666 -63 -72.999c-11.333 -19.333 -29.666 -43.333 -54.999 -72c-8 -9.33301 -20 -22 -36 -38c-12 0 -34.5 12 -67.5 36s-62.5 51.333 -88.5 82l-141 143c-44.667 54 -83.667 94.667 -117 122c-10 8 -18 12 -24 12c-14 0 -21 -20.667 -21 -62
l1 -161l3 -400c0 -55.333 0.666992 -108.333 2 -159c4 -152 6 -237 6 -255c0 -49.333 1.16699 -97.166 3.5 -143.499s6.5 -93.333 12.5 -141s16 -91.167 30 -130.5c1.33301 -2.66699 2 -7 2 -13c0 -30 -50 -45 -150 -45c-76.667 0 -115 15.333 -115 46
c0 10.667 4.33301 22.334 13 35.001c35.333 51.333 53 110.666 53 177.999l-1 364c0 73.333 -0.666992 139.666 -2 198.999s-2.33301 113.666 -3 162.999l-12 304l1 321c0 55.333 12.667 93.666 38 114.999c12.667 10.667 25.334 18.834 38.001 24.501s25.667 8.5 39 8.5
c28.667 0 52.667 -4.83301 72 -14.5s27 -18.5 23 -26.5z" />
    <glyph glyph-name="R" unicode="R" horiz-adv-x="1611" 
d="M1371 1123c59.333 -22 99 -31.335 119 -28.002c6.66699 0.666992 10 -1.66602 10 -6.99902c0 -8.66699 -10.667 -27.667 -32 -57c-28 -38 -67 -62 -117 -72c-9.33301 -1.33301 -16 -2 -20 -2c-42 0 -84.667 23 -128 69l-47 54l-103 122l-118 139l-91 107l2 -260
c0 -52 0.833008 -124.167 2.5 -216.5s2.5 -149.5 2.5 -171.5l5 -377l2 -228c0 -52 6 -93.333 18 -124c1.33301 -4 2 -7 2 -9c0 -24 -52 -36 -156 -36c-67.333 0 -101 16 -101 48c0 8 3.33301 19.333 10 34c13.333 26 24 49.333 32 70s12 36.667 12 48
c0 46.667 1.33301 113.834 4 201.501s4.83398 163.5 6.50098 227.5s2.5 123.333 2.5 178c0 94.667 -0.833008 179 -2.5 253l-5.5 244.5c-2 89 -3 159.5 -3 211.5c-54 -66 -128.833 -141 -224.5 -225s-183.834 -187.667 -264.501 -311c-16 -24 -47.333 -38 -94 -42
c-36.667 0 -55 16 -55 48c0 8.66699 1 17.834 3 27.501s18.667 27.667 50 54s57.333 52.166 78 77.499c50.667 65.333 124.667 143.333 222 234s183.333 185 258 283l59 81c17.333 25.333 33.333 40 48 44c24.667 5.33301 63.667 -25.167 117 -91.5
s110.333 -141.5 171 -225.5l181 -240c58.667 -74.667 107 -119 145 -133z" />
    <glyph glyph-name="S" unicode="S" horiz-adv-x="1359" 
d="M1231 178c29.333 -8 48.999 -16.002 58.999 -24.002c3.33301 -2 5 -5 5 -9c0 -7.33301 -6.66699 -18.666 -20 -33.999c-30 -33.333 -61.333 -54.333 -94 -63c-5.33301 -1.33301 -10 -2 -14 -2c-28 0 -63 22.333 -105 67l-49 49c-26.667 28.667 -64 71.667 -112 129
l-153 184c-31.333 40 -57.333 64.667 -78 74c-5.33301 2 -10.333 3 -15 3c-12.667 0 -26 -8 -40 -24l-85 -97l-148 -160l-177 -198c-17.333 -19.333 -49 -33 -95 -41c-3.33301 -0.666992 -7.66602 -1 -12.999 -1c-27.333 0 -41 15 -41 45c0 7.33301 1 15.833 3 25.5
s15.5 19 40.5 28s47.5 23.667 67.5 44l76 80.5l106 117c82.667 92 159.667 186.667 231 284l8 318c0 64.667 -0.5 126.834 -1.5 186.501s-2.16699 137.5 -3.5 233.5s-2 184.333 -2 265l-29 59c-4 8 -6 15.333 -6 22c0 24.667 26.333 43 79 55c22.667 4.66699 42 7 58 7
c23.333 0 36.5 -7.83301 39.5 -23.5s4.5 -42.5 4.5 -80.5v-173v-296v-305l1 -201l98 -122l145 -176c46 -53.333 96 -108 150 -164c48 -48 84.667 -75.333 110 -82z" />
    <glyph glyph-name="T" unicode="T" 
d="M307 1770c-8 -10 8.99609 -35.0029 50.9961 -75.0029c12 -11.333 41.333 -45.666 88 -102.999l128 -160c51.333 -65.333 80.333 -101.666 87 -108.999c55.333 -66.667 99 -116 131 -148c21.333 -21.333 39.666 -37.333 54.999 -48c10.667 -7.33301 32 -25.333 64 -54
l47 -43c2 -20.667 -4.5 -37.5 -19.5 -50.5s-35.833 -19.5 -62.5 -19.5c-4 0 -11.333 0.666992 -22 2c-30 4 -67.333 31 -112 81l-110 127c-35.333 34.667 -84 89.334 -146 164.001l-142.5 170.5c-47 55.667 -75.5 83.5 -85.5 83.5c-3.33301 0 -5 -2.33301 -5 -7
c0 -5.33301 -1 -34.666 -3 -87.999s-3 -104.333 -3 -153l3 -379c0 -48.667 1.33301 -122.334 4 -221.001s4 -170 4 -214c0 -71.333 0.666992 -129.833 2 -175.5s4 -82.167 8 -109.5c2 -20 7.5 -41.333 16.5 -64l26.5 -66c2 -5.33301 3 -10.333 3 -15
c0 -20 -12.167 -36.833 -36.5 -50.5s-60.166 -20.5 -107.499 -20.5c-34 0 -58 4.5 -72 13.5s-21 22.167 -21 39.5c0 8 0.833008 15.333 2.5 22s4.83398 15.667 9.50098 27c10 25.333 16.667 50.833 20 76.5s5 54.167 5 85.5v37l-1 350c0 53.333 0.166992 108.333 0.5 165
s0.833008 115.334 1.5 176.001c0 49.333 -0.333008 87.333 -1 114c-2.66699 105.333 -4 166.333 -4 183c0 52.667 0.666992 103.334 2 152.001c4 146 6 225.667 6 239c0 14 -1.16699 25.833 -3.5 35.5s-4.16602 18.167 -5.49902 25.5c0 5.33301 4 11.666 12 18.999
c18.667 15.333 32 25.666 40 30.999c16.667 10.667 31.334 16 44.001 16c10.667 0 24.334 -4.66699 41.001 -14l38 -22c19.333 -9.33301 27 -18 23 -26z" />
    <glyph glyph-name="U" unicode="U" horiz-adv-x="1602" 
d="M50 90c35.333 49.333 86.665 99.3389 153.998 150.006c64 47.333 131 93.666 201 138.999c63.333 39.333 122 74 176 104c18.667 10 37.334 21 56.001 33l19 12c0 13.333 -39.833 53.166 -119.5 119.499s-155.334 114.666 -227.001 144.999s-127.5 48.833 -167.5 55.5
s-60 37.334 -60 92.001c0 51.333 53 121 159 209c53.333 44 101.666 86 144.999 126c46 42.667 85.667 82.334 119 119.001l186.5 207.5c55.667 64.333 110.167 111.166 163.5 140.499c22.667 10 58.5 -21.167 107.5 -93.5s109.5 -152.5 181.5 -240.5
c68.667 -84 144.834 -166.833 228.501 -248.5s126.834 -128.5 129.501 -140.5c4 -24 -26.667 -51.333 -92 -82c-32 -14 -65.833 -31.333 -101.5 -52s-71.834 -44 -108.501 -70l-65 -41c-22.667 -13.333 -36 -21 -40 -23c-22.667 -13.333 -46.667 -28.333 -72 -45
c-38.667 -24 -73.167 -46.667 -103.5 -68s-45.5 -36 -45.5 -44c4.66699 -34 26.834 -67.167 66.501 -99.5s81.834 -64.5 126.501 -96.5l135 -102c42.667 -32.667 84.667 -61 126 -85c20 -11.333 51.333 -17 94 -17c13.333 0 28.5 -0.166992 45.5 -0.5
s30.5 -2.83301 40.5 -7.5c2.66699 -0.666992 4 -3.66699 4 -9c0 -14.667 -17 -47.834 -51 -99.501s-69 -77.5 -105 -77.5c-8.66699 0 -16.667 1.33301 -24 4c-40.667 14 -92 45 -154 93l-181 150l-163 142c-22 19.333 -41.667 35.166 -59 47.499
s-30.666 20.166 -39.999 23.499c-6.66699 1.33301 -11.667 2 -15 2c-43.333 0 -109.333 -35.333 -198 -106c-102 -79.333 -187 -151.666 -255 -216.999c-4.66699 -4.66699 -7 -10.334 -7 -17.001c0 -12.667 8 -28.167 24 -46.5s24 -31.5 24 -39.5
c0 -4.66699 -3.33301 -7 -10 -7c-43.333 0 -79.833 -0.333008 -109.5 -1s-57.834 -1.33398 -84.501 -2.00098c-29.333 0 -47.333 2 -54 6c-8.66699 6 -13 13.667 -13 23c0 10 4.33301 21.667 13 35zM479.999 1207.01c-36.667 -38.667 -71 -69.334 -103 -92.001
c-29.333 -19.333 -46 -41 -50 -65c-2 -21.333 14 -50 48 -86c17.333 -17.333 41.5 -38.166 72.5 -62.499l119.5 -89.5c78 -56.667 132.333 -98.667 163 -126c14 -12.667 26.333 -21.667 37 -27s20.334 -8 29.001 -8c16 2 34.833 16.667 56.5 44s66.667 64.5 135 111.5
s125 79.5 170 97.5s72.167 37 81.5 57c1.33301 2.66699 2 7 2 13c0 18.667 -13.667 44.667 -41 78c-32.667 40 -91.667 106 -177 198c-62 67.333 -110.333 117.833 -145 151.5s-69.667 50.5 -105 50.5c-31.333 0 -69.333 -20.667 -114 -62
c-34.667 -33.333 -94.334 -94.333 -179.001 -183z" />
    <glyph glyph-name="V" unicode="V" horiz-adv-x="1062" 
d="M757 1639l-293.001 -250.001c-68 -58 -144.333 -129.667 -229 -215l126.5 -75l124 -73.5c10.333 -6.33301 47.833 -28 112.5 -65s101.334 -57.833 110.001 -62.5l21 -8c0 30.667 1.33301 72.334 4 125.001c6 119.333 9 202.333 9 249zM882.999 1599l-0.00195312 -353.001
c0 -53.333 -0.166992 -114.333 -0.5 -183s-0.833008 -145 -1.5 -229c0 -182 0.666992 -325.333 2 -430s4.33301 -183.667 9 -237c36 -42 54 -73 54 -93c0 -16.667 -11.667 -26 -35 -28l-136 -11h-60c-30 0 -49 2.33301 -57 7c-10.667 6.66699 -16 16.334 -16 29.001
c0 4.66699 1 10 3 16c6 20 17 44.5 33 73.5s25.667 60.5 29 94.5c0 14.667 0.333008 41.5 1 80.5s1 63.833 1 74.5c0 68 2 123.667 6 167c-51.333 -34.667 -108.666 -87.667 -171.999 -159s-112.666 -123.333 -147.999 -156
c-114.667 -104.667 -181.5 -168.167 -200.5 -190.5s-46.833 -33.5 -83.5 -33.5c-40 0 -65 29.333 -75 88c7.33301 -2 14.666 -3 21.999 -3c34.667 0 73.334 20.333 116.001 61l163 161l189 193c75.333 78 138.333 139 189 183c-20 16.667 -56.333 40.667 -109 72l-172 102
l-173 101c-57.333 34 -94.333 57.667 -111 71c-71.333 54 -101 88 -89 102c15.333 15.333 106 93.666 272 234.999l262 222l121 103c23.333 18 39 27.667 47 29l38 2c78.667 0 118 -6.33301 118 -19c0 -3.33301 -1.66699 -7.66602 -5 -12.999c-20.667 -28 -31 -71 -31 -129z
" />
    <glyph glyph-name="W" unicode="W" horiz-adv-x="1550" 
d="M227 776c-28 22 -54 43.6719 -78 65.0049c-21.333 18.667 -41 37 -59 55c-32 33.333 -48 64 -48 92c0 51.333 46.333 109.833 139 175.5s174 136.5 244 212.5c66 70.667 128.667 141 188 211c54.667 64 108.667 109.667 162 137c20 10 55.333 -21.833 106 -95.5
s111.167 -153.334 181.5 -239.001s144.5 -168.5 222.5 -248.5s117 -124.333 117 -133c0 -12 -7 -25 -21 -39s-35.667 -29.667 -65 -47c-62.667 -36 -128 -77.667 -196 -125l-63 -46l-113 -84l-109 -84c-32 -26 -48 -41.333 -48 -46v-166c0 -18 0.333008 -45.5 1 -82.5
s1 -64.833 1 -83.5c0 -32 2.16699 -60.667 6.5 -86s11.166 -50 20.499 -74c2.66699 -6 4 -12 4 -18c0 -25.333 -33.333 -38 -100 -38c-98.667 0 -148 12.333 -148 37c0 5.33301 2.33301 10.666 7 15.999c12.667 15.333 21.834 31.666 27.501 48.999s8.5 37.333 8.5 60
c0 29.333 -0.333008 67.666 -1 114.999s-1 80 -1 98c0 34.667 -2 60.667 -6 78s-12.333 30.666 -25 39.999c-44 28 -89 64 -135 108c-22 21.333 -51 47.333 -87 78zM400 1189c-79.333 -72.667 -126.665 -124.666 -141.998 -155.999c-14 -29.333 62 -109 228 -239l74.5 -60.5
c21 -17.667 38.167 -32.834 51.5 -45.501c27.333 -26 52.333 -41 75 -45c22.667 -3.33301 49 5.33398 79 26.001c12.667 8 31.5 21.5 56.5 40.5l85.5 66l86 65c25.333 18.333 49.333 34.166 72 47.499c40 24 63 47.667 69 71c0.666992 2.66699 1 6.66699 1 12
c0 22 -12.667 48.667 -38 80c-32.667 41.333 -84.334 101.666 -155.001 180.999c-76.667 84.667 -133.334 144.334 -170.001 179.001c-29.333 28 -56 42 -80 42c-4 0 -9.33301 -0.666992 -16 -2c-28 -8 -60.667 -35 -98 -81s-97 -106.333 -179 -181z" />
    <glyph glyph-name="X" unicode="X" horiz-adv-x="1899" 
d="M102 1496c0 62.667 -12.667 116.334 -38 161.001c-4.66699 9.33301 -7 17 -7 23c0 30 44 45 132 45c82 0 123 -12 123 -36c0 -7.33301 -4 -16 -12 -26c-33.333 -41.333 -50 -80.333 -50 -117v-193v-143v-149v-213c48 20.667 114.333 59.334 199 116.001
s137.667 102.334 159 137.001l117 182c54 85.333 81 148.333 81 189c0 78 -8.66699 143.333 -26 196c-2 7.33301 -3 14 -3 20c0 40.667 46.667 61 140 61c54 0 81 -13.333 81 -40c0 -10 -3.33301 -21.333 -10 -34c-13.333 -25.333 -23.333 -49.333 -30 -72s-10 -46 -10 -70
c0 -49.333 -30 -125.833 -90 -229.5s-116.333 -191.5 -169 -263.5c-40 -56.667 -100.167 -111.834 -180.5 -165.501s-166.5 -103.5 -258.5 -149.5v-275c0 -29.333 1 -74.333 3 -135s3 -107 3 -139c0 -17.333 10.667 -50.333 32 -99c4 -9.33301 6 -17.333 6 -24
c0 -33.333 -39.333 -50 -118 -50c-68 0 -110.667 7.33301 -128 22c-11.333 10.667 -17 23 -17 37c0 6.66699 0.666992 11.667 2 15c7.33301 20 19.333 39.167 36 57.5s25.667 32.166 27 41.499v454c0 42 0.166992 88.667 0.5 140s0.833008 107.666 1.5 168.999l3 257z
M1773 140c29.333 -8 48.999 -16.002 58.999 -24.002c3.33301 -2 5 -5 5 -9c0 -7.33301 -6.66699 -18.666 -20 -33.999c-30 -33.333 -61.333 -54.333 -94 -63c-5.33301 -1.33301 -10 -2 -14 -2c-28 0 -63 22.333 -105 67l-49 49c-26.667 28.667 -64 71.667 -112 129l-153 184
c-31.333 40 -57.333 64.667 -78 74c-5.33301 2 -10.333 3 -15 3c-12.667 0 -26 -8 -40 -24l-85 -97l-148 -160l-177 -198c-17.333 -19.333 -49 -33 -95 -41c-3.33301 -0.666992 -7.66602 -1 -12.999 -1c-27.333 0 -41 15 -41 45c0 7.33301 1 15.833 3 25.5s15.5 19 40.5 28
s47.5 23.667 67.5 44l76 80.5l106 117c82.667 92 159.667 186.667 231 284l8 318c0 64.667 -0.5 126.834 -1.5 186.501s-2.16699 137.5 -3.5 233.5s-2 184.333 -2 265l-29 59c-4 8 -6 15.333 -6 22c0 24.667 26.333 43 79 55c22.667 4.66699 42 7 58 7
c23.333 0 36.5 -7.83301 39.5 -23.5s4.5 -42.5 4.5 -80.5v-173v-296v-305l1 -201l98 -122l145 -176c46 -53.333 96 -108 150 -164c48 -48 84.667 -75.333 110 -82z" />
    <glyph glyph-name="Y" unicode="Y" horiz-adv-x="997" 
d="M237 712c8.66699 14.667 31.3359 44.668 68.0029 90.001l132 165l152 193l129 172c5.33301 6.66699 24.333 18.334 57 35.001c6.66699 3.33301 14 5 22 5c20.667 0 37.667 -18 51 -54c5.33301 -16.667 9.83301 -41.5 13.5 -74.5s5.5 -71.5 5.5 -115.5v-308
c0 -37.333 -1.33301 -91 -4 -161s-4 -121.333 -4 -154l-4 -208c0 -22.667 6.66699 -47.167 20 -73.5s22.333 -52.833 27 -79.5c0.666992 -3.33301 1 -8.33301 1 -15c0 -19.333 -6.33301 -37.333 -19 -54c-16 -20 -53.333 -34 -112 -42c-16.667 -2.66699 -33 -4 -49 -4
c-27.333 0 -46.666 6 -57.999 18c-10.667 13.333 -16 30.666 -16 51.999c0 7.33301 0.333008 13 1 17c4 28 13.333 56.667 28 86c13.333 29.333 21.666 52 24.999 68c4 32 7 61.333 9 88s3 53 3 79l6 263l-3 266c0 44 -0.833008 78.333 -2.5 103
s-4.83398 50.334 -9.50098 77.001l-90 -113l-130 -160l-123 -150l-68 -84c-63.333 -76 -110 -114 -140 -114c-42.667 0 -64 14.333 -64 43c0 9.33301 0.333008 27.666 1 54.999s1 50 1 68c0 71.333 -0.666992 133.666 -2 186.999c-4.66699 187.333 -7 281.333 -7 282
c0 45.333 -0.333008 115.5 -1 210.5s-1 167.5 -1 217.5c0 23.333 -8 47.666 -24 72.999c-13.333 23.333 -22 46 -26 68c-0.666992 9.33301 1.16602 16.5 5.49902 21.5s13.666 11.167 27.999 18.5s34.833 14 61.5 20s58 9 94 9c23.333 0 35 -7.66699 35 -23
c0 -4.66699 -1 -10 -3 -16c-5.33301 -14 -9.83301 -32.167 -13.5 -54.5s-5.5 -47.5 -5.5 -75.5c0 -38.667 -0.666992 -87.167 -2 -145.5l-4 -178c-1.33301 -60.333 -2 -115.166 -2 -164.499c0 -62 1 -123.333 3 -184c5.33301 -161.333 8 -243 8 -245z" />
    <glyph glyph-name="Z" unicode="Z" horiz-adv-x="1683" 
d="M714 1165c0 54.667 -0.671875 99.9951 -2.00488 135.995s-2.66602 78 -3.99902 126c0 30.667 -0.833008 54.334 -2.5 71.001s-4.5 35.167 -8.5 55.5s-7.66699 30.833 -11 31.5l-5 1l-20 20c-11.333 13.333 -19.666 28.333 -24.999 45
c-2.66699 16 3.83301 31.167 19.5 45.5s52.5 21.5 110.5 21.5c85.333 0 128 -13.333 128 -40c0 -6 -2 -12.667 -6 -20c-24 -39.333 -36 -78.666 -36 -117.999c0 -15.333 -0.833008 -45.166 -2.5 -89.499s-2.5 -76.5 -2.5 -96.5l-8 -288c0 -44 -0.166992 -73.833 -0.5 -89.5
s-1.16602 -29.5 -2.49902 -41.5c0.666992 -15.333 1.66699 -30.666 3 -45.999v-79c19.333 -21.333 41 -44 65 -68s54 -52.333 90 -85c66 -61.333 99.667 -93.666 101 -96.999c0 -3.33301 19 -26 57 -68l127 -133l127 -130l58 -58c36.667 -10 83.334 -36.667 140.001 -80
c24.667 -18.667 37 -33.334 37 -44.001c0 -14 -21.667 -21 -65 -21c-75.333 0 -128.333 5 -159 15s-50.834 23.167 -60.501 39.5s-15.667 34.333 -18 54s-13.166 38.5 -32.499 56.5c-11.333 7.33301 -31.666 27.333 -60.999 60l-84 96c-29.333 34 -52.666 59 -69.999 75
c-8.66699 8.66699 -14.334 13 -17.001 13l2 -14l-37 41l-79 90c-28 32 -54.333 60.333 -79 85c-12 12 -21 20.333 -27 25c-3.33301 0.666992 -6.33301 1.66699 -9 3v-85v-159v-158v-79c0 -16 15.667 -47.667 47 -95c7.33301 -11.333 11 -21 11 -29
c0 -26.667 -39 -40 -117 -40c-72.667 0 -118 4.66699 -136 14c-12.667 6.66699 -19 15.334 -19 26.001c0 3.33301 1 7.66602 3 12.999c8 16 21.167 35 39.5 57s27.5 44.333 27.5 67l6 192l7 282l-144 -172l-73 -91c-20.667 -20.667 -54 -61.334 -100 -122.001l-59 -81
c-14 -20 -27 -40 -39 -60c-16.667 -28.667 -25 -52.667 -25 -72c0 -14.667 5.33301 -26 16 -34c4.66699 -2.66699 7 -5.66699 7 -9c0 -11.333 -41 -17 -123 -17c-76.667 0 -120.667 6.66699 -132 20c-5.33301 6.66699 -8 13.334 -8 20.001c0 8 4.33301 16.333 13 25
c16 16 36.667 31.333 62 46l39 21l76 80l89 102c62 72.667 101.333 117.334 118 134.001c12 12 33.333 36.667 64 74l97 120l89 114c26 34 39 54 39 60l-6 150v186z" />
    <glyph glyph-name="backslash" unicode="\" horiz-adv-x="1279" 
d="M985 47c-29.333 0 -46.998 5.00098 -52.998 15.001c-10.667 56 -34.334 132.667 -71.001 230l-314 662l-132 276l-70 148l-88 189c-39.333 85.333 -60.333 130.666 -63 135.999c-22.667 48 -55 98.333 -97 151c-12.667 16.667 -19 31.334 -19 44.001
c0 26 26.333 43.667 79 53c6 0.666992 12 1.5 18 2.5s12.333 1.5 19 1.5c40 0 66.667 -15 80 -45l52 -115c6 -15.333 31.667 -73 77 -173l105 -229l156 -319l106 -219l148 -309l100 -212c26 -56.667 47 -98 63 -124l64 -90c-10.667 -14 -24.334 -33 -41.001 -57
c-3.33301 -4.66699 -16.333 -10.667 -39 -18c-6.66699 -2.66699 -12 -4.66699 -16 -6c-14 -4.66699 -25.333 -7 -34 -7c-6.66699 0 -12.667 1.16699 -18 3.5s-9.33301 6.16602 -12 11.499z" />
    <glyph glyph-name="asciicircum" unicode="^" horiz-adv-x="1027" 
d="M900 1442c12.667 -2.66699 20.334 -3.99902 23.001 -3.99902c2 0.666992 4.66699 1.33398 8 2.00098c-1.33301 -4 -2.33301 -8 -3 -12c-4.66699 -6 -12.334 -14 -23.001 -24c-5.33301 -6.66699 -9.33301 -11.334 -12 -14.001s-10 -4 -22 -4c-13.333 0 -24 1.66699 -32 5
s-20 10 -36 20l-31 45l-68 101l-73 107l-44 66c-50 70 -79 106 -87 108c-6.66699 2 -19.667 -10.667 -39 -38l-56 -76l-89 -118l-96 -122c-33.333 -39.333 -58.666 -67.333 -75.999 -84c-4.66699 -4.66699 -9.16699 -7.83398 -13.5 -9.50098s-13.166 -2.5 -26.499 -2.5
s-24.5 3.16699 -33.5 9.5s-12.167 13.833 -9.5 22.5c0.666992 2.66699 10 8.5 28 17.5s31 17.167 39 24.5c4 3.33301 8.33301 7.33301 13 12c11.333 12 24.666 27.333 39.999 46l87 108l92 123c15.333 20.667 28.333 39.167 39 55.5l32.5 51.5c11 18 16.5 31.333 16.5 40
c0 8 -3.66699 13.167 -11 15.5s-11 5.16602 -11 8.49902c1.33301 4 2.16602 7.33301 2.49902 10s1.33301 5.5 3 8.5s9.16699 4.5 22.5 4.5c12 0 21 0.333008 27 1s11.667 1.33398 17 2.00098c10.667 4 34.667 -19.667 72 -71l119 -171l78 -113l45 -64
c40 -54 69.333 -83 88 -87z" />
    <glyph glyph-name="underscore" unicode="_" horiz-adv-x="2255" 
d="M625 238c35.333 0 119.496 -5.33398 252.496 -16.001s271.167 -23.167 414.5 -37.5s263.333 -28.833 360 -43.5c125.333 -19.333 224 -29 296 -29c62.667 0 111 8.66699 145 26c4.66699 2.66699 35.334 25 92.001 67c-25.333 -64 -53.333 -109 -84 -135
c-43.333 -37.333 -107.333 -56 -192 -56c-109.333 0 -251.166 9.66699 -425.499 29l-512.5 57c-212 20.667 -399.667 31 -563 31c-46 0 -100.333 -10.667 -163 -32c-44.667 -15.333 -92.667 -35.666 -144 -60.999l-62 -33c10.667 15.333 19.334 27.333 26.001 36
c20.667 26.667 38.334 47.334 53.001 62.001c42.667 42 108 74.667 196 98c65.333 17.333 136 28.666 212 33.999c28.667 2 61.667 3 99 3z" />
    <glyph glyph-name="grave" unicode="`" horiz-adv-x="490" 
d="M59 1908c28.667 42.667 52.002 64.0039 70.002 64.0039c15.333 0 32.666 -13.667 51.999 -41c4.66699 -6.66699 29.334 -28.334 74.001 -65.001s75.667 -60.834 93 -72.501s40 -31.5 68 -59.5s42 -44.667 42 -50c0 -0.666992 2.16699 -1.33398 6.5 -2.00098
s6.5 -2.33398 6.5 -5.00098c0 -4 -4.66699 -12 -14 -24c-12.667 -16.667 -32.334 -38.667 -59.001 -66l-29 -31c-10 -10.667 -18 -16 -24 -16c-3.33301 0 -8 1.5 -14 4.5s-28 21.5 -66 55.5c-40.667 36 -67.334 57.667 -80.001 65c-6 3.33301 -32 29.333 -78 78
s-72.167 75 -78.5 79s-9.5 8.33301 -9.5 13c0 5.33301 2.66699 12.833 8 22.5s16 26.5 32 50.5z" />
    <glyph glyph-name="a" unicode="a" horiz-adv-x="828" 
d="M96 1394c17.333 13.333 28.334 19.9932 33.001 19.9932c5.33301 0 14.666 -7 27.999 -21l78 -88l129 -153l92 -106l90 -97l126 -122c11.333 -10.667 20.333 -22.5 27 -35.5l20 -38.5c7.33301 -6.66699 13.166 -15.667 17.499 -27s6.5 -25 6.5 -41
c0.666992 -5.33301 1 -14.333 1 -27c0 -24 -0.333008 -46.167 -1 -66.5s-1.33398 -39.5 -2.00098 -57.5c0 -56.667 -0.333008 -112.167 -1 -166.5l-2 -156.5c0 -101.333 6.66699 -160 20 -176c3.33301 -3.33301 5 -6.33301 5 -9c0 -4.66699 -7.16699 -8.16699 -21.5 -10.5
s-38.833 -3.5 -73.5 -3.5c-38.667 0 -63.334 9.33301 -74.001 28c-4.66699 8 -7.66699 17.333 -9 28s-2 23.334 -2 38.001c2.66699 24.667 9 49.667 19 75c8.66699 27.333 13 46 13 56c0 22.667 0.333008 56 1 100s1 76.333 1 97c0 21.333 1.33301 44.333 4 69s4 46 4 64
c0 16.667 0.833008 32.334 2.5 47.001s2.5 23.334 2.5 26.001c0 10.667 -1.83301 22 -5.5 34s-10.167 24.333 -19.5 37c-1.33301 2 -14 18 -38 48c-8.66699 10.667 -33.667 36.334 -75 77.001l-72 73c-99.333 102 -155.666 162.333 -168.999 181
c-4 6.66699 -8.66699 12.667 -14 18c-13.333 14 -27 21 -41 21l16 -416c0 -103.333 0.333008 -190.666 1 -261.999s1.33398 -138.333 2.00098 -201c0 -39.333 2.33301 -65.666 7 -78.999c6 -12.667 13.667 -48 23 -106c3.33301 -20.667 -4.66699 -36.5 -24 -47.5
s-32 -13.5 -38 -7.5c-1.33301 2 -2.66602 4.33301 -3.99902 7c-7.33301 1.33301 -35.333 2 -84 2c-33.333 0 -50 7.33301 -50 22c0 6.66699 4.33301 15.334 13 26.001c25.333 30.667 38 57.334 38 80.001c0 88 -0.5 168.833 -1.5 242.5s-1.83301 144.667 -2.5 213
s-1 129.166 -1 182.499l-9 370l-4 178c0 30 6 50.333 18 61z" />
    <glyph glyph-name="b" unicode="b" horiz-adv-x="918" 
d="M212 1167l7.00098 -283l9 -282c-0.666992 -1.33301 -1.33398 -2.33301 -2.00098 -3c8.66699 5.33301 28 18.5 58 39.5l90 66l119 93.5l-32 39l-28 35l-68 90zM75.001 1270c0 15.333 -10.999 40.6699 -32.999 76.0029c-4 7.33301 -6 13.333 -6 18c0 15.333 18 23 54 23
c12.667 0 28.834 -1.16699 48.501 -3.5s36.167 -7.83301 49.5 -16.5c11.333 -6.66699 25.666 -21.667 42.999 -45l69 -99c14 -21.333 31.833 -46.5 53.5 -75.5l75.5 -99.5c97.333 -128 152.666 -199 165.999 -213c4 -4 6 -9 6 -15c0 -14 -11.667 -31.5 -35 -52.5
s-66.833 -53.167 -130.5 -96.5s-112.167 -79.666 -145.5 -108.999l151 -135l156 -141c81.333 -78 130.166 -123.333 146.499 -136s45.833 -22 88.5 -28c-11.333 -61.333 -37.666 -92 -78.999 -92c-54 0 -86.333 8 -97 24s-62.667 66.333 -156 151l-130 123
c-56.667 54.667 -105.334 96.334 -146.001 125.001l4 -134c0 -18.667 0.166992 -38.334 0.5 -59.001s0.833008 -42.334 1.5 -65.001c0 -12 1.83301 -24.167 5.5 -36.5s9.16699 -25.166 16.5 -38.499c12 -21.333 21 -41 27 -59c1.33301 -6.66699 2 -11 2 -13
c0 -9.33301 -4.33301 -17 -13 -23c-4.66699 -2.66699 -15 -4.33398 -31 -5.00098s-36.333 -1 -61 -1l-110 9c-16.667 0 -25 7.33301 -25 22c0 18 13.667 43 41 75c0 23.333 0.333008 42.666 1 57.999c3.33301 75.333 5 121.666 5 138.999c0 67.333 0.333008 128 1 182
s1.33398 105.333 2.00098 154c0 33.333 -1 87.333 -3 162s-3 132.667 -3 174c0 44 -1.66699 96.667 -5 158s-5 100.666 -5 117.999z" />
    <glyph glyph-name="c" unicode="c" horiz-adv-x="948" 
d="M108 1204c0 25.333 -2.33105 48.499 -6.99805 69.499s-12.334 40.5 -23.001 58.5c-3.33301 8 -5 14 -5 18c0 24.667 35 37 105 37c65.333 0 98 -9.66699 98 -29c0 -6 -3 -13 -9 -21c-26.667 -32.667 -40 -63.667 -40 -93v-155v-114v-119v-171
c40 17.333 93 48.666 159 93.999c32.667 22 60 42.333 82 61s37 34.667 45 48l38 57l56 88c43.333 68.667 65 119 65 151c0 60.667 -7 113 -21 157c-2 6 -3 11.333 -3 16c0 32.667 37.333 49 112 49c43.333 0 65 -10.333 65 -31c0 -8.66699 -2.66699 -18 -8 -28
c-21.333 -39.333 -32 -77.333 -32 -114c0 -40 -24.333 -101.833 -73 -185.5s-93.334 -153.167 -134.001 -208.5c-32 -45.333 -79.833 -89.166 -143.5 -131.499s-132.834 -82.5 -207.501 -120.5v-220c0 -33.333 0.833008 -76 2.5 -128s2.5 -82.333 2.5 -91
c0 -14 8.33301 -40.667 25 -80c3.33301 -8 5 -14.333 5 -19c0 -26.667 -31.333 -40 -94 -40c-53.333 0 -87.666 6 -102.999 18c-9.33301 8.66699 -14 18.334 -14 29.001c0 2.66699 0.666992 6.66699 2 12c6.66699 18 16.667 33.667 30 47c13.333 15.333 20.333 26.333 21 33
v363l1 247l3 206v240z" />
    <glyph glyph-name="d" unicode="d" horiz-adv-x="842" 
d="M86 136l-3 528.005l-1 520c0 29.333 -4.33301 50.666 -13 63.999c-7.33301 13.333 -12 25.666 -14 36.999c0 11.333 6.33301 23.333 19 36s40.334 32.334 83.001 59.001c17.333 10.667 27.333 20.334 30 29.001c0.666992 4 3.16699 5 7.5 3s10.5 -7 18.5 -15l78 -81
c47.333 -50 80.666 -86.333 99.999 -109c8.66699 -10.667 31 -35 67 -73l98 -103l107 -113c11.333 -12 22.166 -20.667 32.499 -26s19.833 -8 28.5 -8c8 0 16.667 2.16699 26 6.5s15 5.83301 17 4.5c3.33301 -5.33301 5 -12 5 -20c0 -18.667 -8.66699 -37.667 -26 -57
s-34 -29 -50 -29c-4.66699 0 -9 1 -13 3l-53 32c-22.667 15.333 -42 31.666 -58 48.999l-153 154c-23.333 28 -54.333 61 -93 99c-31.333 30.667 -59.333 56.667 -84 78s-37.334 32 -38.001 32l3 -33c0 -3.33301 0.833008 -22.5 2.5 -57.5s2.5 -59.833 2.5 -74.5
c0 -28 0.333008 -77.333 1 -148s1 -118.334 1 -143.001c20 -24.667 61.333 -66.334 124 -125.001l133 -124l87 -84.5c30 -28.333 60 -49.5 90 -63.5c8 -4 17.667 -6 29 -6c11.333 1.33301 19 2 23 2c8.66699 0 12.334 -5.66699 11.001 -17
c-3.33301 -23.333 -11.5 -41.5 -24.5 -54.5s-27.833 -19.5 -44.5 -19.5c-6.66699 0 -13 1 -19 3c-14.667 2.66699 -27 5 -37 7s-22 9 -36 21l-104 89l-94 92l-77 76c-39.333 38 -61 58 -65 60c0 -30.667 0.833008 -62.334 2.5 -95.001s5.16699 -75.667 10.5 -129
c2.66699 -28.667 4.33398 -55.334 5.00098 -80.001s1 -52.667 1 -84v-16v-14v-12c0 -12.667 -0.166992 -25.167 -0.5 -37.5s-0.5 -24.5 -0.5 -36.5v-10c0 -9.33301 6.66699 -28 20 -56c8.66699 -18 16 -31.333 22 -40c2.66699 -3.33301 4 -6.33301 4 -9
c0 -4 -4.66699 -6 -14 -6c-10.667 0 -19.667 0.333008 -27 1c-37.333 3.33301 -61 5 -71 5h-57c-27.333 0 -45.333 1.66699 -54 5c-14.667 6 -20 15.333 -16 28c2.66699 6 6.16699 12 10.5 18s10.5 13.667 18.5 23c14.667 14.667 22 29.667 22 45z" />
    <glyph glyph-name="e" unicode="e" horiz-adv-x="850" 
d="M213 838l-1.00098 -97.0039c0 -27.333 -0.333008 -48.666 -1 -63.999c-3.33301 -76.667 -5 -119.667 -5 -129c0 -55.333 0.333008 -100.166 1 -134.499s1.33398 -66.166 2.00098 -95.499c0 -30.667 2.16699 -67.667 6.5 -111s6.5 -69.666 6.5 -78.999v-17v-36
c-1.33301 -16.667 -5.33301 -27.334 -12 -32.001s-20 -7.16699 -40 -7.5s-38 -0.5 -54 -0.5c-43.333 0 -65 16.333 -65 49c0 6.66699 1.5 16.667 4.5 30s7.83301 28.166 14.5 44.499l21 51.5l6 105l4 169l3 176l2 126l-1 126l-1 172l-1 152v66c2 15.333 -1 32.666 -9 51.999
c-4.66699 11.333 -12.667 26.666 -24 45.999c-3.33301 6.66699 -5 11.667 -5 15c0 6.66699 6.66699 11.334 20 14.001s37 4 71 4c62.667 0 94 -13 94 -39c0 -4.66699 -1.66699 -11 -5 -19c-18 -39.333 -27 -74.666 -27 -105.999v-32v-25v-20v-16v-13v-11
c0 -26.667 -1.33301 -45.334 -4 -56.001c-0.666992 -7.33301 -1.33398 -22.5 -2.00098 -45.5s-1 -40.833 -1 -53.5v-31c26.667 -24.667 90.667 -71 192 -139l206 -138c0 13.333 1.33301 47.333 4 102s4 93.667 4 117l-5 188l-4 161c0 20 -1.66699 37.5 -5 52.5
s-6 27.833 -8 38.5c0 38.667 9.33301 64 28 76c2 1.33301 7.66699 6 17 14c4 3.33301 10 5 18 5c80 0 120 -9.66699 120 -29c0 -4 -2 -8.66699 -6 -14c-11.333 -14 -20.5 -33.667 -27.5 -59s-10.5 -56 -10.5 -92c0 -38.667 -1.66699 -80.334 -5 -125.001
c-8 -108 -12 -169 -12 -183l-1 -242l3 -234c0 -37.333 6.66699 -93 20 -167c6.66699 -37.333 10 -70.666 10 -99.999c0 -23.333 9.66699 -46.666 29 -69.999c6 -8 9 -16.333 9 -25c0 -12.667 -10 -25.667 -30 -39c-17.333 -11.333 -36 -20.666 -56 -27.999
s-43.333 -13.666 -70 -18.999c-4 -0.666992 -9.33301 -1 -16 -1c-16.667 0 -25 9 -25 27c0 12 2 28 6 48c14.667 87.333 22 182.333 22 285c0 93.333 -2.33301 156 -7 188c-17.333 14 -44.166 33.333 -80.499 58l-124.5 82l-119 80c-26 18 -50.667 36 -74 54z" />
    <glyph glyph-name="f" unicode="f" horiz-adv-x="1127" 
d="M954 1296l-3 -555.004l-1 -567c0 -5.33301 1.66699 -11.166 5 -17.499s9.33301 -13.833 18 -22.5c16 -15.333 27 -30.666 33 -45.999c2 -4 3 -8.33301 3 -13c0 -10 -5.33301 -18.333 -16 -25c-15.333 -10 -53.666 -15 -114.999 -15c-70 0 -113.333 6.33301 -130 19
c-11.333 9.33301 -17 19.333 -17 30c0 5.33301 1.33301 10.333 4 15c10.667 16.667 26.667 32.834 48 48.501s32.666 26.5 33.999 32.5l-1 149v18v14c0 30 -1.33301 45.333 -4 46l-94.5 47.5l-119.5 64.5c-84.667 47.333 -168 87.666 -250 120.999
c-166 64.667 -261.333 106.334 -286 125.001c-8 6 -12 13 -12 21c0 18.667 22 44.667 66 78l323 240c136 101.333 245.667 191.333 329 270l47 45c10.667 10.667 17.167 17.834 19.5 21.501s26.5 5.5 72.5 5.5c34 0 50 -11 48 -33zM251 834.996
c146.667 -58 253.332 -104.333 319.999 -139l243 -130c0 44 -0.166992 95.667 -0.5 155s-0.833008 126 -1.5 200v356l-167 -141l-60 -51l-57 -46c-17.333 -14.667 -35.166 -29 -53.499 -43l-61.5 -46c-34 -26 -88 -64.333 -162 -115z" />
    <glyph glyph-name="g" unicode="g" horiz-adv-x="1006" 
d="M208 674c50 8 86.332 18.667 108.999 32l76 51c26.667 18 55.167 40.333 85.5 67s62.5 57 96.5 91c64.667 66.667 112.334 129 143.001 187c15.333 28 28.333 64.333 39 109c2.66699 10 4.66699 21.5 6 34.5s2 25.833 2 38.5c0 19.333 -2 39 -6 59
c-1.33301 5.33301 -2.33301 11.666 -3 18.999s-1 13.666 -1 18.999c0 25.333 7.33301 42.5 22 51.5s29 13.5 43 13.5c12 0 25.167 -3 39.5 -9s21.5 -15.667 21.5 -29c0 -7.33301 -1.33301 -14.666 -4 -21.999c-6 -20 -9 -37.667 -9 -53c0.666992 -6.66699 1 -11.667 1 -15
l-28 -141c-4 -30.667 -18 -67 -42 -109c-29.333 -53.333 -82.166 -121.333 -158.499 -204s-147.5 -146 -213.5 -190c-13.333 -9.33301 -33.666 -22.666 -60.999 -39.999l-31 -20c-23.333 -13.333 -63.333 -25 -120 -35c0 -27.333 -0.333008 -63.5 -1 -108.5
s-1 -76.167 -1 -93.5c0 -19.333 0.666992 -54.166 2 -104.499s2 -80.833 2 -91.5c0 -13.333 8.33301 -39.666 25 -78.999c3.33301 -8 5 -14.667 5 -20c0 -26.667 -31.333 -40 -94 -40c-54 0 -88 6 -102 18c-9.33301 8.66699 -14 18.667 -14 30
c0 2.66699 1.16699 7.66699 3.5 15s5.66602 14.333 9.99902 21s10.5 14 18.5 22c13.333 15.333 20 26.333 20 33v364c0 32.667 0.333008 76.667 1 132s1 93.666 1 114.999l2 206l1 240c0 25.333 -2.33301 48.5 -7 69.5s-12.334 40.5 -23.001 58.5
c-4 7.33301 -6 13.666 -6 18.999c0 24 35 36 105 36c66 0 99 -9.66699 99 -29c0 -6 -3 -13 -9 -21c-26.667 -32.667 -40 -63.667 -40 -93v-118v-32v-38v-132c35.333 12 70.166 27.333 104.499 46s62 39.5 83 62.5s41 48.833 60 77.5s28.5 58.667 28.5 90
c0 61.333 -7 112 -21 152c-2 5.33301 -3 10.333 -3 15c0 30 37.333 45 112 45c46 0 69 -12.333 69 -37c0 -8 -1.66699 -15.667 -5 -23c-16.667 -39.333 -29.667 -77 -39 -113c-8 -38.667 -22.833 -82 -44.5 -130s-60.167 -96 -115.5 -144c-26 -22 -51.5 -42.167 -76.5 -60.5
s-45 -31.333 -60 -39s-31.333 -14.5 -49 -20.5s-32.167 -10.333 -43.5 -13c0 -12 -0.166992 -23.833 -0.5 -35.5s-2.16602 -27.5 -5.49902 -47.5l-3 -32c-0.666992 -7.33301 -1 -14.333 -1 -21c0 -10.667 0.333008 -19.167 1 -25.5s2 -16.5 4 -30.5z" />
    <glyph glyph-name="h" unicode="h" horiz-adv-x="971" 
d="M674 511c-22 -24.667 -52.499 -54.668 -91.499 -90.001l-136.5 -118c-106 -86.667 -190.333 -165.667 -253 -237c-14 -15.333 -41 -25.333 -81 -30c-32 0 -48 13.333 -48 40c0 2.66699 0.666992 8.16699 2 16.5s10 16 26 23s32.667 17.167 50 30.5
c22 16.667 36.667 28 44 34c11.333 8.66699 34.333 28 69 58l84 73l91 82l179 171c58.667 58.667 102.667 106 132 142l-90 86l-145 142l-81 81l-86 83l-155 152c-30.667 28.667 -67 56.334 -109 83.001c-17.333 11.333 -26 22.666 -26 33.999c0 16 14.667 32.667 44 50
c21.333 12 39.666 18 54.999 18c16 0 29 -5.66699 39 -17l67 -68c12 -13.333 49 -50.666 111 -111.999l193 -188l194 -187l112 -109c3.33301 -16.667 5 -29.667 5 -39c0 -24 -9 -40 -27 -48c-24.667 -8.66699 -80.667 -60.667 -168 -156z" />
    <glyph glyph-name="i" unicode="i" horiz-adv-x="383" 
d="M248 158c0 -44.667 8.33301 -76.335 25 -95.002c6 -6 4 -11.333 -6 -16c-18 -8.66699 -57 -13 -117 -13c-58.667 0 -88 12.667 -88 38c0 7.33301 3.33301 17.666 10 30.999c26 47.333 39 108.333 39 183c0 44 -0.666992 123.833 -2 239.5s-2 185.834 -2 210.501l-3 459
c0 40 -11.833 75.333 -35.5 106s-41.167 55.334 -52.5 74.001c-4.66699 8.66699 -7 16.334 -7 23.001c0 9.33301 4.33301 17 13 23c17.333 11.333 64 17 140 17c63.333 0 95 -10.333 95 -31c0 -2 -0.666992 -5 -2 -9c-9.33301 -28 -14 -77.333 -14 -148l3 -547z" />
    <glyph glyph-name="j" unicode="j" horiz-adv-x="948" 
d="M119 1209c0 25.333 -2.33105 48.499 -6.99805 69.499s-12.334 40.5 -23.001 58.5c-3.33301 8 -5 14.333 -5 19c0 30 35 45 105 45c65.333 0 98 -12.333 98 -37c0 -6.66699 -3 -14 -9 -22c-26.667 -32.667 -40 -63.667 -40 -93v-155v-114v-119v-120
c22 8.66699 42.333 18.334 61 29.001s45.667 28.334 81 53.001c30.667 20.667 53.334 38 68.001 52c10.667 10.667 21 24 31 40l55.5 78.5c18.333 26.333 33.166 50.5 44.499 72.5c8.66699 18 14.834 33.5 18.501 46.5s5.5 24.5 5.5 34.5
c0 5.33301 -0.666992 12.666 -2 21.999s-2 16 -2 20c0 32.667 -1.33301 56.667 -4 72s-8.33398 36.333 -17.001 63c-2 6 -3 11.333 -3 16c0 32.667 37.333 49 112 49c43.333 0 65 -10.667 65 -32c0 -8.66699 -2.66699 -18 -8 -28c-21.333 -38.667 -32 -76.334 -32 -113.001
c0 -34.667 -1.66699 -59 -5 -73s-14.666 -42 -33.999 -84c-16.667 -37.333 -37.667 -73.333 -63 -108l-66 -85c-17.333 -24.667 -36.833 -47.5 -58.5 -68.5s-48.5 -42.167 -80.5 -63.5c-15.333 -10.667 -29.333 -19.667 -42 -27c-4 -2.66699 -9.33301 -5.66699 -16 -9
l73 -45c54 -33.333 93.333 -59.666 118 -78.999c52.667 -41.333 95.667 -87.666 129 -138.999c44.667 -68 78 -148.333 100 -241c7.33301 -29.333 18.666 -54.333 33.999 -75c6.66699 -8.66699 10 -16 10 -22c0 -7.33301 -3.33301 -18 -10 -32
c-10.667 -22 -21.334 -37.667 -32.001 -47s-22.334 -14 -35.001 -14c-7.33301 0 -14.666 0.833008 -21.999 2.5s-18.666 4.5 -33.999 8.5c-4.66699 0.666992 -7.5 12 -8.5 34s-1.83301 44.333 -2.5 67l-14 120c-6.66699 36 -19 61.333 -37 76
c-11.333 43.333 -46 92 -104 146c-48.667 45.333 -102.334 85.166 -161.001 119.499s-96.334 50.166 -113.001 47.499v-253c0 -33.333 0.833008 -76 2.5 -128s2.5 -82.333 2.5 -91c0 -14 8.33301 -40.667 25 -80c3.33301 -8 5 -14.333 5 -19c0 -26.667 -31.333 -40 -94 -40
c-53.333 0 -87.666 6 -102.999 18c-9.33301 8.66699 -14 18.334 -14 29.001c0 2.66699 0.666992 6.66699 2 12c6.66699 18 16.667 33.667 30 47c13.333 15.333 20.333 26.333 21 33v363l1 247l3 206v240z" />
    <glyph glyph-name="k" unicode="k" horiz-adv-x="948" 
d="M108 1213c0 25.333 -2.33105 48.499 -6.99805 69.499s-12.334 40.5 -23.001 58.5c-3.33301 8 -5 14 -5 18c0 24.667 35 37 105 37c65.333 0 98 -9.66699 98 -29c0 -6 -3 -13 -9 -21c-26.667 -32.667 -40 -63.667 -40 -93v-155v-114v-119v-171
c40 17.333 93 48.666 159 93.999c32.667 22 60 42.333 82 61s37 34.667 45 48l38 57l56 88c43.333 68.667 65 119 65 151c0 60.667 -7 113 -21 157c-2 6 -3 11.333 -3 16c0 32.667 37.333 49 112 49c43.333 0 65 -10.333 65 -31c0 -8.66699 -2.66699 -18 -8 -28
c-21.333 -39.333 -32 -77.333 -32 -114c0 -40 -24.333 -101.833 -73 -185.5s-93.334 -153.167 -134.001 -208.5c-32 -45.333 -79.833 -89.166 -143.5 -131.499s-132.834 -82.5 -207.501 -120.5v-220c0 -33.333 0.833008 -76 2.5 -128s2.5 -82.333 2.5 -91
c0 -14 8.33301 -40.667 25 -80c3.33301 -8 5 -14.333 5 -19c0 -26.667 -31.333 -40 -94 -40c-53.333 0 -87.666 6 -102.999 18c-9.33301 8.66699 -14 18.334 -14 29.001c0 2.66699 0.666992 6.66699 2 12c6.66699 18 16.667 33.667 30 47c13.333 15.333 20.333 26.333 21 33
v363l1 247l3 206v240z" />
    <glyph glyph-name="l" unicode="l" horiz-adv-x="1034" 
d="M542 774l121.003 72.9971c22 12 50 36 84 72c26.667 28.667 52 63 76 103l31 50c10 16 19.167 29.5 27.5 40.5s14.833 16.5 19.5 16.5c3.33301 0 5.66602 -2.5 6.99902 -7.5s2 -11.833 2 -20.5c0 -24 -3.33301 -59.333 -10 -106c-4 -34 -41.333 -75.333 -112 -124
l-112 -74l-124 -78l-3 -115v-197l1 -190c0 -54.667 0.666992 -85.334 2 -92.001c8 -37.333 16 -67.666 24 -90.999c4 -12 -2.16699 -21.333 -18.5 -28s-43.5 -10 -81.5 -10c-78 0 -117 11 -117 33c0 5.33301 0.666992 9.33301 2 12l38 82v78l1 171l-1 176v91l-182 -108
c-40.667 -24.667 -76.667 -55.667 -108 -93c-16 -19.333 -27 -44 -33 -74c-0.666992 -5.33301 -2.33398 -15.666 -5.00098 -30.999s-4 -26.333 -4 -33c-1.33301 -8.66699 -2.5 -13 -3.5 -13s-2.16699 1.33301 -3.5 4l-23 95c-2 7.33301 -3 15 -3 23
c0 26.667 12.667 54.334 38 83.001c31.333 35.333 70 68.333 116 99c18 12.667 39.167 26.167 63.5 40.5s46.5 26.5 66.5 36.5l82 40l2 456c0 58.667 -2 92.667 -6 102c-28.667 47.333 -41.334 80.333 -38.001 99c4 14 42.333 21 115 21c60.667 0 91 -9.33301 91 -28
c0 -14.667 -6 -47.667 -18 -99c-1.33301 -7.33301 -2.83301 -15.166 -4.5 -23.499s-2.5 -14.833 -2.5 -19.5l-2 -65l2 -132z" />
    <glyph glyph-name="m" unicode="m" horiz-adv-x="775" 
d="M208 1239c0 -27.333 1 -58.335 3 -93.002c4.66699 -81.333 7 -130.666 7 -147.999c0 -21.333 2.33301 -70 7 -146c2.66699 -43.333 4 -75.333 4 -96l10 2l77.5 45.5c35 21 73 45.333 114 73s82.833 57.834 125.5 90.501l-121 96c-28 24 -53 44 -75 60l-64 50zM78 1309
c0 16 -10.334 36.3311 -31.001 60.998c-4 5.33301 -6 10 -6 14c0 17.333 32.667 31 98 41l21 2l24 -22l80 -69c40.667 -34.667 103 -81.334 187 -140.001s141.833 -102.5 173.5 -131.5s47.5 -51.5 47.5 -67.5c0 -15.333 -11 -30 -33 -44
c-21.333 -12 -46.333 -31.333 -75 -58c-22.667 -20 -68.667 -52 -138 -96c-74 -47.333 -126.667 -85.666 -158 -114.999l151 -98l141 -86c91.333 -53.333 134.333 -89 129 -107c-5.33301 -17.333 -78 -72.666 -218 -165.999l-112 -75l-179 -114
c-9.33301 -6.66699 -20.333 -10 -33 -10c-11.333 0 -25.666 4 -42.999 12s-26 23 -26 45c0 12.667 2.33301 26 7 40c0 0.666992 1.66699 38.334 5 113.001c1.33301 30 2 61.667 2 95l2 352c0 34 -1 89 -3 165s-3 135 -3 177c0 45.333 -1.66699 99.333 -5 162
s-5 102.667 -5 120zM215.999 140.996c114 66.667 232 142.333 354 227c-58 33.333 -118.333 70 -181 110l-169 113l-3 -225z" />
    <glyph glyph-name="n" unicode="n" horiz-adv-x="1342" 
d="M592 662c-115.333 14 -235.002 87.999 -359.002 221.999c-54.667 60 -89 132 -103 216s-38.667 142.667 -74 176c-6 6 -3 17.333 9 34l40 54c26 35.333 46 53 60 53c3.33301 0 6.33301 -1.33301 9 -4c36 -37.333 54 -105.666 54 -204.999c0 -98 32.333 -186 97 -264
c42 -52 92.833 -93.333 152.5 -124s97.167 -47.667 112.5 -51v105c0 17.333 -0.666992 47.5 -2 90.5s-2 67.167 -2 72.5c0 20 -1 47.667 -3 83s-3 61 -3 77c0 25.333 -1 44.833 -3 58.5s-5 25.5 -9 35.5c-9.33301 24 -14 43.333 -14 58s5 26 15 34
c10.667 6.66699 22.5 11.834 35.5 15.501s26.833 5.5 41.5 5.5c28 0 54.667 -6 80 -18c16 -7.33301 24 -22.333 24 -45c0 -12.667 -2.33301 -26.334 -7 -41.001c-2 -7.33301 -5.33301 -20.666 -10 -39.999s-7.66699 -32 -9 -38c-6 -30 -9 -54.667 -9 -74v-176v-206
c42 0 92.833 19.333 152.5 58s100.834 76 123.501 112c42 67.333 79.333 140.333 112 219c30 74.667 45 134.667 45 180c0 36.667 9 57.334 27 62.001c8 2 16.333 3 25 3c12 0 23 -2.33301 33 -7c20.667 -10 31 -22.667 31 -38c0 -7.33301 -2 -15 -6 -23
c-12.667 -26 -19.334 -43.333 -20.001 -52c0 -18 -15.833 -69 -47.5 -153s-78.167 -167.667 -139.5 -251c-53.333 -72.667 -115.166 -124.5 -185.499 -155.5s-120.833 -49.167 -151.5 -54.5c0 -26.667 0.666992 -75.334 2 -146.001s2 -114 2 -130
c0 -37.333 0.666992 -75 2 -113s3 -78 5 -120c0 -24 9.33301 -42.333 28 -55c13.333 -8.66699 20 -22 20 -40c0 -6.66699 -1 -14 -3 -22c-4.66699 -14.667 -36.667 -26 -96 -34c-22 -2.66699 -35.167 -4.16699 -39.5 -4.5s-12.5 -0.5 -24.5 -0.5c-20 0 -33 3 -39 9
c-13.333 13.333 -20 27 -20 41c0 7.33301 2 14.666 6 21.999c11.333 19.333 19.333 40.333 24 63c2.66699 14 4.33398 29.5 5.00098 46.5s1 39.833 1 68.5v161v133v97l3 9z" />
    <glyph glyph-name="o" unicode="o" horiz-adv-x="1643" 
d="M1412 173c23.333 -8.66699 42.332 -14.832 56.999 -18.499s27 -5.5 37 -5.5c6 1.33301 9 -0.333984 9 -5.00098c0 -6.66699 -8.33301 -22 -25 -46c-23.333 -30.667 -58.333 -49.334 -105 -56.001c-4 -0.666992 -10 -1 -18 -1c-38.667 0 -75.667 18 -111 54l-50 112
l-108 253l-116 269l-71 164c-80.667 175.333 -127.334 265.333 -140.001 270c-10.667 4 -31 -27.333 -61 -94l-90 -191l-85 -178l-58 -117l-77 -154l-77 -149c-52 -99.333 -92.333 -170 -121 -212c-9.33301 -15.333 -29.666 -23 -60.999 -23
c-9.33301 0 -16.666 0.333008 -21.999 1c-34 2.66699 -51 19.334 -51 50.001c0 8.66699 0.5 16 1.5 22s15.5 20 43.5 42s49.333 42.333 64 61c15.333 22.667 43.666 72 84.999 148l138 269l50 104l48 99l49 104c49.333 106.667 87 193.334 113 260.001
c18 47.333 27 83.333 27 108c0 19.333 -5.66699 32 -17 38c-21.333 11.333 -32 27.333 -32 48c0 4.66699 0.833008 11 2.5 19s20.834 12 57.501 12c36 0 59.333 3 70 9c18.667 7.33301 57 -52.334 115 -179.001l60 -132l63 -142l68 -153l100 -228l97 -213
c64 -136 111 -209 141 -219z" />
    <glyph glyph-name="p" unicode="p" horiz-adv-x="1140" 
d="M88 1279c0 56.667 -5.66699 95.335 -17 116.002c-2 4 -3 7.66699 -3 11c0 14 22.333 21 67 21s69 -1.66699 73 -5c6.66699 -4 28.334 -26.333 65.001 -67c82 -86.667 191 -181 327 -283s244.333 -177.667 325 -227c46.667 -28.667 70 -53.334 70 -74.001
c0 -8.66699 -4.33301 -15.334 -13 -20.001c-24 -14.667 -57.333 -31.667 -100 -51c-53.333 -24 -116 -50.333 -188 -79c-80 -32 -164 -72 -252 -120l-143 -78l-69 -35c-0.666992 -8 -1.33398 -20.667 -2.00098 -38s-1 -33.333 -1 -48v-60v-22
c0 -10.667 -0.333008 -20.667 -1 -30l-2 -27c0 -13.333 7.66699 -27.666 23 -42.999c17.333 -15.333 30.666 -31.333 39.999 -48c2.66699 -4.66699 4 -9.66699 4 -15c0 -8.66699 -4 -16.667 -12 -24c-13.333 -11.333 -51.666 -17 -114.999 -17c-48 0 -79.667 5 -95 15
c-12 10 -18 23.333 -18 40c1.33301 6.66699 3.83301 14.167 7.5 22.5s7.83398 16.166 12.501 23.499c9.33301 15.333 14.666 28 15.999 38v568zM811 765.001l-191.001 133l-102 72c-26 19.333 -60.333 46.333 -103 81l-191 156c0 -58.667 0.5 -133 1.5 -223
s1.5 -135.667 1.5 -137l1 -361l252 135c36.667 18.667 82.334 40 137.001 64c59.333 26 124 52.667 194 80z" />
    <glyph glyph-name="q" unicode="q" horiz-adv-x="1080" 
d="M231 1379c-6 -8.66699 7.66992 -28.668 41.0029 -60.001c17.333 -15.333 34 -31.666 50 -48.999l48 -54c103.333 -123.333 166 -185 188 -185c3.33301 -0.666992 15.666 10.333 36.999 33l71 78l118 151c11.333 13.333 37 46.666 77 99.999
c11.333 15.333 19.666 25.333 24.999 30c15.333 -10.667 30.333 -21.667 45 -33c30 -23.333 44 -39.666 42 -48.999c-1.33301 -6 -8.66602 -17 -21.999 -33c-34 -40.667 -51.333 -61.667 -52 -63c-5.33301 1.33301 -10.333 2.66602 -15 3.99902
c-18.667 16.667 -29.334 23.334 -32.001 20.001l-124 -165c-18 -24 -39.333 -49.667 -64 -77c-22 -24.667 -34 -38.667 -36 -42c-9.33301 -16 -24 -35 -44 -57l-29 -31c-9.33301 0 -26.666 9.33301 -51.999 28c-28 20.667 -52.333 43 -73 67l-112 114
c-36 44 -67.333 76.667 -94 98c-8 6 -14.667 9 -20 9c-10.667 0 -16 -16.333 -16 -49l1 -129l2 -320c0 -30 1.66699 -100 5 -210c1.33301 -44 2 -84.333 2 -121c0 -50 1.16699 -92.833 3.5 -128.5s5.66602 -71 9.99902 -106s11.833 -67.5 22.5 -97.5
c1.33301 -5.33301 2 -8.66602 2 -9.99902c0 -24.667 -40 -37 -120 -37c-62 0 -93 12.667 -93 38c0 7.33301 3.66699 16.333 11 27c28.667 41.333 43 89 43 143l-1 291c0 46.667 -0.5 93.5 -1.5 140.5s-1.83301 96.5 -2.5 148.5l-10 244v124c0 42.667 0.333008 86.667 1 132
c0 44.667 10 75.167 30 91.5s40.667 25.5 62 27.5c23.333 0 42.666 -3.83301 57.999 -11.5s21.333 -14.834 18 -21.501z" />
    <glyph glyph-name="r" unicode="r" horiz-adv-x="1318" 
d="M1138 885c46.667 -17.333 78.332 -25 94.999 -23c5.33301 1.33301 8 -0.333984 8 -5.00098c0 -6 -8.66699 -21.333 -26 -46c-22 -30 -53 -49 -93 -57c-4 -0.666992 -9.66699 -1 -17 -1c-34 0 -68 18 -102 54l-37 43l-83 98l-94 111l-73 86l2 -208
c0 -34 0.666992 -91.833 2 -173.5s2 -127.5 2 -137.5l4 -301l1 -183c0 -22 1 -40.5 3 -55.5s6 -29.5 12 -43.5c4.66699 -12 -3.33301 -21 -24 -27s-54 -9 -100 -9c-53.333 0 -80 13 -80 39c0 7.33301 2.66699 16.333 8 27c21.333 41.333 33 72.666 35 93.999
c0 37.333 1 88.333 3 153c4.66699 151.333 7 262.333 7 333c0 83.333 -0.666992 157 -2 221c-4.66699 224 -7 339.333 -7 346c-42 -52 -101.833 -112 -179.5 -180s-148.167 -151 -211.5 -249c-7.33301 -10.667 -17 -18.834 -29 -24.501s-27.333 -8.5 -46 -8.5
c-29.333 0 -44 13 -44 39c0 3.33301 0.666992 10.333 2 21c2 8 15.5 22.333 40.5 43s45.833 41.334 62.5 62.001c20.667 26.667 45.667 55.334 75 86.001s63.666 64.334 102.999 101.001c78.667 73.333 147.334 149 206.001 227l47 65c14 20 26.667 31.667 38 35
c20 4 51.333 -20.667 94 -74l137 -180l145 -192c46.667 -60 85.334 -95.333 116.001 -106z" />
    <glyph glyph-name="s" unicode="s" horiz-adv-x="1157" 
d="M982 138c23.333 -6.66699 39 -12.999 47 -18.999c2.66699 -2 4 -4.33301 4 -7c0 -6 -5.33301 -15.333 -16 -28c-24.667 -26.667 -49.667 -43.334 -75 -50.001c-5.33301 -1.33301 -9 -2 -11 -2c-22.667 0 -50.667 18 -84 54l-39 39l-90 103l-122 147
c-24.667 31.333 -45.667 51.333 -63 60c-4 1.33301 -7.66699 2 -11 2c-10 0 -21 -6.33301 -33 -19c-11.333 -14.667 -34 -40.667 -68 -78l-118 -128l-142 -158c-14 -16 -39.333 -27 -76 -33c-28 -4 -42 7.33301 -42 34c0 3.33301 0.5 9.5 1.5 18.5s11.5 17.167 31.5 24.5
s38.333 19.333 55 36c10.667 10.667 31 32.334 61 65.001l85 93c60.667 67.333 122 143 184 227l7 255c0 47.333 -0.666992 106.5 -2 177.5s-2.33301 137.167 -3 198.5s-1 118.666 -1 171.999l-23 47c-2.66699 5.33301 -4 11.333 -4 18c0 20.667 20.667 35.334 62 44.001
c8 2 16 3.33301 24 4s15.667 1 23 1c18 0 28.333 -6.5 31 -19.5s4 -34.167 4 -63.5v-138v-237v-244l1 -161l78 -98l116 -140l120 -132c40 -38.667 69.333 -60.334 88 -65.001z" />
    <glyph glyph-name="t" unicode="t" horiz-adv-x="828" 
d="M231 1416c-6 -8.66699 7.66504 -28.667 40.998 -60c10 -8.66699 37.333 -41 82 -97l160 -201c44.667 -52.667 79.667 -92 105 -118c17.333 -17.333 32 -30 44 -38c6 -4 23 -18.667 51 -44c8.66699 -7.33301 21.334 -18.666 38.001 -33.999
c2 -16 -2.83301 -29.167 -14.5 -39.5s-28.167 -15.5 -49.5 -15.5c-8.66699 0 -15 0.333008 -19 1c-24.667 3.33301 -54.667 24.666 -90 63.999l-88 102c-28 27.333 -70.667 75.666 -128 144.999c-73.333 88.667 -113.666 137 -120.999 145l-54 39
c0 -2 -0.833008 -28.833 -2.5 -80.5s-2.5 -89.167 -2.5 -112.5l3 -303l6 -348c0 -111.333 2.66699 -187.333 8 -228c1.33301 -14.667 5.66602 -31.5 12.999 -50.5l21 -53.5c1.33301 -2.66699 2 -7 2 -13c0 -15.333 -9.83301 -28.5 -29.5 -39.5s-47.834 -16.5 -84.501 -16.5
c-27.333 0 -46.666 3.5 -57.999 10.5s-17 17.5 -17 31.5c0 10 3.83301 24.333 11.5 43s12.667 37.834 15 57.501s3.5 42.5 3.5 68.5v30l-1 280c0 42.667 0.166992 86.667 0.5 132s0.833008 92.333 1.5 141c0 31.333 -0.666992 76.5 -2 135.5s-2 92.833 -2 101.5
c0 38 1 92 3 162s3 120.333 3 151c-4.66699 26.667 -7 43 -7 49c0 4.66699 3 9.66699 9 15c20 16 33.833 26.167 41.5 30.5s16.5 6.83301 26.5 7.5c8.66699 0 18.834 -3.33301 30.501 -10l32.5 -19c15.333 -7.33301 21.333 -14.333 18 -21z" />
    <glyph glyph-name="u" unicode="u" horiz-adv-x="1357" 
d="M61 53c28 39.333 69.002 79.332 123.002 119.999l82 58l78.5 52l75.5 47c16.667 10 38.667 22.333 66 37l45 26l15 10c0 10.667 -31.5 42.334 -94.5 95.001s-124.5 92 -184.5 118c-29.333 12.667 -54.333 22.334 -75 29.001s-40.334 11.667 -59.001 15
c-30.667 5.33301 -46 29.666 -46 72.999c0 40.667 42.333 95.834 127 165.501s155 135.5 211 197.5l79 86l72.5 82.5c20.333 23.667 41.666 45 63.999 64s43.833 34.167 64.5 45.5c17.333 8 45.666 -16.667 84.999 -74s88 -121.666 146 -192.999l86.5 -100
c29 -32 61.167 -65.667 96.5 -101c66 -62.667 100.667 -99.334 104 -110.001c3.33301 -19.333 -21.5 -41 -74.5 -65s-108.833 -56.667 -167.5 -98l-52 -33c-34 -19.333 -52 -29.666 -54 -30.999c-16 -11.333 -28 -19.333 -36 -24c-34 -20.667 -62.333 -39.167 -85 -55.5
s-34 -27.5 -34 -33.5c4 -27.333 22 -54 54 -80c12 -10 28 -22.667 48 -38c12 -9.33301 29.667 -22.333 53 -39l108 -82c15.333 -12 32.666 -24.333 51.999 -37l48 -31c16.667 -8.66699 42 -13 76 -13c36 0 58.667 -2.33301 68 -7c5.33301 -2 5 -9.83301 -1 -23.5
s-18 -34.5 -36 -62.5c-27.333 -41.333 -55.333 -62 -84 -62c-6.66699 0 -13 1 -19 3c-31.333 10.667 -72.666 35.334 -123.999 74.001l-144 120l-131 114c-37.333 32.667 -63.666 51.667 -78.999 57c-2.66699 0.666992 -6.66699 1 -12 1
c-34.667 0 -87.334 -28.333 -158.001 -85c-78 -60.667 -146 -118.334 -204 -173.001c-4 -4 -6 -8.66699 -6 -14c0 -8.66699 6.66699 -21.334 20 -38.001c12.667 -13.333 19 -23.333 19 -30c0 -4 -3 -6 -9 -6c-36 0 -66.167 -0.333008 -90.5 -1
s-47.166 -1.33398 -68.499 -2.00098c-19.333 0 -32.333 1.66699 -39 5c-6.66699 4.66699 -10 11 -10 19s3.33301 17.333 10 28zM405.002 945.999c-14.667 -16 -28.832 -29.832 -42.499 -41.499s-26.834 -22.167 -39.501 -31.5c-24 -16 -37.333 -33.333 -40 -52
c-2 -16.667 10.667 -39.667 38 -69c25.333 -25.333 76.666 -66 153.999 -122c60.667 -43.333 104 -77 130 -101c20.667 -18.667 38.334 -28 53.001 -28c12.667 2 27.834 14.167 45.501 36.5s53.167 51.666 106.5 87.999s98.666 62 135.999 77s59.333 30.5 66 46.5
c1.33301 4 2 7.66699 2 11c0 15.333 -11 36 -33 62c-8.66699 10.667 -27 31.667 -55 63l-87 96c-52 56 -91.167 96.833 -117.5 122.5s-53.833 38.5 -82.5 38.5c-24.667 0 -55 -16.333 -91 -49l-60 -60z" />
    <glyph glyph-name="v" unicode="v" horiz-adv-x="1114" 
d="M609 1310l-234.999 -200l-84 -76l-99 -96l288 -169l91 -51c5.33301 -2.66699 10.666 -5 15.999 -7c0 19.333 2.33301 77.333 7 174c2.66699 55.333 4 97 4 125zM710.001 1278l0.000976562 -282.009c0 -39.333 -0.333008 -95.666 -1 -168.999s-1 -127 -1 -161
c0 -115.333 1 -216.666 3 -303.999s4 -163.666 6 -228.999c28.667 -33.333 43 -58.333 43 -75c0 -12.667 -9.33301 -20 -28 -22l-109 -9h-48c-23.333 0 -38.333 2 -45 6c-8.66699 6 -13 14 -13 24c0 2.66699 0.666992 6.66699 2 12c4.66699 14.667 13.667 34.334 27 59.001
c6 10 11 21.667 15 35s6.66699 26.666 8 39.999l1 124c0 50.667 1.66699 95.334 5 134.001c-41.333 -28 -87.333 -70.667 -138 -128s-90 -98.666 -118 -123.999c-91.333 -83.333 -144.833 -134.166 -160.5 -152.499s-37.834 -27.5 -66.501 -27.5c-32 0 -52 23.667 -60 71
c8 -1.33301 14 -2 18 -2c28 0 58.667 16 92 48l131 129l151 154c61.333 64.667 111.666 113.667 150.999 147c-14.667 13.333 -43.667 32.333 -87 57l-138 82l-138 81c-44 26 -73.667 45 -89 57c-30 22.667 -50.667 40.334 -62 53.001s-14.333 22 -9 28
c6.66699 6.66699 27.334 25 62.001 55l156 133l209 178l97 82c19.333 15.333 32 23 38 23l30 2c62.667 0 94 -5.33301 94 -16c0 -3.33301 -1.33301 -6.66602 -4 -9.99902c-16 -21.333 -24 -55.666 -24 -102.999z" />
    <glyph glyph-name="w" unicode="w" horiz-adv-x="1240" 
d="M189 653c-45.333 36 -81.333 67.5068 -108 94.5068s-40 51.833 -40 74.5c0 40.667 37 87.667 111 141c36 25.333 70.5 52.166 103.5 80.499s63.5 57.666 91.5 87.999l79.5 88l71.5 82.5c44.667 52 88 88.333 130 109c16 8 44.167 -17.333 84.5 -76
s88.666 -122.5 144.999 -191.5s115.666 -135.333 177.999 -199s93.5 -98.834 93.5 -105.501c0 -19.333 -23 -42.333 -69 -69l-74 -45c-25.333 -16 -52.666 -34.333 -81.999 -55l-51 -37l-90 -67l-87 -68c-26 -20 -39 -32 -39 -36v-133c0 -14.667 0.333008 -36.834 1 -66.501
s1 -51.834 1 -66.501c0 -24 1.83301 -46.5 5.5 -67.5s8.83398 -41.167 15.501 -60.5c2 -6 3 -11 3 -15c0 -20 -26.333 -30 -79 -30c-38.667 0 -68.167 2.66699 -88.5 8s-30.5 12.666 -30.5 21.999c0 3.33301 2 7.66602 6 12.999c19.333 22 29 51 29 87
c0 22.667 -0.333008 53 -1 91s-1 64.333 -1 79c0 27.333 -1.5 48 -4.5 62s-9.83301 25 -20.5 33c-34 21.333 -70 50 -108 86c-18.667 18 -42 39 -70 63zM328 983.007c-64 -58 -101.995 -99.668 -113.995 -125.001c-10.667 -23.333 50 -87 182 -191
c48 -37.333 81.667 -65.666 101 -84.999c22 -20 42 -32 60 -36c9.33301 -1.33301 19.166 -0.333008 29.499 3s21.166 8.83301 32.499 16.5s27.166 19.167 47.499 34.5l66.5 52c48.667 38.667 90.167 68.5 124.5 89.5s53.833 40.167 58.5 57.5
c4 19.333 -6.16699 44.166 -30.5 74.499s-65.5 78.5 -123.5 144.5c-65.333 72 -110 119.333 -134 142s-46.667 34 -68 34c-4.66699 0 -8.33398 -0.333008 -11.001 -1c-23.333 -7.33301 -49.833 -29.166 -79.5 -65.499s-76.834 -84.5 -141.501 -144.5z" />
    <glyph glyph-name="x" unicode="x" horiz-adv-x="1557" 
d="M92 1218c0 25.333 -2.33105 48.499 -6.99805 69.499s-12.334 40.5 -23.001 58.5c-3.33301 8 -5 14 -5 18c0 24.667 35 37 105 37c65.333 0 98 -9.66699 98 -29c0 -6 -3 -13 -9 -21c-26.667 -32.667 -40 -63.667 -40 -93v-155v-114v-119v-171
c40 17.333 93 48.666 159 93.999c32.667 22 60 42.333 82 61s37 34.667 45 48l38 57l56 88c43.333 68.667 65 119 65 151c0 60.667 -7 113 -21 157c-2 6 -3 11.333 -3 16c0 32.667 37.333 49 112 49c43.333 0 65 -10.333 65 -31c0 -8.66699 -2.66699 -18 -8 -28
c-21.333 -39.333 -32 -77.333 -32 -114c0 -40 -24.333 -101.833 -73 -185.5s-93.334 -153.167 -134.001 -208.5c-32 -45.333 -79.833 -89.166 -143.5 -131.499s-132.834 -82.5 -207.501 -120.5v-220c0 -33.333 0.833008 -76 2.5 -128s2.5 -82.333 2.5 -91
c0 -14 8.33301 -40.667 25 -80c3.33301 -8 5 -14.333 5 -19c0 -26.667 -31.333 -40 -94 -40c-53.333 0 -87.666 6 -102.999 18c-9.33301 8.66699 -14 18.334 -14 29.001c0 2.66699 0.666992 6.66699 2 12c6.66699 18 16.667 33.667 30 47c13.333 15.333 20.333 26.333 21 33
v363l1 247l3 206v240zM1429 132.999c23.333 -6.66699 39 -12.999 47 -18.999c2.66699 -2 4 -4.33301 4 -7c0 -6 -5.33301 -15.333 -16 -28c-24.667 -26.667 -49.667 -43.334 -75 -50.001c-5.33301 -1.33301 -9 -2 -11 -2c-22.667 0 -50.667 18 -84 54l-39 39l-90 103
l-122 147c-24.667 31.333 -45.667 51.333 -63 60c-4 1.33301 -7.66699 2 -11 2c-10 0 -21 -6.33301 -33 -19c-11.333 -14.667 -34 -40.667 -68 -78l-118 -128l-142 -158c-14 -16 -39.333 -27 -76 -33c-28 -4 -42 7.33301 -42 34c0 3.33301 0.5 9.5 1.5 18.5
s11.5 17.167 31.5 24.5s38.333 19.333 55 36c10.667 10.667 31 32.334 61 65.001l85 93c60.667 67.333 122 143 184 227l7 255c0 47.333 -0.666992 106.5 -2 177.5s-2.33301 137.167 -3 198.5s-1 118.666 -1 171.999l-23 47c-2.66699 5.33301 -4 11.333 -4 18
c0 20.667 20.667 35.334 62 44.001c8 2 16 3.33301 24 4s15.667 1 23 1c18 0 28.333 -6.5 31 -19.5s4 -34.167 4 -63.5v-138v-237v-244l1 -161l78 -98l116 -140l120 -132c40 -38.667 69.333 -60.334 88 -65.001z" />
    <glyph glyph-name="y" unicode="y" horiz-adv-x="798" 
d="M174 593l55 71.998l105 132l122 154l103 138c4.66699 6 20 15.333 46 28c5.33301 2.66699 11 4 17 4c17.333 0 31 -14.333 41 -43c4 -11.333 7.5 -31.166 10.5 -59.499s4.5 -59.166 4.5 -92.499v-247l-6 -252l-3 -166c0 -18 5.16699 -37.667 15.5 -59
s17.5 -42.666 21.5 -63.999c0.666992 -3.33301 1 -8 1 -14c0 -14 -5 -27.667 -15 -41c-13.333 -16 -43.333 -27 -90 -33c-12 -1.33301 -20.667 -2.33301 -26 -3s-10 -1 -14 -1c-20.667 0 -35.5 5.16699 -44.5 15.5s-13.5 24.166 -13.5 41.499c0 6 0.333008 10.333 1 13
c3.33301 22.667 10.833 46.167 22.5 70.5s18.667 45.333 21 63s4.33301 35.667 6 54s2.5 41.5 2.5 69.5l5 210l-3 213c0 28.667 -0.833008 55 -2.5 79s-3.83398 45.667 -6.50098 65l-72 -90l-104 -128l-99 -120l-54 -68c-50.667 -60.667 -88 -91 -112 -91
c-36.667 0 -53.667 12.333 -51 37v45c0 16 0.333008 33 1 51c0 40 -1.16699 102.667 -3.5 188s-3.5 147.666 -3.5 186.999c0 36 -0.333008 92 -1 168s-1 134.333 -1 175c0 19.333 -6.33301 38.666 -19 57.999c-5.33301 10 -9.66602 19.167 -12.999 27.5s-6 17.166 -8 26.499
c0 16.667 9.33301 30 28 40c10 5.33301 24.833 9.33301 44.5 12s46.167 4 79.5 4c18 0 27 -6.33301 27 -19c0 -5.33301 -0.666992 -9.66602 -2 -12.999c-4 -9.33301 -7.5 -23.666 -10.5 -42.999s-4.5 -39.666 -4.5 -60.999c0 -59.333 -0.333008 -105 -1 -137
c-3.33301 -158.667 -5 -243 -5 -253c0 -51.333 1.33301 -115 4 -191s4 -126.667 4 -152z" />
    <glyph glyph-name="z" unicode="z" horiz-adv-x="1495" 
d="M583 932l0.00195312 33v28v23v19v15v13v11c0 28.667 -1.66699 51 -5 67c0 24.667 -0.666992 43.667 -2 57s-3.66602 28.166 -6.99902 44.499s-6 24.833 -8 25.5h-4l-16 16c-8.66699 10.667 -15.334 22.667 -20.001 36c-2.66699 12.667 2.5 24.834 15.5 36.501
s42.5 17.5 88.5 17.5c68 0 102 -10.667 102 -32c0 -5.33301 -1.66699 -10.666 -5 -15.999c-18.667 -30.667 -28 -62 -28 -94l-4 -149l-7 -231c0 -29.333 -0.166992 -51.5 -0.5 -66.5s-0.833008 -27.5 -1.5 -37.5c0.666992 -14 1.16699 -30.667 1.5 -50s0.5 -36 0.5 -50
c12.667 -14 29.834 -31.667 51.501 -53l72.5 -70c24.667 -22 45 -41 61 -57c6 -5.33301 12.667 -12 20 -20c0 -3.33301 15.333 -21.666 46 -54.999l101 -106l102 -104l46 -47c15.333 -4 32.166 -11.333 50.499 -22s38.833 -24.667 61.5 -42c20 -15.333 30 -27 30 -35
c0 -11.333 -17.333 -17 -52 -17c-60 0 -102.333 4 -127 12s-40.834 18.667 -48.501 32s-12.834 27.666 -15.501 42.999c0 14.667 -8.33301 29.667 -25 45c-9.33301 6.66699 -25.666 22.667 -48.999 48l-67 77l-31.5 35c-12.333 13.333 -20.5 21.666 -24.5 24.999
c-7.33301 7.33301 -12 11 -14 11l2 -12l-30 33l-63 72c-9.33301 11.333 -20 23.333 -32 36l-31 32c-8 8 -15.333 14.667 -22 20c-2.66699 0.666992 -5 1.66699 -7 3v-68v-128v-126v-63c0 -13.333 12.667 -38.666 38 -75.999c5.33301 -8 8 -15.667 8 -23
c0 -21.333 -31 -32 -93 -32c-58.667 0 -94 3.33301 -106 10s-18 14 -18 22c0 2.66699 0.666992 6 2 10c7.33301 13.333 17.666 28.666 30.999 45.999c15.333 16.667 23 34.334 23 53.001l5 154l5 225l-115 -137l-58 -73c-8.66699 -8.66699 -19.667 -21 -33 -37
s-28.5 -35.333 -45.5 -58l-47.5 -65c-14.667 -20.667 -25.667 -37.334 -33 -50.001c-13.333 -24.667 -20 -44 -20 -58c0 -11.333 4.33301 -20.333 13 -27c4 -3.33301 6 -5.66602 6 -6.99902c0 -9.33301 -33 -14 -99 -14c-61.333 0 -96.333 5.33301 -105 16
c-4.66699 4.66699 -7 10 -7 16s3.66699 12.667 11 20c12 12.667 28.333 25 49 37l31 17c38.667 37.333 82.667 85.666 132 144.999l95 107l51 60l78 96l71 91c20.667 26.667 31 42.667 31 48l-5 120v149z" />
    <glyph glyph-name="bar" unicode="|" horiz-adv-x="479" 
d="M279 165c0 -20 3 -39.665 9 -58.998l19 -60c0 -9.33301 -5.83301 -16 -17.5 -20s-35.167 -6 -70.5 -6s-59.666 7.33301 -72.999 22s-20 37 -20 67c0 8 4 50.667 12 128c4 38.667 6 71.334 6 98.001c0 66.667 -0.833008 166.667 -2.5 300s-2.5 220.666 -2.5 261.999
c0 68 -1 141 -3 219l-6.5 249.5c-2.33301 88.333 -3.5 146.833 -3.5 175.5c-12 222.667 -18 351.667 -18 387c0 23.333 4.16699 37.666 12.5 42.999s28.166 8 59.499 8h27c26.667 0 45 -9.33301 55 -28s15 -46.334 15 -83.001c0 -21.333 -2.66699 -61.333 -8 -120
s-8 -104.667 -8 -138c0 -63.333 1 -139 3 -227l6.5 -292c2.33301 -106.667 3.5 -185 3.5 -235z" />
    <glyph glyph-name="asciitilde" unicode="~" horiz-adv-x="1485" 
d="M548 1972c28 0 64.3281 -1.66602 108.995 -4.99902c12 -0.666992 69.333 -5.66699 172 -15c70.667 -6.66699 141.834 -13 213.501 -19s126.834 -10.833 165.501 -14.5s63 -5.5 73 -5.5c20 0 34.333 4 43 12l42 40c0 -40 -21.667 -72.333 -65 -97
c-40 -22.667 -90 -34 -150 -34c-90 0 -171.167 4 -243.5 12s-151.166 16.167 -236.499 24.5s-193.666 12.5 -324.999 12.5c-51.333 0 -106.666 -13.667 -165.999 -41c-20 -8.66699 -45 -22.667 -75 -42c8 12.667 15 23 21 31c17.333 24 35.666 46.333 54.999 67
c28.667 30.667 69.334 53 122.001 67c40.667 10.667 86 16 136 16c28 0 54 -1.33301 78 -4c8.66699 -0.666992 19 -2.33398 31 -5.00098z" />
    <glyph glyph-name="nonbreakingspace" unicode="&#xa0;" horiz-adv-x="500" 
 />
    <glyph glyph-name="copyright" unicode="&#xa9;" horiz-adv-x="2700" 
d="M1490 1529c6.66699 5.33301 13.667 8 21 8c8.66699 0 15.667 -2.66699 21 -8s8 -12.333 8 -21c0 -9.33301 -2.66699 -16.333 -8 -21c-4.66699 -5.33301 -11.667 -8 -21 -8c-8.66699 0 -15.667 2.66699 -21 8s-8 12.333 -8 21c0 7.33301 2.66699 14.333 8 21zM1490 1679
c5.33301 3.33301 10.666 5 15.999 5c9.33301 0 17 -4.66699 23 -14c3.33301 -5.33301 5 -10.666 5 -15.999c0 -9.33301 -4.66699 -17 -14 -23c-5.33301 -3.33301 -10.666 -5 -15.999 -5c-9.33301 0 -17 4.66699 -23 14c-3.33301 5.33301 -5 10.666 -5 15.999
c0 9.33301 4.66699 17 14 23zM2384 1811h210l-78 -456h-78l78 378l-156 -24zM2156 1829c-28 -11.333 -50.5 -28.001 -67.5 -50.001s-25.5 -46.667 -25.5 -74c0 -8 1 -16.667 3 -26c6.66699 -29.333 21 -52.833 43 -70.5s48 -26.5 78 -26.5c7.33301 0 13 0.333008 17 1
l-12 -222h66c0 59.333 12.167 133.333 36.5 222s36.5 143.667 36.5 165c0 24.667 -6.33301 44.334 -19 59.001s-30.834 23.5 -54.5 26.5c-23.667 3 -41.834 4.5 -54.5 4.5c-10.667 0 -18.667 -0.5 -24 -1.5s-13 -3.5 -23 -7.5zM1910 1823
c-28 -14.667 -49.9971 -32.001 -65.9971 -52.001c-18.667 -22.667 -28 -46.667 -28 -72c0 -5.33301 1.33301 -14 4 -26c7.33301 -28 21.666 -50 42.999 -66s47 -24 77 -24l6 -222h60c0 61.333 8 139 24 233s24 152.333 24 175c0 26 -4.33301 45.5 -13 58.5
s-23.667 19.5 -45 19.5c-10 0 -21.333 -1.66699 -34 -5s-22.334 -6.16602 -29.001 -8.49902s-14.334 -5.83301 -23.001 -10.5zM1616 1721c-0.666992 2.66699 -1 7 -1 13c0 22 6.66699 41.667 20 59s31 29.333 53 36c12 3.33301 22 5 30 5c12 0 26 -3.66699 42 -11l24 -480
l-78 -6l-6 426zM1244 1490v-189l54 -9l9 72l63 -63h72l-99 99l54 108h-63l-27 -81l-27 63h-36zM1055 1445c-17.333 -21.333 -25.9971 -42.666 -25.9971 -63.999c0 -10.667 3 -22.834 9 -36.501s14.5 -24.5 25.5 -32.5s24.833 -14.333 41.5 -19s30 -7 40 -7
c10.667 0 22.667 2 36 6l-9 45l-36 27l63 45c2.66699 26.667 -6.33301 47.667 -27 63c-10.667 8 -23.334 12 -38.001 12c-7.33301 0 -16.333 -1.16699 -27 -3.5s-19.834 -6 -27.501 -11s-15.834 -13.167 -24.501 -24.5zM848.006 1508l18.001 -234.001c15.333 0 28 1 38 3
s21.333 7 34 15c23.333 14 38.333 25.167 45 33.5s10 17.833 10 28.5c0 4.66699 -0.333008 8 -1 10c-5.33301 24.667 -20.333 39.667 -45 45c13.333 0 24.166 5.33301 32.499 16s12.5 23.334 12.5 38.001c0 11.333 -4.66699 20.666 -14 27.999
c-3.33301 2.66699 -13.5 8.33398 -30.5 17.001s-33.5 13 -49.5 13s-32.667 -4.33301 -50 -13zM1217.01 1796v-170.999h54v90c11.333 6 22 9 32 9c9.33301 0 19.666 -3 30.999 -9c23.333 -12.667 35 -32.334 35 -59.001c0 -10 -2.66699 -20.333 -8 -31h36
c15.333 18 23 39.333 23 64c0 34 -13.667 60.667 -41 80c-17.333 12.667 -35.666 19 -54.999 19c-15.333 0 -30 -3.33301 -44 -10l-18 36zM1055.01 1724l90 17.998c0.666992 4 1 9.66699 1 17c0 22 -9.33301 40.333 -28 55c-6.66699 5.33301 -13.167 9 -19.5 11
s-13.5 3 -21.5 3s-16.333 -1.33301 -25 -4s-17.667 -6 -27 -10c-20 -9.33301 -35.167 -21.833 -45.5 -37.5s-15.5 -33.5 -15.5 -53.5c0 -7.33301 0.333008 -13 1 -17c4 -21.333 14.333 -38.666 31 -51.999c12 -9.33301 31.667 -19 59 -29
c9.33301 -3.33301 19.333 -5.66602 30 -6.99902s21.667 -2 33 -2l18 72zM827.007 1871l12 -93l-66 12l21 -75l54 27l-9 -144h72l-27 144l45 -18l18 72l-66 -27l12 99zM587.007 1625l8.99902 162h63l9 -54c-1.33301 11.333 1.5 21.333 8.5 30s16.167 13.667 27.5 15
c10.667 0 20.334 -4.66699 29.001 -14s13 -20 13 -32c0 -6 -2 -11.667 -6 -17l-9 -54l-78 36l15 -93zM425.006 1778c16 16.667 35.333 24.999 58 24.999c20.667 0 39 -7.16699 55 -21.5s24 -33.833 24 -58.5c0 -21.333 -7 -39.666 -21 -54.999s-33.333 -23 -58 -23
c-20.667 0 -39 7.5 -55 22.5s-24 34.167 -24 57.5c0 20 7 37.667 21 53zM71.0059 1940l3 -297h72v126l45 -81l90 126l-12 -159l84 6l12 279l-93 -27l-54 -81l-54 81z" />
    <glyph glyph-name="Aacute" unicode="&#xc1;" 
d="M781 686c2 5.33301 4.33203 10.6689 6.99902 16.002c2 15.333 3 32.333 3 51c0 27.333 -1.16699 52.166 -3.5 74.499s-5.16602 37.166 -8.49902 44.499c-11.333 21.333 -56.666 73 -135.999 155l-230 229c-84.667 81.333 -140.667 132.333 -168 153
c0 -28 -0.333008 -59.667 -1 -95s-1 -65.333 -1 -90c0 -12.667 39 -59 117 -139c58.667 -60.667 137.667 -137.667 237 -231c87.333 -82 148.666 -138 183.999 -168zM251.999 1026c4 -33.333 7.16406 -63.502 9.49707 -90.502s3.5 -48.5 3.5 -64.5
c0 -58 0.666992 -161.667 2 -311s2 -238.666 2 -267.999c0 -50.667 3.33301 -84 10 -100s15.667 -59.667 27 -131c3.33301 -22 -4 -40 -22 -54c-14.667 -11.333 -30 -17 -46 -17c-4.66699 0 -7.66699 0.666992 -9 2c-0.666992 2.66699 -1 5 -1 7
c-2.66699 2.66699 -39 4 -109 4c-42 0 -63 9 -63 27c0 8 5.33301 19 16 33c32 38 48 71.333 48 100c0 134.667 -0.5 242.167 -1.5 322.5s-2 173.166 -3 278.499s-1.5 171 -1.5 197l-12 463l-4 222c0 38 7.33301 63.333 22 76c12 9.33301 20.667 15.833 26 19.5
s10.333 5.5 15 5.5c7.33301 0 19 -8.66699 35 -26l98 -110c88.667 -105.333 161.667 -189 219 -251c44.667 -48.667 101.334 -107.334 170.001 -176.001c12.667 -12.667 35.667 -38 69 -76c36 -40.667 65.333 -72 88 -94c14.667 -14 27 -30 37 -48l31 -54
c8.66699 -8 15.834 -19.333 21.501 -34s8.5 -31.667 8.5 -51c0 -32.667 -0.333008 -65 -1 -97l-2 -92c0 -20.667 -0.666992 -75.667 -2 -165s-2 -168.666 -2 -237.999c0 -126.667 8.66699 -200 26 -220c3.33301 -3.33301 5 -6.33301 5 -9c0 -4.66699 -9 -7.66699 -27 -9
s-51.333 -2 -100 -2s-79.667 11.667 -93 35c-9.33301 18.667 -14 39.667 -14 63c0 8 0.833008 17.833 2.5 29.5s10.834 46.167 27.501 103.5c7.33301 24.667 11 41.334 11 50.001c0 44 1.33301 78 4 102c6.66699 60 10 102 10 126c0 3.33301 -45.333 46.333 -136 129
l-254 235c-92 88.667 -139 141.334 -141 158.001z" />
    <glyph glyph-name="Ccedilla" unicode="&#xc7;" horiz-adv-x="1278" 
d="M906 1427c0 30.667 -0.833008 54.3301 -2.5 70.9971s-4.16699 33.5 -7.5 50.5s-10.333 31.5 -21 43.5c-3.33301 4 -8.66602 8.66699 -15.999 14c-8 9.33301 -14.167 18 -18.5 26s-6.5 16.667 -6.5 26c0 14 6.33301 27 19 39c16 14 53 21 111 21
c85.333 0 128 -13.333 128 -40c0 -6 -2 -12.667 -6 -20c-24 -39.333 -36 -78.666 -36 -117.999c0 -15.333 -0.833008 -45.166 -2.5 -89.499s-2.5 -76.5 -2.5 -96.5c0 -54 -1.33301 -116 -4 -186s-5.33398 -144 -8.00098 -222v-8c0 -2 0.333008 -3 1 -3l9 -514v-237
c0 -16 15.667 -47.667 47 -95c7.33301 -11.333 11 -21 11 -29c0 -26.667 -39 -40 -117 -40c-57.333 0 -97.5 3.16699 -120.5 9.5s-34.5 16.166 -34.5 29.499c0 4 1 8.66699 3 14l39 55c18.667 26.667 28 49.667 28 69l6 192c0 54.667 0.833008 124.167 2.5 208.5l4.5 226.5
l-144 -172l-168 -200c-56.667 -68 -103.334 -126.333 -140.001 -175l-59 -81c-14 -20 -27.333 -41 -40 -63s-21.167 -49 -25.5 -81s-37.166 -48 -98.499 -48c-76.667 0 -120.667 6.66699 -132 20c-5.33301 6.66699 -8 13.334 -8 20.001c0 8 4.33301 16.333 13 25
c16 16 36.667 31.333 62 46l39 21l76 80l89 102l114 133l112 129l91 108c53.333 64.667 101 125.334 143 182.001c48.667 65.333 73 102.666 73 111.999c0 96.667 -0.333008 178.334 -1 245.001z" />
    <glyph glyph-name="Eacute" unicode="&#xc9;" horiz-adv-x="1062" 
d="M746 403c0 -30 0.663086 -57.3281 1.99609 -81.9951c4 -73.333 6 -112.333 6 -117c0 -26.667 -0.5 -45 -1.5 -55s-3 -23.667 -6 -41s-4.5 -31.333 -4.5 -42c0 -40 17.667 -60 53 -60c4.66699 0 11.667 0.666992 21 2c26.667 5.33301 50.334 13 71.001 23
c6.66699 3.33301 26.334 15 59.001 35c25.333 17.333 38 34 38 50c0 10 -4 20 -12 30c-24 30 -36 59.333 -36 88c0 44 -6.16699 98.667 -18.5 164s-18.5 122 -18.5 170c0 34.667 -0.666992 91.167 -2 169.5s-2 119.166 -2 122.499l1 303c0 26 4.66699 101.667 14 227
c4.66699 62.667 7 115.334 7 158.001c0 43.333 4.5 81.166 13.5 113.499s20.5 57.166 34.5 74.499c4.66699 5.33301 7 12 7 20c0 13.333 -7 25.166 -21 35.499s-32.667 15.5 -56 15.5c-16 0 -34 -3.16699 -54 -9.5s-41.167 -16.833 -63.5 -31.5s-33.5 -46 -33.5 -94
c4.66699 -18 8.5 -37.167 11.5 -57.5s4.5 -39.166 4.5 -56.499l5 -201l6 -236c0 -26 -1 -50.333 -3 -73c-4.66699 -52.667 -7 -83.334 -7 -92.001c-13.333 9.33301 -64.666 42.666 -153.999 99.999l-202 132c-70.667 48 -117.667 83 -141 105c0 0.666992 2 40.334 6 119.001
c2 39.333 3 93 3 161c0 40 11 84 33 132c4 9.33301 6 17.666 6 24.999c0 32 -39 48 -117 48c-39.333 0 -66.666 -2.83301 -81.999 -8.5s-23 -14.834 -23 -27.501c0 -8 2.33301 -15.667 7 -23c14 -25.333 23 -42.666 27 -51.999c10 -22.667 15 -42.667 15 -60
c-0.666992 -4.66699 -1 -8.33398 -1 -11.001v-83l1 -190l1 -215l1 -157l-2 -157l-4 -220l-5 -212l-7 -131c-1.33301 -8 -5.33301 -19.333 -12 -34c-18.667 -39.333 -29.834 -68.333 -33.501 -87s-5.5 -30.667 -5.5 -36c0 -41.333 27.333 -62 82 -62
c27.333 0 48 1.66699 62 5s29.333 11 46 23c6.66699 4.66699 11 15.5 13 32.5s3 41.5 3 73.5c0 20 -1.66699 45.333 -5 76c-8 74.667 -12 128.667 -12 162v247v116c38.667 -28.667 91.334 -65 158.001 -109s117.334 -78.333 152.001 -103
c59.333 -41.333 117.666 -85.333 174.999 -132zM251.996 1152c19.333 -17.333 66.666 -52 141.999 -104l210 -141c78.667 -52.667 128 -86.667 148 -102c2.66699 -17.333 4.33398 -33.333 5.00098 -48s1 -32.667 1 -54c0 -12.667 -0.333008 -36 -1 -70s-1 -62 -1 -84
c-16 14.667 -62.667 49.667 -140 105l-205 145c-74 52 -122.667 87 -146 105c0 96 -0.666992 155.5 -2 178.5s-3.33301 34.5 -6 34.5h-4c-0.666992 2 -1 13.667 -1 35z" />
    <glyph glyph-name="Eth" unicode="&#xd0;" horiz-adv-x="1053" 
d="M932 69c4 -12 5.99805 -19.999 5.99805 -23.999c0 -8.66699 -8.16699 -15.167 -24.5 -19.5s-47.833 -6.5 -94.5 -6.5c-19.333 0 -36.333 -1.16699 -51 -3.5l-42 -6.5c-5.33301 0 -10.333 7 -15 21c-2 6 -3 12.667 -3 20c0 14 3 29.5 9 46.5l19 53.5
c0 25.333 -0.166992 51 -0.5 77s-0.5 52.667 -0.5 80c0 44 0.333008 79.833 1 107.5s3.5 66.334 8.5 116.001s8.66699 104.834 11 165.501s3.5 111 3.5 151c-11.333 -6 -53.333 -43.333 -126 -112l-169 -164c-46 -44 -88.333 -81 -127 -111
c-42 -32.667 -76.333 -53.667 -103 -63c-18 -6.66699 -33.667 -10 -47 -10c-14.667 0 -26.667 4.66699 -36 14s-15.666 25.666 -18.999 48.999c-2.66699 16 8.33301 28.333 33 37l73 26c44 20 84.333 46.333 121 79l73 69c10.667 10.667 45 42.667 103 96l125 118
c45.333 44 76.666 76.667 93.999 98c0 56.667 0.166992 115.167 0.5 175.5s0.833008 122.833 1.5 187.5l6 165c0.666992 8.66699 1.33398 25.5 2.00098 50.5s1.33398 43.167 2.00098 54.5c0 -0.666992 -27.667 -29.334 -83 -86.001l-185 -190l-192 -205
c-20 -22 -43.667 -43.667 -71 -65c-21.333 -16.667 -43.666 -31.667 -66.999 -45c-7.33301 -4 -14.666 -6 -21.999 -6c-18 0 -34.833 7.5 -50.5 22.5s-23.5 31.5 -23.5 49.5c0 8.66699 2.66699 17.334 8 26.001c12 15.333 23.167 26 33.5 32s20.166 9 29.499 9
c4.66699 0 9.16699 -0.333008 13.5 -1l13.5 -2c8 0 15.333 3 22 9l201 201c65.333 67.333 112 117.666 140 150.999l146 171c50 56 90.333 97 121 123c36 30.667 64.667 46 86 46c7.33301 0 14.666 -2.5 21.999 -7.5s12.5 -16.5 15.5 -34.5s4.5 -43.333 4.5 -76
c0 -30.667 -0.666992 -60.334 -2 -89.001c-4.66699 -99.333 -7 -153 -7 -161l-2 -650l-3 -660c0 -36 6 -69 18 -99z" />
    <glyph glyph-name="Ntilde" unicode="&#xd1;" horiz-adv-x="1764" 
d="M1475 1700c2 -6 5.33105 -14.3311 9.99805 -24.998s7 -18.667 7 -24c0 -8.66699 -4.16699 -18.167 -12.5 -28.5s-21.5 -21.5 -39.5 -33.5l-58 -29c-4.66699 -3.33301 -22.667 -20.666 -54 -51.999c-8.66699 -8.66699 -47.667 -58 -117 -148l-181 -236l-93 -124l101 -135
l217 -288l202 -261c40.667 -50.667 72.334 -86.334 95.001 -107.001c18 -16.667 32.333 -25 43 -25c4 0 7.66699 0.666992 11 2c11.333 4.66699 18.333 7 21 7c8.66699 0 17.334 -2.83301 26.001 -8.5s16.667 -11.167 24 -16.5c11.333 -10 17 -20 17 -30
s-4.66699 -19.667 -14 -29c-12 -12 -29.833 -23.333 -53.5 -34s-41.5 -19 -53.5 -25c-20 -10 -30.333 -15 -31 -15c-1.33301 0 -3.66602 2 -6.99902 6c-5.33301 6 -13 11.333 -23 16c-28 13.333 -49 27.666 -63 42.999l-55 68l-353 437
c-89.333 109.333 -143.666 176.666 -162.999 201.999c-26 34 -37.333 55.333 -34 64l-124 -178l-145 -202l-150 -216l-132 -198c-24 -34.667 -40.667 -52 -50 -52c-3.33301 0 -8 2.33301 -14 7c-42.667 18 -76.334 33.333 -101.001 46c-27.333 14.667 -41 28.334 -41 41.001
c0 4.66699 0.666992 8 2 10c18 35.333 33.333 57.666 46 66.999c6.66699 4.66699 17.334 7 32.001 7c17.333 0 33.666 5.33301 48.999 16c25.333 17.333 56.666 51.333 93.999 102l171 241l191 277c60 88.667 90 135 90 139c0 20.667 -40.667 85 -122 193l-239 303
l-167 206.5c-6 7.66699 -15.667 11.5 -29 11.5c-8.66699 0 -19.167 -1.16699 -31.5 -3.5l-39.5 -7.5c-5.33301 0 -8 1.33301 -8 4c0 4.66699 7.66699 16 23 34c22.667 26 48.834 47.667 78.501 65s56.5 26 80.5 26c22 0 39.333 -7.66699 52 -23l254 -333l182 -245l69 -95
c0.666992 0 26 32 76 96l156 209c62.667 88 105 155.5 127 202.5s48.667 88 80 123s59.333 52.5 84 52.5c17.333 0 33.166 -7.5 47.499 -22.5s27.5 -39.833 39.5 -74.5z" />
    <glyph glyph-name="Oacute" unicode="&#xd3;" horiz-adv-x="2745" 
d="M1299 775l-17.999 -34.999l-67 -136l-68 -133l-68 -131l-89 -164c-27.333 -48 -50.333 -86.333 -69 -115c-7.33301 -10.667 -20 -18.167 -38 -22.5s-42 -6.5 -72 -6.5c-46 5.33301 -69 27.333 -69 66c0 8 1.16699 17.167 3.5 27.5s21.833 29.833 58.5 58.5
c17.333 12.667 33 25.834 47 39.501s26 27.167 36 40.5c18.667 26 55.667 90.333 111 193l57.5 111l59 113.5l66.5 131.5l54 111l-92 214c-106 231.333 -167.333 350 -184 356c-15.333 5.33301 -42.333 -36 -81 -124l-118 -250l-89 -186l-100 -203l-67 -136l-68 -133
l-68 -131l-89 -164c-27.333 -48 -50.333 -86.333 -69 -115c-7.33301 -10.667 -20 -18.167 -38 -22.5s-42 -6.5 -72 -6.5c-46 5.33301 -69 27.333 -69 66c0 8 1.16699 17.167 3.5 27.5s21.833 29.833 58.5 58.5c17.333 12.667 33 25.834 47 39.501s26 27.167 36 40.5
c18.667 26 55.667 90.333 111 193l57.5 111l59 113.5l66.5 131.5l64 133l64 135l65 136c65.333 142 115 256 149 342l44 119l23 63c4 10.667 14 39 30 85c4 12 19 25.667 45 41c24.667 9.33301 75.334 -69.334 152.001 -236.001l223 -501l45 96c65.333 142 115 256 149 342
c17.333 44 31.833 83 43.5 117s19.5 55.667 23.5 65c24.667 57.333 40.667 91.666 48 102.999c4.66699 7.33301 13.667 15 27 23c24.667 9.33301 75.167 -69 151.5 -235l250.5 -564l89 -201l87 -193l84 -186c42 -88 78.667 -156.5 110 -205.5s56.666 -76.833 76 -83.5
c62.667 -22.667 101 -33.167 115 -31.5s21 -0.166016 21 -5.49902c0 -10.667 -11.333 -30.667 -34 -60c-28.667 -40.667 -74.334 -65.334 -137.001 -74.001c-12 -1.33301 -20.333 -2 -25 -2c-50.667 0 -99 23.667 -145 71l-65 148l-144 333l-152 353l-93 216
c-106 231.333 -167.333 350 -184 356c-15.333 5.33301 -42.333 -36 -81 -124l-118 -250l-76 -159l75 -169l74 -164l72 -158c42 -88 76.333 -155.167 103 -201.5s48.334 -75.5 65.001 -87.5c13.333 -9.33301 24 -22.833 32 -40.5s12 -35.834 12 -54.501
c0 -20 -4.83301 -37 -14.5 -51s-22.834 -22 -39.501 -24s-27.334 -3 -32.001 -3c-50.667 0 -99 23.667 -145 71l-65 148l-144 333z" />
    <glyph glyph-name="Odieresis" unicode="&#xd6;" horiz-adv-x="1962" 
d="M857 1299l-88.998 -188l-89 -186l-100 -203l-67 -136l-68 -133l-68 -131l-89 -164c-27.333 -48 -50.333 -86.333 -69 -115c-7.33301 -10.667 -20 -18.167 -38 -22.5s-42 -6.5 -72 -6.5c-46 5.33301 -69 27.333 -69 66c0 8 1.16699 17.167 3.5 27.5
s21.833 29.833 58.5 58.5c17.333 12.667 33 25.834 47 39.501s26 27.167 36 40.5c18.667 26 55.667 90.333 111 193l57.5 111l59 113.5l66.5 131.5l64 133l64 135l65 136c65.333 142 115 256 149 342c24 62 36 109.333 36 142c0 25.333 -7.66699 41.666 -23 48.999
c-27.333 14.667 -41 35.667 -41 63c0 6.66699 0.5 12.834 1.5 18.501s8 11 21 16s31.5 7.5 55.5 7.5c26 0 46.167 1 60.5 3s24.833 5 31.5 9c24.667 9.33301 75.167 -69 151.5 -235l250.5 -564l89 -201l87 -193l84 -186c42 -88 78.667 -156.5 110 -205.5
s56.666 -76.833 75.999 -83.5c62.667 -22.667 101 -33.167 115 -31.5s21 -0.166016 21 -5.49902c0 -10.667 -11.333 -30.667 -34 -60c-28.667 -40.667 -74.334 -65.334 -137.001 -74.001c-12 -1.33301 -20.333 -2 -25 -2c-50.667 0 -99 23.667 -145 71l-65 148l-144 333
l-152 353l-93 216l-43 93c-23.333 50 -43.333 91.333 -60 124c-4 -27.333 -6 -65.333 -6 -114l3 -547l4 -545c0 -44.667 8.33301 -76.334 25 -95.001c6 -6 4 -11.333 -6 -16c-18 -8.66699 -57 -13 -117 -13c-58.667 0 -88 12.667 -88 38c0 7.33301 3.33301 17.666 10 30.999
c26 47.333 39 108.333 39 183c0 44 -0.666992 123.833 -2 239.5s-2 185.834 -2 210.501l-3 459c0 40 -11.667 74.667 -35 104z" />
    <glyph glyph-name="Uacute" unicode="&#xda;" horiz-adv-x="1602" 
d="M397 1065c-27.333 -18.667 -43.002 -39.335 -47.002 -62.002c-2 -21.333 13 -48.166 45 -80.499s93 -80.833 183 -145.5c43.333 -31.333 85.333 -65.333 126 -102c50.667 -45.333 81 -68 91 -68c23.333 2.66699 68.333 28 135 76l117 87
c74.667 55.333 129.334 98.333 164.001 129c27.333 24 43.333 41.667 48 53c2.66699 6.66699 -11.666 22 -42.999 46c-20 15.333 -35 29 -45 41c-3.33301 3.33301 -30.333 23 -81 59c-28.667 20 -55 43 -79 69c-33.333 36.667 -71 73.334 -113 110.001
c-32 28.667 -61.333 53 -88 73c-22.667 17.333 -34.667 26 -36 26c-13.333 -1.33301 -41.333 -19.333 -84 -54c-25.333 -20.667 -56.333 -48 -93 -82l-88 -85c-36.667 -33.333 -74 -63.333 -112 -90zM679.998 1463l-58.0039 50l-116 99l-86 73
c-64 52 -112.333 87.667 -145 107c-44.667 26.667 -85.334 40 -122.001 40c-12 0 -25.667 -1.66699 -41 -5c-5.33301 -0.666992 -8 0.666016 -8 3.99902c0 7.33301 6.33301 19 19 35s23.334 27.5 32.001 34.5l27 22.5c17.333 9.33301 51.333 14 102 14
c17.333 0 44.666 -8.66699 81.999 -26c32 -15.333 53.333 -27.333 64 -36c25.333 -24.667 47 -44.334 65 -59.001l83 -70l170 -149c11.333 -9.33301 25 -21.333 41 -36c18 6.66699 42.5 21.167 73.5 43.5s75.167 58.166 132.5 107.499c16.667 14.667 52.667 44.667 108 90
l64 53c58.667 46 107.334 75.333 146.001 88c12 4 23.333 6 34 6c14 0 27.333 -4.5 40 -13.5s25.667 -23.5 39 -43.5l39 -58c4 -6 3.33301 -10 -2 -12c-7.33301 -3.33301 -12.666 -5.66602 -15.999 -6.99902c-13.333 -6 -29.333 -9 -48 -9h-41
c-12.667 0 -22.334 -0.333008 -29.001 -1s-14.167 -3.5 -22.5 -8.5s-27.5 -13.667 -57.5 -26s-52.167 -24 -66.5 -35s-43.5 -35.5 -87.5 -73.5c-20.667 -18 -37.667 -32 -51 -42c-18.667 -13.333 -48.667 -38 -90 -74l-60 -53c4.66699 -12 21.667 -30.333 51 -55l89 -73
c36.667 -30.667 64.667 -58 84 -82c25.333 -31.333 61.333 -67.333 108 -108c65.333 -56.667 104.666 -91.667 117.999 -105c32 -31.333 66.333 -58.333 103 -81c12 -7.33301 18.333 -12.666 19 -15.999c4 -22 -25 -48 -87 -78c-15.333 -6.66699 -23.666 -11 -24.999 -13
c-17.333 -21.333 -128.666 -98.666 -333.999 -231.999c-38 -23.333 -72.5 -46.5 -103.5 -69.5s-46.5 -38.167 -46.5 -45.5c6.66699 -12.667 43.167 -45.334 109.5 -98.001s133.5 -102.667 201.5 -150l102 -77c22 -13.333 57.667 -20 107 -20c24 0 41.667 -0.333008 53 -1
s21 -3 29 -7c6 -3.33301 5.5 -13.166 -1.5 -29.499s-21.5 -40.833 -43.5 -73.5c-33.333 -49.333 -66.666 -74 -99.999 -74c-5.33301 0 -12.666 1.33301 -21.999 4c-18.667 6 -40.167 16.333 -64.5 31s-51.833 33.667 -82.5 57l-172 143l-154 135
c-51.333 44.667 -85.666 70 -102.999 76c-14.667 -4.66699 -26.667 -9 -36 -13c-56.667 -24 -109.334 -55.333 -158.001 -94c-102.667 -80.667 -183.334 -149.667 -242.001 -207c-4.66699 -4 -7 -9.33301 -7 -16c0 -10.667 7.66699 -25 23 -43s23 -30.667 23 -38
c0 -4.66699 -3.33301 -7 -10 -7c-41.333 0 -76 -0.333008 -104 -1s-54.667 -1.33398 -80 -2.00098c-27.333 0 -44.833 2.33301 -52.5 7s-11.5 11.667 -11.5 21c0 8 4.33301 19 13 33c33.333 46.667 82 94 146 142c67.333 50.667 131 94.667 191 132
c68.667 42.667 124.334 75.667 167.001 99c22 12 40 22.333 54 31c5.33301 3.33301 11.333 7.33301 18 12c0 12.667 -38 51 -114 115c-37.333 30.667 -74.333 57.5 -111 80.5s-72 42.167 -106 57.5c-66 27.333 -118.333 44.333 -157 51s-58 35.667 -58 87
c0 48 51.333 114.333 154 199s185.334 162.334 248.001 233.001c23.333 24.667 54 49.667 92 75c34 22.667 57 42 69 58z" />
    <glyph glyph-name="Udieresis" unicode="&#xdc;" horiz-adv-x="1602" 
d="M489 1198c-36.667 -38.667 -71.001 -69.332 -103.001 -91.999c-29.333 -19.333 -46 -41 -50 -65c-2 -21.333 14 -50 48 -86c17.333 -17.333 41.5 -38.166 72.5 -62.499l119.5 -89.5c78 -56.667 132.333 -98.667 163 -126c14 -12.667 26.333 -21.667 37 -27
s20.334 -8 29.001 -8c6 0.666992 26.667 14 62 40l138 103c18 11.333 53.333 31.666 106 60.999c78.667 43.333 124.334 78.666 137.001 105.999c1.33301 2.66699 2 7 2 13c0 18.667 -13.667 44.667 -41 78c-32.667 40 -91.667 106 -177 198
c-62 67.333 -110.333 117.833 -145 151.5s-69.667 50.5 -105 50.5c-31.333 0 -69.333 -20.667 -114 -62c-34.667 -33.333 -94.334 -94.333 -179.001 -183zM275.999 130.002c-4.66699 -4.66699 -7.00195 -10.3291 -7.00195 -16.9961c0 -12.667 8 -28.167 24 -46.5
s24 -31.5 24 -39.5c0 -4.66699 -3.33301 -7 -10 -7c-43.333 0 -79.833 -0.333008 -109.5 -1s-57.834 -1.33398 -84.501 -2.00098c-29.333 0 -47.333 2 -54 6c-8.66699 6 -13 13.667 -13 23c0 10 4.33301 21.667 13 35c35.333 49.333 86.666 99.333 153.999 150
c64 47.333 131 93.666 201 138.999c63.333 39.333 122 74 176 104c18.667 10 37.334 21 56.001 33l19 12c0 13.333 -39.833 53.166 -119.5 119.499s-155.334 114.666 -227.001 144.999s-127.5 48.833 -167.5 55.5s-60 37.334 -60 92.001c0 51.333 53 121 159 209
c53.333 44 101.666 86 144.999 126c46 42.667 85.667 82.334 119 119.001l186.5 207.5c55.667 64.333 110.167 111.166 163.5 140.499c22.667 10 58.5 -21.167 107.5 -93.5s109.5 -152.5 181.5 -240.5c68.667 -84 144.834 -166.833 228.501 -248.5
s126.834 -128.5 129.501 -140.5c4 -24 -26.667 -51.333 -92 -82c-32 -14 -65.833 -31.333 -101.5 -52s-71.834 -44 -108.501 -70l-65 -41c-22.667 -13.333 -36 -21 -40 -23c-22.667 -13.333 -46.667 -28.333 -72 -45c-38.667 -24 -73.167 -46.667 -103.5 -68
s-45.5 -36 -45.5 -44c4.66699 -34 26.834 -67.167 66.501 -99.5s81.834 -64.5 126.501 -96.5l135 -102c42.667 -32.667 84.667 -61 126 -85c20 -11.333 51.333 -17 94 -17c13.333 0 28.5 -0.166992 45.5 -0.5s30.5 -2.83301 40.5 -7.5c2.66699 -0.666992 4 -3.66699 4 -9
c0 -14.667 -17 -47.834 -51 -99.501s-69 -77.5 -105 -77.5c-8.66699 0 -16.667 1.33301 -24 4c-40.667 14 -92 45 -154 93l-181 150l-136 115c-16 14 -26.667 21 -32 21s-8.83301 -7.33301 -10.5 -22s-2.5 -44.667 -2.5 -90v-39c0 -32.667 2.33301 -63.167 7 -91.5
s11.334 -54.166 20.001 -77.499c4.66699 -10 7 -19.333 7 -28c0 -10 -5.66699 -17.167 -17 -21.5s-31 -6.5 -59 -6.5c-49.333 0 -83.666 1.83301 -102.999 5.5s-29 10.5 -29 20.5c0 4.66699 3 10.667 9 18c12.667 15.333 21.834 31.666 27.501 48.999s8.5 37.333 8.5 60
c0 36.667 -0.166992 78.667 -0.5 126s-0.833008 100.333 -1.5 159c-26.667 -22.667 -72.334 -56.667 -137.001 -102l-163 -114c-60.667 -43.333 -100 -73.333 -118 -90z" />
    <glyph glyph-name="Thorn" unicode="&#xde;" horiz-adv-x="1143" 
d="M953 127c8 -20.667 11.9971 -37.334 11.9971 -50.001c0 -16.667 -7 -29.5 -21 -38.5s-38 -13.5 -72 -13.5c-46 0 -81.5 6.83301 -106.5 20.5s-37.5 30.5 -37.5 50.5c0 4.66699 1 9.66699 3 15c5.33301 14.667 11.333 30.334 18 47.001c14.667 35.333 23 63 25 83
c4 27.333 6.66699 63.666 8 108.999s2 104 2 176c0 43.333 1.33301 114.333 4 213s4 172.667 4 222l3 379c0 62 -0.666992 113.5 -2 154.5s-2.66602 87.833 -3.99902 140.5c0 6.66699 -2.33301 10 -7 10c-9.33301 0 -32.333 -18.667 -69 -56
c-16 -16 -55.333 -58.667 -118 -128c-52 -57.333 -95.667 -103.333 -131 -138c-46 -45.333 -99.333 -93 -160 -143c-76 -62.667 -129.667 -99.334 -161 -110.001c-19.333 28 -32.5 48.833 -39.5 62.5s-10.5 23.834 -10.5 30.501c0 6 3.66699 11.667 11 17
c12.667 9.33301 21 16.333 25 21c0.666992 0.666992 41 20.667 121 60c45.333 22 107 69.667 185 143c10.667 10.667 35.334 39 74.001 85l101 122c37.333 44.667 62 72.667 74 84l89 88c42.667 42.667 72.667 71.334 90 86.001c30 25.333 51.667 38 65 38
c10.667 0 16.334 -7 17.001 -21c-2.66699 -32 -5.16699 -77.333 -7.5 -136s-3.83301 -122.5 -4.5 -191.5s-1 -150.5 -1 -244.5c0 -49.333 -0.333008 -87.333 -1 -114c-2.66699 -106 -4 -167 -4 -183c0 -32.667 0.333008 -90.167 1 -172.5s1 -138.5 1 -168.5l-1 -350v-49
c0 -29.333 1.66699 -55.333 5 -78s10 -46.667 20 -72z" />
    <glyph glyph-name="aacute" unicode="&#xe1;" horiz-adv-x="882" 
d="M625 547l5.99902 12c1.33301 8.66699 2 21.667 2 39c0 24.667 -0.833008 45.5 -2.5 62.5s-4.16699 28.833 -7.5 35.5c-9.33301 16.667 -45.666 58 -108.999 124l-185 184c-68 65.333 -112.333 105.666 -133 120.999c0 -22.667 -0.333008 -48.167 -1 -76.5
s-1 -52.166 -1 -71.499c0 -10 31.333 -47 94 -111c48 -49.333 111.333 -111 190 -185c70 -66 119 -110.667 147 -134zM201.999 819l10.001 -124.004c0 -103.333 0.333008 -190.666 1 -261.999s1.33398 -138.333 2.00098 -201c0 -39.333 2.33301 -65.666 7 -78.999
c6 -12.667 13.667 -48 23 -106c3.33301 -20.667 -4.66699 -36.5 -24 -47.5s-32 -13.5 -38 -7.5c-1.33301 2.66699 -2.66602 5 -3.99902 7c-7.33301 1.33301 -35.333 2 -84 2c-33.333 0 -50 7.33301 -50 22c0 6.66699 4.33301 15.334 13 26.001
c25.333 30.667 38 57.334 38 80.001c0 88 -0.5 168.833 -1.5 242.5s-1.83301 144.667 -2.5 213s-1 129.166 -1 182.499l-9 370l-4 178c0 30 6 50.333 18 61c17.333 13.333 28.333 20 33 20c5.33301 0 14.666 -7 27.999 -21l78 -88l176 -201l135 -141l71 -79
c18 -20 36.333 -39 55 -57c11.333 -10.667 21 -23.167 29 -37.5l25 -43.5c7.33301 -6.66699 13.166 -15.667 17.499 -27s6.5 -25 6.5 -41c0.666992 -5.33301 1 -14.333 1 -27c0 -24 -0.333008 -46.167 -1 -66.5s-1.33398 -39.5 -2.00098 -57.5
c0 -56.667 -0.333008 -112.167 -1 -166.5l-2 -156.5c0 -101.333 7 -160 21 -176c4 -5.33301 2.66699 -9.33301 -4 -12s-38 -4 -94 -4c-38.667 0 -63.334 9.33301 -74.001 28c-4.66699 8 -7.66699 17.333 -9 28s-2 23.334 -2 38.001c2 15.333 9.66699 45.666 23 90.999
c6 20.667 9 34 9 40c0 36 1 63 3 81c5.33301 48.667 8 82.334 8 101.001c0 2.66699 -36 37 -108 103l-204 189c-73.333 70.667 -110.666 112.667 -111.999 126z" />
    <glyph glyph-name="ccedilla" unicode="&#xe7;" horiz-adv-x="1022" 
d="M725 1127c0 20 -0.833008 38.167 -2.5 54.5s-3.83398 31.5 -6.50098 45.5s-9.66699 26.333 -21 37c-1.33301 1.33301 -4 3.33301 -8 6c-6 7.33301 -10.833 14.5 -14.5 21.5s-5.5 13.833 -5.5 20.5c0 11.333 5 21.666 15 30.999c13.333 11.333 43 17 89 17
c68.667 0 103 -10.667 103 -32c0 -4 -1.66699 -9.33301 -5 -16c-19.333 -31.333 -29 -62.666 -29 -93.999l-4 -149c0 -56 -1.16699 -115.667 -3.5 -179s-4.16602 -115.333 -5.49902 -156l7 -412v-189c0 -13.333 12.667 -38.666 38 -75.999c6 -9.33301 9 -17 9 -23
c0 -21.333 -31.333 -32 -94 -32c-44.667 0 -76.5 2.5 -95.5 7.5s-28.5 12.5 -28.5 22.5c0 4 1 8 3 12l31 44c14.667 20.667 22 39 22 55l5 154c0 34.667 1 97.334 3 188.001s3 144 3 160l-116 -138l-134 -160c-48.667 -58.667 -86 -105.334 -112 -140.001
c-18.667 -24.667 -34.5 -46.5 -47.5 -65.5s-23.167 -34.833 -30.5 -47.5c-14 -46 -22.667 -75 -26 -87s-28 -18 -74 -18c-60.667 0 -96 5.33301 -106 16c-4.66699 4.66699 -7 10 -7 16s3.66699 12.667 11 20c13.333 13.333 30 25.666 50 36.999l31 16
c40.667 40.667 84.667 89.334 132 146.001l91 106l89 103l73 87c33.333 40 71.333 88.667 114 146c39.333 52.667 59 82.334 59 89.001c0 51.333 -0.166992 106.666 -0.5 165.999s-0.833008 122.666 -1.5 189.999z" />
    <glyph glyph-name="eacute" unicode="&#xe9;" horiz-adv-x="850" 
d="M597 315c0 -22.667 0.999023 -50.9932 2.99902 -84.9932s3 -58.333 3 -73c0 -27.333 -2.33301 -55.333 -7 -84c-2 -10 -3 -19 -3 -27c0 -32.667 14.667 -49 44 -49c2.66699 0 8 0.666992 16 2c24 4.66699 46.667 13 68 25c6 3.33301 18.5 11.166 37.5 23.499
s28.5 25.166 28.5 38.499c0 8 -3 16 -9 24c-19.333 23.333 -29 46.666 -29 69.999c0 34 -5 77 -15 129s-15 98 -15 138l-3 234l1 242c0 27.333 1.66699 62 5 104c8 100 12 168 12 204c0 36.667 3.16699 67.167 9.5 91.5s15.833 44.166 28.5 59.499
c4 5.33301 6 10.666 6 15.999c0 10.667 -5.5 20.167 -16.5 28.5s-26.167 12.5 -45.5 12.5c-14 0 -28.5 -2.5 -43.5 -7.5s-31.667 -13.5 -50 -25.5s-27.5 -37.333 -27.5 -76c3.33301 -14 6.33301 -30 9 -48s4 -32.333 4 -43l4 -161l5 -188c0 -23.333 -1.33301 -48 -4 -74
s-4 -45.333 -4 -58l-265 172c-69.333 46 -113.666 78.333 -132.999 97c0 20 1.16699 45 3.5 75s3.5 79.667 3.5 149c0 31.333 9 66.666 27 105.999c3.33301 8 5 14.667 5 20c0 25.333 -31.333 38 -94 38c-30 0 -51.5 -2.5 -64.5 -7.5s-19.5 -11.833 -19.5 -20.5
c0 -5.33301 2 -11.666 6 -18.999c9.33301 -16 16.333 -30 21 -42c7.33301 -17.333 11 -33 11 -47v-9v-67l1 -152l1 -172l1 -125l-2 -126l-3 -176l-4 -170l-6 -104l-22 -54c-6.66699 -16 -11.334 -30.333 -14.001 -43s-4 -22.667 -4 -30c0 -32.667 21.667 -49 65 -49
c28.667 0 50 2.66699 64 8c11.333 7.33301 19.333 12.666 24 15.999s7.66699 11.666 9 24.999s2 33 2 59c0 13.333 -1.33301 33.333 -4 60c-6 60 -9 103.333 -9 130v197.5v92.5c32.667 -24 74.834 -53.167 126.501 -87.5l120.5 -81.5c48.667 -34 95.667 -69.333 141 -106z
M201.999 914.007c16 -14.667 53.666 -42.335 112.999 -83.002l168 -113c66.667 -44.667 106.334 -71.667 119.001 -81c2 -13.333 3.33301 -30 4 -50s1 -32 1 -36c0 -13.333 -0.333008 -35.666 -1 -66.999s-1 -48.666 -1 -51.999c-13.333 12 -50.666 40 -111.999 84
l-162 114.5c-58.667 41 -98.334 69.5 -119.001 85.5c0 70 -0.5 115.833 -1.5 137.5s-2.5 32.5 -4.5 32.5c-2.66699 0 -4 9.33301 -4 28z" />
    <glyph glyph-name="eth" unicode="&#xf0;" horiz-adv-x="842" 
d="M760 57c1.33301 -6.66699 3 -13.334 5 -20.001c0 -7.33301 -6.16699 -12.5 -18.5 -15.5s-37.833 -4.5 -76.5 -4.5c-44 -5.33301 -69 -8 -75 -8c-4.66699 0 -8.16699 4.5 -10.5 13.5s-3.5 15.5 -3.5 19.5c0 12 2.33301 24.667 7 38l15 42c0 19.333 -0.166992 39 -0.5 59
s-0.5 40.333 -0.5 61c0 36 0.5 65.833 1.5 89.5s2.83301 50.167 5.5 79.5s5.5 73 8.5 131s4.5 103.667 4.5 137c-10 -5.33301 -43.667 -35 -101 -89l-135 -131c-38 -36 -72 -65.667 -102 -89c-34.667 -26.667 -62 -43.667 -82 -51c-15.333 -4.66699 -28 -7 -38 -7
c-12 0 -21.667 3.66699 -29 11s-12.333 20.333 -15 39c-2 13.333 7 23.666 27 30.999c19.333 6 38.666 12.333 57.999 19c30 13.333 56.667 29.666 80 48.999c10.667 8.66699 35.667 32 75 70l133 123c62.667 58.667 104.334 100.667 125.001 126l1 291l5 132l3 84
c0 -0.666992 -22 -23.667 -66 -69l-148 -152l-154 -164c-15.333 -17.333 -34.333 -34.666 -57 -51.999c-19.333 -14.667 -37 -26.667 -53 -36c-6.66699 -3.33301 -12.667 -5 -18 -5c-14 0 -27.333 6 -40 18s-19 25.333 -19 40c0 7.33301 2 14 6 20
c10 12.667 19 21.334 27 26.001s16 7 24 7c10 -1.33301 17.333 -2 22 -2c6.66699 0 12.334 2.33301 17.001 7l161 161c50.667 52 88 92.333 112 121l117 139c42 48.667 74.333 83 97 103c29.333 26 52.333 39 69 39c5.33301 0 10.666 -2 15.999 -6s9.5 -14.333 12.5 -31
s4.5 -37.667 4.5 -63c0 -14 -1.16699 -45.667 -3.5 -95s-3.5 -85.666 -3.5 -108.999l-2 -520c0 -59.333 -0.166992 -118.5 -0.5 -177.5l-1 -176c-0.333008 -58.333 -0.5 -116.5 -0.5 -174.5c0 -30 4.66699 -56.333 14 -79z" />
    <glyph glyph-name="ntilde" unicode="&#xf1;" horiz-adv-x="1440" 
d="M1180 1362l7.50391 -18.5c3.66699 -9 5.5 -15.833 5.5 -20.5c0 -8 -3 -15.833 -9 -23.5s-16.667 -16.5 -32 -26.5l-46 -23c-4.66699 -3.33301 -19.334 -17.333 -44.001 -42c-6.66699 -6.66699 -37.667 -46 -93 -118l-144 -189l-75 -99l81 -108l173 -230l162 -209
c32.667 -40.667 58 -69.334 76 -86.001c14.667 -13.333 26 -20 34 -20c2.66699 0 6.66699 1.33301 12 4s9.66602 4 12.999 4c6.66699 0 14.334 -2.66699 23.001 -8c5.33301 -4.66699 11 -9 17 -13c9.33301 -8 14 -16 14 -24s-4 -16 -12 -24s-23.5 -17.333 -46.5 -28
s-35.833 -16.667 -38.5 -18c-16 -8 -24.333 -12 -25 -12s-2.66699 1.83301 -6 5.5s-9 7.5 -17 11.5c-22.667 10.667 -39.667 22.334 -51 35.001c-2 2 -16.667 20 -44 54l-282 350c-74.667 91.333 -118.334 145.333 -131.001 162c-20.667 27.333 -29.667 44.333 -27 51
l-99 -143l-116 -161l-120 -173l-87 -132c-30.667 -46 -50.334 -69 -59.001 -69c-2 0 -5.66699 2 -11 6c-38.667 16 -68.334 30 -89.001 42s-28.334 24 -23.001 36c14 28 26.333 45.667 37 53c5.33301 4 14 6 26 6c13.333 0 26.333 4.33301 39 13c20 14 45 41.333 75 82
c28 37.333 73.667 101.666 137 192.999l153 221c48 71.333 72 108.333 72 111c0 16.667 -32.333 68 -97 154l-192 243l-135 166c-4.66699 5.33301 -12.334 8 -23.001 8c-7.33301 0 -18.166 -1.5 -32.499 -4.5s-22.166 -4.5 -23.499 -4.5c-5.33301 0 -7.33301 2.16699 -6 6.5
s7.33301 12.5 18 24.5c18 20.667 38.833 38 62.5 52s45.167 21 64.5 21c18 0 32 -6.33301 42 -19l203 -266l146 -196l55 -76l60 77c52 67.333 93.667 123 125 167c50.667 72 84.667 125.667 102 161c10.667 24.667 26 50.334 46 77.001c31.333 42.667 60 64 86 64
c13.333 0 25.833 -5.83301 37.5 -17.5s22.167 -31.5 31.5 -59.5z" />
    <glyph glyph-name="oacute" unicode="&#xf3;" horiz-adv-x="2196" 
d="M1039 604l-14.0029 -27.9971l-81 -163l-82 -157c-22.667 -44 -46.334 -87.667 -71.001 -131c-22 -38.667 -40.333 -69.334 -55 -92.001c-6 -9.33301 -16.333 -15.666 -31 -18.999s-33.667 -5 -57 -5c-36.667 4 -55 21.667 -55 53c0 9.33301 1 17.5 3 24.5
s17.333 21.667 46 44s51 43.833 67 64.5c16 23.333 45.667 74.666 89 153.999l146 285l43 89l-73 171c-84.667 184.667 -134 279.667 -148 285c-12 4 -33.333 -29 -64 -99l-95 -200c-28.667 -60 -44.334 -93 -47.001 -99l-50 -104l-54 -108l-81 -163l-81 -157
c-51.333 -97.333 -93.666 -172 -126.999 -224c-6 -8.66699 -16.333 -14.667 -31 -18s-33.667 -5 -57 -5c-36.667 4 -55 22.333 -55 55c0 4 0.666992 10.667 2 20c3.33301 9.33301 18.833 24.5 46.5 45.5s50.167 42.833 67.5 65.5c16 23.333 45.667 74.666 89 153.999l69 133
l77 152l155 323c54 118 93.667 209.333 119 274c9.33301 24 22.666 60.667 39.999 110c4.66699 13.333 9 25 13 35c8 19.333 16.333 42 25 68c3.33301 10.667 15 21.667 35 33c20 6.66699 60.667 -56.333 122 -189l56 -124l59 -133c41.333 -93.333 62.333 -141 63 -143
l36 76c52 112 92 203.333 120 274l34.5 94.5c9.66699 27.667 15.834 44.834 18.501 51.501c20.667 47.333 33 74.166 37 80.499s11.667 12.833 23 19.5c19.333 8 60 -54.667 122 -188l63 -139c42.667 -96 65 -146 67 -150l70 -162l71 -161l69 -155l68 -148
c68 -143.333 117.667 -220.333 149 -231c47.333 -16.667 80.666 -25 100 -25c6 1.33301 9 -0.333984 9 -5.00098c0 -7.33301 -9.33301 -23.333 -28 -48c-23.333 -32.667 -59.666 -52.334 -108.999 -59.001c-4.66699 -0.666992 -11.667 -1 -21 -1
c-41.333 0 -79.666 18.667 -114.999 56l-52 119l-116 266l-121 283l-37 87c-18 42.667 -30.667 71 -38 85c-83.333 184.667 -132.333 279.667 -147 285c-12 4 -33.667 -29 -65 -99l-94 -200l-61 -127l90 -202l87 -191c34 -71.333 61.5 -125.333 82.5 -162
s38.167 -59.667 51.5 -69c10.667 -7.33301 19.334 -18.166 26.001 -32.499s10 -29.166 10 -44.499c0 -16 -4 -29.333 -12 -40s-20.333 -17.334 -37 -20.001c-4.66699 -0.666992 -11.667 -1 -21 -1c-41.333 0 -79.666 18.667 -114.999 56l-52 119l-115 266z" />
    <glyph glyph-name="odieresis" unicode="&#xf6;" horiz-adv-x="1570" 
d="M678 1048l-71.001 -150c-28.667 -60 -44.334 -93 -47.001 -99l-50 -104l-54 -108l-81 -163l-81 -157c-51.333 -97.333 -93.666 -172 -126.999 -224c-6 -8.66699 -16.333 -14.667 -31 -18s-33.667 -5 -57 -5c-36.667 4 -55 22.333 -55 55c0 4 0.666992 10.667 2 20
c3.33301 9.33301 18.833 24.5 46.5 45.5s50.167 42.833 67.5 65.5c16 23.333 45.667 74.666 89 153.999l69 133l77 152l155 323c54 118 93.667 209.333 119 274c19.333 50.667 29 88.667 29 114c0 19.333 -6.33301 32.333 -19 39c-22 12 -33 29 -33 51
c0 5.33301 0.5 10.166 1.5 14.499s6.33301 8.5 16 12.5s24.834 6 45.501 6c38 0 62.333 3 73 9c20 6.66699 60.667 -56.333 122 -189l97.5 -215.5l102.5 -234.5l71 -161l70 -155l67 -148c68 -143.333 117.667 -220.333 149 -231c50 -18.667 80.667 -27.167 92 -25.5
s17 0.166992 17 -4.5c0 -7.33301 -9.33301 -23.333 -28 -48c-22.667 -32 -59 -51.667 -109 -59c-4.66699 -0.666992 -11.667 -1 -21 -1c-41.333 0 -79.666 18.667 -114.999 56l-52 119l-115 266l-122 282l-74 173l-45 95.5c-14.667 31.667 -27.334 57.834 -38.001 78.501
c-3.33301 -24.667 -5 -55 -5 -91l3 -438l3 -436c0 -36.667 6.66699 -62 20 -76c4.66699 -5.33301 3.33398 -9.66602 -3.99902 -12.999c-14 -6.66699 -45.333 -10 -94 -10c-47.333 0 -71 10 -71 30c0 6 2.66699 14.333 8 25c20.667 37.333 31 86 31 146
c0 79.333 -0.333008 146.833 -1 202.5s-1.33398 108.167 -2.00098 157.5l-2 368c0 32 -9.33301 59.667 -28 83z" />
    <glyph glyph-name="uacute" unicode="&#xfa;" horiz-adv-x="1282" 
d="M325 852c-22.667 -14.667 -35.333 -31.332 -38 -49.999c0 -18 12.833 -40 38.5 -66s73.834 -64 144.501 -114c36.667 -26.667 70 -53.667 100 -81c40.667 -36.667 65 -55 73 -55c19.333 2 55.333 22 108 60l94 70c58 42.667 101.333 77 130 103
c22.667 20 35.667 34.333 39 43c2.66699 5.33301 -8.66602 17.666 -33.999 36.999c-16.667 12.667 -28.667 23.334 -36 32.001c-3.33301 4 -25 20 -65 48c-22.667 16 -43.667 34.333 -63 55c-38.667 41.333 -82 81.666 -130 120.999l-60 46
c-10 -1.33301 -32.333 -16 -67 -44c-24.667 -20 -49.334 -41.667 -74.001 -65c-52.667 -52 -82.334 -80.667 -89.001 -86c-20 -17.333 -43.667 -35.333 -71 -54zM551.001 1170l-90.9941 78.998c-58.667 50.667 -97.667 83.667 -117 99
c-52.667 42.667 -91.334 71.334 -116.001 86.001c-36 21.333 -68.667 32 -98 32c-11.333 0 -22 -1.33301 -32 -4c-1.33301 4 -2.33301 8.33301 -3 13c10.667 19.333 23 34.333 37 45c6 5.33301 10.667 9.66602 14 12.999c13.333 11.333 43 17 89 17c14 0 36 -7 66 -21
c26 -12 43 -21.667 51 -29c20.667 -20 42 -39 64 -57l55 -46l168 -148c14.667 4.66699 34 15.834 58 33.501s59.667 46.834 107 87.501l138 114c46.667 36.667 85.667 60 117 70c11.333 3.33301 20.333 5 27 5c11.333 0 22 -3.66699 32 -11s20.333 -18.833 31 -34.5
l31 -45.5c3.33301 -4.66699 3 -8 -1 -10c-6 -3.33301 -12.5 -6.33301 -19.5 -9s-17.833 -4 -32.5 -4h-22c-9.33301 0 -18.333 -0.166992 -27 -0.5s-16.334 -2.5 -23.001 -6.5s-22.334 -11 -47.001 -21s-42.834 -19.667 -54.501 -29l-41.5 -34l-69 -58
c-12.667 -9.33301 -36.667 -29.333 -72 -60l-48 -42c4.66699 -10.667 29.667 -34.334 75 -71.001c50.667 -41.333 85.667 -74 105 -98s48 -52.333 86 -85c49.333 -43.333 80.666 -71.333 93.999 -84c26 -25.333 53.667 -47 83 -65c9.33301 -6 14.333 -10.333 15 -13
c3.33301 -17.333 -20 -38 -70 -62c-12.667 -5.33301 -19.334 -8.66602 -20.001 -9.99902c-14.667 -18 -103.667 -80 -267 -186c-33.333 -20 -60.666 -38 -81.999 -54c-25.333 -18.667 -38 -31.334 -38 -38.001c5.33301 -10.667 34.5 -37 87.5 -79
s106.833 -81.667 161.5 -119l81 -62c17.333 -10.667 46 -16 86 -16c18 0 32 -0.333008 42 -1s18 -2.33398 24 -5.00098c8.66699 -4.66699 -3.33301 -32.334 -36 -83.001c-26 -39.333 -52.667 -59 -80 -59c-6 0 -12 1 -18 3c-30 10.667 -69 34.334 -117 71.001
c-20 15.333 -43 34 -69 56l-69 58l-123 108c-41.333 35.333 -69 55.666 -83 60.999c-11.333 -3.33301 -20.666 -6.66602 -27.999 -9.99902c-45.333 -18.667 -87.666 -44 -126.999 -76l-104 -85.5c-36.667 -31 -66.334 -57.5 -89.001 -79.5c-4 -4 -6 -8.33301 -6 -13
c0 -9.33301 6.16699 -21.166 18.5 -35.499s18.5 -24.166 18.5 -29.499c0 -4 -2.66699 -6 -8 -6c-22.667 0 -46.167 -0.166992 -70.5 -0.5s-49.5 -0.833008 -75.5 -1.5c-22.667 0 -37 1.83301 -43 5.5s-9 9.16699 -9 16.5s3.33301 16.333 10 27
c26.667 38 65.667 76.167 117 114.5s102 73.166 152 104.499l134 79c16 8.66699 32.667 18.667 50 30c2 1.33301 4.66699 3 8 5c0 9.33301 -30.667 40 -92 92c-28.667 24 -57.5 45.167 -86.5 63.5s-57.833 33.833 -86.5 46.5c-54.667 22 -97.334 36 -128.001 42
c-29.333 4 -44 26.667 -44 68c0 38 40.333 91.333 121 160c40 32.667 77.167 64.834 111.5 96.501s63.833 61.5 88.5 89.5c18 19.333 42.667 39.333 74 60c27.333 18 45.666 33.333 54.999 46z" />
    <glyph glyph-name="udieresis" unicode="&#xfc;" horiz-adv-x="1282" 
d="M384 987c-14.667 -16 -28.832 -29.833 -42.499 -41.5s-26.834 -22.167 -39.501 -31.5c-24 -16 -37.333 -33.333 -40 -52c-2 -16.667 10.667 -39.667 38 -69c25.333 -25.333 76.666 -66 153.999 -122c60.667 -43.333 104 -77 130 -101
c20.667 -18.667 38.334 -28 53.001 -28c4 0.666992 20.667 11.667 50 33l110 82c6.66699 4.66699 35 20.667 85 48c62.667 34.667 99 63 109 85c1.33301 4 2 7.66699 2 11c0 15.333 -11 36 -33 62c-8.66699 10.667 -27 31.667 -55 63l-87 96
c-52 56 -91.167 96.833 -117.5 122.5s-53.833 38.5 -82.5 38.5c-24.667 0 -55 -16.333 -91 -49l-60 -60zM214.002 133c-4 -4 -5.99902 -8.66797 -5.99902 -14.001c0 -8.66699 6.66699 -21.334 20 -38.001c12.667 -13.333 19 -23.333 19 -30c0 -4 -3 -6 -9 -6
c-36 0 -66.167 -0.333008 -90.5 -1s-47.166 -1.33398 -68.499 -2.00098c-19.333 0 -32.333 1.66699 -39 5c-6.66699 4.66699 -10 11 -10 19s3.33301 17.333 10 28c28 39.333 69 79.333 123 120l82 58l78.5 52l75.5 47c16.667 10 38.667 22.333 66 37l45 26l15 10
c0 10.667 -31.5 42.334 -94.5 95.001s-124.5 92 -184.5 118c-29.333 12.667 -54.333 22.334 -75 29.001s-40.334 11.667 -59.001 15c-30.667 5.33301 -46 29.666 -46 72.999c0 40.667 42.333 95.834 127 165.501s155 135.5 211 197.5l79 86l72.5 82.5
c20.333 23.667 41.666 45 63.999 64s43.833 34.167 64.5 45.5c17.333 8 45.666 -16.667 84.999 -74s88 -121.666 146 -192.999l86.5 -100c29 -32 61.167 -65.667 96.5 -101c66 -62.667 100.667 -99.334 104 -110.001c3.33301 -19.333 -21.5 -41 -74.5 -65
s-108.833 -56.667 -167.5 -98l-52 -33c-34 -19.333 -52 -29.666 -54 -30.999c-16 -11.333 -28 -19.333 -36 -24c-34 -20.667 -62.333 -39.167 -85 -55.5s-34 -27.5 -34 -33.5c4 -27.333 22 -54 54 -80c12 -10 28 -22.667 48 -38c12 -9.33301 29.667 -22.333 53 -39l108 -82
c15.333 -12 32.666 -24.333 51.999 -37l48 -31c16.667 -8.66699 42 -13 76 -13c36 0 58.667 -2.33301 68 -7c5.33301 -2 5 -9.83301 -1 -23.5s-18 -34.5 -36 -62.5c-27.333 -41.333 -55.333 -62 -84 -62c-6.66699 0 -13 1 -19 3
c-31.333 10.667 -72.666 35.334 -123.999 74.001l-144 120l-109 92c-12.667 11.333 -21.334 17 -26.001 17c-5.33301 0 -8.33301 -9.83301 -9 -29.5s-1 -39.834 -1 -60.501v-31c0 -24 1.83301 -48 5.5 -72s8.83398 -45 15.501 -63c4 -9.33301 6 -17 6 -23
c0 -14.667 -20.333 -22 -61 -22c-40 0 -67.5 1.5 -82.5 4.5s-22.5 8.5 -22.5 16.5c0 4.66699 2.33301 9.33398 7 14.001c19.333 23.333 29 52.666 29 87.999c0 29.333 -0.166992 63 -0.5 101s-0.833008 80.333 -1.5 127c-21.333 -18 -58 -45.333 -110 -82l-130 -91
c-47.333 -33.333 -78.666 -57.333 -93.999 -72z" />
    <glyph glyph-name="thorn" unicode="&#xfe;" horiz-adv-x="914" 
d="M770 94c6 -14 9.00098 -27.002 9.00098 -39.002c0 -13.333 -5.66699 -23.666 -17 -30.999s-30.333 -11 -57 -11c-38 0 -66.667 5.5 -86 16.5s-29 24.5 -29 40.5c0 2.66699 0.666992 6.66699 2 12c9.33301 22.667 16 39.667 20 51c8 20.667 12.667 38.334 14 53.001
c2.66699 17.333 4.66699 47.666 6 90.999s2 89 2 137c0 37.333 1.16699 97 3.5 179s3.5 138.333 3.5 169l2 303c0 46 -0.666992 89 -2 129s-2.33301 75.667 -3 107c0 5.33301 -1.66699 8 -5 8c-8 0 -26.667 -15 -56 -45l-94 -102c-44 -48.667 -79 -85.667 -105 -111
c-40 -40 -82.333 -78.333 -127 -115c-59.333 -48.667 -102.333 -77.667 -129 -87c-14 20.667 -24.167 37 -30.5 49s-9.5 20.333 -9.5 25c0 5.33301 2.66699 10 8 14c11.333 8.66699 17.5 13.834 18.5 15.501s33.833 18.167 98.5 49.5c37.333 18 86.666 56 147.999 114
c13.333 12.667 47 52 101 118s86.667 104.333 98 115l110 108c44 41.333 73 62 87 62c8 0 12 -5.66699 12 -17c-4 -45.333 -6.66699 -105.5 -8 -180.5s-2 -167.5 -2 -277.5c0 -31.333 -0.666992 -76.5 -2 -135.5s-2 -93.167 -2 -102.5l1 -272v-280v-39
c0 -24 1.16699 -45 3.5 -63s7.83301 -37.333 16.5 -58z" />
    <glyph glyph-name=".null" horiz-adv-x="0" 
 />
    <glyph glyph-name="nonmarkingreturn" horiz-adv-x="1089" 
 />
  </font>
</defs>
</svg>
