<?xml version="1.0" standalone="no"?>
<!DOCTYPE svg PUBLIC "-//W3C//DTD SVG 1.1//EN" "http://www.w3.org/Graphics/SVG/1.1/DTD/svg11.dtd" >
<svg>
<metadata>
Created by FontForge 20110222 at Mon Apr 29 09:52:28 2013
 By www-data
Copyright (c) 1981, 1982, 1983, 1989 and 1993, Linotype Library GmbH or its affiliated Linotype-Hell companies. All rights reserved.

The digitally encoded machine readable software for producing the Typefaces licensed to you is now the property of Heidelberger Druckmaschinen AG and its licensors, and may not be reproduced, used, displayed, modified, disclosed or transferred without the express written approval of Heidelberger Druckmaschinen AG.

Copyright (c) 1988, 1990, 1993 Adobe Systems Incorporated. All Rights Reserved.
</metadata>
<defs>
<font id="Copperplate" horiz-adv-x="667" >
  <font-face 
    font-family="Copperplate"
    font-weight="400"
    font-stretch="normal"
    units-per-em="1000"
    panose-1="2 0 5 4 0 0 0 2 0 4"
    ascent="800"
    descent="-200"
    x-height="440"
    cap-height="526"
    bbox="-338 -248 1582 924"
    underline-thickness="50"
    underline-position="-75"
    unicode-range="U+0009-FB02"
  />
    <missing-glyph />
    <glyph glyph-name="quotesinglbase" unicode="jm" horiz-adv-x="278" 
d="M46 -116q15 4 34 15.5t34.5 27t25.5 33.5t8 36q-2 4 -11 5t-17 1q-25 0 -43.5 16.5t-18.5 46.5q0 29 20.5 50t46.5 21q40 0 60.5 -29t20.5 -71q0 -32 -13.5 -61.5t-35.5 -54.5t-51 -43t-60 -25v32z" />
    <glyph glyph-name="quotedblbase" unicode="jp" horiz-adv-x="500" 
d="M283 -116q15 4 34 15.5t34.5 27t25.5 33.5t8 36q-2 4 -11 5t-17 1q-25 0 -43.5 16.5t-18.5 46.5q0 29 20.5 50t46.5 21q40 0 60.5 -29t20.5 -71q0 -32 -13.5 -61.5t-35.5 -54.5t-51 -43t-60 -25v32zM42 -116q15 4 34 15.5t34.5 27t25.5 33.5t8 36q-2 4 -11 5t-17 1
q-25 0 -43.5 16.5t-18.5 46.5q0 29 20.5 50t46.5 21q40 0 60.5 -29t20.5 -71q0 -32 -13.5 -61.5t-35.5 -54.5t-51 -43t-60 -25v32z" />
    <glyph glyph-name=".null" horiz-adv-x="0" 
 />
    <glyph glyph-name=".null" horiz-adv-x="0" 
 />
    <glyph glyph-name="nonmarkingreturn" unicode="&#xd;" horiz-adv-x="305" 
 />
    <glyph glyph-name="space" unicode="&#x9;" horiz-adv-x="305" 
 />
    <glyph glyph-name="space" unicode=" " horiz-adv-x="305" 
 />
    <glyph glyph-name="exclam" unicode="!" horiz-adv-x="333" 
d="M249 528q-15 -4 -19 -9t-6 -17l-31 -267q-1 -8 -2 -14.5t-1 -13.5q0 -8 5 -10.5t13 -2.5v-12h-84v12q8 0 13 2.5t5 10.5q0 7 -1 13.5t-2 14.5l-31 267q-2 12 -6 17t-19 9v12h166v-12zM166 122q26 0 45 -19t19 -45t-19 -43.5t-45 -17.5t-45 17.5t-19 43.5t19 45t45 19z
" />
    <glyph glyph-name="quotedbl" unicode="&#x22;" horiz-adv-x="333" 
d="M152 528q-15 -4 -19.5 -9t-5.5 -17l-5 -203q-1 -8 4.5 -10.5t13.5 -2.5v-12h-104v12q8 0 13.5 2.5t4.5 10.5l-7 203q-1 12 -5.5 17t-19.5 9v12h130v-12zM311 528q-15 -4 -19.5 -9t-5.5 -17l-5 -203q-1 -8 4.5 -10.5t13.5 -2.5v-12h-104v12q8 0 13.5 2.5t4.5 10.5l-7 203
q-1 12 -5.5 17t-19.5 9v12h130v-12z" />
    <glyph glyph-name="numbersign" unicode="#" horiz-adv-x="611" 
d="M530 211v-54h-112l-31 -157h-69l31 157h-125l-31 -157h-66l31 157h-98v54h109l20 104h-99v54h110l31 157h66l-31 -157h125l31 157h66l-30 -157h102v-54h-112l-20 -104h102zM235 211h125l20 104h-125z" />
    <glyph glyph-name="dollar" unicode="$" horiz-adv-x="611" 
d="M336 76q19 0 41.5 3.5t42 13t32.5 25t13 39.5q0 22 -14.5 34t-34.5 18t-42.5 8t-37.5 3v-144zM276 450q-20 -1 -40 -3.5t-36.5 -10t-26.5 -22t-10 -39.5q0 -18 13 -28.5t31 -16t37 -7t32 -1.5v128zM91 169l8 -3q3 -25 23.5 -42.5t47.5 -28t56 -15t50 -4.5v150
q-36 1 -74 7.5t-68.5 22.5t-50.5 44t-20 72q0 40 20.5 70t52 50t69 30t71.5 10v62h60v-62q33 0 65.5 -6t59 -13t44.5 -13t21 -6q8 0 12 2t10 7l9 -6l-66 -122l-8 3q-4 24 -20 38t-38 21.5t-46 10t-43 2.5v-134q36 -4 76 -10t74 -20.5t56.5 -41.5t22.5 -74q0 -45 -21.5 -77.5
t-55 -53.5t-74 -30.5t-78.5 -11.5v-80h-60v80q-54 4 -89.5 12.5t-57.5 17t-34 14t-19 5.5q-14 0 -19 -11l-11 6z" />
    <glyph glyph-name="percent" unicode="%" horiz-adv-x="889" 
d="M612 198q-42 0 -68 -27.5t-26 -67.5t26 -67.5t68 -27.5t68 27.5t26 67.5t-26 67.5t-68 27.5zM612 274q35 0 66 -13.5t54 -36.5t36.5 -54t13.5 -67t-13.5 -67t-36.5 -53t-54 -35t-66 -13t-66 13t-54 35t-36.5 53t-13.5 67t13.5 67t36.5 54t54 36.5t66 13.5zM210 506
q-42 0 -68 -27.5t-26 -67.5t26 -67.5t68 -27.5t68 27.5t26 67.5t-26 67.5t-68 27.5zM210 582q35 0 66 -13.5t54 -36.5t36.5 -54t13.5 -67t-13.5 -67t-36.5 -54t-54 -36.5t-66 -13.5t-66 13.5t-54 36.5t-36.5 54t-13.5 67t13.5 67t36.5 54t54 36.5t66 13.5zM148 -65l243 340
l158 307h116l-232 -326l-160 -321h-125z" />
    <glyph glyph-name="ampersand" unicode="&#x26;" horiz-adv-x="722" 
d="M292 458q-35 0 -59.5 -16.5t-24.5 -51.5t24.5 -51.5t59.5 -16.5t59.5 16.5t24.5 51.5t-24.5 51.5t-59.5 16.5zM162 167q0 -25 11 -43t29 -29t39.5 -16t42.5 -5q20 0 38.5 6.5t33.5 16.5t24.5 22.5t11.5 25.5q-15 21 -22 41.5t-16 37t-24 26.5t-46 10q-21 0 -42.5 -5
t-39.5 -16t-29 -28.5t-11 -43.5zM627 -3q-37 0 -64.5 5.5t-48 15.5t-35 22.5t-26.5 25.5q-24 -20 -44.5 -33.5t-42 -22t-46 -11t-56.5 -2.5q-36 0 -73.5 8t-68 27t-50.5 49t-20 72q0 33 10.5 57.5t28.5 42.5t43 30t54 20v2q-31 10 -53.5 35.5t-22.5 59.5q0 35 16.5 59.5
t42 41t58 24t63.5 7.5q32 0 64 -7.5t57.5 -24t42 -41t16.5 -59.5t-19.5 -60.5t-42.5 -33.5q13 -9 21 -21.5t14 -25t11 -24t12 -18.5q15 27 35 50t40 40.5t36.5 28t24.5 12.5q5 2 9 4.5t4 6.5h10v-154h-10q-2 6 -6.5 14t-15.5 8q-12 0 -23 -10t-20 -24.5t-16 -29.5t-10 -25
q14 -18 33.5 -32.5t36.5 -15.5q14 0 17.5 9t3.5 20h10v-122z" />
    <glyph glyph-name="quotesingle" unicode="'" horiz-adv-x="222" 
d="M175 528q-15 -4 -19.5 -9t-5.5 -17l-5 -203q-1 -8 4.5 -10.5t13.5 -2.5v-12h-104v12q8 0 13.5 2.5t4.5 10.5l-7 203q-1 12 -5.5 17t-19.5 9v12h130v-12z" />
    <glyph glyph-name="parenleft" unicode="(" horiz-adv-x="389" 
d="M275 -13q12 -9 25.5 -15t25 -8.5t20 0t11.5 11.5l11 -3l-37 -129l-11 4q2 11 -0.5 18.5t-15.5 11.5q-53 16 -93.5 47t-68.5 74t-42.5 95.5t-14.5 111.5q0 57 13.5 110.5t41 97t68.5 76t96 47.5q13 4 15.5 11.5t0.5 18.5l11 4l37 -129l-11 -3q-3 9 -13 11.5t-22.5 0.5
t-26.5 -8.5t-26 -16.5q-18 -15 -34 -34.5t-29 -46t-20.5 -60.5t-7.5 -79q0 -48 10 -84.5t25 -63.5t32 -44t30 -26z" />
    <glyph glyph-name="parenright" unicode=")" horiz-adv-x="389" 
d="M128 -13q13 9 30 26t32 44t25 63.5t10 84.5q0 90 -26.5 144t-64.5 78q-31 20 -56.5 24t-31.5 -13l-11 3l37 129l11 -4q-2 -11 0.5 -18.5t15.5 -11.5q55 -15 96 -47.5t68.5 -76t41 -97t13.5 -110.5q0 -59 -14.5 -111.5t-42.5 -95.5t-69 -74t-93 -47q-13 -4 -15.5 -11.5
t-0.5 -18.5l-11 -4l-37 129l11 3q3 -9 11.5 -11.5t20 0t25 8.5t25.5 15z" />
    <glyph glyph-name="asterisk" unicode="*" horiz-adv-x="500" 
d="M273 363l-3 -5l111 -93l-74 -55l-55 135h-4l-55 -135l-74 55l111 93l-3 5l-141 13l26 85l124 -77l4 3l-34 139h88l-34 -139l4 -3l124 77l26 -85z" />
    <glyph glyph-name="plus" unicode="+" horiz-adv-x="600" 
d="M500 259q8 0 11.5 6t3.5 22h18v-134h-18q0 28 -15 28h-161v-148q0 -8 6 -11.5t22 -3.5v-18h-134v18q28 0 28 15v148h-161q-8 0 -11.5 -6t-3.5 -22h-18v134h18q0 -28 15 -28h161v148q0 8 -6 11.5t-22 3.5v18h134v-18q-28 0 -28 -15v-148h161z" />
    <glyph glyph-name="comma" unicode="," horiz-adv-x="305" 
d="M52 -116q15 4 34 15.5t34.5 27t25.5 33.5t8 36q-2 4 -11 5t-17 1q-25 0 -43.5 16.5t-18.5 46.5q0 29 20.5 50t46.5 21q40 0 60.5 -29t20.5 -71q0 -32 -13.5 -61.5t-35.5 -54.5t-51 -43t-60 -25v32z" />
    <glyph glyph-name="hyphen" unicode="-" horiz-adv-x="333" 
d="M81 178q-8 0 -11.5 -6t-3.5 -12h-18v120h18q0 -18 15 -18h171q8 0 11.5 6t3.5 12h18v-120h-18q0 18 -15 18h-171z" />
    <glyph glyph-name="period" unicode="." horiz-adv-x="305" 
d="M81 65q0 29 21 50t50 21t50 -21t21 -50t-21 -48.5t-50 -19.5t-50 19.5t-21 48.5z" />
    <glyph glyph-name="slash" unicode="/" horiz-adv-x="278" 
d="M210 532h110l-240 -532h-108z" />
    <glyph glyph-name="zero" unicode="0" horiz-adv-x="611" 
d="M305 446q-35 0 -65 -14t-51.5 -38.5t-34 -58t-12.5 -72.5t12.5 -72.5t34 -58t51.5 -38.5t65 -14t65 14t51.5 38.5t34 58t12.5 72.5t-12.5 72.5t-34 58t-51.5 38.5t-65 14zM305 532q58 0 108.5 -20t88 -56t59 -85t21.5 -108t-21.5 -108t-59 -84.5t-88 -54.5t-108.5 -19
t-108.5 19t-88 54.5t-59 84.5t-21.5 108t21.5 108t59 85t88 56t108.5 20z" />
    <glyph glyph-name="one" unicode="1" horiz-adv-x="611" 
d="M229 12q10 0 17.5 5.5t7.5 22.5v334q-7 0 -16.5 -1t-18.5 -3.5t-16.5 -7t-10.5 -12.5h-12v126h12q0 -9 9 -12.5t17 -3.5q17 0 28.5 10.5t11.5 25.5q0 14 -6.5 18t-17.5 6v12h162v-12q-12 -2 -20 -7t-8 -15v-458q0 -17 8 -22.5t18 -5.5v-12h-165v12z" />
    <glyph glyph-name="two" unicode="2" horiz-adv-x="611" 
d="M548 -13h-12q0 11 -9.5 12t-20.5 1h-421q-11 0 -18 -1.5t-7 -10.5h-12v36q0 53 26.5 91t66.5 67t86 51t86 43.5t66.5 44.5t26.5 54q0 21 -9.5 34.5t-24.5 22t-33 11.5t-35 3t-42 -6t-48 -18t-39.5 -28.5t-16.5 -37.5q0 -5 2.5 -13t6.5 -11l-10 -7l-103 110l10 7l8 -4
t9 -2q6 0 22 15t44 33t70 33t100 15q38 0 74.5 -9t65 -28.5t46 -50t17.5 -74.5q0 -47 -18 -78t-47.5 -52.5t-66.5 -36.5t-75.5 -29.5t-74 -30.5t-62.5 -41v-10h330q11 0 20.5 4t9.5 24h12v-133z" />
    <glyph glyph-name="three" unicode="3" horiz-adv-x="611" 
d="M53 454l12 9q8 -5 17 -5q5 0 18.5 11.5t39.5 25.5t66.5 25.5t98.5 11.5q39 0 78.5 -8t72 -25.5t53 -45t20.5 -66.5q0 -36 -21 -66.5t-57 -38.5v-2q43 -10 70.5 -39.5t27.5 -74.5q0 -51 -25.5 -84t-63.5 -52.5t-83.5 -26t-85.5 -6.5q-45 0 -84 8.5t-69 20t-49.5 21
t-27.5 9.5q-5 0 -8.5 -2t-7.5 -4l-9 3l58 144l11 -6q-1 -2 -1 -7v-7q0 -23 22 -41t52.5 -30.5t64 -19t56.5 -6.5q18 0 42.5 3.5t46 12.5t36.5 24.5t15 40.5q0 24 -14.5 38.5t-35.5 22.5t-44.5 10.5t-40.5 2.5q-24 0 -41.5 -4.5t-23.5 -22.5h-12v136h12q2 -20 21.5 -26.5
t43.5 -6.5q16 0 37 3t39.5 11t31.5 22t13 35q0 20 -11.5 32.5t-30 19.5t-41 9.5t-45.5 2.5q-27 0 -55 -6t-51 -16t-38 -22t-15 -24q0 -4 1 -9.5t3 -10.5l-9 -6z" />
    <glyph glyph-name="four" unicode="4" horiz-adv-x="611" 
d="M368 424l-226 -248h226v248zM76 90q-17 0 -25.5 -4.5t-8.5 -17.5h-12v112l257 279q11 12 20 22.5t9 16.5q0 8 -6 10.5t-11 5.5v12h194v-12q-9 0 -15 -5t-6 -14v-319h32q13 0 20.5 4t7.5 20h12v-135h-12q0 17 -7.5 21t-20.5 4h-32v-50q0 -17 6.5 -22.5t13.5 -5.5v-12h-151
v12q11 0 19 5.5t8 22.5v50h-292z" />
    <glyph glyph-name="five" unicode="5" horiz-adv-x="611" 
d="M133 175q0 -2 -0.5 -5t-0.5 -6q0 -13 16.5 -28t42 -27.5t57.5 -20.5t63 -8q23 0 47 4.5t44 15.5t33 30t13 47q0 29 -13.5 47.5t-34 29.5t-45.5 15.5t-48 4.5q-10 0 -30 -2t-40 -7.5t-34.5 -14.5t-14.5 -24q0 -5 3 -10l-6 -8l-124 122q12 9 16.5 13.5t4.5 14.5v138
q0 18 -19 18v12h411q11 0 20.5 3t9.5 15h12v-135h-12q0 17 -9.5 21t-20.5 4h-300v-109q38 14 75.5 21.5t79.5 7.5q39 0 79.5 -9.5t74 -30.5t54.5 -53.5t21 -77.5q0 -52 -24.5 -88t-62.5 -58.5t-84 -31t-89 -8.5q-55 0 -93.5 10.5t-66.5 25.5q-34 18 -46 28.5t-20 10.5
q-2 0 -6 -0.5t-9 -1.5l-12 10l79 104z" />
    <glyph glyph-name="six" unicode="6" horiz-adv-x="611" 
d="M313 264q-57 0 -92 -25t-35 -67t35 -67t92 -25t92 25t35 67t-35 67t-92 25zM497 375l-12 4q-2 5 -3 9.5t-5 9.5q-10 15 -29 25t-40 16t-40.5 8.5t-31.5 2.5q-76 0 -119.5 -38.5t-46.5 -116.5q47 25 89 38t96 13q37 0 72.5 -10.5t63.5 -31.5t45.5 -51.5t17.5 -71.5
q0 -47 -23 -82t-58 -58t-78 -33.5t-84 -10.5q-60 0 -107 17t-80 50.5t-50.5 81.5t-17.5 107q0 60 21 111.5t58.5 88.5t89 58t111.5 21q48 0 80 -7t54 -16q23 -9 36.5 -16t21.5 -7q6 0 11.5 1t7.5 3l8 -7z" />
    <glyph glyph-name="seven" unicode="7" horiz-adv-x="611" 
d="M84 434q-11 0 -20.5 -4t-9.5 -21h-12v135h12q0 -12 9.5 -15t20.5 -3h420q30 0 30 18h12v-90l-234 -377q-10 -16 -19 -28.5t-9 -20.5q0 -16 19 -16v-12h-180v12q8 0 19.5 8.5t18.5 19.5l251 394h-328z" />
    <glyph glyph-name="eight" unicode="8" horiz-adv-x="611" 
d="M306 454q-66 0 -94 -15t-28 -50t28 -50t94 -15t94 15t28 50t-28 50t-94 15zM305 242q-143 0 -143 -83t143 -83t143 83t-143 83zM441 280q52 -11 84.5 -39.5t32.5 -85.5q0 -51 -27.5 -82.5t-67.5 -49t-85.5 -22t-82.5 -4.5q-39 0 -81.5 6t-78.5 23.5t-59.5 46.5t-23.5 73
q0 32 8.5 53.5t24.5 36.5t38.5 25.5t49.5 18.5v2q-40 8 -69.5 34.5t-29.5 71.5q0 47 22 75t56 43.5t74 20.5t76 5q35 0 76 -5t76.5 -20t59.5 -43t24 -73q0 -48 -27 -73t-70 -37v1v-2z" />
    <glyph glyph-name="nine" unicode="9" horiz-adv-x="611" 
d="M297 446q-24 0 -47 -4.5t-41 -15t-28.5 -28t-10.5 -43.5t10.5 -43.5t28.5 -28t41 -15t47 -4.5t47 4.5t41 15t28.5 28t10.5 43.5t-10.5 43.5t-28.5 28t-41 15t-47 4.5zM116 155l12 -6q0 -5 1.5 -12t5.5 -12q10 -13 27 -22.5t36.5 -15.5t39.5 -8.5t36 -2.5q156 0 166 157
q-42 -21 -84 -36t-88 -15q-36 0 -74 9t-68.5 28t-50 49t-19.5 72q0 51 22.5 87t58.5 59.5t80.5 34.5t88.5 11q55 0 100.5 -18.5t78.5 -52t51 -79.5t18 -101q0 -65 -20.5 -117.5t-58.5 -90t-90.5 -57t-117.5 -19.5q-45 0 -76.5 6.5t-52.5 16t-34 17t-21 7.5q-11 0 -19 -6
l-8 7z" />
    <glyph glyph-name="colon" unicode=":" horiz-adv-x="305" 
d="M81 65q0 29 21 50t50 21t50 -21t21 -50t-21 -48.5t-50 -19.5t-50 19.5t-21 48.5zM81 327q0 29 21 50t50 21t50 -21t21 -50t-21 -50t-50 -21t-50 21t-21 50z" />
    <glyph glyph-name="semicolon" unicode=";" horiz-adv-x="305" 
d="M64 327q0 29 21 50t50 21t50 -21t21 -50t-21 -50t-50 -21t-50 21t-21 50zM52 -116q15 4 34 15.5t34.5 27t25.5 33.5t8 36q-2 4 -11 5t-17 1q-25 0 -43.5 16.5t-18.5 46.5q0 29 20.5 50t46.5 21q40 0 60.5 -29t20.5 -71q0 -32 -13.5 -61.5t-35.5 -54.5t-51 -43t-60 -25v32
z" />
    <glyph glyph-name="less" unicode="&#x3c;" horiz-adv-x="600" 
d="M59 180v80l382 169q8 4 9 10.5t-7 20.5l18 8l59 -124l-18 -8q-10 26 -24 20l-327 -136l327 -136q14 -6 24 20l18 -8l-54 -124l-18 8q8 14 7 20.5t-9 10.5z" />
    <glyph glyph-name="equal" unicode="=" horiz-adv-x="600" 
d="M113 279q-15 0 -15 -18h-18v104h18q0 -6 3.5 -12t11.5 -6h374q8 0 11.5 6t3.5 12h18v-104h-18q0 18 -15 18h-374zM113 93q-15 0 -15 -18h-18v104h18q0 -6 3.5 -12t11.5 -6h374q8 0 11.5 6t3.5 12h18v-104h-18q0 18 -15 18h-374z" />
    <glyph glyph-name="greater" unicode="&#x3e;" horiz-adv-x="600" 
d="M133 11q-8 -4 -9 -10.5t7 -20.5l-18 -8l-54 124l18 8q10 -26 24 -20l327 136l-327 136q-14 6 -24 -20l-18 8l59 124l18 -8q-8 -14 -7 -20.5t9 -10.5l382 -169v-80z" />
    <glyph glyph-name="question" unicode="?" horiz-adv-x="444" 
d="M231 122q26 0 45 -19t19 -45t-19 -43.5t-45 -17.5t-45 17.5t-19 43.5t19 45t45 19zM68 485q10 -2 11 -2q10 0 20.5 10t27.5 21.5t43 21.5t68 10q27 0 53.5 -8.5t47.5 -24t33.5 -39t12.5 -53.5q0 -37 -17.5 -64.5t-39.5 -50.5q-21 -23 -39 -43t-18 -43q0 -11 4 -18.5
t13 -7.5v-12h-112v12q6 0 10.5 6t6.5 23q4 42 18.5 67t30.5 44q17 20 30 37.5t13 40.5q0 27 -17.5 42.5t-43.5 15.5q-19 0 -34.5 -6t-26 -14t-16 -17.5t-5.5 -15.5q0 -9 3 -18l-9 -7l-77 84z" />
    <glyph glyph-name="at" unicode="@" horiz-adv-x="600" 
d="M356 146l-14 49h-72l-13 -49h-70v15q13 0 20 7t10 15l50 143q10 31 -20 31v15h132v-15q-13 0 -19 -9t-1 -23l42 -142h74q2 6 3.5 19.5t2 29t1 30t0.5 23.5q0 37 -10.5 68.5t-31.5 55t-53 37t-75 13.5q-45 0 -80 -16.5t-59 -45t-36.5 -67.5t-12.5 -84q0 -92 50.5 -147
t139.5 -55q32 0 60 5t48 11q24 7 43 16q10 8 13 14t-2 16l14 10l53 -82l-16 -12q-8 8 -15 8t-14 -5q-21 -13 -48 -23q-24 -9 -58 -16t-79 -7q-75 0 -125.5 22t-81 58.5t-44 85.5t-13.5 103q0 66 19 117.5t53.5 87t83.5 54.5t109 19q52 0 96.5 -14t77 -43.5t50.5 -75
t18 -107.5q0 -35 -3.5 -71t-8.5 -69h-188zM278 230h56l-28 97z" />
    <glyph glyph-name="A" unicode="A" 
d="M398 204l-84 186l-94 -186h178zM21 18q13 2 20.5 13t14.5 25l185 389q7 13 12.5 24t5.5 19q0 10 -7 14t-15 6v18h169v-18q-7 -2 -14 -5.5t-7 -14.5q0 -8 3.5 -16t10.5 -21l208 -407q5 -11 13.5 -16t19.5 -10v-18h-176v18q4 0 10 3t6 9q0 10 -8 26l-38 74h-244l-36 -71
q-10 -21 -10 -30q0 -11 19 -11v-18h-142v18z" />
    <glyph glyph-name="B" unicode="B" horiz-adv-x="722" 
d="M416 320q45 0 74.5 11.5t29.5 48.5t-29.5 48.5t-74.5 11.5h-191v-120h191zM416 92q63 0 90.5 19.5t27.5 51.5t-27.5 51.5t-90.5 19.5h-191v-142h191zM396 526q46 0 89 -7.5t76 -24t53 -43t20 -65.5q0 -47 -29 -72.5t-69 -39.5v-2q47 -14 79.5 -44.5t32.5 -87.5
q0 -30 -13 -55.5t-38.5 -44.5t-62.5 -29.5t-84 -10.5h-367v18q28 0 28 18v454q0 18 -28 18v18h313z" />
    <glyph glyph-name="C" unicode="C" horiz-adv-x="722" 
d="M641 72q-3 0 -5.5 0.5t-5.5 0.5q-6 0 -28.5 -12t-57 -27t-78.5 -26t-92 -11q-63 0 -121 16t-102.5 49.5t-70.5 83.5t-26 117q0 66 26 116.5t70.5 84.5t102.5 51t121 17q51 0 92.5 -8t72.5 -17t49 -17t22 -8q5 0 8.5 5t5.5 8l15 -12l-78 -121l-10 7q0 3 -0.5 6t-1.5 7
q-2 11 -20 22.5t-44.5 20.5t-56 15t-54.5 6q-42 0 -80.5 -12t-67 -35t-45.5 -56.5t-17 -76.5t17 -76.5t45.5 -56.5t67 -35t80.5 -12q32 0 67 7.5t64 19t48.5 26t19.5 27.5q0 7 -4 12l14 8l66 -106z" />
    <glyph glyph-name="D" unicode="D" horiz-adv-x="722" 
d="M366 86q47 0 82 8t58 28.5t34.5 54.5t11.5 86t-11.5 86t-34.5 54.5t-58 28.5t-82 8h-155v-354h155zM406 526q55 0 102.5 -16t82.5 -48.5t55 -82t20 -116.5t-20 -116.5t-55 -82t-82.5 -48.5t-102.5 -16h-332v18q23 0 23 18v454q0 18 -23 18v18h332z" />
    <glyph glyph-name="E" unicode="E" 
d="M580 418q0 11 -8.5 16.5t-29.5 5.5h-324v-124h196q20 0 31 5.5t11 28.5h18v-156h-18q0 23 -11 29.5t-31 6.5h-196v-138h334q15 0 24.5 7t9.5 19h18v-137h-18q0 15 -9.5 17t-24.5 2h-466v18q7 0 12.5 4.5t5.5 13.5v454q0 9 -5.5 13.5t-12.5 4.5v18h456q21 0 29.5 6.5
t8.5 17.5h18v-132h-18z" />
    <glyph glyph-name="F" unicode="F" horiz-adv-x="611" 
d="M568 418q0 11 -8.5 16.5t-29.5 5.5h-324v-124h196q20 0 31 4t11 18h18v-144h-18q0 23 -11 29.5t-31 6.5h-196v-194q0 -9 8.5 -13.5t21.5 -4.5v-18h-170v18q26 0 26 18v454q0 18 -26 18v18h464q21 0 29.5 6.5t8.5 17.5h18v-132h-18z" />
    <glyph glyph-name="G" unicode="G" horiz-adv-x="722" 
d="M565 364l-20 6q2 6 2 12q0 15 -18.5 27t-47 20.5t-62 12.5t-63.5 4q-37 0 -73.5 -10.5t-65 -32.5t-46 -57t-17.5 -85q0 -49 17.5 -84.5t46 -57.5t65 -32.5t73.5 -10.5q57 0 102.5 9.5t77.5 20.5v86h-128q-14 0 -21 -6t-9 -26h-18v128h18q2 -17 9 -21.5t21 -4.5h250v-18
q-20 -3 -25 -7t-5 -17v-113q0 -10 6 -13l14 -7v-16q-33 -23 -69.5 -38t-74 -23.5t-75 -10.5t-73.5 -2q-70 0 -127.5 17.5t-98.5 52t-63.5 84t-22.5 112.5t22.5 112.5t63.5 84.5t98.5 53.5t127.5 18.5q44 0 84 -6t71 -13.5t51.5 -14t25.5 -6.5q9 0 14 4t10 7l12 -7z" />
    <glyph glyph-name="H" unicode="H" horiz-adv-x="778" 
d="M550 490q0 18 -22 18v18h154v-18q-7 0 -12.5 -4.5t-5.5 -13.5v-454q0 -9 5.5 -13.5t12.5 -4.5v-18h-154v18q22 0 22 18v188h-322v-188q0 -9 5.5 -13.5t12.5 -4.5v-18h-151v18q19 0 19 18v454q0 18 -19 18v18h151v-18q-7 0 -12.5 -4.5t-5.5 -13.5v-170h322v170z" />
    <glyph glyph-name="I" unicode="I" horiz-adv-x="333" 
d="M83 18q26 0 26 18v454q0 18 -26 18v18h166v-18q-26 0 -26 -18v-454q0 -18 26 -18v-18h-166v18z" />
    <glyph glyph-name="J" unicode="J" horiz-adv-x="500" 
d="M36 146l16 -6q3 -16 15.5 -28t30.5 -20.5t39 -13t40 -4.5q60 0 87.5 17.5t27.5 65.5v321q0 14 -12 22t-23 8v18h190v-18q-17 0 -29 -8t-12 -22v-330q0 -39 -16.5 -68t-46.5 -48t-71 -27t-91 -8q-31 0 -57 4t-46.5 9.5t-36 10.5t-25.5 5q-11 0 -18 -12l-15 10z" />
    <glyph glyph-name="K" unicode="K" 
d="M209 36q0 -9 6 -13.5t14 -4.5v-18h-156v18q22 0 22 18v454q0 18 -22 18v18h156v-18q-8 0 -14 -4.5t-6 -13.5v-190l207 163q14 12 22 19.5t8 12.5q0 7 -4.5 10t-10.5 3v18h210v-18q-18 0 -36 -15l-230 -183l210 -243q13 -15 30.5 -29.5t34.5 -19.5v-18h-185v18q13 0 13 7
q0 5 -14 22l-171 197l-84 -65v-143z" />
    <glyph glyph-name="L" unicode="L" horiz-adv-x="611" 
d="M574 -19q0 15 -9.5 17t-24.5 2h-476v18q30 0 30 18v454q0 18 -30 18v18h172v-18q-28 0 -28 -18v-398h332q15 0 24.5 7t9.5 19h18v-137h-18z" />
    <glyph glyph-name="M" unicode="M" horiz-adv-x="833" 
d="M88 18q8 0 14 4.5t6 13.5v456q0 9 -6 12.5t-14 3.5v18h187v-18q-5 0 -10.5 -3t-5.5 -9q0 -5 4 -13t9 -17l143 -260l144 257q7 13 10.5 20.5t3.5 13.5q0 11 -13 11v18h185v-18q-8 0 -14 -3.5t-6 -12.5v-456q0 -9 6 -13.5t14 -4.5v-18h-157v18q27 0 27 18v332h-2l-201 -368
h-3l-197 369h-2v-333q0 -18 28 -18v-18h-150v18z" />
    <glyph glyph-name="N" unicode="N" horiz-adv-x="778" 
d="M91 18q19 0 19 18v454q0 18 -19 18v18h171v-18q-8 0 -8 -10q0 -8 20 -28l287 -298v318q0 18 -26 18v18h151v-18q-19 0 -19 -18v-454q0 -18 19 -18v-18h-162v18q13 0 13 9q0 7 -16 23l-305 318v-332q0 -18 23 -18v-18h-148v18z" />
    <glyph glyph-name="O" unicode="O" horiz-adv-x="778" 
d="M389 440q-38 0 -76 -12t-68.5 -34.5t-49.5 -55.5t-19 -75t19 -75t49.5 -55.5t68.5 -34.5t76 -12t76 12t68.5 34.5t49.5 55.5t19 75t-19 75t-49.5 55.5t-68.5 34.5t-76 12zM389 532q55 0 112 -16.5t104 -49.5t77 -83.5t30 -119.5t-30 -119.5t-77 -83.5t-104 -48t-112 -15
t-112 15t-104 48t-77 83.5t-30 119.5t30 119.5t77 83.5t104 49.5t112 16.5z" />
    <glyph glyph-name="P" unicode="P" 
d="M440 306q33 0 56.5 13t23.5 51t-23.5 51t-56.5 13h-213v-128h213zM76 0v18q37 0 37 18v454q0 18 -37 18v18h352q96 0 151 -35.5t55 -120.5t-55 -120.5t-151 -35.5h-201v-178q0 -18 32 -18v-18h-183z" />
    <glyph glyph-name="Q" unicode="Q" horiz-adv-x="778" 
d="M389 440q-38 0 -76 -12t-68.5 -34.5t-49.5 -55.5t-19 -75t19 -75t49.5 -55.5t68.5 -34.5t76 -12q24 0 41 4q-22 29 -41 44.5t-32.5 23.5t-21 11t-7.5 7q0 8 21.5 14t46.5 6q21 0 39 -5.5t34 -14.5t31.5 -21t31.5 -24q31 23 50.5 56t19.5 76q0 42 -19 75t-49.5 55.5
t-68.5 34.5t-76 12zM563 -94q3 4 5.5 9t2.5 11t-8.5 16.5t-20.5 23t-24.5 24t-19.5 20.5q-27 -8 -54.5 -10.5t-54.5 -2.5q-55 0 -112 15t-104 48t-77 83.5t-30 119.5t30 119.5t77 83.5t104 49.5t112 16.5t112 -16.5t104 -49.5t77 -83.5t30 -119.5q0 -72 -31.5 -123
t-82.5 -84q6 -5 14 -14t16.5 -18t16.5 -15.5t13 -6.5q12 0 20 8l13 -11l-116 -101z" />
    <glyph glyph-name="R" unicode="R" horiz-adv-x="722" 
d="M396 292q36 0 60 5.5t38 15.5t20 23.5t6 29.5t-6 29.5t-20 23.5t-38 15.5t-60 5.5h-173v-148h173zM422 526q48 0 87 -8.5t67 -27t43 -48t15 -72.5q0 -66 -39 -101t-105 -47l133 -190q7 -10 16.5 -12t17.5 -2v-18h-187v18q9 0 15.5 3t6.5 8t-4 11.5t-12 17.5l-110 156
h-143v-178q0 -9 6.5 -13.5t23.5 -4.5v-18h-173v18q29 0 29 18v454q0 18 -29 18v18h342z" />
    <glyph glyph-name="S" unicode="S" 
d="M125 165l10 -5q0 -9 4 -16q7 -12 27.5 -23.5t47 -20.5t55.5 -14.5t52 -5.5q17 0 44 2.5t53 10.5t45 22t19 37t-17.5 34t-46 16t-65 6.5t-74.5 4.5t-74.5 10t-65 23.5t-46 45t-17.5 74.5q0 31 14.5 61t44.5 53t76 37.5t108 14.5q53 0 92 -8t67.5 -17t48 -17t32.5 -8
q14 0 20 6l12 -8l-69 -125l-10 4q-2 14 -8 23q-8 12 -26.5 23.5t-43.5 20.5t-54 14.5t-58 5.5q-22 0 -45.5 -3.5t-42.5 -10.5t-31.5 -18.5t-12.5 -28.5q0 -24 17.5 -36t46 -18t65 -8t74.5 -5t74.5 -10.5t65 -24t46 -44.5t17.5 -73q0 -52 -27.5 -85t-68.5 -52t-88.5 -25.5
t-88.5 -6.5q-57 0 -95.5 6.5t-64 16t-40.5 17t-26 7.5q-7 0 -13 -8l-14 8z" />
    <glyph glyph-name="T" unicode="T" horiz-adv-x="611" 
d="M362 36q0 -18 22 -18v-18h-154v18q7 0 12.5 4.5t5.5 13.5v398h-165q-9 0 -17.5 -5t-8.5 -19h-18v140h18q0 -14 8.5 -19t17.5 -5h444q9 0 17.5 5t8.5 19h18v-140h-18q0 14 -8.5 19t-17.5 5h-165v-398z" />
    <glyph glyph-name="U" unicode="U" horiz-adv-x="722" 
d="M230 508q-22 0 -22 -18v-300q0 -63 40.5 -86.5t118.5 -23.5t118.5 23.5t40.5 86.5v300q0 18 -30 18v18h160v-18q-24 0 -24 -18v-295q0 -59 -17 -97.5t-51 -61.5t-84.5 -31t-116.5 -8t-116.5 8t-84.5 31t-51 61.5t-17 97.5v295q0 18 -28 18v18h164v-18z" />
    <glyph glyph-name="V" unicode="V" 
d="M644 508q-20 0 -29 -14.5t-13 -23.5l-177 -389q-9 -20 -15 -32t-6 -17t2.5 -8t6.5 -6v-18h-153v18q9 4 9 14q0 5 -7.5 20.5t-18.5 38.5l-180 391q-5 11 -14 16t-26 10v18h179v-18q-7 0 -13.5 -3.5t-6.5 -13.5q0 -11 8.5 -28t20.5 -42l128 -275l125 271q12 26 22.5 46.5
t10.5 28.5q0 16 -28 16v18h175v-18z" />
    <glyph glyph-name="W" unicode="W" horiz-adv-x="944" 
d="M186 508q-15 0 -15 -19q0 -5 1.5 -12t7.5 -23l107 -278h2l106 282q5 13 6.5 19.5t1.5 11.5q0 19 -13 19v18h171v-18q-7 0 -10 -5t-3 -11q0 -10 10 -34l107 -282h2l108 288q7 15 7 27q0 6 -5 11.5t-12 5.5v18h148v-18q-11 0 -16.5 -12t-12.5 -30l-144 -382l-10.5 -28
t-4.5 -20q0 -7 5 -12.5t14 -5.5v-18h-158v18q6 2 12.5 6t6.5 11q0 8 -3.5 18t-11.5 28l-115 295h-2l-109 -289q-15 -39 -15 -49q0 -16 13 -20v-18h-155v18q6 0 12 3t6 10q0 8 -3.5 17t-7.5 19l-160 413q-4 11 -8.5 18.5t-14.5 9.5v18h155v-18z" />
    <glyph glyph-name="X" unicode="X" 
d="M260 508q-8 0 -15.5 -4t-7.5 -12q0 -7 5.5 -17t14.5 -21l82 -103l83 105q11 14 19 24t8 15q0 13 -27 13v18h203v-18q-24 0 -35.5 -3t-19.5 -13l-173 -214l166 -212q4 -6 9.5 -14t13.5 -15.5t17.5 -13t21.5 -5.5v-18h-201v18q16 0 16 16q0 7 -6.5 16t-15.5 20l-92 120
l-99 -124q-5 -7 -12.5 -16.5t-7.5 -17.5q0 -14 19 -14v-18h-184v18q19 0 29.5 4t21.5 18l175 223l-162 206q-17 22 -31 30.5t-33 8.5v18h218v-18z" />
    <glyph glyph-name="Y" unicode="Y" horiz-adv-x="611" 
d="M219 526v-18q-9 0 -17 -2.5t-8 -12.5q0 -6 14.5 -28.5t34 -51t40.5 -58.5t34 -51l117 161q8 12 13 19t5 13q0 7 -9.5 9t-17.5 2v18h175v-18q-8 0 -15 -1.5t-14.5 -7t-16 -16t-20.5 -28.5l-170 -241v-178q0 -18 23 -18v-18h-158v18q9 0 15 4.5t6 13.5v178l-193 270
q-7 10 -21.5 17t-24.5 7v18h208z" />
    <glyph glyph-name="Z" unicode="Z" horiz-adv-x="611" 
d="M372 440h-272q-30 0 -30 -28h-18v138h18q0 -24 30 -24h461v-28l-318 -406h272q28 0 28 22h18v-133h-18q0 19 -28 19h-466v28z" />
    <glyph glyph-name="bracketleft" unicode="[" horiz-adv-x="389" 
d="M69 526h251v-84h-142v-497h142v-77h-251v658z" />
    <glyph glyph-name="backslash" unicode="\" horiz-adv-x="278" 
d="M317 0h-108l-240 532h110z" />
    <glyph glyph-name="bracketright" unicode="]" horiz-adv-x="389" 
d="M320 -132h-251v77h142v497h-142v84h251v-658z" />
    <glyph glyph-name="asciicircum" unicode="^" horiz-adv-x="600" 
d="M235 509q7 14 9 19.5t2 11.5t-2.5 7.5t-5.5 3.5v18h130v-18q-3 -2 -6.5 -3t-3.5 -8q0 -6 4 -14.5t10 -19.5l111 -202q5 -8 13.5 -15.5t19.5 -7.5v-19h-163v19q14 0 20 5.5t-2 17.5l-77 168l-80 -168q-7 -12 1 -17.5t22 -5.5v-19h-146v19q11 1 19 6t15 17z" />
    <glyph glyph-name="underscore" unicode="_" horiz-adv-x="500" 
d="M0 -73h500v-50h-500v50z" />
    <glyph glyph-name="grave" unicode="`" horiz-adv-x="333" 
d="M242 490h-82l-144 144h136z" />
    <glyph glyph-name="a" unicode="a" horiz-adv-x="556" 
d="M349 184l-81 168l-71 -168h152zM15 18q12 2 19.5 11.5t11.5 17.5l149 325q6 14 9.5 22.5t3.5 16.5q0 6 -2.5 7.5t-5.5 3.5v18h151v-18q-3 -2 -6.5 -3t-3.5 -8q0 -6 4.5 -14.5t9.5 -19.5l162 -340q5 -9 11 -13t13 -6v-18h-142v15q5 0 10.5 3t5.5 11q0 6 -2 11t-5 13
l-27 57h-214l-28 -54q-4 -8 -6.5 -14.5t-2.5 -11.5q0 -8 5 -10t14 -2v-18h-134v18z" />
    <glyph glyph-name="b" unicode="b" horiz-adv-x="611" 
d="M367 266q24 0 45 10t21 41q0 16 -6 25.5t-15 15t-21 7t-24 1.5h-178v-100h178zM365 74q46 0 63 15t17 42q0 31 -22 46t-74 15h-160v-118h176zM93 407q0 8 -7.5 11.5t-15.5 3.5v18h311q38 0 65.5 -9t46 -24.5t27.5 -35.5t9 -42q0 -18 -6 -33.5t-15.5 -28t-21 -22.5
t-23.5 -16v-1q14 -6 28 -16t25 -24t18 -32t7 -39q0 -24 -9 -45t-28.5 -37t-51 -25.5t-75.5 -9.5h-307v18q8 0 15.5 3.5t7.5 11.5v374z" />
    <glyph glyph-name="c" unicode="c" horiz-adv-x="556" 
d="M429 314q0 2 -0.5 4t-0.5 5q0 5 -10 13.5t-28.5 16.5t-43.5 13.5t-55 5.5q-36 0 -65.5 -9.5t-51.5 -28.5t-34 -47t-12 -64t13.5 -64.5t35.5 -49t50 -31t57 -10.5q27 0 55 7t51 16.5t37.5 20.5t14.5 20v8q0 6 -1 10l11 10l74 -106l-10 -5q-12 5 -17 5q-8 0 -26 -9
t-45.5 -20.5t-64 -19.5t-81.5 -8q-46 0 -91 13t-80 41.5t-57 71t-22 98.5t22 98t58 70.5t82.5 42.5t95.5 14q38 0 69.5 -7t55.5 -16t40 -16t23 -7q5 0 8.5 3t7.5 5l12 -7l-66 -95z" />
    <glyph glyph-name="d" unicode="d" horiz-adv-x="611" 
d="M316 74q31 0 59 4.5t49 20t33.5 45t12.5 79.5t-12.5 78.5t-33.5 43t-49 18t-59 3.5h-130v-292h130zM67 18q23 0 23 15v374q0 15 -23 15v18h278q59 0 101 -19t68.5 -49.5t39 -70t12.5 -81.5t-12 -81.5t-38 -70t-67 -49.5t-100 -19h-282v18z" />
    <glyph glyph-name="e" unicode="e" horiz-adv-x="556" 
d="M468 347q0 19 -31 19h-244v-100h154q17 0 25 2.5t8 13.5h18v-106h-20q3 11 -8 13.5t-31 2.5h-146v-118h256q12 0 20 5.5t8 14.5h18v-105h-18q0 9 -8 10t-20 1h-367v18q5 0 10 3.5t5 11.5v374q0 8 -5 11.5t-10 3.5v18h355q31 0 31 18h18v-111h-18z" />
    <glyph glyph-name="f" unicode="f" horiz-adv-x="556" 
d="M494 352q0 5 -7 9.5t-24 4.5h-271v-106h176q17 0 21 3.5t5 11.5h18v-105h-18q-1 8 -5 12t-21 4h-176v-153q0 -8 7 -11.5t16 -3.5v-18h-138v18q19 0 19 15v374q0 15 -21 15v18h388q17 0 24 5t7 13h18v-106h-18z" />
    <glyph glyph-name="g" unicode="g" horiz-adv-x="611" 
d="M471 295l-12 7q2 10 2 11q0 9 -13 19.5t-34 19.5t-47.5 14.5t-53.5 5.5q-37 0 -70 -8.5t-58 -27t-40 -47.5t-15 -71t16 -70.5t41.5 -46t56.5 -25.5t60 -8q43 0 81.5 6t70.5 23v63h-103q-11 0 -19 -4.5t-10 -16.5h-18v103h18q2 -10 10 -13t19 -3h196v-18q-9 -4 -12 -9
t-3 -15v-95q0 -9 2.5 -12.5t12.5 -7.5v-12q-9 -6 -28.5 -16.5t-49 -20.5t-68.5 -16.5t-87 -6.5q-65 0 -117.5 14.5t-89 43.5t-56 70.5t-19.5 94.5t19.5 94.5t56 71t89 45t117.5 15.5q39 0 69 -7t52 -15q23 -8 37 -15t21 -7q8 0 12 1.5t10 6.5l12 -6z" />
    <glyph glyph-name="h" unicode="h" 
d="M199 33q0 -8 4.5 -11.5t10.5 -3.5v-18h-126v18q6 0 10.5 3.5t4.5 11.5v374q0 8 -4.5 11.5t-10.5 3.5v18h126v-18q-6 0 -10.5 -3.5t-4.5 -11.5v-141h268v141q0 8 -4.5 11.5t-10.5 3.5v18h126v-18q-6 0 -10.5 -3.5t-4.5 -11.5v-374q0 -8 4.5 -11.5t10.5 -3.5v-18h-126v18
q6 0 10.5 3.5t4.5 11.5v151h-268v-151z" />
    <glyph glyph-name="i" unicode="i" horiz-adv-x="333" 
d="M90 18q16 0 22 3.5t6 11.5v374q0 8 -6 11.5t-22 3.5v18h152v-18q-28 0 -28 -15v-374q0 -15 28 -15v-18h-152v18z" />
    <glyph glyph-name="j" unicode="j" horiz-adv-x="444" 
d="M43 135l14 -5q0 -7 0.5 -15.5t5.5 -14.5q7 -11 35.5 -21.5t65.5 -10.5q43 0 64.5 13.5t21.5 54.5v261q0 11 -9 18t-16 7v18h149v-18q-10 0 -19 -7t-9 -18v-273q0 -36 -14 -61t-38.5 -40t-58 -20.5t-72.5 -5.5q-22 0 -43 3.5t-39 9t-32 10t-23 4.5q-8 0 -12 -3.5t-9 -8.5
l-9 8z" />
    <glyph glyph-name="k" unicode="k" horiz-adv-x="556" 
d="M186 33q0 -15 19 -15v-18h-131v18q16 0 16 15v374q0 15 -16 15v18h131v-18q-19 0 -19 -15v-163q34 28 70 56.5t65 52.5t48 40.5t19 20.5q0 5 -5.5 8t-10.5 3v15h165v-18q-12 -4 -36 -23l-167 -135l158 -196q12 -15 26 -30.5t28 -19.5v-18h-148v18q11 0 11 6q0 4 -4.5 11
t-17.5 22l-123 150l-78 -62v-112z" />
    <glyph glyph-name="l" unicode="l" horiz-adv-x="556" 
d="M221 440v-18q-23 0 -23 -15v-333h270q12 0 20 5.5t8 15.5h18v-105h-18q0 8 -8 9t-20 1h-392v18q26 0 26 15v374q0 15 -26 15v18h145z" />
    <glyph glyph-name="m" unicode="m" horiz-adv-x="722" 
d="M93 18q5 1 8.5 4t3.5 14v366q0 14 -2.5 17t-9.5 3v18h139v-18q-10 0 -10 -9q0 -4 3.5 -10.5t10.5 -18.5l122 -225l123 224q7 12 11 19.5t4 10.5q0 9 -8 9v18h141v-18q-5 0 -9.5 -2.5t-4.5 -10.5v-376q0 -8 4.5 -11.5t9.5 -3.5v-18h-116v18q21 0 18 15v281h-2l-170 -314
h-8l-161 314h1h-2v-281q0 -15 17 -15v-18h-113v18z" />
    <glyph glyph-name="n" unicode="n" 
d="M81 18q18 0 18 15v374q0 15 -18 15v18h147v-18q-7 -1 -7 -5q0 -5 22 -27l240 -254v271q0 15 -20 15v18h122v-18q-18 0 -18 -15v-374q0 -15 18 -15v-18h-130v18q7 0 7 5q0 4 -9.5 14t-21.5 23l-248 264v-291q0 -15 21 -15v-18h-123v18z" />
    <glyph glyph-name="o" unicode="o" horiz-adv-x="611" 
d="M305 372q-32 0 -62.5 -10.5t-54.5 -30t-38.5 -47.5t-14.5 -64t14.5 -64t38.5 -47.5t54.5 -30t62.5 -10.5t62.5 10.5t54.5 30t38.5 47.5t14.5 64t-14.5 64t-38.5 47.5t-54.5 30t-62.5 10.5zM305 446q55 0 103.5 -14t84.5 -42t57 -70.5t21 -99.5t-21 -99.5t-57 -70.5
t-84.5 -40.5t-103.5 -12.5t-103.5 12.5t-84.5 40.5t-57 70.5t-21 99.5t21 99.5t57 70.5t84.5 42t103.5 14z" />
    <glyph glyph-name="p" unicode="p" horiz-adv-x="556" 
d="M356 257q29 0 48.5 10.5t19.5 42.5q0 31 -19.5 43.5t-48.5 12.5h-168v-109h168zM92 407q0 15 -25 15v18h291q81 0 121.5 -29t40.5 -101t-40.5 -99.5t-121.5 -27.5h-170v-150q0 -15 21 -15v-18h-142v18q25 0 25 15v374z" />
    <glyph glyph-name="q" unicode="q" horiz-adv-x="611" 
d="M305 372q-32 0 -62.5 -10.5t-54.5 -30t-38.5 -47.5t-14.5 -64t14.5 -64t38.5 -47.5t54.5 -30t62.5 -10.5q24 0 37 4q-21 29 -39 45t-31 24.5t-20.5 12.5t-7.5 8q0 5 10.5 8.5t28.5 3.5q35 0 62.5 -19t66.5 -54q28 20 45.5 50t17.5 69q0 36 -14.5 64t-38.5 47.5t-54.5 30
t-62.5 10.5zM448 -84q3 4 6.5 8.5t3.5 10.5q0 9 -16 27t-43 44q-47 -9 -94 -9q-55 0 -103.5 12.5t-84.5 40.5t-57 70.5t-21 99.5t21 99.5t57 70.5t84.5 42t103.5 14t103.5 -14t84.5 -42t57 -70.5t21 -99.5q0 -66 -26.5 -111t-71.5 -71q49 -47 61 -47q15 0 20 5l10 -9
l-108 -83z" />
    <glyph glyph-name="r" unicode="r" horiz-adv-x="611" 
d="M352 250q98 0 98 62q0 25 -23.5 39.5t-74.5 14.5h-158v-116h158zM354 440q89 0 139 -29.5t50 -100.5q0 -27 -10 -48t-26.5 -36.5t-36.5 -25t-41 -14.5l98 -143q8 -11 17.5 -16.5t20.5 -8.5v-18h-153v18q13 0 13 9q0 10 -15 31l-79 118h-139v-143q0 -8 6.5 -11.5
t12.5 -3.5v-18h-133v18q18 0 18 15v374q0 15 -18 15v18h276z" />
    <glyph glyph-name="s" unicode="s" horiz-adv-x="556" 
d="M111 153q0 -4 -0.5 -8.5t-0.5 -9.5q0 -15 19 -27.5t45.5 -21t53 -13.5t41.5 -5q14 0 34.5 2t40.5 8.5t34 18t14 30.5q0 22 -24.5 32t-61.5 15.5t-80 11t-80 18t-61.5 36t-24.5 66.5q0 64 53 102t149 38q47 0 80.5 -7.5t56.5 -16.5t37.5 -16.5t21.5 -7.5q8 0 12 2.5
t10 5.5l11 -11l-50 -94l-18 6l-2 12t-9 12q-20 17 -62 29t-94 12q-20 0 -38 -2.5t-32 -8.5t-22 -15.5t-8 -23.5q0 -22 24.5 -31.5t61.5 -15t80 -11t80 -18.5t61.5 -38t24.5 -69t-21.5 -72t-53.5 -44t-70.5 -21t-72.5 -5t-67.5 6.5t-61 15t-46.5 16t-23 7.5q-7 0 -12 -6
l-14 10l46 112z" />
    <glyph glyph-name="t" unicode="t" horiz-adv-x="500" 
d="M187 18q5 0 10 3.5t5 11.5v333h-130q-8 0 -15 -4t-7 -13h-18v115h18q0 -14 7 -19t15 -5h356q8 0 15 5t7 19h18v-115h-18q0 9 -7 13t-15 4h-130v-333q0 -15 18 -15v-18h-129v18z" />
    <glyph glyph-name="u" unicode="u" 
d="M217 422q-22 0 -22 -15v-229q0 -48 35 -77t107 -29t107 29t35 77v229q0 15 -25 15v18h139v-18q-22 0 -22 -15v-253q0 -31 -14 -59.5t-42.5 -50.5t-73 -34.5t-104.5 -12.5t-104.5 12.5t-73 34.5t-42.5 50.5t-14 59.5v253q0 8 -6 11.5t-23 3.5v18h143v-18z" />
    <glyph glyph-name="v" unicode="v" horiz-adv-x="556" 
d="M532 422q-14 0 -25 -23l-146 -323q-11 -26 -16.5 -35t-5.5 -14q0 -6 18 -9v-18h-151v18q5 2 9.5 4.5t4.5 7.5t-6.5 16t-15.5 30l-152 327q-4 9 -10.5 14t-12.5 5v18h141v-18q-12 0 -12 -13q0 -7 5.5 -19.5t12.5 -27.5l115 -249l109 242q11 24 17 36t5 19q-1 12 -15 12v18
h131v-18z" />
    <glyph glyph-name="w" unicode="w" horiz-adv-x="778" 
d="M143 422q-13 0 -13 -14q0 -5 4 -15.5t10 -26.5l88 -243h2l85 238q5 14 9.5 26.5t4.5 20.5q0 14 -16 14v18h143v-18q-18 0 -18 -12q0 -7 5 -20.5t10 -25.5l88 -241l93 243q5 14 8.5 24.5t3.5 17.5q0 14 -16 14v18h127v-18q-17 0 -30 -37l-115 -305q-6 -17 -12 -30.5
t-6 -18.5q0 -13 14 -13v-18h-140v18q8 1 10 3.5t2 10.5q0 4 -9 30t-23.5 65.5t-31.5 88.5t-33 99h-2q-2 -9 -11 -32.5t-21 -54t-25.5 -64t-25 -62t-19 -48t-7.5 -22.5q0 -8 3 -11t12 -3v-18h-123v18q4 0 7 1t3 7t-3.5 15.5t-5.5 14.5l-132 347q-6 16 -21 19v18h127v-18z" />
    <glyph glyph-name="x" unicode="x" horiz-adv-x="556" 
d="M200 422q-12 0 -12 -11q0 -5 6 -13t15 -19l70 -85l76 93q16 19 16 27t-13 8v18h153v-18q-16 0 -26 -10l-151 -182l139 -175q8 -9 19 -23t26 -14v-18h-153v18q7 1 7 8q0 3 -11 20l-87 107l-85 -104q-14 -17 -14 -24t9 -7v-18h-146v18q6 0 14.5 3t15.5 12l152 187l-138 172
q-14 17 -23 23.5t-16 6.5v18h157v-18z" />
    <glyph glyph-name="y" unicode="y" horiz-adv-x="556" 
d="M60 405q-7 9 -17 13t-19 4v18h165v-18q-5 0 -11 -3.5t-6 -9.5t4 -11t9 -12l101 -132l89 124l13.5 19.5t4.5 12.5q0 8 -5 10t-10 2v18h153v-18q-12 0 -26.5 -13.5t-25.5 -27.5l-153 -198v-150q0 -15 19 -15v-18h-133v18q18 0 18 15v154z" />
    <glyph glyph-name="z" unicode="z" horiz-adv-x="556" 
d="M329 366h-229q-13 0 -19 -6t-6 -14h-18v117h18q0 -23 25 -23h398v-18l-279 -348h239q23 0 23 21h18v-105h-18q0 10 -23 10h-401v18z" />
    <glyph glyph-name="braceleft" unicode="{" horiz-adv-x="389" 
d="M130 107q0 38 -17 57.5t-40 30.5q23 11 40 30.5t17 57.5v136q0 34 7 55t24 32.5t45 15.5t70 4v-12q-29 -6 -41.5 -19.5t-12.5 -35.5v-165q0 -42 -19 -65t-56 -33v-2q37 -10 56 -33t19 -65v-162q0 -22 12.5 -35.5t41.5 -19.5v-12q-42 0 -70 4t-45 15.5t-24 32.5t-7 55v133
z" />
    <glyph glyph-name="bar" unicode="|" horiz-adv-x="222" 
d="M150 750v-998h-78v998h78z" />
    <glyph glyph-name="braceright" unicode="}" horiz-adv-x="389" 
d="M259 283q0 -38 17 -57.5t40 -30.5q-23 -11 -40 -30.5t-17 -57.5v-133q0 -34 -7 -55t-24 -32.5t-45 -15.5t-70 -4v12q29 6 41.5 19.5t12.5 35.5v162q0 42 19 65t56 33v2q-37 10 -56 33t-19 65v165q0 22 -12.5 35.5t-41.5 19.5v12q42 0 70 -4t45 -15.5t24 -32.5t7 -55v-136
z" />
    <glyph glyph-name="asciitilde" unicode="~" horiz-adv-x="600" 
d="M531 231q-11 -16 -23 -31.5t-27 -27.5t-33.5 -19.5t-41.5 -7.5q-28 0 -52.5 9.5t-49.5 23.5q-24 14 -52 24.5t-63 10.5q-16 0 -29 -6.5t-23.5 -16.5t-18 -23t-13.5 -26l-36 68q8 16 19 31.5t26.5 27.5t35 19.5t44.5 7.5q26 0 54 -9.5t57 -22.5q28 -12 55 -24t47 -12
q15 0 27.5 6.5t23 16.5t19.5 23l18 26z" />
    <glyph glyph-name="Adieresis" unicode="&#xc4;" 
d="M179 681h110v-110h-110v110zM354 681h110v-110h-110v110zM398 204l-84 186l-94 -186h178zM21 18q13 2 20.5 13t14.5 25l185 389q7 13 12.5 24t5.5 19q0 10 -7 14t-15 6v18h169v-18q-7 -2 -14 -5.5t-7 -14.5q0 -8 3.5 -16t10.5 -21l208 -407q5 -11 13.5 -16t19.5 -10v-18
h-176v18q4 0 10 3t6 9q0 10 -8 26l-38 74h-244l-36 -71q-10 -21 -10 -30q0 -11 19 -11v-18h-142v18z" />
    <glyph glyph-name="Aring" unicode="&#xc5;" 
d="M321 719q-25 0 -42 -17t-17 -42t17 -42t42 -17t42 17t17 42t-17 42t-42 17zM321 763q22 0 40.5 -8t32.5 -22t22 -33t8 -40t-8 -40t-22 -33t-32.5 -22t-40.5 -8t-40.5 8t-32.5 22t-22 33t-8 40t8 40t22 33t32.5 22t40.5 8zM398 204l-84 186l-94 -186h178zM21 18
q13 2 20.5 13t14.5 25l185 389q7 13 12.5 24t5.5 19q0 10 -7 14t-15 6v18h169v-18q-7 -2 -14 -5.5t-7 -14.5q0 -8 3.5 -16t10.5 -21l208 -407q5 -11 13.5 -16t19.5 -10v-18h-176v18q4 0 10 3t6 9q0 10 -8 26l-38 74h-244l-36 -71q-10 -21 -10 -30q0 -11 19 -11v-18h-142v18z
" />
    <glyph glyph-name="Ccedilla" unicode="&#xc7;" horiz-adv-x="722" 
d="M641 72q-3 0 -5.5 0.5t-5.5 0.5q-5 0 -24.5 -10.5t-49.5 -24t-68 -25.5t-81 -13l-41 -55l2 -2q9 4 24 4q17 0 33.5 -5t29 -14.5t20.5 -23.5t8 -33q0 -27 -11.5 -45t-29.5 -29t-41 -15.5t-46 -4.5q-22 0 -50 8t-47 18l18 40q15 -6 31.5 -11t33.5 -5q22 0 41 7t19 33
q0 19 -12 27.5t-29 8.5q-11 0 -22.5 -1.5t-20.5 -5.5l-22 19l62 83q-61 2 -116 19t-96.5 50.5t-66 82.5t-24.5 113q0 66 26 116.5t70.5 84.5t102.5 51t121 17q51 0 92.5 -8t72.5 -17t49 -17t22 -8q5 0 8.5 5t5.5 8l15 -12l-78 -121l-10 7q0 3 -0.5 6t-1.5 7q-2 11 -20 22.5
t-44.5 20.5t-56 15t-54.5 6q-42 0 -80.5 -12t-67 -35t-45.5 -56.5t-17 -76.5t17 -76.5t45.5 -56.5t67 -35t80.5 -12q32 0 67 7.5t64 19t48.5 26t19.5 27.5q0 7 -4 12l14 8l66 -106z" />
    <glyph glyph-name="Eacute" unicode="&#xc9;" 
d="M354 559h-84l91 144h135zM580 418q0 11 -8.5 16.5t-29.5 5.5h-324v-124h196q20 0 31 5.5t11 28.5h18v-156h-18q0 23 -11 29.5t-31 6.5h-196v-138h334q15 0 24.5 7t9.5 19h18v-137h-18q0 15 -9.5 17t-24.5 2h-466v18q7 0 12.5 4.5t5.5 13.5v454q0 9 -5.5 13.5t-12.5 4.5
v18h456q21 0 29.5 6.5t8.5 17.5h18v-132h-18z" />
    <glyph glyph-name="Ntilde" unicode="&#xd1;" horiz-adv-x="778" 
d="M566 689q-5 -23 -13 -44t-21 -37t-32 -25.5t-46 -9.5q-15 0 -34 6t-38.5 13t-38 13t-32.5 6q-20 0 -29 -14t-14 -30h-56q8 48 31 79.5t74 37.5q16 2 35 -4t38.5 -13.5t38.5 -14.5t34 -7q19 0 30.5 13.5t15.5 30.5h57zM91 18q19 0 19 18v454q0 18 -19 18v18h171v-18
q-8 0 -8 -10q0 -8 20 -28l287 -298v318q0 18 -26 18v18h151v-18q-19 0 -19 -18v-454q0 -18 19 -18v-18h-162v18q13 0 13 9q0 7 -16 23l-305 318v-332q0 -18 23 -18v-18h-148v18z" />
    <glyph glyph-name="Odieresis" unicode="&#xd6;" horiz-adv-x="778" 
d="M247 681h110v-110h-110v110zM422 681h110v-110h-110v110zM389 440q-38 0 -76 -12t-68.5 -34.5t-49.5 -55.5t-19 -75t19 -75t49.5 -55.5t68.5 -34.5t76 -12t76 12t68.5 34.5t49.5 55.5t19 75t-19 75t-49.5 55.5t-68.5 34.5t-76 12zM389 532q55 0 112 -16.5t104 -49.5
t77 -83.5t30 -119.5t-30 -119.5t-77 -83.5t-104 -48t-112 -15t-112 15t-104 48t-77 83.5t-30 119.5t30 119.5t77 83.5t104 49.5t112 16.5z" />
    <glyph glyph-name="Udieresis" unicode="&#xdc;" horiz-adv-x="722" 
d="M219 681h110v-110h-110v110zM394 681h110v-110h-110v110zM230 508q-22 0 -22 -18v-300q0 -63 40.5 -86.5t118.5 -23.5t118.5 23.5t40.5 86.5v300q0 18 -30 18v18h160v-18q-24 0 -24 -18v-295q0 -59 -17 -97.5t-51 -61.5t-84.5 -31t-116.5 -8t-116.5 8t-84.5 31t-51 61.5
t-17 97.5v295q0 18 -28 18v18h164v-18z" />
    <glyph glyph-name="aacute" unicode="&#xe1;" horiz-adv-x="556" 
d="M275 490h-84l91 144h135zM349 184l-81 168l-71 -168h152zM15 18q12 2 19.5 11.5t11.5 17.5l149 325q6 14 9.5 22.5t3.5 16.5q0 6 -2.5 7.5t-5.5 3.5v18h151v-18q-3 -2 -6.5 -3t-3.5 -8q0 -6 4.5 -14.5t9.5 -19.5l162 -340q5 -9 11 -13t13 -6v-18h-142v15q5 0 10.5 3
t5.5 11q0 6 -2 11t-5 13l-27 57h-214l-28 -54q-4 -8 -6.5 -14.5t-2.5 -11.5q0 -8 5 -10t14 -2v-18h-134v18z" />
    <glyph glyph-name="agrave" unicode="&#xe0;" horiz-adv-x="556" 
d="M342 490h-82l-144 144h136zM349 184l-81 168l-71 -168h152zM15 18q12 2 19.5 11.5t11.5 17.5l149 325q6 14 9.5 22.5t3.5 16.5q0 6 -2.5 7.5t-5.5 3.5v18h151v-18q-3 -2 -6.5 -3t-3.5 -8q0 -6 4.5 -14.5t9.5 -19.5l162 -340q5 -9 11 -13t13 -6v-18h-142v15q5 0 10.5 3
t5.5 11q0 6 -2 11t-5 13l-27 57h-214l-28 -54q-4 -8 -6.5 -14.5t-2.5 -11.5q0 -8 5 -10t14 -2v-18h-134v18z" />
    <glyph glyph-name="acircumflex" unicode="&#xe2;" horiz-adv-x="556" 
d="M103 490l108 144h111l108 -144h-93l-70 90l-71 -90h-93zM349 184l-81 168l-71 -168h152zM15 18q12 2 19.5 11.5t11.5 17.5l149 325q6 14 9.5 22.5t3.5 16.5q0 6 -2.5 7.5t-5.5 3.5v18h151v-18q-3 -2 -6.5 -3t-3.5 -8q0 -6 4.5 -14.5t9.5 -19.5l162 -340q5 -9 11 -13
t13 -6v-18h-142v15q5 0 10.5 3t5.5 11q0 6 -2 11t-5 13l-27 57h-214l-28 -54q-4 -8 -6.5 -14.5t-2.5 -11.5q0 -8 5 -10t14 -2v-18h-134v18z" />
    <glyph glyph-name="adieresis" unicode="&#xe4;" horiz-adv-x="556" 
d="M124 612h110v-110h-110v110zM299 612h110v-110h-110v110zM349 184l-81 168l-71 -168h152zM15 18q12 2 19.5 11.5t11.5 17.5l149 325q6 14 9.5 22.5t3.5 16.5q0 6 -2.5 7.5t-5.5 3.5v18h151v-18q-3 -2 -6.5 -3t-3.5 -8q0 -6 4.5 -14.5t9.5 -19.5l162 -340q5 -9 11 -13
t13 -6v-18h-142v15q5 0 10.5 3t5.5 11q0 6 -2 11t-5 13l-27 57h-214l-28 -54q-4 -8 -6.5 -14.5t-2.5 -11.5q0 -8 5 -10t14 -2v-18h-134v18z" />
    <glyph glyph-name="atilde" unicode="&#xe3;" horiz-adv-x="556" 
d="M443 620q-5 -23 -13 -44t-21 -37t-32 -25.5t-46 -9.5q-15 0 -34 6t-38.5 13t-38 13t-32.5 6q-20 0 -29 -14t-14 -30h-56q8 48 31 79.5t74 37.5q16 2 35 -4t38.5 -13.5t38.5 -14.5t34 -7q19 0 30.5 13.5t15.5 30.5h57zM349 184l-81 168l-71 -168h152zM15 18
q12 2 19.5 11.5t11.5 17.5l149 325q6 14 9.5 22.5t3.5 16.5q0 6 -2.5 7.5t-5.5 3.5v18h151v-18q-3 -2 -6.5 -3t-3.5 -8q0 -6 4.5 -14.5t9.5 -19.5l162 -340q5 -9 11 -13t13 -6v-18h-142v15q5 0 10.5 3t5.5 11q0 6 -2 11t-5 13l-27 57h-214l-28 -54q-4 -8 -6.5 -14.5
t-2.5 -11.5q0 -8 5 -10t14 -2v-18h-134v18z" />
    <glyph glyph-name="aring" unicode="&#xe5;" horiz-adv-x="556" 
d="M266 650q-25 0 -42 -17t-17 -42t17 -42t42 -17t42 17t17 42t-17 42t-42 17zM266 694q22 0 40.5 -8t32.5 -22t22 -33t8 -40t-8 -40t-22 -33t-32.5 -22t-40.5 -8t-40.5 8t-32.5 22t-22 33t-8 40t8 40t22 33t32.5 22t40.5 8zM349 184l-81 168l-71 -168h152zM15 18
q12 2 19.5 11.5t11.5 17.5l149 325q6 14 9.5 22.5t3.5 16.5q0 6 -2.5 7.5t-5.5 3.5v18h151v-18q-3 -2 -6.5 -3t-3.5 -8q0 -6 4.5 -14.5t9.5 -19.5l162 -340q5 -9 11 -13t13 -6v-18h-142v15q5 0 10.5 3t5.5 11q0 6 -2 11t-5 13l-27 57h-214l-28 -54q-4 -8 -6.5 -14.5
t-2.5 -11.5q0 -8 5 -10t14 -2v-18h-134v18z" />
    <glyph glyph-name="ccedilla" unicode="&#xe7;" horiz-adv-x="556" 
d="M429 314q0 2 -0.5 4t-0.5 5q0 5 -10 13.5t-28.5 16.5t-43.5 13.5t-55 5.5q-36 0 -65.5 -9.5t-51.5 -28.5t-34 -47t-12 -64t13.5 -64.5t35.5 -49t50 -31t57 -10.5q27 0 55 7t51 16.5t37.5 20.5t14.5 20v8q0 6 -1 10l11 10l74 -106l-10 -5q-12 5 -17 5q-7 0 -22 -7.5
t-37 -17.5t-51 -19t-65 -10l-41 -55l2 -2q9 4 24 4q17 0 33.5 -5t29 -14.5t20.5 -23.5t8 -33q0 -27 -11.5 -45t-29.5 -29t-41 -15.5t-46 -4.5q-22 0 -50 8t-47 18l18 40q15 -6 31.5 -11t33.5 -5q22 0 41 7t19 33q0 19 -12 27.5t-29 8.5q-11 0 -22.5 -1.5t-20.5 -5.5l-22 19
l62 83q-45 1 -88.5 14.5t-77.5 41.5t-55 70t-21 97q0 56 22 98t58 70.5t82.5 42.5t95.5 14q38 0 69.5 -7t55.5 -16t40 -16t23 -7q5 0 8.5 3t7.5 5l12 -7l-66 -95z" />
    <glyph glyph-name="eacute" unicode="&#xe9;" horiz-adv-x="556" 
d="M299 490h-84l91 144h135zM468 347q0 19 -31 19h-244v-100h154q17 0 25 2.5t8 13.5h18v-106h-20q3 11 -8 13.5t-31 2.5h-146v-118h256q12 0 20 5.5t8 14.5h18v-105h-18q0 9 -8 10t-20 1h-367v18q5 0 10 3.5t5 11.5v374q0 8 -5 11.5t-10 3.5v18h355q31 0 31 18h18v-111h-18
z" />
    <glyph glyph-name="egrave" unicode="&#xe8;" horiz-adv-x="556" 
d="M366 490h-82l-144 144h136zM468 347q0 19 -31 19h-244v-100h154q17 0 25 2.5t8 13.5h18v-106h-20q3 11 -8 13.5t-31 2.5h-146v-118h256q12 0 20 5.5t8 14.5h18v-105h-18q0 9 -8 10t-20 1h-367v18q5 0 10 3.5t5 11.5v374q0 8 -5 11.5t-10 3.5v18h355q31 0 31 18h18v-111
h-18z" />
    <glyph glyph-name="ecircumflex" unicode="&#xea;" horiz-adv-x="556" 
d="M127 490l108 144h111l108 -144h-93l-70 90l-71 -90h-93zM468 347q0 19 -31 19h-244v-100h154q17 0 25 2.5t8 13.5h18v-106h-20q3 11 -8 13.5t-31 2.5h-146v-118h256q12 0 20 5.5t8 14.5h18v-105h-18q0 9 -8 10t-20 1h-367v18q5 0 10 3.5t5 11.5v374q0 8 -5 11.5t-10 3.5
v18h355q31 0 31 18h18v-111h-18z" />
    <glyph glyph-name="edieresis" unicode="&#xeb;" horiz-adv-x="556" 
d="M148 612h110v-110h-110v110zM323 612h110v-110h-110v110zM468 347q0 19 -31 19h-244v-100h154q17 0 25 2.5t8 13.5h18v-106h-20q3 11 -8 13.5t-31 2.5h-146v-118h256q12 0 20 5.5t8 14.5h18v-105h-18q0 9 -8 10t-20 1h-367v18q5 0 10 3.5t5 11.5v374q0 8 -5 11.5t-10 3.5
v18h355q31 0 31 18h18v-111h-18z" />
    <glyph glyph-name="iacute" unicode="&#xed;" horiz-adv-x="333" 
d="M175 490h-84l91 144h135zM90 18q16 0 22 3.5t6 11.5v374q0 8 -6 11.5t-22 3.5v18h152v-18q-28 0 -28 -15v-374q0 -15 28 -15v-18h-152v18z" />
    <glyph glyph-name="igrave" unicode="&#xec;" horiz-adv-x="333" 
d="M242 490h-82l-144 144h136zM90 18q16 0 22 3.5t6 11.5v374q0 8 -6 11.5t-22 3.5v18h152v-18q-28 0 -28 -15v-374q0 -15 28 -15v-18h-152v18z" />
    <glyph glyph-name="icircumflex" unicode="&#xee;" horiz-adv-x="333" 
d="M3 490l108 144h111l108 -144h-93l-70 90l-71 -90h-93zM90 18q16 0 22 3.5t6 11.5v374q0 8 -6 11.5t-22 3.5v18h152v-18q-28 0 -28 -15v-374q0 -15 28 -15v-18h-152v18z" />
    <glyph glyph-name="idieresis" unicode="&#xef;" horiz-adv-x="333" 
d="M24 612h110v-110h-110v110zM199 612h110v-110h-110v110zM90 18q16 0 22 3.5t6 11.5v374q0 8 -6 11.5t-22 3.5v18h152v-18q-28 0 -28 -15v-374q0 -15 28 -15v-18h-152v18z" />
    <glyph glyph-name="ntilde" unicode="&#xf1;" 
d="M510 620q-5 -23 -13 -44t-21 -37t-32 -25.5t-46 -9.5q-15 0 -34 6t-38.5 13t-38 13t-32.5 6q-20 0 -29 -14t-14 -30h-56q8 48 31 79.5t74 37.5q16 2 35 -4t38.5 -13.5t38.5 -14.5t34 -7q19 0 30.5 13.5t15.5 30.5h57zM81 18q18 0 18 15v374q0 15 -18 15v18h147v-18
q-7 -1 -7 -5q0 -5 22 -27l240 -254v271q0 15 -20 15v18h122v-18q-18 0 -18 -15v-374q0 -15 18 -15v-18h-130v18q7 0 7 5q0 4 -9.5 14t-21.5 23l-248 264v-291q0 -15 21 -15v-18h-123v18z" />
    <glyph glyph-name="oacute" unicode="&#xf3;" horiz-adv-x="611" 
d="M314 490h-84l91 144h135zM305 372q-32 0 -62.5 -10.5t-54.5 -30t-38.5 -47.5t-14.5 -64t14.5 -64t38.5 -47.5t54.5 -30t62.5 -10.5t62.5 10.5t54.5 30t38.5 47.5t14.5 64t-14.5 64t-38.5 47.5t-54.5 30t-62.5 10.5zM305 446q55 0 103.5 -14t84.5 -42t57 -70.5t21 -99.5
t-21 -99.5t-57 -70.5t-84.5 -40.5t-103.5 -12.5t-103.5 12.5t-84.5 40.5t-57 70.5t-21 99.5t21 99.5t57 70.5t84.5 42t103.5 14z" />
    <glyph glyph-name="ograve" unicode="&#xf2;" horiz-adv-x="611" 
d="M381 490h-82l-144 144h136zM305 372q-32 0 -62.5 -10.5t-54.5 -30t-38.5 -47.5t-14.5 -64t14.5 -64t38.5 -47.5t54.5 -30t62.5 -10.5t62.5 10.5t54.5 30t38.5 47.5t14.5 64t-14.5 64t-38.5 47.5t-54.5 30t-62.5 10.5zM305 446q55 0 103.5 -14t84.5 -42t57 -70.5t21 -99.5
t-21 -99.5t-57 -70.5t-84.5 -40.5t-103.5 -12.5t-103.5 12.5t-84.5 40.5t-57 70.5t-21 99.5t21 99.5t57 70.5t84.5 42t103.5 14z" />
    <glyph glyph-name="ocircumflex" unicode="&#xf4;" horiz-adv-x="611" 
d="M142 490l108 144h111l108 -144h-93l-70 90l-71 -90h-93zM305 372q-32 0 -62.5 -10.5t-54.5 -30t-38.5 -47.5t-14.5 -64t14.5 -64t38.5 -47.5t54.5 -30t62.5 -10.5t62.5 10.5t54.5 30t38.5 47.5t14.5 64t-14.5 64t-38.5 47.5t-54.5 30t-62.5 10.5zM305 446q55 0 103.5 -14
t84.5 -42t57 -70.5t21 -99.5t-21 -99.5t-57 -70.5t-84.5 -40.5t-103.5 -12.5t-103.5 12.5t-84.5 40.5t-57 70.5t-21 99.5t21 99.5t57 70.5t84.5 42t103.5 14z" />
    <glyph glyph-name="odieresis" unicode="&#xf6;" horiz-adv-x="611" 
d="M163 612h110v-110h-110v110zM338 612h110v-110h-110v110zM305 372q-32 0 -62.5 -10.5t-54.5 -30t-38.5 -47.5t-14.5 -64t14.5 -64t38.5 -47.5t54.5 -30t62.5 -10.5t62.5 10.5t54.5 30t38.5 47.5t14.5 64t-14.5 64t-38.5 47.5t-54.5 30t-62.5 10.5zM305 446
q55 0 103.5 -14t84.5 -42t57 -70.5t21 -99.5t-21 -99.5t-57 -70.5t-84.5 -40.5t-103.5 -12.5t-103.5 12.5t-84.5 40.5t-57 70.5t-21 99.5t21 99.5t57 70.5t84.5 42t103.5 14z" />
    <glyph glyph-name="otilde" unicode="&#xf5;" horiz-adv-x="611" 
d="M482 620q-5 -23 -13 -44t-21 -37t-32 -25.5t-46 -9.5q-15 0 -34 6t-38.5 13t-38 13t-32.5 6q-20 0 -29 -14t-14 -30h-56q8 48 31 79.5t74 37.5q16 2 35 -4t38.5 -13.5t38.5 -14.5t34 -7q19 0 30.5 13.5t15.5 30.5h57zM305 372q-32 0 -62.5 -10.5t-54.5 -30t-38.5 -47.5
t-14.5 -64t14.5 -64t38.5 -47.5t54.5 -30t62.5 -10.5t62.5 10.5t54.5 30t38.5 47.5t14.5 64t-14.5 64t-38.5 47.5t-54.5 30t-62.5 10.5zM305 446q55 0 103.5 -14t84.5 -42t57 -70.5t21 -99.5t-21 -99.5t-57 -70.5t-84.5 -40.5t-103.5 -12.5t-103.5 12.5t-84.5 40.5t-57 70.5
t-21 99.5t21 99.5t57 70.5t84.5 42t103.5 14z" />
    <glyph glyph-name="uacute" unicode="&#xfa;" 
d="M342 490h-84l91 144h135zM217 422q-22 0 -22 -15v-229q0 -48 35 -77t107 -29t107 29t35 77v229q0 15 -25 15v18h139v-18q-22 0 -22 -15v-253q0 -31 -14 -59.5t-42.5 -50.5t-73 -34.5t-104.5 -12.5t-104.5 12.5t-73 34.5t-42.5 50.5t-14 59.5v253q0 8 -6 11.5t-23 3.5v18
h143v-18z" />
    <glyph glyph-name="ugrave" unicode="&#xf9;" 
d="M409 490h-82l-144 144h136zM217 422q-22 0 -22 -15v-229q0 -48 35 -77t107 -29t107 29t35 77v229q0 15 -25 15v18h139v-18q-22 0 -22 -15v-253q0 -31 -14 -59.5t-42.5 -50.5t-73 -34.5t-104.5 -12.5t-104.5 12.5t-73 34.5t-42.5 50.5t-14 59.5v253q0 8 -6 11.5t-23 3.5
v18h143v-18z" />
    <glyph glyph-name="ucircumflex" unicode="&#xfb;" 
d="M170 490l108 144h111l108 -144h-93l-70 90l-71 -90h-93zM217 422q-22 0 -22 -15v-229q0 -48 35 -77t107 -29t107 29t35 77v229q0 15 -25 15v18h139v-18q-22 0 -22 -15v-253q0 -31 -14 -59.5t-42.5 -50.5t-73 -34.5t-104.5 -12.5t-104.5 12.5t-73 34.5t-42.5 50.5
t-14 59.5v253q0 8 -6 11.5t-23 3.5v18h143v-18z" />
    <glyph glyph-name="udieresis" unicode="&#xfc;" 
d="M191 612h110v-110h-110v110zM366 612h110v-110h-110v110zM217 422q-22 0 -22 -15v-229q0 -48 35 -77t107 -29t107 29t35 77v229q0 15 -25 15v18h139v-18q-22 0 -22 -15v-253q0 -31 -14 -59.5t-42.5 -50.5t-73 -34.5t-104.5 -12.5t-104.5 12.5t-73 34.5t-42.5 50.5
t-14 59.5v253q0 8 -6 11.5t-23 3.5v18h143v-18z" />
    <glyph glyph-name="dagger" unicode="&#x2020;" horiz-adv-x="500" 
d="M212 400l-30 146h137l-30 -146l138 30v-124l-138 34q0 -36 8 -64t19 -54q-5 -27 -11.5 -67t-12 -84.5t-9.5 -89t-4 -80.5h-57q0 36 -4 80.5t-9.5 89t-12 84.5t-11.5 67q11 26 19 54t8 64l-139 -34v124z" />
    <glyph glyph-name="degree" unicode="&#xb0;" horiz-adv-x="400" 
d="M200 532q26 0 48.5 -9.5t39.5 -26.5t26.5 -39.5t9.5 -48.5t-9.5 -49t-26.5 -39.5t-39.5 -26t-48.5 -9.5t-49 9.5t-39.5 26t-26 39.5t-9.5 49t9.5 48.5t26 39.5t39.5 26.5t49 9.5zM200 482q-32 0 -53 -21.5t-21 -52.5t21 -52.5t53 -21.5t53 21.5t21 52.5t-21 52.5
t-53 21.5z" />
    <glyph glyph-name="cent" unicode="&#xa2;" horiz-adv-x="611" 
d="M333 324q-31 0 -59 -9t-48.5 -25.5t-32.5 -40.5t-12 -55q0 -35 15.5 -59t45.5 -41zM468 514l-51 -127q23 -7 45 -14.5t44 -17.5l-41 -81q-16 15 -35 26.5t-41 16.5l-95 -239q8 -4 16 -5t16 -1q38 0 74 16t60 45l61 -70q-27 -9 -48.5 -20t-44 -20.5t-50 -16t-67.5 -6.5
h-24q-11 0 -23 5l-52 -128h-61l61 143q-26 10 -48.5 28.5t-39 41.5t-26 50.5t-9.5 55.5q0 44 17.5 81.5t46.5 64.5t68 42.5t82 15.5h30q8 0 15.5 -0.5t15.5 -1.5l46 116h58z" />
    <glyph glyph-name="sterling" unicode="&#xa3;" horiz-adv-x="611" 
d="M523 490l-70 -100l-8 4q6 13 -7 26q-21 19 -51 30t-67 11q-19 0 -39 -5.5t-36.5 -18.5t-27 -33t-10.5 -50q0 -19 4 -33.5t8.5 -28.5t8.5 -30.5t4 -38.5q0 -29 -15 -53.5t-32 -41.5q-21 -20 -47 -37l2 -3q15 9 33 16q15 6 33 11t38 5q24 0 45 -5.5t39.5 -11.5t37 -11.5
t38.5 -5.5q23 0 37 9t21 22t9 27.5t2 26.5q0 11 -5 15t-16 4v10h137v-9q-11 0 -15 -6t-4 -14q0 -33 -9.5 -65t-29.5 -57t-51 -40.5t-74 -15.5q-30 0 -53 6.5t-45.5 14.5t-46.5 14.5t-55 6.5q-45 0 -71.5 -13.5t-49.5 -29.5q-10 -7 -4 -20l-8 -4l-69 132l7 5q10 -13 24 -8
q26 11 46 29q17 15 31.5 37.5t14.5 54.5q0 20 -4.5 37t-10.5 34.5t-10.5 37t-4.5 44.5q0 39 17 71t46.5 54t70 34t87.5 12q57 0 97.5 -13t77.5 -38q8 -5 13 -2.5t8 7.5zM51 236q-8 0 -11.5 -6t-3.5 -12h-11v109h11q0 -18 15 -18h305q8 0 11.5 6t3.5 12h11v-109h-11
q0 18 -15 18h-305z" />
    <glyph glyph-name="section" unicode="&#xa7;" horiz-adv-x="500" 
d="M40 258q0 50 31.5 77.5t79.5 35.5q-34 19 -46 42t-12 50q0 23 11 44t32 36.5t51 25t68 9.5q44 0 75.5 -11t66.5 -24q5 -2 8.5 0.5t5.5 7.5l12 -5l-37 -85l-14 6q2 3 1.5 8t-4.5 7q-30 19 -56 24.5t-55 5.5q-38 0 -57.5 -13t-19.5 -34q0 -27 26.5 -46.5t92.5 -36.5
q46 -11 75.5 -24t47 -28.5t24.5 -33.5t7 -40q0 -44 -28 -70t-77 -42q38 -18 52 -40t14 -46q0 -26 -11.5 -48t-33 -38.5t-52 -26t-67.5 -9.5q-44 0 -75 9.5t-64 24.5q-5 2 -10 0t-7 -7l-12 5l37 85l14 -6q-5 -13 6 -18q28 -16 53.5 -21.5t54.5 -5.5q38 0 57.5 17.5t19.5 34.5
q0 14 -5.5 23.5t-19 16.5t-35 13t-52.5 12q-89 18 -131 49t-42 90zM366 242q2 29 -24 49.5t-86 31.5q-61 11 -96.5 -3.5t-35.5 -54.5q0 -28 23.5 -46.5t75.5 -29.5q24 -5 49 -5t45.5 6t34 18.5t14.5 33.5z" />
    <glyph glyph-name="bullet" unicode="&#x2022;" horiz-adv-x="500" 
d="M291 407q0 -18 9 -36t24 -33t33 -24.5t36 -9.5q7 0 11 5t4 13h18v-114h-18q0 18 -15 18q-18 0 -36.5 -8t-33 -21.5t-23.5 -32t-9 -40.5q0 -15 18 -15v-18h-114v18q18 0 18 15q0 21 -10 40t-25 32.5t-33 21.5t-35 8q-15 0 -15 -18h-18v114h18q0 -8 3.5 -13t11.5 -5
q17 0 35 9.5t33 24.5t25 33t10 36q0 15 -18 15v18h114v-18q-18 0 -18 -15z" />
    <glyph glyph-name="paragraph" unicode="&#xb6;" horiz-adv-x="600" 
d="M311 -99h-114v18q29 0 40.5 9t11.5 38v244q-38 0 -68.5 12t-52.5 33t-34 49.5t-12 62.5q0 43 14.5 73t40.5 49t62 28t80 9h202v-18q-23 0 -36.5 -9t-13.5 -29v-503q0 -31 13 -39.5t35 -8.5v-18h-110v579h-58v-579z" />
    <glyph glyph-name="germandbls" unicode="&#xdf;" horiz-adv-x="1112" 
d="M667 153q0 -4 -0.5 -8.5t-0.5 -9.5q0 -15 19 -27.5t45.5 -21t53 -13.5t41.5 -5q14 0 34.5 2t40.5 8.5t34 18t14 30.5q0 22 -24.5 32t-61.5 15.5t-80 11t-80 18t-61.5 36t-24.5 66.5q0 64 53 102t149 38q47 0 80.5 -7.5t56.5 -16.5t37.5 -16.5t21.5 -7.5q8 0 12 2.5
t10 5.5l11 -11l-50 -94l-18 6l-2 12t-9 12q-20 17 -62 29t-94 12q-20 0 -38 -2.5t-32 -8.5t-22 -15.5t-8 -23.5q0 -22 24.5 -31.5t61.5 -15t80 -11t80 -18.5t61.5 -38t24.5 -69t-21.5 -72t-53.5 -44t-70.5 -21t-72.5 -5t-67.5 6.5t-61 15t-46.5 16t-23 7.5q-7 0 -12 -6
l-14 10l46 112zM111 153q0 -4 -0.5 -8.5t-0.5 -9.5q0 -15 19 -27.5t45.5 -21t53 -13.5t41.5 -5q14 0 34.5 2t40.5 8.5t34 18t14 30.5q0 22 -24.5 32t-61.5 15.5t-80 11t-80 18t-61.5 36t-24.5 66.5q0 64 53 102t149 38q47 0 80.5 -7.5t56.5 -16.5t37.5 -16.5t21.5 -7.5
q8 0 12 2.5t10 5.5l11 -11l-50 -94l-18 6l-2 12t-9 12q-20 17 -62 29t-94 12q-20 0 -38 -2.5t-32 -8.5t-22 -15.5t-8 -23.5q0 -22 24.5 -31.5t61.5 -15t80 -11t80 -18.5t61.5 -38t24.5 -69t-21.5 -72t-53.5 -44t-70.5 -21t-72.5 -5t-67.5 6.5t-61 15t-46.5 16t-23 7.5
q-7 0 -12 -6l-14 10l46 112z" />
    <glyph glyph-name="registered" unicode="&#xae;" horiz-adv-x="600" 
d="M300 47q44 0 81.5 17t65 46t43 68t15.5 84t-15.5 85t-42.5 70t-64.5 47t-82.5 17q-44 0 -81.5 -17t-65 -47t-43 -70t-15.5 -85t16.5 -84t44.5 -68t65.5 -46t78.5 -17zM300 -3q-56 0 -104 19.5t-83.5 55t-55.5 84t-20 106.5q0 57 20 106.5t55.5 85.5t83.5 57t104 21
q57 0 105 -21t83 -57t55 -85.5t20 -106.5q0 -58 -20 -106.5t-55 -84t-83 -55t-105 -19.5zM327 285q50 0 50 31q0 14 -11.5 21.5t-38.5 7.5h-81v-60h81zM328 382q46 0 72 -15t26 -51q0 -30 -19 -44t-40 -20l50 -74q7 -10 19 -12v-10h-78v10q7 0 7 4q0 5 -8 16l-40 61h-72v-74
q0 -4 3.5 -5.5t6.5 -1.5v-10h-69v10q10 0 10 7v193q0 7 -10 7v9h142z" />
    <glyph glyph-name="copyright" unicode="&#xa9;" horiz-adv-x="600" 
d="M300 47q44 0 81.5 17t65 46t43 68t15.5 84t-15.5 85t-42.5 70t-64.5 47t-82.5 17q-44 0 -81.5 -17t-65 -47t-43 -70t-15.5 -85t16.5 -84t44.5 -68t65.5 -46t78.5 -17zM300 -3q-56 0 -104 19.5t-83.5 55t-55.5 84t-20 106.5q0 57 20 106.5t55.5 85.5t83.5 57t104 21
q57 0 105 -21t83 -57t55 -85.5t20 -106.5q0 -58 -20 -106.5t-55 -84t-83 -55t-105 -19.5zM381 314v3v3q0 3 -6 7t-16.5 9t-24 8t-30.5 3q-20 0 -36.5 -5.5t-29 -16t-18.5 -26t-6 -35.5t7 -36t19.5 -27.5t28 -17.5t31.5 -6q15 0 31 4t28.5 9.5t20.5 11.5t8 11v5v5l6 5l41 -58
l-6 -3q-7 3 -9 3q-4 0 -14 -5t-25 -11.5t-36 -11t-46 -4.5q-26 0 -51 7t-44 23t-31.5 40t-12.5 55t12.5 54.5t32 39.5t45.5 23.5t53 7.5q22 0 39.5 -4.5t30.5 -9t22 -8.5t13 -4q3 0 5 2t5 3l5 -4l-36 -53z" />
    <glyph glyph-name="trademark" unicode="&#x2122;" horiz-adv-x="790" 
d="M133 237q3 0 6.5 2.5t3.5 7.5v224h-87q-6 0 -10.5 -3t-4.5 -9h-12v77h12q0 -9 4.5 -12.5t10.5 -3.5h238q6 0 10.5 3.5t4.5 12.5h12v-77h-12q0 6 -4.5 9t-10.5 3h-87v-224q0 -10 12 -10v-12h-86v12zM385 237q4 1 6 3t2 9v246q0 9 -1.5 11t-6.5 2v12h94v-12q-7 0 -7 -6
q0 -3 2.5 -7t6.5 -12l82 -151l83 150q4 8 7 13t3 7q0 6 -6 6v12h95v-12q-3 0 -6 -1.5t-3 -7.5v-252q0 -5 3 -7.5t6 -2.5v-12h-78v12q14 0 12 10v189h-1l-114 -211h-6l-108 211h1h-1v-189q0 -10 11 -10v-12h-76v12z" />
    <glyph glyph-name="acute" unicode="&#xb4;" horiz-adv-x="333" 
d="M175 490h-84l91 144h135z" />
    <glyph glyph-name="dieresis" unicode="&#xa8;" horiz-adv-x="333" 
d="M24 612h110v-110h-110v110zM199 612h110v-110h-110v110z" />
    <glyph glyph-name="notequal" unicode="&#x2260;" horiz-adv-x="549" 
d="M83 269q-15 0 -15 -18h-18v114h18q0 -6 3.5 -12t11.5 -6h374q8 0 11.5 6t3.5 12h18v-114h-18q0 18 -15 18h-374zM83 93q-15 0 -15 -18h-18v114h18q0 -6 3.5 -12t11.5 -6h374q8 0 11.5 6t3.5 12h18v-114h-18q0 18 -15 18h-374zM356 487h75l-240 -532h-73z" />
    <glyph glyph-name="AE" unicode="&#xc6;" horiz-adv-x="1000" 
d="M432 252v186q0 38 -10 38q-11 0 -19 -11t-16 -23l-130 -190h175zM-17 18q8 3 12.5 6t9.5 9.5t12 17l19 28.5l246 369q12 17 19 26.5t7 20.5q0 10 -8 11.5t-18 1.5v18h587q21 0 29.5 6.5t8.5 17.5h18v-138h-18q0 14 -8.5 21t-29.5 7h-323v-124h195q20 0 31 6.5t11 27.5h18
v-156h-18q0 23 -11 29.5t-31 6.5h-195v-138h333q15 0 24.5 7t9.5 19h18v-137h-18q0 15 -9.5 17t-24.5 2h-467v18q8 0 14 4.5t6 13.5v142h-219l-80 -113q-11 -14 -13 -20t-2 -12q0 -11 19 -15v-18h-154v18z" />
    <glyph glyph-name="Oslash" unicode="&#xd8;" horiz-adv-x="778" 
d="M193 48q-55 32 -91 85.5t-36 129.5q0 69 30 119.5t77 83.5t104 49.5t112 16.5q35 0 70 -6t69 -20l73 100h67l-89 -123q57 -32 95 -87t38 -133q0 -69 -30 -119.5t-77 -83.5t-104 -48t-112 -15q-36 0 -73.5 5.5t-72.5 20.5l-84 -112h-68zM301 103q43 -17 88 -17q38 0 76 12
t68.5 34.5t49.5 55.5t19 75q0 48 -23 82.5t-59 56.5zM469 426q-20 8 -40 11t-40 3q-38 0 -76 -12t-68.5 -34.5t-49.5 -55.5t-19 -75q0 -45 20.5 -78.5t54.5 -56.5z" />
    <glyph glyph-name="infinity" unicode="&#x221e;" horiz-adv-x="713" 
d="M92 261q0 -20 5.5 -39.5t16.5 -34.5t28 -24t40 -9q48 0 81.5 35.5t56.5 91.5q19 47 42 79t48.5 51t54.5 27t61 8t62.5 -12t54.5 -35t38.5 -56.5t14.5 -77.5q0 -43 -14 -76.5t-38 -56t-56 -34t-67 -11.5t-60.5 8.5t-47.5 27t-43 48t-46 71.5q-17 28 -32 50.5t-31.5 38.5
t-35.5 25t-43 9q-35 0 -62.5 -26t-27.5 -78zM529 369q-26 0 -44.5 -11t-33 -29t-27 -41.5t-24.5 -49.5q-21 -45 -42.5 -75.5t-46.5 -49.5t-55 -27.5t-69 -8.5q-35 0 -65 13t-52.5 37t-35.5 57.5t-13 74.5q0 46 14.5 78.5t38.5 53t53.5 29.5t59.5 9q32 0 58 -7.5t49 -25.5
t46 -48.5t49 -76.5q31 -56 65.5 -87t74.5 -31q22 0 39.5 9t29.5 24t18.5 34.5t6.5 41.5q0 21 -5.5 40t-17 34t-29.5 24t-42 9z" />
    <glyph glyph-name="plusminus" unicode="&#xb1;" horiz-adv-x="600" 
d="M487 317q8 0 11.5 6t3.5 22h18v-134h-18q0 28 -15 28h-148v-92q0 -8 6 -11.5t22 -3.5v-18h-134v18q28 0 28 15v92h-148q-8 0 -11.5 -6t-3.5 -22h-18v134h18q0 -28 15 -28h148v90q0 8 -6 11.5t-22 3.5v18h134v-18q-28 0 -28 -15v-90h148zM113 0q-8 0 -11.5 -6t-3.5 -12
h-18v114h18q0 -18 15 -18h374q8 0 11.5 6t3.5 12h18v-114h-18q0 18 -15 18h-374z" />
    <glyph glyph-name="lessequal" unicode="&#x2264;" horiz-adv-x="549" 
d="M51 333v60l391 169q8 4 9 10.5t-7 20.5l18 8l50 -114l-18 -8q-10 26 -24 20l-327 -136l327 -136q14 -6 24 20l18 -8l-50 -114l-18 8q8 14 7 20.5t-9 10.5zM74 -88q-8 0 -11.5 -6t-3.5 -22h-18v124h18q0 -28 15 -28h404q8 0 11.5 6t3.5 22h18v-124h-18q0 28 -15 28h-404z
" />
    <glyph glyph-name="greaterequal" unicode="&#x2265;" horiz-adv-x="549" 
d="M111 164q-8 -4 -9 -10.5t7 -20.5l-18 -8l-50 114l18 8q10 -26 24 -20l327 136l-327 136q-14 6 -24 -20l-18 8l50 114l18 -8q-8 -14 -7 -20.5t9 -10.5l391 -169v-60zM75 -88q-15 0 -15 -28h-18v124h18q0 -16 3.5 -22t11.5 -6h404q15 0 15 28h18v-124h-18q0 16 -3.5 22
t-11.5 6h-404z" />
    <glyph glyph-name="yen" unicode="&#xa5;" horiz-adv-x="611" 
d="M64 157v50h191v9l-34 52h-157v50h124l-110 166q-6 10 -19.5 17t-22.5 7v18h190v-18q-8 0 -15.5 -2.5t-7.5 -12.5q0 -11 16 -36l97 -161l96 156q11 19 19.5 30t8.5 15q0 7 -8.5 9t-16.5 2v18h160v-18q-16 0 -27.5 -10.5t-32.5 -42.5l-89 -137h129v-50h-162l-34 -52v-9h196
v-50h-196v-121q0 -18 21 -18v-18h-145v18q8 0 14 4.5t6 13.5v121h-191z" />
    <glyph glyph-name="mu" unicode="&#xb5;" 
d="M217 422q-22 0 -22 -15v-229q0 -48 35 -77t107 -29t107 29t35 77v229q0 15 -25 15v18h139v-18q-22 0 -22 -15v-253q0 -31 -14 -59.5t-42.5 -50.5t-73 -34.5t-104.5 -12.5q-45 0 -79.5 5.5t-62.5 19.5v-174q0 -15 22 -15v-18h-139v18q25 0 25 15v559q0 8 -6 11.5t-23 3.5
v18h143v-18z" />
    <glyph glyph-name="partialdiff" unicode="&#x2202;" horiz-adv-x="494" 
d="M251 446q37 0 63.5 -7t44 -16.5t27 -19t12.5 -14.5l-22 -63q-11 10 -28 18q-14 7 -36 13t-53 6q-37 0 -63.5 -16t-44 -41.5t-25.5 -56.5t-8 -62q0 -65 22.5 -92.5t68.5 -27.5q28 0 55 23t48 64t33.5 98t12.5 125q0 122 -26.5 175.5t-90.5 53.5q-20 0 -36 -5.5t-28 -13
t-21 -16t-14 -13.5q-7 -7 -8.5 -15t4.5 -20l-13 -9l-79 121l12 8q16 -20 39 -5q10 7 26 17.5t36 20.5t44.5 16.5t51.5 6.5q65 0 106.5 -28t64 -76.5t29 -114.5t1.5 -142q-5 -75 -27 -140.5t-56.5 -114t-79.5 -76t-97 -27.5q-35 0 -67 9.5t-56 33t-38 62t-14 95.5
q0 62 18 111t49 83.5t73 53t90 18.5z" />
    <glyph glyph-name="summation" unicode="&#x2211;" horiz-adv-x="713" 
d="M620 585q0 11 -8.5 16.5t-29.5 5.5h-419l301 -355l-301 -372h449q15 0 24.5 7t9.5 19h18v-137h-18q0 15 -9.5 17t-24.5 2h-581v18q7 0 12.5 4.5t5.5 13.5v59l281 367l-281 337v70q0 9 -5.5 13.5t-12.5 4.5v18h551q21 0 29.5 6.5t8.5 17.5h18v-132h-18z" />
    <glyph glyph-name="product" unicode="&#x220f;" horiz-adv-x="823" 
d="M83 -194q26 0 26 18v833q0 18 -26 18v18h166v-18q-26 0 -26 -18v-833q0 -18 26 -18v-18h-166v18zM573 -194q26 0 26 18v833q0 18 -26 18v18h166v-18q-26 0 -26 -18v-833q0 -18 26 -18v-18h-166v18zM130 693h533v-86h-533v86z" />
    <glyph glyph-name="pi" unicode="&#x3c0;" horiz-adv-x="505" 
d="M141 358q-36 0 -60.5 -3.5t-39.5 -7.5l-22.5 -6t-10.5 1t-2 9.5t5.5 15t12 18t16.5 17.5q32 27 65.5 35t74.5 10q12 1 37 1t56 -0.5t63.5 -0.5h60t46 1t20.5 4q8 8 8 20h17v-138h-14q-1 5 -2.5 10t-6.5 9q-3 3 -26.5 4.5t-57 2t-72.5 0.5t-73.5 -0.5t-61 -1t-33.5 -0.5z
M224 396q-1 -34 -4 -70q-2 -31 -7.5 -69t-14.5 -75q-11 -44 -30 -81t-37 -64q-21 -32 -44 -58l-72 51q18 24 36 52q15 24 30.5 54.5t26.5 63.5q14 44 20 78.5t8 58.5q2 28 -1 50zM387 382q0 -3 -1 -21t-2 -44t-2.5 -56t-2.5 -56.5t-1.5 -46t-0.5 -23.5q0 -25 6.5 -41.5
t32.5 -16.5q10 0 19.5 5t17.5 11q9 7 16 17l27 -25q-12 -27 -30 -47q-15 -18 -36.5 -32.5t-50.5 -14.5q-27 0 -45.5 8.5t-30 23t-16 34.5t-4.5 43q0 5 0.5 19.5t1.5 35.5t2 46l2 50q3 59 6 130z" />
    <glyph glyph-name="integral" unicode="&#x222b;" horiz-adv-x="274" 
d="M193 -4q0 -43 -9.5 -70.5t-25.5 -43t-36 -21.5t-41 -6q-32 0 -51 7.5t-38 12.5t-26 -19l-16 5l53 158l17 -6q-4 -13 4 -22.5t26 -9.5q17 0 23 13.5t6 48.5v675q0 43 9.5 70.5t25.5 43t36 21.5t41 6q32 0 51 -7.5t38 -12.5t26 19l16 -5l-53 -158l-17 6q4 13 -4 22.5
t-26 9.5q-17 0 -23 -13.5t-6 -48.5v-675z" />
    <glyph glyph-name="ordfeminine" unicode="&#xaa;" horiz-adv-x="334" 
d="M206 376l-45 94l-41 -94h86zM86 299q-5 -13 -5 -16q0 -7 11 -7v-12h-92v12q8 1 12.5 6.5t6.5 10.5l89 194q8 19 8 23t-5 6v12h110v-12q-2 -1 -4 -1.5t-2 -4.5q0 -3 2.5 -8t5.5 -12l98 -203q5 -9 13 -11v-12h-96v10q2 0 5 1.5t3 6.5q2 6 -3 15l-16 31h-126z" />
    <glyph glyph-name="ordmasculine" unicode="&#xba;" horiz-adv-x="367" 
d="M183 478q-34 0 -61 -21.5t-27 -60.5t27 -60.5t61 -21.5t61 21.5t27 60.5t-27 60.5t-61 21.5zM183 532q33 0 62 -8.5t51 -25t34.5 -42t12.5 -60.5q0 -34 -12.5 -60t-34.5 -42.5t-51 -25t-62 -8.5t-62 8.5t-51 25t-34.5 42.5t-12.5 60q0 35 12.5 60.5t34.5 42t51 25t62 8.5
z" />
    <glyph glyph-name="Omegagreek" unicode="&#x3a9;" horiz-adv-x="768" 
d="M35 0v122h16q8 -21 22.5 -25.5t49.5 -4.5h148v25q-106 19 -161.5 90.5t-55.5 180.5q0 66 25.5 119.5t69.5 90.5t104.5 57t130.5 20q69 0 129 -19.5t104.5 -56.5t70.5 -90.5t26 -120.5q0 -218 -216 -271v-25h148q18 0 30 1t20 4t13 9t8 16h17v-122h-316v181q36 5 68 23
t56.5 45.5t38.5 63t14 76.5q0 50 -16.5 87.5t-45 63t-66.5 38t-80 12.5q-102 0 -157.5 -50t-55.5 -150q0 -48 13.5 -84.5t37.5 -62.5t56 -41t69 -20v-182h-315z" />
    <glyph glyph-name="ae" unicode="&#xe6;" horiz-adv-x="889" 
d="M422 380q0 20 -12 20q-8 0 -16 -9t-14 -17l-142 -184h184v190zM2 18q14 4 25 18.5t22 29.5l230 309q11 15 16 21t5 13q0 8 -6 10.5t-14 2.5v18h506q32 0 32 24h18v-119h-18q0 21 -32 21h-268v-100h181q19 0 19 15h18v-107h-18q0 18 -25 18h-175v-118h279q24 0 24 13h18
v-96h-18q0 8 -9 8.5t-22 0.5h-390v18q9 0 15.5 3.5t6.5 11.5v83h-237l-42 -58q-8 -11 -11.5 -17.5t-3.5 -10.5q0 -8 6 -10t13 -2v-18h-145v18z" />
    <glyph glyph-name="oslash" unicode="&#xf8;" horiz-adv-x="611" 
d="M132 40q-42 27 -67.5 72t-25.5 108q0 57 21 99.5t57 70.5t84.5 42t103.5 14q64 0 116 -18l81 107h63l-97 -129q48 -27 75.5 -73.5t27.5 -112.5q0 -57 -21 -99.5t-57 -70.5t-84.5 -40.5t-103.5 -12.5q-35 0 -67 4t-61 16l-87 -113h-62zM228 85q37 -17 77 -17
q32 0 62.5 10.5t54.5 30t38.5 47.5t14.5 64q0 38 -16 67t-43 49zM371 360q-31 12 -66 12q-32 0 -62.5 -10.5t-54.5 -30t-38.5 -47.5t-14.5 -64q0 -34 13.5 -61.5t36.5 -47.5z" />
    <glyph glyph-name="questiondown" unicode="&#xbf;" horiz-adv-x="444" 
d="M213 418q-26 0 -45 19t-19 45t19 45t45 19t45 -19t19 -45t-19 -45t-45 -19zM376 55q-10 2 -11 2q-10 0 -20.5 -9.5t-27.5 -21.5t-43 -20.5t-68 -8.5q-27 0 -53.5 7t-47.5 22.5t-33.5 39t-12.5 53.5q0 37 17.5 64.5t39.5 50.5q21 23 39 43t18 43q0 11 -4 18.5t-13 7.5v12
h112v-12q-6 0 -10.5 -6t-6.5 -23q-4 -42 -18.5 -67t-30.5 -44q-17 -20 -30 -37.5t-13 -40.5q0 -27 17.5 -42.5t43.5 -15.5q20 0 35 6t25.5 14t16 17.5t5.5 15.5q0 9 -3 18l9 7l77 -84z" />
    <glyph glyph-name="exclamdown" unicode="&#xa1;" horiz-adv-x="333" 
d="M84 12q15 4 19 9t6 17l31 267q1 8 2 14.5t1 13.5q0 8 -5 10.5t-13 2.5v12h84v-12q-8 0 -13 -2.5t-5 -10.5q0 -7 1 -13.5t2 -14.5l31 -267q2 -12 6 -17t19 -9v-12h-166v12zM167 418q-26 0 -45 19t-19 45t19 45t45 19t45 -19t19 -45t-19 -45t-45 -19z" />
    <glyph glyph-name="logicalnot" unicode="&#xac;" horiz-adv-x="600" 
d="M80 269v78h440v-253h-78v175h-362z" />
    <glyph glyph-name="radical" unicode="&#x221a;" horiz-adv-x="549" 
d="M548 913l-152 -949l-227 464l-95 -47l-33 66l185 97l134 -284l105 664z" />
    <glyph glyph-name="florin" unicode="&#x192;" horiz-adv-x="611" 
d="M2 -57q0 -26 15.5 -38t54.5 -12q23 0 39 5t25.5 12.5t14.5 17.5t7 20l58 300h-118v66h132q6 46 16 85t30 67t53.5 44t87.5 16q23 0 42.5 -4.5t33.5 -10.5t23.5 -10.5t13.5 -4.5q3 0 9.5 2.5t8.5 4.5l6 -2l-31 -110l-12 4q-5 28 -22 40.5t-59 12.5q-25 0 -41 -8
t-25.5 -24.5t-15 -41.5t-10.5 -60h134v-66h-146l-55 -279q-16 -81 -58 -117.5t-124 -36.5q-34 0 -60.5 11t-40.5 11q-9 0 -14 -5l-11 5l30 110z" />
    <glyph glyph-name="approxequal" unicode="&#x2248;" horiz-adv-x="549" 
d="M510 446q-11 -16 -23 -31.5t-27 -27.5t-33.5 -19.5t-41.5 -7.5q-28 0 -52.5 9.5t-49.5 23.5q-24 14 -52 24.5t-63 10.5q-16 0 -29 -6.5t-23.5 -16.5t-18 -23t-13.5 -26l-36 68q8 16 19 31.5t26.5 27.5t35 19.5t44.5 7.5q26 0 54 -9.5t57 -22.5q28 -12 55 -24t47 -12
q15 0 27.5 6.5t23 16.5t19.5 23l18 26zM510 213q-11 -16 -23 -31.5t-27 -27.5t-33.5 -19.5t-41.5 -7.5q-28 0 -52.5 9.5t-49.5 23.5q-24 14 -52 24.5t-63 10.5q-16 0 -29 -6.5t-23.5 -16.5t-18 -23t-13.5 -26l-36 68q8 16 19 31.5t26.5 27.5t35 19.5t44.5 7.5q26 0 54 -9.5
t57 -22.5q28 -12 55 -24t47 -12q15 0 27.5 6.5t23 16.5t19.5 23l18 26z" />
    <glyph glyph-name="Delta" unicode="&#x2206;" horiz-adv-x="612" 
d="M13 0l306 677l280 -677h-586zM308 464l-164 -383h321z" />
    <glyph glyph-name="guillemotleft" unicode="&#xab;" horiz-adv-x="500" 
d="M64 219l118 147h87l-118 -147l117 -145h-87zM231 219l118 147h87l-118 -147l116 -145h-86z" />
    <glyph glyph-name="guillemotright" unicode="&#xbb;" horiz-adv-x="500" 
d="M436 221l-118 -147h-87l118 147l-117 145h87zM269 221l-118 -147h-87l118 147l-116 145h86z" />
    <glyph glyph-name="ellipsis" unicode="&#x2026;" horiz-adv-x="1000" 
d="M762 65q0 29 21 50t50 21t50 -21t21 -50t-21 -48.5t-50 -19.5t-50 19.5t-21 48.5zM429 65q0 29 21 50t50 21t50 -21t21 -50t-21 -48.5t-50 -19.5t-50 19.5t-21 48.5zM96 65q0 29 21 50t50 21t50 -21t21 -50t-21 -48.5t-50 -19.5t-50 19.5t-21 48.5z" />
    <glyph glyph-name="nonbreakingspace" unicode="&#xa0;" horiz-adv-x="305" 
 />
    <glyph glyph-name="Agrave" unicode="&#xc0;" 
d="M397 559h-82l-144 144h136zM398 204l-84 186l-94 -186h178zM21 18q13 2 20.5 13t14.5 25l185 389q7 13 12.5 24t5.5 19q0 10 -7 14t-15 6v18h169v-18q-7 -2 -14 -5.5t-7 -14.5q0 -8 3.5 -16t10.5 -21l208 -407q5 -11 13.5 -16t19.5 -10v-18h-176v18q4 0 10 3t6 9
q0 10 -8 26l-38 74h-244l-36 -71q-10 -21 -10 -30q0 -11 19 -11v-18h-142v18z" />
    <glyph glyph-name="Atilde" unicode="&#xc3;" 
d="M498 689q-5 -23 -13 -44t-21 -37t-32 -25.5t-46 -9.5q-15 0 -34 6t-38.5 13t-38 13t-32.5 6q-20 0 -29 -14t-14 -30h-56q8 48 31 79.5t74 37.5q16 2 35 -4t38.5 -13.5t38.5 -14.5t34 -7q19 0 30.5 13.5t15.5 30.5h57zM398 204l-84 186l-94 -186h178zM21 18q13 2 20.5 13
t14.5 25l185 389q7 13 12.5 24t5.5 19q0 10 -7 14t-15 6v18h169v-18q-7 -2 -14 -5.5t-7 -14.5q0 -8 3.5 -16t10.5 -21l208 -407q5 -11 13.5 -16t19.5 -10v-18h-176v18q4 0 10 3t6 9q0 10 -8 26l-38 74h-244l-36 -71q-10 -21 -10 -30q0 -11 19 -11v-18h-142v18z" />
    <glyph glyph-name="Otilde" unicode="&#xd5;" horiz-adv-x="778" 
d="M566 689q-5 -23 -13 -44t-21 -37t-32 -25.5t-46 -9.5q-15 0 -34 6t-38.5 13t-38 13t-32.5 6q-20 0 -29 -14t-14 -30h-56q8 48 31 79.5t74 37.5q16 2 35 -4t38.5 -13.5t38.5 -14.5t34 -7q19 0 30.5 13.5t15.5 30.5h57zM389 440q-38 0 -76 -12t-68.5 -34.5t-49.5 -55.5
t-19 -75t19 -75t49.5 -55.5t68.5 -34.5t76 -12t76 12t68.5 34.5t49.5 55.5t19 75t-19 75t-49.5 55.5t-68.5 34.5t-76 12zM389 532q55 0 112 -16.5t104 -49.5t77 -83.5t30 -119.5t-30 -119.5t-77 -83.5t-104 -48t-112 -15t-112 15t-104 48t-77 83.5t-30 119.5t30 119.5
t77 83.5t104 49.5t112 16.5z" />
    <glyph glyph-name="OE" unicode="&#x152;" horiz-adv-x="1000" 
d="M473 325q0 67 -30.5 91t-93.5 24q-91 0 -137.5 -43t-46.5 -131t46.5 -131t137.5 -43q63 0 93.5 24t30.5 91v118zM893 92q15 0 24.5 6.5t9.5 17.5h18v-135h-18q0 15 -9.5 17t-24.5 2h-548q-60 0 -113 16t-92 48.5t-62 82t-23 116.5t23 116.5t62 82t92 48.5t113 16h538
q22 0 30 6.5t8 16.5h18v-136h-18q0 12 -8 19.5t-30 7.5h-296v-124h184q20 0 31 6t11 28h18v-159h-18q0 25 -11 32t-31 7h-184v-138h306z" />
    <glyph glyph-name="oe" unicode="&#x153;" horiz-adv-x="944" 
d="M130 220q0 -37 14 -64.5t37.5 -45.5t53.5 -27t62 -9t62 9t53.5 27t37.5 45.5t14 64.5t-14 64.5t-37.5 45.5t-53.5 27t-62 9t-62 -9t-53.5 -27t-37.5 -45.5t-14 -64.5zM837 74q13 0 21 5.5t8 16.5h18v-111h-18q0 12 -8 13.5t-21 1.5h-543q-55 0 -102.5 13.5t-82.5 40.5
t-55 68.5t-20 97.5t18.5 97.5t52.5 68.5t82 40.5t107 13.5h528q18 0 25 6t7 18h18v-120h-18q0 11 -7 16.5t-25 5.5h-262v-100h175q35 0 35 17h18v-111h-18q0 20 -35 20h-175v-118h277z" />
    <glyph glyph-name="endash" unicode="&#x2013;" horiz-adv-x="500" 
d="M0 259h500v-78h-500v78z" />
    <glyph glyph-name="emdash" unicode="&#x2014;" horiz-adv-x="1000" 
d="M0 259h1000v-78h-1000v78z" />
    <glyph glyph-name="quotedblleft" unicode="&#x201c;" horiz-adv-x="500" 
d="M217 518q-15 -4 -33.5 -15.5t-34.5 -27t-26 -33.5t-8 -36q2 -7 11 -8t17 -1q25 0 43.5 -16.5t18.5 -46.5q0 -29 -20.5 -50t-46.5 -21q-40 0 -60.5 29t-20.5 71q0 33 13.5 63.5t35.5 55.5t51 43t60 25v-32zM458 518q-15 -4 -33.5 -15.5t-34.5 -27t-26 -33.5t-8 -36
q2 -7 11 -8t17 -1q25 0 43.5 -16.5t18.5 -46.5q0 -29 -20.5 -50t-46.5 -21q-40 0 -60.5 29t-20.5 71q0 33 13.5 63.5t35.5 55.5t51 43t60 25v-32z" />
    <glyph glyph-name="quotedblright" unicode="&#x201d;" horiz-adv-x="500" 
d="M283 287q15 4 34 15.5t34.5 27t25.5 33.5t8 36q-2 7 -11 8t-17 1q-25 0 -43.5 16.5t-18.5 46.5q0 29 20.5 50t46.5 21q40 0 60.5 -29t20.5 -71q0 -33 -13.5 -63.5t-35.5 -55.5t-51 -43t-60 -25v32zM42 287q15 4 34 15.5t34.5 27t25.5 33.5t8 36q-2 7 -11 8t-17 1
q-25 0 -43.5 16.5t-18.5 46.5q0 29 20.5 50t46.5 21q40 0 60.5 -29t20.5 -71q0 -33 -13.5 -63.5t-35.5 -55.5t-51 -43t-60 -25v32z" />
    <glyph glyph-name="quoteleft" unicode="&#x2018;" horiz-adv-x="278" 
d="M232 518q-15 -4 -33.5 -15.5t-34.5 -27t-26 -33.5t-8 -36q2 -7 11 -8t17 -1q25 0 43.5 -16.5t18.5 -46.5q0 -29 -20.5 -50t-46.5 -21q-40 0 -60.5 29t-20.5 71q0 33 13.5 63.5t35.5 55.5t51 43t60 25v-32z" />
    <glyph glyph-name="quoteright" unicode="&#x2019;" horiz-adv-x="278" 
d="M46 287q15 4 34 15.5t34.5 27t25.5 33.5t8 36q-2 7 -11 8t-17 1q-25 0 -43.5 16.5t-18.5 46.5q0 29 20.5 50t46.5 21q40 0 60.5 -29t20.5 -71q0 -33 -13.5 -63.5t-35.5 -55.5t-51 -43t-60 -25v32z" />
    <glyph glyph-name="divide" unicode="&#xf7;" horiz-adv-x="600" 
d="M237 40q0 26 19 44.5t44 18.5t44 -18.5t19 -44.5t-19 -43t-44 -17t-44 17t-19 43zM237 400q0 26 19 44.5t44 18.5t44 -18.5t19 -44.5t-19 -44.5t-44 -18.5t-44 18.5t-19 44.5zM80 259h440v-78h-440v78z" />
    <glyph glyph-name="lozenge" unicode="&#x25ca;" horiz-adv-x="494" 
d="M472 346l-204 -346h-54l-191 346l191 348h54zM115 346l128 -230l134 230l-134 231z" />
    <glyph glyph-name="ydieresis" unicode="&#xff;" horiz-adv-x="556" 
d="M136 612h110v-110h-110v110zM311 612h110v-110h-110v110zM60 405q-7 9 -17 13t-19 4v18h165v-18q-5 0 -11 -3.5t-6 -9.5t4 -11t9 -12l101 -132l89 124l13.5 19.5t4.5 12.5q0 8 -5 10t-10 2v18h153v-18q-12 0 -26.5 -13.5t-25.5 -27.5l-153 -198v-150q0 -15 19 -15v-18
h-133v18q18 0 18 15v154z" />
    <glyph glyph-name="Ydieresis" unicode="&#x178;" horiz-adv-x="611" 
d="M163 681h110v-110h-110v110zM338 681h110v-110h-110v110zM219 526v-18q-9 0 -17 -2.5t-8 -12.5q0 -6 14.5 -28.5t34 -51t40.5 -58.5t34 -51l117 161q8 12 13 19t5 13q0 7 -9.5 9t-17.5 2v18h175v-18q-8 0 -15 -1.5t-14.5 -7t-16 -16t-20.5 -28.5l-170 -241v-178
q0 -18 23 -18v-18h-158v18q9 0 15 4.5t6 13.5v178l-193 270q-7 10 -21.5 17t-24.5 7v18h208z" />
    <glyph glyph-name="fraction" unicode="&#x2044;" horiz-adv-x="167" 
d="M262 532h72l-427 -536h-72z" />
    <glyph glyph-name="Euro" unicode="&#x20ac;" horiz-adv-x="611" 
d="M232 167q20 -42 54 -64t88 -22q32 0 58 8t44.5 20.5t29 27.5t10.5 29q0 7 -4 12l14 8l66 -106l-8 -8q-3 0 -4.5 2.5t-4.5 3.5t-8 -1.5t-15 -13.5q-9 -9 -24 -21t-36.5 -22t-51 -16t-66.5 -6q-91 0 -161 41t-102 128h-84l34 61h37q-1 8 -1.5 17t-0.5 18v12h-69l34 62h44
q25 93 96.5 144t173.5 51q36 0 63 -6.5t46.5 -14.5t33 -16.5t22.5 -12.5q5 0 9.5 5.5t6.5 8.5l15 -12l-67 -122l-10 7q0 3 -0.5 6t-1.5 7q-5 23 -36.5 43.5t-81.5 20.5q-55 0 -94.5 -28.5t-58.5 -80.5h263l-34 -62h-240v-9q0 -20 3 -38h211l-33 -61h-159z" />
    <glyph glyph-name="guilsinglleft" unicode="&#x2039;" horiz-adv-x="333" 
d="M268 366l-117 -145l118 -147h-87l-118 147l117 145h87z" />
    <glyph glyph-name="guilsinglright" unicode="&#x203a;" horiz-adv-x="333" 
d="M269 221l-118 -147h-87l118 147l-116 145h86z" />
    <glyph glyph-name="fi" unicode="&#xfb01;" horiz-adv-x="889" 
d="M646 18q16 0 22 3.5t6 11.5v374q0 8 -6 11.5t-22 3.5v18h152v-18q-28 0 -28 -15v-374q0 -15 28 -15v-18h-152v18zM494 352q0 5 -7 9.5t-24 4.5h-271v-106h176q17 0 21 3.5t5 11.5h18v-105h-18q-1 8 -5 12t-21 4h-176v-153q0 -8 7 -11.5t16 -3.5v-18h-138v18q19 0 19 15
v374q0 15 -21 15v18h388q17 0 24 5t7 13h18v-106h-18z" />
    <glyph glyph-name="fl" unicode="&#xfb02;" horiz-adv-x="1112" 
d="M777 440v-18q-23 0 -23 -15v-333h270q12 0 20 5.5t8 15.5h18v-105h-18q0 8 -8 9t-20 1h-392v18q26 0 26 15v374q0 15 -26 15v18h145zM494 352q0 5 -7 9.5t-24 4.5h-271v-106h176q17 0 21 3.5t5 11.5h18v-105h-18q-1 8 -5 12t-21 4h-176v-153q0 -8 7 -11.5t16 -3.5v-18
h-138v18q19 0 19 15v374q0 15 -21 15v18h388q17 0 24 5t7 13h18v-106h-18z" />
    <glyph glyph-name="daggerdbl" unicode="&#x2021;" horiz-adv-x="500" 
d="M269 380l158 30v-94l-158 34q0 -36 8 -69t19 -59q-11 -26 -19 -59t-8 -69l158 34v-94l-158 30l30 -163h-98l30 163l-158 -30v94l158 -34q0 36 -8 69t-19 59q11 26 19 59t8 69l-158 -34v94l158 -30l-30 166h98z" />
    <glyph glyph-name="periodcentered" unicode="&#xb7;" horiz-adv-x="305" 
d="M81 220q0 29 21 50t50 21t50 -21t21 -50t-21 -50t-50 -21t-50 21t-21 50z" />
    <glyph glyph-name="perthousand" unicode="&#x2030;" horiz-adv-x="1000" 
d="M95 -27l220 296l155 289h114l-228 -310l-136 -275h-125zM866 206q-35 0 -59.5 -24t-24.5 -61t24.5 -61t59.5 -24t59.5 24t24.5 61t-24.5 61t-59.5 24zM866 272q31 0 58 -11.5t47.5 -32t32.5 -48t12 -59.5t-12 -59.5t-32.5 -46.5t-47.5 -30.5t-58 -11.5t-58 11.5
t-47.5 30.5t-32.5 46.5t-12 59.5t12 59.5t32.5 48t47.5 32t58 11.5zM516 206q-35 0 -59.5 -24t-24.5 -61t24.5 -61t59.5 -24t59.5 24t24.5 61t-24.5 61t-59.5 24zM516 272q31 0 58 -11.5t47.5 -32t32.5 -48t12 -59.5t-12 -59.5t-32.5 -46.5t-47.5 -30.5t-58 -11.5t-58 11.5
t-47.5 30.5t-32.5 46.5t-12 59.5t12 59.5t32.5 48t47.5 32t58 11.5zM166 492q-35 0 -59.5 -24t-24.5 -61t24.5 -61t59.5 -24t59.5 24t24.5 61t-24.5 61t-59.5 24zM166 558q31 0 58 -11.5t47.5 -32t32.5 -48t12 -59.5t-12 -59.5t-32.5 -48t-47.5 -32t-58 -11.5t-58 11.5
t-47.5 32t-32.5 48t-12 59.5t12 59.5t32.5 48t47.5 32t58 11.5z" />
    <glyph glyph-name="Acircumflex" unicode="&#xc2;" 
d="M158 559l108 144h111l108 -144h-93l-70 90l-71 -90h-93zM398 204l-84 186l-94 -186h178zM21 18q13 2 20.5 13t14.5 25l185 389q7 13 12.5 24t5.5 19q0 10 -7 14t-15 6v18h169v-18q-7 -2 -14 -5.5t-7 -14.5q0 -8 3.5 -16t10.5 -21l208 -407q5 -11 13.5 -16t19.5 -10v-18
h-176v18q4 0 10 3t6 9q0 10 -8 26l-38 74h-244l-36 -71q-10 -21 -10 -30q0 -11 19 -11v-18h-142v18z" />
    <glyph glyph-name="Ecircumflex" unicode="&#xca;" 
d="M182 559l108 144h111l108 -144h-93l-70 90l-71 -90h-93zM580 418q0 11 -8.5 16.5t-29.5 5.5h-324v-124h196q20 0 31 5.5t11 28.5h18v-156h-18q0 23 -11 29.5t-31 6.5h-196v-138h334q15 0 24.5 7t9.5 19h18v-137h-18q0 15 -9.5 17t-24.5 2h-466v18q7 0 12.5 4.5t5.5 13.5
v454q0 9 -5.5 13.5t-12.5 4.5v18h456q21 0 29.5 6.5t8.5 17.5h18v-132h-18z" />
    <glyph glyph-name="Aacute" unicode="&#xc1;" 
d="M330 559h-84l91 144h135zM398 204l-84 186l-94 -186h178zM21 18q13 2 20.5 13t14.5 25l185 389q7 13 12.5 24t5.5 19q0 10 -7 14t-15 6v18h169v-18q-7 -2 -14 -5.5t-7 -14.5q0 -8 3.5 -16t10.5 -21l208 -407q5 -11 13.5 -16t19.5 -10v-18h-176v18q4 0 10 3t6 9
q0 10 -8 26l-38 74h-244l-36 -71q-10 -21 -10 -30q0 -11 19 -11v-18h-142v18z" />
    <glyph glyph-name="Edieresis" unicode="&#xcb;" 
d="M203 681h110v-110h-110v110zM378 681h110v-110h-110v110zM580 418q0 11 -8.5 16.5t-29.5 5.5h-324v-124h196q20 0 31 5.5t11 28.5h18v-156h-18q0 23 -11 29.5t-31 6.5h-196v-138h334q15 0 24.5 7t9.5 19h18v-137h-18q0 15 -9.5 17t-24.5 2h-466v18q7 0 12.5 4.5t5.5 13.5
v454q0 9 -5.5 13.5t-12.5 4.5v18h456q21 0 29.5 6.5t8.5 17.5h18v-132h-18z" />
    <glyph glyph-name="Egrave" unicode="&#xc8;" 
d="M421 559h-82l-144 144h136zM580 418q0 11 -8.5 16.5t-29.5 5.5h-324v-124h196q20 0 31 5.5t11 28.5h18v-156h-18q0 23 -11 29.5t-31 6.5h-196v-138h334q15 0 24.5 7t9.5 19h18v-137h-18q0 15 -9.5 17t-24.5 2h-466v18q7 0 12.5 4.5t5.5 13.5v454q0 9 -5.5 13.5t-12.5 4.5
v18h456q21 0 29.5 6.5t8.5 17.5h18v-132h-18z" />
    <glyph glyph-name="Iacute" unicode="&#xcd;" horiz-adv-x="333" 
d="M175 559h-84l91 144h135zM83 18q26 0 26 18v454q0 18 -26 18v18h166v-18q-26 0 -26 -18v-454q0 -18 26 -18v-18h-166v18z" />
    <glyph glyph-name="Icircumflex" unicode="&#xce;" horiz-adv-x="333" 
d="M3 559l108 144h111l108 -144h-93l-70 90l-71 -90h-93zM83 18q26 0 26 18v454q0 18 -26 18v18h166v-18q-26 0 -26 -18v-454q0 -18 26 -18v-18h-166v18z" />
    <glyph glyph-name="Idieresis" unicode="&#xcf;" horiz-adv-x="333" 
d="M24 681h110v-110h-110v110zM199 681h110v-110h-110v110zM83 18q26 0 26 18v454q0 18 -26 18v18h166v-18q-26 0 -26 -18v-454q0 -18 26 -18v-18h-166v18z" />
    <glyph glyph-name="Igrave" unicode="&#xcc;" horiz-adv-x="333" 
d="M242 559h-82l-144 144h136zM83 18q26 0 26 18v454q0 18 -26 18v18h166v-18q-26 0 -26 -18v-454q0 -18 26 -18v-18h-166v18z" />
    <glyph glyph-name="Oacute" unicode="&#xd3;" horiz-adv-x="778" 
d="M398 559h-84l91 144h135zM389 440q-38 0 -76 -12t-68.5 -34.5t-49.5 -55.5t-19 -75t19 -75t49.5 -55.5t68.5 -34.5t76 -12t76 12t68.5 34.5t49.5 55.5t19 75t-19 75t-49.5 55.5t-68.5 34.5t-76 12zM389 532q55 0 112 -16.5t104 -49.5t77 -83.5t30 -119.5t-30 -119.5
t-77 -83.5t-104 -48t-112 -15t-112 15t-104 48t-77 83.5t-30 119.5t30 119.5t77 83.5t104 49.5t112 16.5z" />
    <glyph glyph-name="Ocircumflex" unicode="&#xd4;" horiz-adv-x="778" 
d="M226 559l108 144h111l108 -144h-93l-70 90l-71 -90h-93zM389 440q-38 0 -76 -12t-68.5 -34.5t-49.5 -55.5t-19 -75t19 -75t49.5 -55.5t68.5 -34.5t76 -12t76 12t68.5 34.5t49.5 55.5t19 75t-19 75t-49.5 55.5t-68.5 34.5t-76 12zM389 532q55 0 112 -16.5t104 -49.5
t77 -83.5t30 -119.5t-30 -119.5t-77 -83.5t-104 -48t-112 -15t-112 15t-104 48t-77 83.5t-30 119.5t30 119.5t77 83.5t104 49.5t112 16.5z" />
    <glyph glyph-name="apple" unicode="&#xf8ff;" horiz-adv-x="790" 
d="M408 588q20 0 71 17t87 17q60 0 107 -32q13 -10 26 -22t26 -28q-39 -34 -57 -60q-33 -46 -33 -103q0 -62 35 -112q34 -49 79 -63q-10 -30 -25 -61.5t-36 -63.5q-64 -95 -129 -95q-27 0 -71 16q-43 13 -75 13q-33 0 -72 -14q-42 -17 -66 -17q-76 0 -150 127
q-74 128 -74 252q0 114 56 187q57 72 143 72q37 0 89 -15q53 -15 69 -15zM561 790q0 -32 -15 -69t-46 -69q-29 -27 -55 -36q-19 -5 -51 -8q1 74 38.5 128.5t125.5 74.5q2 -7 2.5 -12t0.5 -9z" />
    <glyph glyph-name="Ograve" unicode="&#xd2;" horiz-adv-x="778" 
d="M465 559h-82l-144 144h136zM389 440q-38 0 -76 -12t-68.5 -34.5t-49.5 -55.5t-19 -75t19 -75t49.5 -55.5t68.5 -34.5t76 -12t76 12t68.5 34.5t49.5 55.5t19 75t-19 75t-49.5 55.5t-68.5 34.5t-76 12zM389 532q55 0 112 -16.5t104 -49.5t77 -83.5t30 -119.5t-30 -119.5
t-77 -83.5t-104 -48t-112 -15t-112 15t-104 48t-77 83.5t-30 119.5t30 119.5t77 83.5t104 49.5t112 16.5z" />
    <glyph glyph-name="Uacute" unicode="&#xda;" horiz-adv-x="722" 
d="M370 559h-84l91 144h135zM230 508q-22 0 -22 -18v-300q0 -63 40.5 -86.5t118.5 -23.5t118.5 23.5t40.5 86.5v300q0 18 -30 18v18h160v-18q-24 0 -24 -18v-295q0 -59 -17 -97.5t-51 -61.5t-84.5 -31t-116.5 -8t-116.5 8t-84.5 31t-51 61.5t-17 97.5v295q0 18 -28 18v18
h164v-18z" />
    <glyph glyph-name="Ucircumflex" unicode="&#xdb;" horiz-adv-x="722" 
d="M198 559l108 144h111l108 -144h-93l-70 90l-71 -90h-93zM230 508q-22 0 -22 -18v-300q0 -63 40.5 -86.5t118.5 -23.5t118.5 23.5t40.5 86.5v300q0 18 -30 18v18h160v-18q-24 0 -24 -18v-295q0 -59 -17 -97.5t-51 -61.5t-84.5 -31t-116.5 -8t-116.5 8t-84.5 31t-51 61.5
t-17 97.5v295q0 18 -28 18v18h164v-18z" />
    <glyph glyph-name="Ugrave" unicode="&#xd9;" horiz-adv-x="722" 
d="M437 559h-82l-144 144h136zM230 508q-22 0 -22 -18v-300q0 -63 40.5 -86.5t118.5 -23.5t118.5 23.5t40.5 86.5v300q0 18 -30 18v18h160v-18q-24 0 -24 -18v-295q0 -59 -17 -97.5t-51 -61.5t-84.5 -31t-116.5 -8t-116.5 8t-84.5 31t-51 61.5t-17 97.5v295q0 18 -28 18v18
h164v-18z" />
    <glyph glyph-name="dotlessi" unicode="&#x131;" horiz-adv-x="333" 
d="M90 18q16 0 22 3.5t6 11.5v374q0 8 -6 11.5t-22 3.5v18h152v-18q-28 0 -28 -15v-374q0 -15 28 -15v-18h-152v18z" />
    <glyph glyph-name="circumflex" unicode="&#x2c6;" horiz-adv-x="333" 
d="M3 490l108 144h111l108 -144h-93l-70 90l-71 -90h-93z" />
    <glyph glyph-name="tilde" unicode="&#x2dc;" horiz-adv-x="333" 
d="M343 620q-5 -23 -13 -44t-21 -37t-32 -25.5t-46 -9.5q-15 0 -34 6t-38.5 13t-38 13t-32.5 6q-20 0 -29 -14t-14 -30h-53q8 47 29 79t73 38q16 2 35 -4t38.5 -13.5t38.5 -14.5t34 -7q19 0 30.5 13.5t15.5 30.5h57z" />
    <glyph glyph-name="macron" unicode="&#xaf;" horiz-adv-x="333" 
d="M3 590h327v-66h-327v66z" />
    <glyph glyph-name="breve" unicode="&#x2d8;" horiz-adv-x="333" 
d="M332 638q-3 -33 -16 -60t-34.5 -45.5t-50 -28.5t-61.5 -10t-61.5 10t-50 28.5t-34.5 45.5t-16 60h58q5 -24 15 -39t24 -23t30.5 -11t34.5 -3t34.5 3t30.5 11t24 23t15 39h58z" />
    <glyph glyph-name="dotaccent" unicode="&#x2d9;" horiz-adv-x="333" 
d="M111 612h110v-110h-110v110z" />
    <glyph glyph-name="ring" unicode="&#x2da;" horiz-adv-x="333" 
d="M166 650q-25 0 -42 -17t-17 -42t17 -42t42 -17t42 17t17 42t-17 42t-42 17zM166 694q22 0 40.5 -8t32.5 -22t22 -33t8 -40t-8 -40t-22 -33t-32.5 -22t-40.5 -8t-40.5 8t-32.5 22t-22 33t-8 40t8 40t22 33t32.5 22t40.5 8z" />
    <glyph glyph-name="cedilla" unicode="&#xb8;" horiz-adv-x="333" 
d="M69 -157q15 -6 31.5 -11t33.5 -5q22 0 41 7t19 33q0 19 -12 27.5t-29 8.5q-11 0 -22.5 -1.5t-20.5 -5.5l-22 19l66 85h49l-44 -55l2 -2q9 4 24 4q17 0 33.5 -5t29 -14.5t20.5 -23.5t8 -33q0 -27 -11.5 -45t-29.5 -29t-41 -15.5t-46 -4.5q-22 0 -50 8t-47 18z" />
    <glyph glyph-name="hungarumlaut" unicode="&#x2dd;" horiz-adv-x="333" 
d="M410 634l-142 -144h-84l91 144h135zM220 634l-123 -144h-79l74 144h128z" />
    <glyph glyph-name="ogonek" unicode="&#x2db;" horiz-adv-x="333" 
d="M255 9q-19 -7 -44.5 -16t-47.5 -24t-37.5 -34.5t-15.5 -44.5q0 -29 15 -40t40 -11q11 0 24 4t26.5 10.5t26 13.5t21.5 13l16 -32q-30 -21 -69.5 -40t-77.5 -19q-21 0 -39.5 5.5t-33 16t-23 27t-8.5 39.5q0 39 24.5 64t60 41t74.5 24t68 14v-11z" />
    <glyph glyph-name="caron" unicode="&#x2c7;" horiz-adv-x="333" 
d="M222 490h-111l-108 144h93l70 -90l71 90h93z" />
    <glyph glyph-name="Ohm" unicode="&#x2126;" horiz-adv-x="768" 
d="M35 0v122h16q8 -21 22.5 -25.5t49.5 -4.5h148v25q-106 19 -161.5 90.5t-55.5 180.5q0 66 25.5 119.5t69.5 90.5t104.5 57t130.5 20q69 0 129 -19.5t104.5 -56.5t70.5 -90.5t26 -120.5q0 -218 -216 -271v-25h148q18 0 30 1t20 4t13 9t8 16h17v-122h-316v181q36 5 68 23
t56.5 45.5t38.5 63t14 76.5q0 50 -16.5 87.5t-45 63t-66.5 38t-80 12.5q-102 0 -157.5 -50t-55.5 -150q0 -48 13.5 -84.5t37.5 -62.5t56 -41t69 -20v-182h-315z" />
    <glyph glyph-name="currency" unicode="&#xa4;" horiz-adv-x="611" 
d="M164 263q0 -31 11 -57.5t30 -46t44.5 -30.5t55.5 -11t55.5 11t44.5 30.5t30 46t11 57.5t-11 57.5t-30 46t-44.5 30.5t-55.5 11t-55.5 -11t-44.5 -30.5t-30 -46t-11 -57.5zM129 133q-44 53 -44 130q0 36 10.5 71t35.5 59l-50 52l43 43l50 -49q25 21 60.5 32.5t70.5 11.5
q38 0 72 -11.5t58 -31.5l50 49l45 -45l-48 -49q22 -25 32.5 -59.5t10.5 -72.5q0 -36 -10.5 -70.5t-32.5 -61.5l47 -50l-41 -42l-50 52q-26 -24 -60.5 -36t-72.5 -12t-72.5 11.5t-60.5 35.5l-49 -51l-42 42z" />
    <glyph glyph-name="Lslash" unicode="&#x141;" horiz-adv-x="611" 
d="M574 -19q0 15 -9.5 17t-24.5 2h-476v18q30 0 30 18v153l-66 -28v88l66 28v213q0 18 -30 18v18h172v-18q-28 0 -28 -18v-166l168 70v-87l-168 -70v-145h332q15 0 24.5 7t9.5 19h18v-137h-18z" />
    <glyph glyph-name="lslash" unicode="&#x142;" horiz-adv-x="556" 
d="M221 440v-18q-23 0 -23 -15v-135l142 49v-72l-142 -49v-126h270q12 0 20 5.5t8 15.5h18v-105h-18q0 8 -8 9t-20 1h-392v18q26 0 26 15v134l-59 -20v72l59 20v168q0 15 -26 15v18h145z" />
    <glyph glyph-name="onesuperior" unicode="&#xb9;" horiz-adv-x="366" 
d="M219 240q0 -10 5.5 -13.5t11.5 -3.5v-10h-107v10q6 0 11 3.5t5 13.5v197q-9 0 -23 -2.5t-17 -11.5h-10v76h10q0 -6 6 -8t11 -2q11 0 18.5 6t7.5 13q0 8 -4 10.5t-12 3.5v10h105v-10q-18 -2 -18 -13v-269z" />
    <glyph glyph-name="minus" unicode="&#x2212;" horiz-adv-x="600" 
d="M80 259h440v-78h-440v78z" />
    <glyph glyph-name="onequarter" unicode="&#xbc;" horiz-adv-x="916" 
d="M738 248l-141 -142h141v142zM548 54q-10 0 -15.5 -3t-5.5 -14h-10v68l166 168q7 8 12.5 14t5.5 10q0 5 -3.5 6t-7.5 3v10h129v-10q-13 0 -13 -11v-189h21q8 0 13 2t5 12h10v-81h-10q0 11 -5 13t-13 2h-21v-28q0 -10 4 -13t9 -3v-10h-98v10q7 0 12 3t5 13v28h-190z
M219 240q0 -10 5.5 -13.5t11.5 -3.5v-10h-107v10q6 0 11 3.5t5 13.5v197q-9 0 -23 -2.5t-17 -11.5h-10v76h10q0 -6 6 -8t11 -2q11 0 18.5 6t7.5 13q0 8 -4 10.5t-12 3.5v10h105v-10q-18 -2 -18 -13v-269zM623 532h76l-425 -535h-76z" />
    <glyph glyph-name="onehalf" unicode="&#xbd;" horiz-adv-x="916" 
d="M219 240q0 -10 5.5 -13.5t11.5 -3.5v-10h-107v10q6 0 11 3.5t5 13.5v197q-9 0 -23 -2.5t-17 -11.5h-10v76h10q0 -6 6 -8t11 -2q11 0 18.5 6t7.5 13q0 8 -4 10.5t-12 3.5v10h105v-10q-18 -2 -18 -13v-269zM854 -7h-8q0 7 -6 7h-13h-274q-14 0 -16 -7h-10v21q0 32 17 55
t42 40t55 30.5t55 26t42 26t17 31.5q0 40 -63 40q-27 0 -45 -7t-28.5 -16t-15 -16.5t-4.5 -9.5q0 -3 1.5 -8t4.5 -7l-9 -6l-67 66l9 6q5 -3 11 -3q5 0 15 9t28 19.5t45 19.5t65 9q25 0 49 -5.5t42.5 -17t30 -30t11.5 -44.5q0 -28 -13 -47t-33.5 -33t-46 -23.5t-50 -19
t-46 -19.5t-33.5 -24h212q7 0 13 2.5t6 13.5h10v-79zM585 532h76l-425 -535h-76z" />
    <glyph glyph-name="Eth" unicode="&#xd0;" horiz-adv-x="722" 
d="M373 315v-86h-162v-143h155q47 0 82 8t58 28.5t34.5 54.5t11.5 86t-11.5 86t-34.5 54.5t-58 28.5t-82 8h-155v-125h162zM406 526q55 0 102.5 -16t82.5 -48.5t55 -82t20 -116.5t-20 -116.5t-55 -82t-82.5 -48.5t-102.5 -16h-332v18q23 0 23 18v193h-59v86h59v175
q0 18 -23 18v18h332z" />
    <glyph glyph-name="brokenbar" unicode="&#xa6;" horiz-adv-x="222" 
d="M150 675v-350h-78v350h78zM150 175v-348h-78v348h78z" />
    <glyph glyph-name="thorn" unicode="&#xfe;" horiz-adv-x="556" 
d="M356 173q29 0 48.5 10.5t19.5 42.5q0 31 -19.5 43.5t-48.5 12.5h-168v-109h168zM92 407q0 15 -25 15v18h142v-18q-21 0 -21 -15v-51h170q81 0 121.5 -29t40.5 -101t-40.5 -99.5t-121.5 -27.5h-170v-66q0 -15 21 -15v-18h-142v18q25 0 25 15v374z" />
    <glyph glyph-name="yacute" unicode="&#xfd;" horiz-adv-x="556" 
d="M287 490h-84l91 144h135zM60 405q-7 9 -17 13t-19 4v18h165v-18q-5 0 -11 -3.5t-6 -9.5t4 -11t9 -12l101 -132l89 124l13.5 19.5t4.5 12.5q0 8 -5 10t-10 2v18h153v-18q-12 0 -26.5 -13.5t-25.5 -27.5l-153 -198v-150q0 -15 19 -15v-18h-133v18q18 0 18 15v154z" />
    <glyph glyph-name="eth" unicode="&#xf0;" horiz-adv-x="611" 
d="M316 74q31 0 59 4.5t49 20t33.5 45t12.5 79.5t-12.5 78.5t-33.5 43t-49 18t-59 3.5h-130v-104h130v-74h-130v-114h130zM32 188v74h58v145q0 15 -23 15v18h278q59 0 101 -19t68.5 -49.5t39 -70t12.5 -81.5t-12 -81.5t-38 -70t-67 -49.5t-100 -19h-282v18q23 0 23 15v155
h-58z" />
    <glyph glyph-name="Scaron" unicode="&#x160;" 
d="M389 559h-111l-108 144h93l70 -90l71 90h93zM125 165l10 -5q0 -9 4 -16q7 -12 27.5 -23.5t47 -20.5t55.5 -14.5t52 -5.5q17 0 44 2.5t53 10.5t45 22t19 37t-17.5 34t-46 16t-65 6.5t-74.5 4.5t-74.5 10t-65 23.5t-46 45t-17.5 74.5q0 31 14.5 61t44.5 53t76 37.5
t108 14.5q53 0 92 -8t67.5 -17t48 -17t32.5 -8q14 0 20 6l12 -8l-69 -125l-10 4q-2 14 -8 23q-8 12 -26.5 23.5t-43.5 20.5t-54 14.5t-58 5.5q-22 0 -45.5 -3.5t-42.5 -10.5t-31.5 -18.5t-12.5 -28.5q0 -24 17.5 -36t46 -18t65 -8t74.5 -5t74.5 -10.5t65 -24t46 -44.5
t17.5 -73q0 -52 -27.5 -85t-68.5 -52t-88.5 -25.5t-88.5 -6.5q-57 0 -95.5 6.5t-64 16t-40.5 17t-26 7.5q-7 0 -13 -8l-14 8z" />
    <glyph glyph-name="multiply" unicode="&#xd7;" horiz-adv-x="600" 
d="M80 55l165 165l-165 165l55 55l165 -165l165 165l55 -55l-166 -165l166 -165l-55 -55l-165 165l-165 -165z" />
    <glyph glyph-name="twosuperior" unicode="&#xb2;" horiz-adv-x="366" 
d="M342 203h-8q0 7 -6 8.5t-13 1.5h-274q-15 0 -16 -10h-10v24q0 32 17 55t42 40t55 30.5t55 26t42 26t17 31.5q0 40 -63 40q-27 0 -45 -7t-28.5 -16t-15 -16.5t-4.5 -9.5q0 -3 1.5 -8t4.5 -7l-9 -6l-67 66l9 6q5 -3 11 -3q5 0 15 9t28 19.5t45 19.5t65 9q25 0 49 -5.5
t42.5 -17t30 -30t11.5 -44.5q0 -28 -13 -47t-33.5 -33t-46 -23.5t-50 -19t-46 -19.5t-33.5 -24h212q7 0 13 2.5t6 13.5h10v-82z" />
    <glyph glyph-name="zcaron" unicode="&#x17e;" horiz-adv-x="556" 
d="M334 490h-111l-108 144h93l70 -90l71 90h93zM329 366h-229q-13 0 -19 -6t-6 -14h-18v117h18q0 -23 25 -23h398v-18l-279 -348h239q23 0 23 21h18v-105h-18q0 10 -23 10h-401v18z" />
    <glyph glyph-name="Yacute" unicode="&#xdd;" horiz-adv-x="611" 
d="M314 559h-84l91 144h135zM219 526v-18q-9 0 -17 -2.5t-8 -12.5q0 -6 14.5 -28.5t34 -51t40.5 -58.5t34 -51l117 161q8 12 13 19t5 13q0 7 -9.5 9t-17.5 2v18h175v-18q-8 0 -15 -1.5t-14.5 -7t-16 -16t-20.5 -28.5l-170 -241v-178q0 -18 23 -18v-18h-158v18q9 0 15 4.5
t6 13.5v178l-193 270q-7 10 -21.5 17t-24.5 7v18h208z" />
    <glyph glyph-name="threesuperior" unicode="&#xb3;" horiz-adv-x="366" 
d="M18 482l10 9q5 -3 11 -3q3 0 12 7t26 15t43 15t64 7q25 0 51 -4.5t47 -15t34.5 -27t13.5 -40.5q0 -22 -14 -40t-37 -23v-2q28 -5 46 -22.5t18 -44.5q0 -30 -16.5 -50t-41.5 -32t-54.5 -17t-55.5 -5q-29 0 -54 6t-44.5 13t-32.5 13t-18 6q-6 0 -11 -5l-8 4l39 86l9 -4
q-1 -2 -2 -4.5t-1 -6.5q0 -5 9.5 -14t26.5 -17.5t40.5 -14.5t50.5 -6q46 0 67 12.5t21 32.5q0 21 -19 31.5t-61 10.5q-18 0 -30.5 -3.5t-14.5 -12.5h-10v85h10q2 -12 14.5 -15.5t30.5 -3.5q36 0 54.5 11t16.5 28t-19.5 26t-57.5 9q-20 0 -39 -4t-33.5 -9.5t-23.5 -11.5
t-9 -11v-6q0 -4 2 -6l-8 -7z" />
    <glyph glyph-name="Zcaron" unicode="&#x17d;" horiz-adv-x="611" 
d="M361 559h-111l-108 144h93l70 -90l71 90h93zM372 440h-272q-30 0 -30 -28h-18v138h18q0 -24 30 -24h461v-28l-318 -406h272q28 0 28 22h18v-133h-18q0 19 -28 19h-466v28z" />
    <glyph glyph-name="threequarters" unicode="&#xbe;" horiz-adv-x="916" 
d="M738 248l-141 -142h141v142zM548 54q-10 0 -15.5 -3t-5.5 -14h-10v68l166 168q7 8 12.5 14t5.5 10q0 5 -3.5 6t-7.5 3v10h129v-10q-13 0 -13 -11v-189h21q8 0 13 2t5 12h10v-81h-10q0 11 -5 13t-13 2h-21v-28q0 -10 4 -13t9 -3v-10h-98v10q7 0 12 3t5 13v28h-190z
M160 421q2 -12 14.5 -15.5t30.5 -3.5q36 0 54.5 11t16.5 28t-19.5 26t-57.5 9q-20 0 -39 -4t-33.5 -9.5t-23.5 -11.5t-9 -11v-6q0 -4 2 -6l-8 -7l-52 61l10 9q5 -3 11 -3q3 0 12 7t26 15t43 15t64 7q25 0 51 -4.5t47 -15t34.5 -27t13.5 -40.5q0 -22 -14 -40t-37 -23v-2
q28 -5 46 -22.5t18 -44.5q0 -30 -16.5 -50t-41.5 -32t-54.5 -17t-55.5 -5q-29 0 -54 6t-44.5 13t-32.5 13t-18 6q-6 0 -11 -5l-8 4l39 86l9 -4q-1 -2 -2 -4.5t-1 -6.5q0 -5 9.5 -14t26.5 -17.5t40.5 -14.5t50.5 -6q46 0 67 12.5t21 32.5q0 21 -19 31.5t-61 10.5
q-18 0 -30.5 -3.5t-14.5 -12.5h-10v85h10zM653 532h76l-425 -535h-76z" />
    <glyph glyph-name="scaron" unicode="&#x161;" horiz-adv-x="556" 
d="M334 490h-111l-108 144h93l70 -90l71 90h93zM111 153q0 -4 -0.5 -8.5t-0.5 -9.5q0 -15 19 -27.5t45.5 -21t53 -13.5t41.5 -5q14 0 34.5 2t40.5 8.5t34 18t14 30.5q0 22 -24.5 32t-61.5 15.5t-80 11t-80 18t-61.5 36t-24.5 66.5q0 64 53 102t149 38q47 0 80.5 -7.5
t56.5 -16.5t37.5 -16.5t21.5 -7.5q8 0 12 2.5t10 5.5l11 -11l-50 -94l-18 6l-2 12t-9 12q-20 17 -62 29t-94 12q-20 0 -38 -2.5t-32 -8.5t-22 -15.5t-8 -23.5q0 -22 24.5 -31.5t61.5 -15t80 -11t80 -18.5t61.5 -38t24.5 -69t-21.5 -72t-53.5 -44t-70.5 -21t-72.5 -5
t-67.5 6.5t-61 15t-46.5 16t-23 7.5q-7 0 -12 -6l-14 10l46 112z" />
    <glyph glyph-name="Thorn" unicode="&#xde;" 
d="M440 208q33 0 56.5 13t23.5 51t-23.5 51t-56.5 13h-213v-128h213zM113 490q0 18 -37 18v18h183v-18q-32 0 -32 -18v-62h201q96 0 151 -35.5t55 -120.5t-55 -120.5t-151 -35.5h-201v-80q0 -18 32 -18v-18h-183v18q37 0 37 18v454z" />
    <glyph glyph-name="gravecmb" unicode="&#x300;" horiz-adv-x="0" 
d="M-88 490h-82l-144 144h136z" />
    <glyph glyph-name="acutecmb" unicode="&#x301;" horiz-adv-x="0" 
d="M-155 490h-84l91 144h135z" />
    <glyph glyph-name="circumflexcmb" unicode="&#x302;" horiz-adv-x="0" 
d="M-327 490l108 144h111l108 -144h-93l-70 90l-71 -90h-93z" />
    <glyph glyph-name="tildecmb" unicode="&#x303;" horiz-adv-x="0" 
d="M13 620q-5 -23 -13 -44t-21 -37t-32 -25.5t-46 -9.5q-15 0 -34 6t-38.5 13t-38 13t-32.5 6q-20 0 -29 -14t-14 -30h-53q8 47 29 79t73 38q16 2 35 -4t38.5 -13.5t38.5 -14.5t34 -7q19 0 30.5 13.5t15.5 30.5h57z" />
    <glyph glyph-name="macroncmb" unicode="&#x304;" horiz-adv-x="0" 
d="M-327 590h327v-66h-327v66z" />
    <glyph glyph-name="brevecmb" unicode="&#x306;" horiz-adv-x="0" 
d="M2 638q-3 -33 -16 -60t-34.5 -45.5t-50 -28.5t-61.5 -10t-61.5 10t-50 28.5t-34.5 45.5t-16 60h58q5 -24 15 -39t24 -23t30.5 -11t34.5 -3t34.5 3t30.5 11t24 23t15 39h58z" />
    <glyph glyph-name="dotaccentcmb" unicode="&#x307;" horiz-adv-x="0" 
d="M-219 612h110v-110h-110v110z" />
    <glyph glyph-name="dieresiscmb" unicode="&#x308;" horiz-adv-x="0" 
d="M-306 612h110v-110h-110v110zM-131 612h110v-110h-110v110z" />
    <glyph glyph-name="ringcmb" unicode="&#x30a;" horiz-adv-x="0" 
d="M-164 650q-25 0 -42 -17t-17 -42t17 -42t42 -17t42 17t17 42t-17 42t-42 17zM-164 694q22 0 40.5 -8t32.5 -22t22 -33t8 -40t-8 -40t-22 -33t-32.5 -22t-40.5 -8t-40.5 8t-32.5 22t-22 33t-8 40t8 40t22 33t32.5 22t40.5 8z" />
    <glyph glyph-name="hungarumlautcmb" unicode="&#x30b;" horiz-adv-x="0" 
d="M80 634l-142 -144h-84l91 144h135zM-110 634l-123 -144h-79l74 144h128z" />
    <glyph glyph-name="caroncmb" unicode="&#x30c;" horiz-adv-x="0" 
d="M-108 490h-111l-108 144h93l70 -90l71 90h93z" />
    <glyph glyph-name="cedillacmb" unicode="&#x327;" horiz-adv-x="0" 
d="M-261 -157q15 -6 31.5 -11t33.5 -5q22 0 41 7t19 33q0 19 -12 27.5t-29 8.5q-11 0 -22.5 -1.5t-20.5 -5.5l-22 19l66 85h49l-44 -55l2 -2q9 4 24 4q17 0 33.5 -5t29 -14.5t20.5 -23.5t8 -33q0 -27 -11.5 -45t-29.5 -29t-41 -15.5t-46 -4.5q-22 0 -50 8t-47 18z" />
    <glyph glyph-name="ogonekcmb" unicode="&#x328;" horiz-adv-x="0" 
d="M-75 9q-19 -7 -44.5 -16t-47.5 -24t-37.5 -34.5t-15.5 -44.5q0 -29 15 -40t40 -11q11 0 24 4t26.5 10.5t26 13.5t21.5 13l16 -32q-30 -21 -69.5 -40t-77.5 -19q-21 0 -39.5 5.5t-33 16t-23 27t-8.5 39.5q0 39 24.5 64t60 41t74.5 24t68 14v-11z" />
    <glyph glyph-name="soliduslongoverlaycmb" unicode="&#x338;" horiz-adv-x="0" 
d="M-65 532h110l-240 -532h-108z" />
    <glyph glyph-name="uni0132" unicode="&#x132;" horiz-adv-x="833" 
d="M83 18q26 0 26 18v454q0 18 -26 18v18h166v-18q-26 0 -26 -18v-454q0 -18 26 -18v-18h-166v18zM369 146l16 -6q3 -16 15.5 -28t30.5 -20.5t39 -13t40 -4.5q60 0 87.5 17.5t27.5 65.5v321q0 14 -12 22t-23 8v18h190v-18q-17 0 -29 -8t-12 -22v-330q0 -39 -16.5 -68
t-46.5 -48t-71 -27t-91 -8q-31 0 -57 4t-46.5 9.5t-36 10.5t-25.5 5q-11 0 -18 -12l-15 10z" />
    <glyph glyph-name="uni0133" unicode="&#x133;" horiz-adv-x="777" 
d="M90 18q16 0 22 3.5t6 11.5v374q0 8 -6 11.5t-22 3.5v18h152v-18q-28 0 -28 -15v-374q0 -15 28 -15v-18h-152v18zM376 135l14 -5q0 -7 0.5 -15.5t5.5 -14.5q7 -11 35.5 -21.5t65.5 -10.5q43 0 64.5 13.5t21.5 54.5v261q0 11 -9 18t-16 7v18h149v-18q-10 0 -19 -7t-9 -18
v-273q0 -36 -14 -61t-38.5 -40t-58 -20.5t-72.5 -5.5q-22 0 -43 3.5t-39 9t-32 10t-23 4.5q-8 0 -12 -3.5t-9 -8.5l-9 8z" />
    <glyph glyph-name="clickdental" unicode="&#x1c0;" horiz-adv-x="222" 
d="M150 750v-998h-78v998h78z" />
    <glyph glyph-name="clicklateral" unicode="&#x1c1;" horiz-adv-x="444" 
d="M150 750v-998h-78v998h78zM372 750v-998h-78v998h78z" />
    <glyph glyph-name="combininggraphemejoiner" unicode="&#x34f;" horiz-adv-x="0" 
 />
    <glyph glyph-name="zerowidthspace" unicode="&#x200b;" horiz-adv-x="0" 
 />
    <glyph glyph-name="afii61664" unicode="&#x200c;" horiz-adv-x="0" 
 />
    <glyph glyph-name="afii301" unicode="&#x200d;" horiz-adv-x="0" 
 />
    <glyph glyph-name="centigrade" unicode="&#x2103;" horiz-adv-x="1009" 
d="M174 550q26 0 48.5 -9.5t39.5 -26.5t26.5 -39.5t9.5 -48.5t-9.5 -49t-26.5 -39.5t-39.5 -26t-48.5 -9.5t-49 9.5t-39.5 26t-26 39.5t-9.5 49t9.5 48.5t26 39.5t39.5 26.5t49 9.5zM174 500q-32 0 -53 -21.5t-21 -52.5t21 -52.5t53 -21.5t53 21.5t21 52.5t-21 52.5
t-53 21.5zM928 72q-3 0 -5.5 0.5t-5.5 0.5q-6 0 -28.5 -12t-57 -27t-78.5 -26t-92 -11q-63 0 -121 16t-102.5 49.5t-70.5 83.5t-26 117q0 66 26 116.5t70.5 84.5t102.5 51t121 17q51 0 92.5 -8t72.5 -17t49 -17t22 -8q5 0 8.5 5t5.5 8l15 -12l-78 -121l-10 7q0 3 -0.5 6
t-1.5 7q-2 11 -20 22.5t-44.5 20.5t-56 15t-54.5 6q-42 0 -80.5 -12t-67 -35t-45.5 -56.5t-17 -76.5t17 -76.5t45.5 -56.5t67 -35t80.5 -12q32 0 67 7.5t64 19t48.5 26t19.5 27.5q0 7 -4 12l14 8l66 -106z" />
    <glyph glyph-name="fahrenheit" unicode="&#x2109;" horiz-adv-x="910" 
d="M179 554q26 0 48.5 -9.5t39.5 -26.5t26.5 -39.5t9.5 -48.5t-9.5 -49t-26.5 -39.5t-39.5 -26t-48.5 -9.5t-49 9.5t-39.5 26t-26 39.5t-9.5 49t9.5 48.5t26 39.5t39.5 26.5t49 9.5zM179 504q-32 0 -53 -21.5t-21 -52.5t21 -52.5t53 -21.5t53 21.5t21 52.5t-21 52.5
t-53 21.5zM867 418q0 11 -8.5 16.5t-29.5 5.5h-324v-124h196q20 0 31 4t11 18h18v-144h-18q0 23 -11 29.5t-31 6.5h-196v-194q0 -9 8.5 -13.5t21.5 -4.5v-18h-170v18q26 0 26 18v454q0 18 -26 18v18h464q21 0 29.5 6.5t8.5 17.5h18v-132h-18z" />
    <glyph glyph-name="kelvin" unicode="&#x212a;" 
d="M209 36q0 -9 6 -13.5t14 -4.5v-18h-156v18q22 0 22 18v454q0 18 -22 18v18h156v-18q-8 0 -14 -4.5t-6 -13.5v-190l207 163q14 12 22 19.5t8 12.5q0 7 -4.5 10t-10.5 3v18h210v-18q-18 0 -36 -15l-230 -183l210 -243q13 -15 30.5 -29.5t34.5 -19.5v-18h-185v18q13 0 13 7
q0 5 -14 22l-171 197l-84 -65v-143z" />
    <glyph glyph-name="angstrom" unicode="&#x212b;" 
d="M321 719q-25 0 -42 -17t-17 -42t17 -42t42 -17t42 17t17 42t-17 42t-42 17zM321 763q22 0 40.5 -8t32.5 -22t22 -33t8 -40t-8 -40t-22 -33t-32.5 -22t-40.5 -8t-40.5 8t-32.5 22t-22 33t-8 40t8 40t22 33t32.5 22t40.5 8zM398 204l-84 186l-94 -186h178zM21 18
q13 2 20.5 13t14.5 25l185 389q7 13 12.5 24t5.5 19q0 10 -7 14t-15 6v18h169v-18q-7 -2 -14 -5.5t-7 -14.5q0 -8 3.5 -16t10.5 -21l208 -407q5 -11 13.5 -16t19.5 -10v-18h-176v18q4 0 10 3t6 9q0 10 -8 26l-38 74h-244l-36 -71q-10 -21 -10 -30q0 -11 19 -11v-18h-142v18z
" />
    <glyph glyph-name="Oneroman" unicode="&#x2160;" horiz-adv-x="333" 
d="M83 18q26 0 26 18v454q0 18 -26 18v18h166v-18q-26 0 -26 -18v-454q0 -18 26 -18v-18h-166v18z" />
    <glyph glyph-name="Tworoman" unicode="&#x2161;" horiz-adv-x="666" 
d="M83 18q26 0 26 18v454q0 18 -26 18v18h166v-18q-26 0 -26 -18v-454q0 -18 26 -18v-18h-166v18zM416 18q26 0 26 18v454q0 18 -26 18v18h166v-18q-26 0 -26 -18v-454q0 -18 26 -18v-18h-166v18z" />
    <glyph glyph-name="Threeroman" unicode="&#x2162;" horiz-adv-x="999" 
d="M83 18q26 0 26 18v454q0 18 -26 18v18h166v-18q-26 0 -26 -18v-454q0 -18 26 -18v-18h-166v18zM416 18q26 0 26 18v454q0 18 -26 18v18h166v-18q-26 0 -26 -18v-454q0 -18 26 -18v-18h-166v18zM749 18q26 0 26 18v454q0 18 -26 18v18h166v-18q-26 0 -26 -18v-454
q0 -18 26 -18v-18h-166v18z" />
    <glyph glyph-name="Fourroman" unicode="&#x2163;" horiz-adv-x="1000" 
d="M83 18q26 0 26 18v454q0 18 -26 18v18h166v-18q-26 0 -26 -18v-454q0 -18 26 -18v-18h-166v18zM977 508q-20 0 -29 -14.5t-13 -23.5l-177 -389q-9 -20 -15 -32t-6 -17t2.5 -8t6.5 -6v-18h-153v18q9 4 9 14q0 5 -7.5 20.5t-18.5 38.5l-180 391q-5 11 -14 16t-26 10v18h179
v-18q-7 0 -13.5 -3.5t-6.5 -13.5q0 -11 8.5 -28t20.5 -42l128 -275l125 271q12 26 22.5 46.5t10.5 28.5q0 16 -28 16v18h175v-18z" />
    <glyph glyph-name="Fiveroman" unicode="&#x2164;" 
d="M644 508q-20 0 -29 -14.5t-13 -23.5l-177 -389q-9 -20 -15 -32t-6 -17t2.5 -8t6.5 -6v-18h-153v18q9 4 9 14q0 5 -7.5 20.5t-18.5 38.5l-180 391q-5 11 -14 16t-26 10v18h179v-18q-7 0 -13.5 -3.5t-6.5 -13.5q0 -11 8.5 -28t20.5 -42l128 -275l125 271q12 26 22.5 46.5
t10.5 28.5q0 16 -28 16v18h175v-18z" />
    <glyph glyph-name="Sixroman" unicode="&#x2165;" horiz-adv-x="1000" 
d="M644 508q-20 0 -29 -14.5t-13 -23.5l-177 -389q-9 -20 -15 -32t-6 -17t2.5 -8t6.5 -6v-18h-153v18q9 4 9 14q0 5 -7.5 20.5t-18.5 38.5l-180 391q-5 11 -14 16t-26 10v18h179v-18q-7 0 -13.5 -3.5t-6.5 -13.5q0 -11 8.5 -28t20.5 -42l128 -275l125 271q12 26 22.5 46.5
t10.5 28.5q0 16 -28 16v18h175v-18zM750 18q26 0 26 18v454q0 18 -26 18v18h166v-18q-26 0 -26 -18v-454q0 -18 26 -18v-18h-166v18z" />
    <glyph glyph-name="Sevenroman" unicode="&#x2166;" horiz-adv-x="1333" 
d="M644 508q-20 0 -29 -14.5t-13 -23.5l-177 -389q-9 -20 -15 -32t-6 -17t2.5 -8t6.5 -6v-18h-153v18q9 4 9 14q0 5 -7.5 20.5t-18.5 38.5l-180 391q-5 11 -14 16t-26 10v18h179v-18q-7 0 -13.5 -3.5t-6.5 -13.5q0 -11 8.5 -28t20.5 -42l128 -275l125 271q12 26 22.5 46.5
t10.5 28.5q0 16 -28 16v18h175v-18zM750 18q26 0 26 18v454q0 18 -26 18v18h166v-18q-26 0 -26 -18v-454q0 -18 26 -18v-18h-166v18zM1083 18q26 0 26 18v454q0 18 -26 18v18h166v-18q-26 0 -26 -18v-454q0 -18 26 -18v-18h-166v18z" />
    <glyph glyph-name="Eightroman" unicode="&#x2167;" horiz-adv-x="1666" 
d="M644 508q-20 0 -29 -14.5t-13 -23.5l-177 -389q-9 -20 -15 -32t-6 -17t2.5 -8t6.5 -6v-18h-153v18q9 4 9 14q0 5 -7.5 20.5t-18.5 38.5l-180 391q-5 11 -14 16t-26 10v18h179v-18q-7 0 -13.5 -3.5t-6.5 -13.5q0 -11 8.5 -28t20.5 -42l128 -275l125 271q12 26 22.5 46.5
t10.5 28.5q0 16 -28 16v18h175v-18zM750 18q26 0 26 18v454q0 18 -26 18v18h166v-18q-26 0 -26 -18v-454q0 -18 26 -18v-18h-166v18zM1083 18q26 0 26 18v454q0 18 -26 18v18h166v-18q-26 0 -26 -18v-454q0 -18 26 -18v-18h-166v18zM1416 18q26 0 26 18v454q0 18 -26 18v18
h166v-18q-26 0 -26 -18v-454q0 -18 26 -18v-18h-166v18z" />
    <glyph glyph-name="Nineroman" unicode="&#x2168;" horiz-adv-x="1000" 
d="M83 18q26 0 26 18v454q0 18 -26 18v18h166v-18q-26 0 -26 -18v-454q0 -18 26 -18v-18h-166v18zM593 508q-8 0 -15.5 -4t-7.5 -12q0 -7 5.5 -17t14.5 -21l82 -103l83 105q11 14 19 24t8 15q0 13 -27 13v18h203v-18q-24 0 -35.5 -3t-19.5 -13l-173 -214l166 -212
q4 -6 9.5 -14t13.5 -15.5t17.5 -13t21.5 -5.5v-18h-201v18q16 0 16 16q0 7 -6.5 16t-15.5 20l-92 120l-99 -124q-5 -7 -12.5 -16.5t-7.5 -17.5q0 -14 19 -14v-18h-184v18q19 0 29.5 4t21.5 18l175 223l-162 206q-17 22 -31 30.5t-33 8.5v18h218v-18z" />
    <glyph glyph-name="Tenroman" unicode="&#x2169;" 
d="M260 508q-8 0 -15.5 -4t-7.5 -12q0 -7 5.5 -17t14.5 -21l82 -103l83 105q11 14 19 24t8 15q0 13 -27 13v18h203v-18q-24 0 -35.5 -3t-19.5 -13l-173 -214l166 -212q4 -6 9.5 -14t13.5 -15.5t17.5 -13t21.5 -5.5v-18h-201v18q16 0 16 16q0 7 -6.5 16t-15.5 20l-92 120
l-99 -124q-5 -7 -12.5 -16.5t-7.5 -17.5q0 -14 19 -14v-18h-184v18q19 0 29.5 4t21.5 18l175 223l-162 206q-17 22 -31 30.5t-33 8.5v18h218v-18z" />
    <glyph glyph-name="Elevenroman" unicode="&#x216a;" horiz-adv-x="1000" 
d="M260 508q-8 0 -15.5 -4t-7.5 -12q0 -7 5.5 -17t14.5 -21l82 -103l83 105q11 14 19 24t8 15q0 13 -27 13v18h203v-18q-24 0 -35.5 -3t-19.5 -13l-173 -214l166 -212q4 -6 9.5 -14t13.5 -15.5t17.5 -13t21.5 -5.5v-18h-201v18q16 0 16 16q0 7 -6.5 16t-15.5 20l-92 120
l-99 -124q-5 -7 -12.5 -16.5t-7.5 -17.5q0 -14 19 -14v-18h-184v18q19 0 29.5 4t21.5 18l175 223l-162 206q-17 22 -31 30.5t-33 8.5v18h218v-18zM750 18q26 0 26 18v454q0 18 -26 18v18h166v-18q-26 0 -26 -18v-454q0 -18 26 -18v-18h-166v18z" />
    <glyph glyph-name="Twelveroman" unicode="&#x216b;" horiz-adv-x="1333" 
d="M260 508q-8 0 -15.5 -4t-7.5 -12q0 -7 5.5 -17t14.5 -21l82 -103l83 105q11 14 19 24t8 15q0 13 -27 13v18h203v-18q-24 0 -35.5 -3t-19.5 -13l-173 -214l166 -212q4 -6 9.5 -14t13.5 -15.5t17.5 -13t21.5 -5.5v-18h-201v18q16 0 16 16q0 7 -6.5 16t-15.5 20l-92 120
l-99 -124q-5 -7 -12.5 -16.5t-7.5 -17.5q0 -14 19 -14v-18h-184v18q19 0 29.5 4t21.5 18l175 223l-162 206q-17 22 -31 30.5t-33 8.5v18h218v-18zM750 18q26 0 26 18v454q0 18 -26 18v18h166v-18q-26 0 -26 -18v-454q0 -18 26 -18v-18h-166v18zM1083 18q26 0 26 18v454
q0 18 -26 18v18h166v-18q-26 0 -26 -18v-454q0 -18 26 -18v-18h-166v18z" />
    <glyph glyph-name="uni216C" unicode="&#x216c;" horiz-adv-x="611" 
d="M574 -19q0 15 -9.5 17t-24.5 2h-476v18q30 0 30 18v454q0 18 -30 18v18h172v-18q-28 0 -28 -18v-398h332q15 0 24.5 7t9.5 19h18v-137h-18z" />
    <glyph glyph-name="uni216D" unicode="&#x216d;" horiz-adv-x="722" 
d="M641 72q-3 0 -5.5 0.5t-5.5 0.5q-6 0 -28.5 -12t-57 -27t-78.5 -26t-92 -11q-63 0 -121 16t-102.5 49.5t-70.5 83.5t-26 117q0 66 26 116.5t70.5 84.5t102.5 51t121 17q51 0 92.5 -8t72.5 -17t49 -17t22 -8q5 0 8.5 5t5.5 8l15 -12l-78 -121l-10 7q0 3 -0.5 6t-1.5 7
q-2 11 -20 22.5t-44.5 20.5t-56 15t-54.5 6q-42 0 -80.5 -12t-67 -35t-45.5 -56.5t-17 -76.5t17 -76.5t45.5 -56.5t67 -35t80.5 -12q32 0 67 7.5t64 19t48.5 26t19.5 27.5q0 7 -4 12l14 8l66 -106z" />
    <glyph glyph-name="uni216E" unicode="&#x216e;" horiz-adv-x="722" 
d="M366 86q47 0 82 8t58 28.5t34.5 54.5t11.5 86t-11.5 86t-34.5 54.5t-58 28.5t-82 8h-155v-354h155zM406 526q55 0 102.5 -16t82.5 -48.5t55 -82t20 -116.5t-20 -116.5t-55 -82t-82.5 -48.5t-102.5 -16h-332v18q23 0 23 18v454q0 18 -23 18v18h332z" />
    <glyph glyph-name="uni216F" unicode="&#x216f;" horiz-adv-x="833" 
d="M88 18q8 0 14 4.5t6 13.5v456q0 9 -6 12.5t-14 3.5v18h187v-18q-5 0 -10.5 -3t-5.5 -9q0 -5 4 -13t9 -17l143 -260l144 257q7 13 10.5 20.5t3.5 13.5q0 11 -13 11v18h185v-18q-8 0 -14 -3.5t-6 -12.5v-456q0 -9 6 -13.5t14 -4.5v-18h-157v18q27 0 27 18v332h-2l-201 -368
h-3l-197 369h-2v-333q0 -18 28 -18v-18h-150v18z" />
    <glyph glyph-name="oneroman" unicode="&#x2170;" horiz-adv-x="333" 
d="M90 18q16 0 22 3.5t6 11.5v374q0 8 -6 11.5t-22 3.5v18h152v-18q-28 0 -28 -15v-374q0 -15 28 -15v-18h-152v18z" />
    <glyph glyph-name="tworoman" unicode="&#x2171;" horiz-adv-x="666" 
d="M90 18q16 0 22 3.5t6 11.5v374q0 8 -6 11.5t-22 3.5v18h152v-18q-28 0 -28 -15v-374q0 -15 28 -15v-18h-152v18zM423 18q16 0 22 3.5t6 11.5v374q0 8 -6 11.5t-22 3.5v18h152v-18q-28 0 -28 -15v-374q0 -15 28 -15v-18h-152v18z" />
    <glyph glyph-name="threeroman" unicode="&#x2172;" horiz-adv-x="999" 
d="M90 18q16 0 22 3.5t6 11.5v374q0 8 -6 11.5t-22 3.5v18h152v-18q-28 0 -28 -15v-374q0 -15 28 -15v-18h-152v18zM423 18q16 0 22 3.5t6 11.5v374q0 8 -6 11.5t-22 3.5v18h152v-18q-28 0 -28 -15v-374q0 -15 28 -15v-18h-152v18zM756 18q16 0 22 3.5t6 11.5v374
q0 8 -6 11.5t-22 3.5v18h152v-18q-28 0 -28 -15v-374q0 -15 28 -15v-18h-152v18z" />
    <glyph glyph-name="fourroman" unicode="&#x2173;" horiz-adv-x="889" 
d="M90 18q16 0 22 3.5t6 11.5v374q0 8 -6 11.5t-22 3.5v18h152v-18q-28 0 -28 -15v-374q0 -15 28 -15v-18h-152v18zM865 422q-14 0 -25 -23l-146 -323q-11 -26 -16.5 -35t-5.5 -14q0 -6 18 -9v-18h-151v18q5 2 9.5 4.5t4.5 7.5t-6.5 16t-15.5 30l-152 327q-4 9 -10.5 14
t-12.5 5v18h141v-18q-12 0 -12 -13q0 -7 5.5 -19.5t12.5 -27.5l115 -249l109 242q11 24 17 36t5 19q-1 12 -15 12v18h131v-18z" />
    <glyph glyph-name="fiveroman" unicode="&#x2174;" horiz-adv-x="556" 
d="M532 422q-14 0 -25 -23l-146 -323q-11 -26 -16.5 -35t-5.5 -14q0 -6 18 -9v-18h-151v18q5 2 9.5 4.5t4.5 7.5t-6.5 16t-15.5 30l-152 327q-4 9 -10.5 14t-12.5 5v18h141v-18q-12 0 -12 -13q0 -7 5.5 -19.5t12.5 -27.5l115 -249l109 242q11 24 17 36t5 19q-1 12 -15 12v18
h131v-18z" />
    <glyph glyph-name="sixroman" unicode="&#x2175;" horiz-adv-x="889" 
d="M532 422q-14 0 -25 -23l-146 -323q-11 -26 -16.5 -35t-5.5 -14q0 -6 18 -9v-18h-151v18q5 2 9.5 4.5t4.5 7.5t-6.5 16t-15.5 30l-152 327q-4 9 -10.5 14t-12.5 5v18h141v-18q-12 0 -12 -13q0 -7 5.5 -19.5t12.5 -27.5l115 -249l109 242q11 24 17 36t5 19q-1 12 -15 12v18
h131v-18zM646 18q16 0 22 3.5t6 11.5v374q0 8 -6 11.5t-22 3.5v18h152v-18q-28 0 -28 -15v-374q0 -15 28 -15v-18h-152v18z" />
    <glyph glyph-name="sevenroman" unicode="&#x2176;" horiz-adv-x="1222" 
d="M532 422q-14 0 -25 -23l-146 -323q-11 -26 -16.5 -35t-5.5 -14q0 -6 18 -9v-18h-151v18q5 2 9.5 4.5t4.5 7.5t-6.5 16t-15.5 30l-152 327q-4 9 -10.5 14t-12.5 5v18h141v-18q-12 0 -12 -13q0 -7 5.5 -19.5t12.5 -27.5l115 -249l109 242q11 24 17 36t5 19q-1 12 -15 12v18
h131v-18zM646 18q16 0 22 3.5t6 11.5v374q0 8 -6 11.5t-22 3.5v18h152v-18q-28 0 -28 -15v-374q0 -15 28 -15v-18h-152v18zM979 18q16 0 22 3.5t6 11.5v374q0 8 -6 11.5t-22 3.5v18h152v-18q-28 0 -28 -15v-374q0 -15 28 -15v-18h-152v18z" />
    <glyph glyph-name="eightroman" unicode="&#x2177;" horiz-adv-x="1555" 
d="M532 422q-14 0 -25 -23l-146 -323q-11 -26 -16.5 -35t-5.5 -14q0 -6 18 -9v-18h-151v18q5 2 9.5 4.5t4.5 7.5t-6.5 16t-15.5 30l-152 327q-4 9 -10.5 14t-12.5 5v18h141v-18q-12 0 -12 -13q0 -7 5.5 -19.5t12.5 -27.5l115 -249l109 242q11 24 17 36t5 19q-1 12 -15 12v18
h131v-18zM646 18q16 0 22 3.5t6 11.5v374q0 8 -6 11.5t-22 3.5v18h152v-18q-28 0 -28 -15v-374q0 -15 28 -15v-18h-152v18zM979 18q16 0 22 3.5t6 11.5v374q0 8 -6 11.5t-22 3.5v18h152v-18q-28 0 -28 -15v-374q0 -15 28 -15v-18h-152v18zM1312 18q16 0 22 3.5t6 11.5v374
q0 8 -6 11.5t-22 3.5v18h152v-18q-28 0 -28 -15v-374q0 -15 28 -15v-18h-152v18z" />
    <glyph glyph-name="nineroman" unicode="&#x2178;" horiz-adv-x="889" 
d="M90 18q16 0 22 3.5t6 11.5v374q0 8 -6 11.5t-22 3.5v18h152v-18q-28 0 -28 -15v-374q0 -15 28 -15v-18h-152v18zM533 422q-12 0 -12 -11q0 -5 6 -13t15 -19l70 -85l76 93q16 19 16 27t-13 8v18h153v-18q-16 0 -26 -10l-151 -182l139 -175q8 -9 19 -23t26 -14v-18h-153v18
q7 1 7 8q0 3 -11 20l-87 107l-85 -104q-14 -17 -14 -24t9 -7v-18h-146v18q6 0 14.5 3t15.5 12l152 187l-138 172q-14 17 -23 23.5t-16 6.5v18h157v-18z" />
    <glyph glyph-name="tenroman" unicode="&#x2179;" horiz-adv-x="556" 
d="M200 422q-12 0 -12 -11q0 -5 6 -13t15 -19l70 -85l76 93q16 19 16 27t-13 8v18h153v-18q-16 0 -26 -10l-151 -182l139 -175q8 -9 19 -23t26 -14v-18h-153v18q7 1 7 8q0 3 -11 20l-87 107l-85 -104q-14 -17 -14 -24t9 -7v-18h-146v18q6 0 14.5 3t15.5 12l152 187l-138 172
q-14 17 -23 23.5t-16 6.5v18h157v-18z" />
    <glyph glyph-name="elevenroman" unicode="&#x217a;" horiz-adv-x="889" 
d="M200 422q-12 0 -12 -11q0 -5 6 -13t15 -19l70 -85l76 93q16 19 16 27t-13 8v18h153v-18q-16 0 -26 -10l-151 -182l139 -175q8 -9 19 -23t26 -14v-18h-153v18q7 1 7 8q0 3 -11 20l-87 107l-85 -104q-14 -17 -14 -24t9 -7v-18h-146v18q6 0 14.5 3t15.5 12l152 187l-138 172
q-14 17 -23 23.5t-16 6.5v18h157v-18zM646 18q16 0 22 3.5t6 11.5v374q0 8 -6 11.5t-22 3.5v18h152v-18q-28 0 -28 -15v-374q0 -15 28 -15v-18h-152v18z" />
    <glyph glyph-name="twelveroman" unicode="&#x217b;" horiz-adv-x="1222" 
d="M200 422q-12 0 -12 -11q0 -5 6 -13t15 -19l70 -85l76 93q16 19 16 27t-13 8v18h153v-18q-16 0 -26 -10l-151 -182l139 -175q8 -9 19 -23t26 -14v-18h-153v18q7 1 7 8q0 3 -11 20l-87 107l-85 -104q-14 -17 -14 -24t9 -7v-18h-146v18q6 0 14.5 3t15.5 12l152 187l-138 172
q-14 17 -23 23.5t-16 6.5v18h157v-18zM646 18q16 0 22 3.5t6 11.5v374q0 8 -6 11.5t-22 3.5v18h152v-18q-28 0 -28 -15v-374q0 -15 28 -15v-18h-152v18zM979 18q16 0 22 3.5t6 11.5v374q0 8 -6 11.5t-22 3.5v18h152v-18q-28 0 -28 -15v-374q0 -15 28 -15v-18h-152v18z" />
    <glyph glyph-name="uni217C" unicode="&#x217c;" horiz-adv-x="556" 
d="M221 440v-18q-23 0 -23 -15v-333h270q12 0 20 5.5t8 15.5h18v-105h-18q0 8 -8 9t-20 1h-392v18q26 0 26 15v374q0 15 -26 15v18h145z" />
    <glyph glyph-name="uni217D" unicode="&#x217d;" horiz-adv-x="556" 
d="M429 314q0 2 -0.5 4t-0.5 5q0 5 -10 13.5t-28.5 16.5t-43.5 13.5t-55 5.5q-36 0 -65.5 -9.5t-51.5 -28.5t-34 -47t-12 -64t13.5 -64.5t35.5 -49t50 -31t57 -10.5q27 0 55 7t51 16.5t37.5 20.5t14.5 20v8q0 6 -1 10l11 10l74 -106l-10 -5q-12 5 -17 5q-8 0 -26 -9
t-45.5 -20.5t-64 -19.5t-81.5 -8q-46 0 -91 13t-80 41.5t-57 71t-22 98.5t22 98t58 70.5t82.5 42.5t95.5 14q38 0 69.5 -7t55.5 -16t40 -16t23 -7q5 0 8.5 3t7.5 5l12 -7l-66 -95z" />
    <glyph glyph-name="uni217E" unicode="&#x217e;" horiz-adv-x="611" 
d="M316 74q31 0 59 4.5t49 20t33.5 45t12.5 79.5t-12.5 78.5t-33.5 43t-49 18t-59 3.5h-130v-292h130zM67 18q23 0 23 15v374q0 15 -23 15v18h278q59 0 101 -19t68.5 -49.5t39 -70t12.5 -81.5t-12 -81.5t-38 -70t-67 -49.5t-100 -19h-282v18z" />
    <glyph glyph-name="thousandroman" unicode="&#x217f;" horiz-adv-x="722" 
d="M93 18q5 1 8.5 4t3.5 14v366q0 14 -2.5 17t-9.5 3v18h139v-18q-10 0 -10 -9q0 -4 3.5 -10.5t10.5 -18.5l122 -225l123 224q7 12 11 19.5t4 10.5q0 9 -8 9v18h141v-18q-5 0 -9.5 -2.5t-4.5 -10.5v-376q0 -8 4.5 -11.5t9.5 -3.5v-18h-116v18q21 0 18 15v281h-2l-170 -314
h-8l-161 314h1h-2v-281q0 -15 17 -15v-18h-113v18z" />
    <glyph glyph-name="Dcroat" unicode="&#x110;" horiz-adv-x="722" 
d="M373 315v-86h-162v-143h155q47 0 82 8t58 28.5t34.5 54.5t11.5 86t-11.5 86t-34.5 54.5t-58 28.5t-82 8h-155v-125h162zM406 526q55 0 102.5 -16t82.5 -48.5t55 -82t20 -116.5t-20 -116.5t-55 -82t-82.5 -48.5t-102.5 -16h-332v18q23 0 23 18v193h-59v86h59v175
q0 18 -23 18v18h332z" />
    <glyph glyph-name="Ibreve" unicode="&#x12c;" horiz-adv-x="333" 
d="M83 18q26 0 26 18v454q0 18 -26 18v18h166v-18q-26 0 -26 -18v-454q0 -18 26 -18v-18h-166v18zM328 720q-3 -33 -16 -60t-34.5 -45.5t-50 -28.5t-61.5 -10t-61.5 10t-50 28.5t-34.5 45.5t-16 60h58q5 -24 15 -39t24 -23t30.5 -11t34.5 -3t34.5 3t30.5 11t24 23t15 39h58z
" />
    <glyph glyph-name="ibreve" unicode="&#x12d;" horiz-adv-x="333" 
d="M90 18q16 0 22 3.5t6 11.5v374q0 8 -6 11.5t-22 3.5v18h152v-18q-28 0 -28 -15v-374q0 -15 28 -15v-18h-152v18zM328 634q-3 -33 -16 -60t-34.5 -45.5t-50 -28.5t-61.5 -10t-61.5 10t-50 28.5t-34.5 45.5t-16 60h58q5 -24 15 -39t24 -23t30.5 -11t34.5 -3t34.5 3t30.5 11
t24 23t15 39h58z" />
    <glyph glyph-name="Idotaccent" unicode="&#x130;" horiz-adv-x="333" 
d="M83 18q26 0 26 18v454q0 18 -26 18v18h166v-18q-26 0 -26 -18v-454q0 -18 26 -18v-18h-166v18zM111 686h110v-110h-110v110z" />
    <glyph glyph-name="Jcircumflex" unicode="&#x134;" horiz-adv-x="500" 
d="M36 146l16 -6q3 -16 15.5 -28t30.5 -20.5t39 -13t40 -4.5q60 0 87.5 17.5t27.5 65.5v321q0 14 -12 22t-23 8v18h190v-18q-17 0 -29 -8t-12 -22v-330q0 -39 -16.5 -68t-46.5 -48t-71 -27t-91 -8q-31 0 -57 4t-46.5 9.5t-36 10.5t-25.5 5q-11 0 -18 -12l-15 10zM192 576
l108 144h111l108 -144h-93l-70 90l-71 -90h-93z" />
    <glyph glyph-name="napostrophe" unicode="&#x149;" horiz-adv-x="857" 
d="M58 327q15 4 34 15.5t34.5 27t25.5 33.5t8 36q-2 7 -11 8t-17 1q-25 0 -43.5 16.5t-18.5 46.5q0 29 20.5 50t46.5 21q40 0 60.5 -29t20.5 -71q0 -33 -13.5 -63.5t-35.5 -55.5t-51 -43t-60 -25v32zM271 18q18 0 18 15v374q0 15 -18 15v18h147v-18q-7 -1 -7 -5q0 -5 22 -27
l240 -254v271q0 15 -20 15v18h122v-18q-18 0 -18 -15v-374q0 -15 18 -15v-18h-130v18q7 0 7 5q0 4 -9.5 14t-21.5 23l-248 264v-291q0 -15 21 -15v-18h-123v18z" />
    <glyph glyph-name="clickretroflex" unicode="&#x1c3;" horiz-adv-x="333" 
d="M249 528q-15 -4 -19 -9t-6 -17l-31 -267q-1 -8 -2 -14.5t-1 -13.5q0 -8 5 -10.5t13 -2.5v-12h-84v12q8 0 13 2.5t5 10.5q0 7 -1 13.5t-2 14.5l-31 267q-2 12 -6 17t-19 9v12h166v-12zM166 122q26 0 45 -19t19 -45t-19 -43.5t-45 -17.5t-45 17.5t-19 43.5t19 45t45 19z
" />
    <glyph glyph-name="DZcaron" unicode="&#x1c4;" horiz-adv-x="1333" 
d="M366 86q47 0 82 8t58 28.5t34.5 54.5t11.5 86t-11.5 86t-34.5 54.5t-58 28.5t-82 8h-155v-354h155zM406 526q55 0 102.5 -16t82.5 -48.5t55 -82t20 -116.5t-20 -116.5t-55 -82t-82.5 -48.5t-102.5 -16h-332v18q23 0 23 18v454q0 18 -23 18v18h332zM1094 440h-272
q-30 0 -30 -28h-18v138h18q0 -24 30 -24h461v-28l-318 -406h272q28 0 28 22h18v-133h-18q0 19 -28 19h-466v28zM1083 600h-111l-108 144h93l70 -90l71 90h93z" />
    <glyph glyph-name="Dzcaron" unicode="&#x1c5;" horiz-adv-x="1278" 
d="M366 86q47 0 82 8t58 28.5t34.5 54.5t11.5 86t-11.5 86t-34.5 54.5t-58 28.5t-82 8h-155v-354h155zM406 526q55 0 102.5 -16t82.5 -48.5t55 -82t20 -116.5t-20 -116.5t-55 -82t-82.5 -48.5t-102.5 -16h-332v18q23 0 23 18v454q0 18 -23 18v18h332zM1051 366h-229
q-13 0 -19 -6t-6 -14h-18v117h18q0 -23 25 -23h398v-18l-279 -348h239q23 0 23 21h18v-105h-18q0 10 -23 10h-401v18zM1056 513h-111l-108 144h93l70 -90l71 90h93z" />
    <glyph glyph-name="dzcaron" unicode="&#x1c6;" horiz-adv-x="1167" 
d="M316 74q31 0 59 4.5t49 20t33.5 45t12.5 79.5t-12.5 78.5t-33.5 43t-49 18t-59 3.5h-130v-292h130zM67 18q23 0 23 15v374q0 15 -23 15v18h278q59 0 101 -19t68.5 -49.5t39 -70t12.5 -81.5t-12 -81.5t-38 -70t-67 -49.5t-100 -19h-282v18zM940 366h-229q-13 0 -19 -6
t-6 -14h-18v117h18q0 -23 25 -23h398v-18l-279 -348h239q23 0 23 21h18v-105h-18q0 10 -23 10h-401v18zM945 513h-111l-108 144h93l70 -90l71 90h93z" />
    <glyph glyph-name="LJ" unicode="&#x1c7;" horiz-adv-x="1111" 
d="M574 -19q0 15 -9.5 17t-24.5 2h-476v18q30 0 30 18v454q0 18 -30 18v18h172v-18q-28 0 -28 -18v-398h332q15 0 24.5 7t9.5 19h18v-137h-18zM647 146l16 -6q3 -16 15.5 -28t30.5 -20.5t39 -13t40 -4.5q60 0 87.5 17.5t27.5 65.5v321q0 14 -12 22t-23 8v18h190v-18
q-17 0 -29 -8t-12 -22v-330q0 -39 -16.5 -68t-46.5 -48t-71 -27t-91 -8q-31 0 -57 4t-46.5 9.5t-36 10.5t-25.5 5q-11 0 -18 -12l-15 10z" />
    <glyph glyph-name="Lj" unicode="&#x1c8;" horiz-adv-x="1055" 
d="M574 -19q0 15 -9.5 17t-24.5 2h-476v18q30 0 30 18v454q0 18 -30 18v18h172v-18q-28 0 -28 -18v-398h332q15 0 24.5 7t9.5 19h18v-137h-18zM654 135l14 -5q0 -7 0.5 -15.5t5.5 -14.5q7 -11 35.5 -21.5t65.5 -10.5q43 0 64.5 13.5t21.5 54.5v261q0 11 -9 18t-16 7v18h149
v-18q-10 0 -19 -7t-9 -18v-273q0 -36 -14 -61t-38.5 -40t-58 -20.5t-72.5 -5.5q-22 0 -43 3.5t-39 9t-32 10t-23 4.5q-8 0 -12 -3.5t-9 -8.5l-9 8z" />
    <glyph glyph-name="lj" unicode="&#x1c9;" horiz-adv-x="1000" 
d="M221 440v-18q-23 0 -23 -15v-333h270q12 0 20 5.5t8 15.5h18v-105h-18q0 8 -8 9t-20 1h-392v18q26 0 26 15v374q0 15 -26 15v18h145zM599 135l14 -5q0 -7 0.5 -15.5t5.5 -14.5q7 -11 35.5 -21.5t65.5 -10.5q43 0 64.5 13.5t21.5 54.5v261q0 11 -9 18t-16 7v18h149v-18
q-10 0 -19 -7t-9 -18v-273q0 -36 -14 -61t-38.5 -40t-58 -20.5t-72.5 -5.5q-22 0 -43 3.5t-39 9t-32 10t-23 4.5q-8 0 -12 -3.5t-9 -8.5l-9 8z" />
    <glyph glyph-name="NJ" unicode="&#x1ca;" horiz-adv-x="1278" 
d="M91 18q19 0 19 18v454q0 18 -19 18v18h171v-18q-8 0 -8 -10q0 -8 20 -28l287 -298v318q0 18 -26 18v18h151v-18q-19 0 -19 -18v-454q0 -18 19 -18v-18h-162v18q13 0 13 9q0 7 -16 23l-305 318v-332q0 -18 23 -18v-18h-148v18zM814 146l16 -6q3 -16 15.5 -28t30.5 -20.5
t39 -13t40 -4.5q60 0 87.5 17.5t27.5 65.5v321q0 14 -12 22t-23 8v18h190v-18q-17 0 -29 -8t-12 -22v-330q0 -39 -16.5 -68t-46.5 -48t-71 -27t-91 -8q-31 0 -57 4t-46.5 9.5t-36 10.5t-25.5 5q-11 0 -18 -12l-15 10z" />
    <glyph glyph-name="Nj" unicode="&#x1cb;" horiz-adv-x="1222" 
d="M91 18q19 0 19 18v454q0 18 -19 18v18h171v-18q-8 0 -8 -10q0 -8 20 -28l287 -298v318q0 18 -26 18v18h151v-18q-19 0 -19 -18v-454q0 -18 19 -18v-18h-162v18q13 0 13 9q0 7 -16 23l-305 318v-332q0 -18 23 -18v-18h-148v18zM821 135l14 -5q0 -7 0.5 -15.5t5.5 -14.5
q7 -11 35.5 -21.5t65.5 -10.5q43 0 64.5 13.5t21.5 54.5v261q0 11 -9 18t-16 7v18h149v-18q-10 0 -19 -7t-9 -18v-273q0 -36 -14 -61t-38.5 -40t-58 -20.5t-72.5 -5.5q-22 0 -43 3.5t-39 9t-32 10t-23 4.5q-8 0 -12 -3.5t-9 -8.5l-9 8z" />
    <glyph glyph-name="nj" unicode="&#x1cc;" horiz-adv-x="1111" 
d="M81 18q18 0 18 15v374q0 15 -18 15v18h147v-18q-7 -1 -7 -5q0 -5 22 -27l240 -254v271q0 15 -20 15v18h122v-18q-18 0 -18 -15v-374q0 -15 18 -15v-18h-130v18q7 0 7 5q0 4 -9.5 14t-21.5 23l-248 264v-291q0 -15 21 -15v-18h-123v18zM710 135l14 -5q0 -7 0.5 -15.5
t5.5 -14.5q7 -11 35.5 -21.5t65.5 -10.5q43 0 64.5 13.5t21.5 54.5v261q0 11 -9 18t-16 7v18h149v-18q-10 0 -19 -7t-9 -18v-273q0 -36 -14 -61t-38.5 -40t-58 -20.5t-72.5 -5.5q-22 0 -43 3.5t-39 9t-32 10t-23 4.5q-8 0 -12 -3.5t-9 -8.5l-9 8z" />
    <glyph glyph-name="Acaron" unicode="&#x1cd;" 
d="M398 204l-84 186l-94 -186h178zM21 18q13 2 20.5 13t14.5 25l185 389q7 13 12.5 24t5.5 19q0 10 -7 14t-15 6v18h169v-18q-7 -2 -14 -5.5t-7 -14.5q0 -8 3.5 -16t10.5 -21l208 -407q5 -11 13.5 -16t19.5 -10v-18h-176v18q4 0 10 3t6 9q0 10 -8 26l-38 74h-244l-36 -71
q-10 -21 -10 -30q0 -11 19 -11v-18h-142v18zM386 576h-111l-108 144h93l70 -90l71 90h93z" />
    <glyph glyph-name="acaron" unicode="&#x1ce;" horiz-adv-x="556" 
d="M349 184l-81 168l-71 -168h152zM15 18q12 2 19.5 11.5t11.5 17.5l149 325q6 14 9.5 22.5t3.5 16.5q0 6 -2.5 7.5t-5.5 3.5v18h151v-18q-3 -2 -6.5 -3t-3.5 -8q0 -6 4.5 -14.5t9.5 -19.5l162 -340q5 -9 11 -13t13 -6v-18h-142v15q5 0 10.5 3t5.5 11q0 6 -2 11t-5 13
l-27 57h-214l-28 -54q-4 -8 -6.5 -14.5t-2.5 -11.5q0 -8 5 -10t14 -2v-18h-134v18zM334 490h-111l-108 144h93l70 -90l71 90h93z" />
    <glyph glyph-name="Icaron" unicode="&#x1cf;" horiz-adv-x="333" 
d="M83 18q26 0 26 18v454q0 18 -26 18v18h166v-18q-26 0 -26 -18v-454q0 -18 26 -18v-18h-166v18zM222 576h-111l-108 144h93l70 -90l71 90h93z" />
    <glyph glyph-name="icaron" unicode="&#x1d0;" horiz-adv-x="333" 
d="M90 18q16 0 22 3.5t6 11.5v374q0 8 -6 11.5t-22 3.5v18h152v-18q-28 0 -28 -15v-374q0 -15 28 -15v-18h-152v18zM222 490h-111l-108 144h93l70 -90l71 90h93z" />
    <glyph glyph-name="Ocaron" unicode="&#x1d1;" horiz-adv-x="778" 
d="M389 440q-38 0 -76 -12t-68.5 -34.5t-49.5 -55.5t-19 -75t19 -75t49.5 -55.5t68.5 -34.5t76 -12t76 12t68.5 34.5t49.5 55.5t19 75t-19 75t-49.5 55.5t-68.5 34.5t-76 12zM389 532q55 0 112 -16.5t104 -49.5t77 -83.5t30 -119.5t-30 -119.5t-77 -83.5t-104 -48t-112 -15
t-112 15t-104 48t-77 83.5t-30 119.5t30 119.5t77 83.5t104 49.5t112 16.5zM445 582h-111l-108 144h93l70 -90l71 90h93z" />
    <glyph glyph-name="ocaron" unicode="&#x1d2;" horiz-adv-x="611" 
d="M305 372q-32 0 -62.5 -10.5t-54.5 -30t-38.5 -47.5t-14.5 -64t14.5 -64t38.5 -47.5t54.5 -30t62.5 -10.5t62.5 10.5t54.5 30t38.5 47.5t14.5 64t-14.5 64t-38.5 47.5t-54.5 30t-62.5 10.5zM305 446q55 0 103.5 -14t84.5 -42t57 -70.5t21 -99.5t-21 -99.5t-57 -70.5
t-84.5 -40.5t-103.5 -12.5t-103.5 12.5t-84.5 40.5t-57 70.5t-21 99.5t21 99.5t57 70.5t84.5 42t103.5 14zM361 496h-111l-108 144h93l70 -90l71 90h93z" />
    <glyph glyph-name="Ucaron" unicode="&#x1d3;" horiz-adv-x="722" 
d="M230 508q-22 0 -22 -18v-300q0 -63 40.5 -86.5t118.5 -23.5t118.5 23.5t40.5 86.5v300q0 18 -30 18v18h160v-18q-24 0 -24 -18v-295q0 -59 -17 -97.5t-51 -61.5t-84.5 -31t-116.5 -8t-116.5 8t-84.5 31t-51 61.5t-17 97.5v295q0 18 -28 18v18h164v-18zM418 551h-111
l-108 144h93l70 -90l71 90h93z" />
    <glyph glyph-name="ucaron" unicode="&#x1d4;" 
d="M217 422q-22 0 -22 -15v-229q0 -48 35 -77t107 -29t107 29t35 77v229q0 15 -25 15v18h139v-18q-22 0 -22 -15v-253q0 -31 -14 -59.5t-42.5 -50.5t-73 -34.5t-104.5 -12.5t-104.5 12.5t-73 34.5t-42.5 50.5t-14 59.5v253q0 8 -6 11.5t-23 3.5v18h143v-18zM389 490h-111
l-108 144h93l70 -90l71 90h93z" />
    <glyph glyph-name="Udieresismacron" unicode="&#x1d5;" horiz-adv-x="722" 
d="M230 508q-22 0 -22 -18v-300q0 -63 40.5 -86.5t118.5 -23.5t118.5 23.5t40.5 86.5v300q0 18 -30 18v18h160v-18q-24 0 -24 -18v-295q0 -59 -17 -97.5t-51 -61.5t-84.5 -31t-116.5 -8t-116.5 8t-84.5 31t-51 61.5t-17 97.5v295q0 18 -28 18v18h164v-18zM218 668h110v-110
h-110v110zM393 668h110v-110h-110v110zM198 787h327v-66h-327v66z" />
    <glyph glyph-name="udieresismacron" unicode="&#x1d6;" 
d="M217 422q-22 0 -22 -15v-229q0 -48 35 -77t107 -29t107 29t35 77v229q0 15 -25 15v18h139v-18q-22 0 -22 -15v-253q0 -31 -14 -59.5t-42.5 -50.5t-73 -34.5t-104.5 -12.5t-104.5 12.5t-73 34.5t-42.5 50.5t-14 59.5v253q0 8 -6 11.5t-23 3.5v18h143v-18zM191 600h110
v-110h-110v110zM366 600h110v-110h-110v110zM170 716h327v-66h-327v66z" />
    <glyph glyph-name="Udieresisacute" unicode="&#x1d7;" horiz-adv-x="722" 
d="M230 508q-22 0 -22 -18v-300q0 -63 40.5 -86.5t118.5 -23.5t118.5 23.5t40.5 86.5v300q0 18 -30 18v18h160v-18q-24 0 -24 -18v-295q0 -59 -17 -97.5t-51 -61.5t-84.5 -31t-116.5 -8t-116.5 8t-84.5 31t-51 61.5t-17 97.5v295q0 18 -28 18v18h164v-18zM219 667h110v-110
h-110v110zM394 667h110v-110h-110v110zM396 681h-84l91 144h135z" />
    <glyph glyph-name="udieresisacute" unicode="&#x1d8;" 
d="M217 422q-22 0 -22 -15v-229q0 -48 35 -77t107 -29t107 29t35 77v229q0 15 -25 15v18h139v-18q-22 0 -22 -15v-253q0 -31 -14 -59.5t-42.5 -50.5t-73 -34.5t-104.5 -12.5t-104.5 12.5t-73 34.5t-42.5 50.5t-14 59.5v253q0 8 -6 11.5t-23 3.5v18h143v-18zM191 600h110
v-110h-110v110zM366 600h110v-110h-110v110zM380 641h-84l91 144h135z" />
    <glyph glyph-name="Udieresiscaron" unicode="&#x1d9;" horiz-adv-x="722" 
d="M230 508q-22 0 -22 -18v-300q0 -63 40.5 -86.5t118.5 -23.5t118.5 23.5t40.5 86.5v300q0 18 -30 18v18h160v-18q-24 0 -24 -18v-295q0 -59 -17 -97.5t-51 -61.5t-84.5 -31t-116.5 -8t-116.5 8t-84.5 31t-51 61.5t-17 97.5v295q0 18 -28 18v18h164v-18zM219 647h110v-84
h-110v84zM395 647h110v-84h-110v84zM412 680h-111l-108 144h93l70 -90l71 90h93z" />
    <glyph glyph-name="udieresiscaron" unicode="&#x1da;" 
d="M217 422q-22 0 -22 -15v-229q0 -48 35 -77t107 -29t107 29t35 77v229q0 15 -25 15v18h139v-18q-22 0 -22 -15v-253q0 -31 -14 -59.5t-42.5 -50.5t-73 -34.5t-104.5 -12.5t-104.5 12.5t-73 34.5t-42.5 50.5t-14 59.5v253q0 8 -6 11.5t-23 3.5v18h143v-18zM191 577h110v-87
h-110v87zM367 577h110v-87h-110v87zM388 630h-111l-108 144h93l70 -90l71 90h93z" />
    <glyph glyph-name="Udieresisgrave" unicode="&#x1db;" horiz-adv-x="722" 
d="M230 508q-22 0 -22 -18v-300q0 -63 40.5 -86.5t118.5 -23.5t118.5 23.5t40.5 86.5v300q0 18 -30 18v18h160v-18q-24 0 -24 -18v-295q0 -59 -17 -97.5t-51 -61.5t-84.5 -31t-116.5 -8t-116.5 8t-84.5 31t-51 61.5t-17 97.5v295q0 18 -28 18v18h164v-18zM219 662h110v-86
h-110v86zM393 662h110v-86h-110v86zM412 690h-82l-144 144h136z" />
    <glyph glyph-name="udieresisgrave" unicode="&#x1dc;" 
d="M217 422q-22 0 -22 -15v-229q0 -48 35 -77t107 -29t107 29t35 77v229q0 15 -25 15v18h139v-18q-22 0 -22 -15v-253q0 -31 -14 -59.5t-42.5 -50.5t-73 -34.5t-104.5 -12.5t-104.5 12.5t-73 34.5t-42.5 50.5t-14 59.5v253q0 8 -6 11.5t-23 3.5v18h143v-18zM191 590h110
v-110h-110v110zM366 590h110v-110h-110v110zM384 628h-82l-144 144h136z" />
    <glyph glyph-name="Adieresismacron" unicode="&#x1de;" 
d="M398 204l-84 186l-94 -186h178zM21 18q13 2 20.5 13t14.5 25l185 389q7 13 12.5 24t5.5 19q0 10 -7 14t-15 6v18h169v-18q-7 -2 -14 -5.5t-7 -14.5q0 -8 3.5 -16t10.5 -21l208 -407q5 -11 13.5 -16t19.5 -10v-18h-176v18q4 0 10 3t6 9q0 10 -8 26l-38 74h-244l-36 -71
q-10 -21 -10 -30q0 -11 19 -11v-18h-142v18zM179 679h110v-110h-110v110zM354 679h110v-110h-110v110zM160 794h327v-66h-327v66z" />
    <glyph glyph-name="adieresismacron" unicode="&#x1df;" horiz-adv-x="556" 
d="M349 184l-81 168l-71 -168h152zM15 18q12 2 19.5 11.5t11.5 17.5l149 325q6 14 9.5 22.5t3.5 16.5q0 6 -2.5 7.5t-5.5 3.5v18h151v-18q-3 -2 -6.5 -3t-3.5 -8q0 -6 4.5 -14.5t9.5 -19.5l162 -340q5 -9 11 -13t13 -6v-18h-142v15q5 0 10.5 3t5.5 11q0 6 -2 11t-5 13
l-27 57h-214l-28 -54q-4 -8 -6.5 -14.5t-2.5 -11.5q0 -8 5 -10t14 -2v-18h-134v18zM136 575h110v-94h-110v94zM310 575h110v-94h-110v94zM116 693h327v-66h-327v66z" />
    <glyph glyph-name="Adotmacron" unicode="&#x1e0;" 
d="M398 204l-84 186l-94 -186h178zM21 18q13 2 20.5 13t14.5 25l185 389q7 13 12.5 24t5.5 19q0 10 -7 14t-15 6v18h169v-18q-7 -2 -14 -5.5t-7 -14.5q0 -8 3.5 -16t10.5 -21l208 -407q5 -11 13.5 -16t19.5 -10v-18h-176v18q4 0 10 3t6 9q0 10 -8 26l-38 74h-244l-36 -71
q-10 -21 -10 -30q0 -11 19 -11v-18h-142v18zM275 680h110v-110h-110v110zM164 785h327v-66h-327v66z" />
    <glyph glyph-name="adotmacron" unicode="&#x1e1;" horiz-adv-x="556" 
d="M349 184l-81 168l-71 -168h152zM15 18q12 2 19.5 11.5t11.5 17.5l149 325q6 14 9.5 22.5t3.5 16.5q0 6 -2.5 7.5t-5.5 3.5v18h151v-18q-3 -2 -6.5 -3t-3.5 -8q0 -6 4.5 -14.5t9.5 -19.5l162 -340q5 -9 11 -13t13 -6v-18h-142v15q5 0 10.5 3t5.5 11q0 6 -2 11t-5 13
l-27 57h-214l-28 -54q-4 -8 -6.5 -14.5t-2.5 -11.5q0 -8 5 -10t14 -2v-18h-134v18zM223 600h110v-110h-110v110zM115 716h327v-66h-327v66z" />
    <glyph glyph-name="AEmacron" unicode="&#x1e2;" horiz-adv-x="1000" 
d="M432 252v186q0 38 -10 38q-11 0 -19 -11t-16 -23l-130 -190h175zM-17 18q8 3 12.5 6t9.5 9.5t12 17l19 28.5l246 369q12 17 19 26.5t7 20.5q0 10 -8 11.5t-18 1.5v18h587q21 0 29.5 6.5t8.5 17.5h18v-138h-18q0 14 -8.5 21t-29.5 7h-323v-124h195q20 0 31 6.5t11 27.5h18
v-156h-18q0 23 -11 29.5t-31 6.5h-195v-138h333q15 0 24.5 7t9.5 19h18v-137h-18q0 15 -9.5 17t-24.5 2h-467v18q8 0 14 4.5t6 13.5v142h-219l-80 -113q-11 -14 -13 -20t-2 -12q0 -11 19 -15v-18h-154v18zM294 666h327v-66h-327v66z" />
    <glyph glyph-name="aemacron" unicode="&#x1e3;" horiz-adv-x="889" 
d="M422 380q0 20 -12 20q-8 0 -16 -9t-14 -17l-142 -184h184v190zM2 18q14 4 25 18.5t22 29.5l230 309q11 15 16 21t5 13q0 8 -6 10.5t-14 2.5v18h506q32 0 32 24h18v-119h-18q0 21 -32 21h-268v-100h181q19 0 19 15h18v-107h-18q0 18 -25 18h-175v-118h279q24 0 24 13h18
v-96h-18q0 8 -9 8.5t-22 0.5h-390v18q9 0 15.5 3.5t6.5 11.5v83h-237l-42 -58q-8 -11 -11.5 -17.5t-3.5 -10.5q0 -8 6 -10t13 -2v-18h-145v18zM257 580h327v-66h-327v66z" />
    <glyph glyph-name="Gcaron" unicode="&#x1e6;" horiz-adv-x="722" 
d="M565 364l-20 6q2 6 2 12q0 15 -18.5 27t-47 20.5t-62 12.5t-63.5 4q-37 0 -73.5 -10.5t-65 -32.5t-46 -57t-17.5 -85q0 -49 17.5 -84.5t46 -57.5t65 -32.5t73.5 -10.5q57 0 102.5 9.5t77.5 20.5v86h-128q-14 0 -21 -6t-9 -26h-18v128h18q2 -17 9 -21.5t21 -4.5h250v-18
q-20 -3 -25 -7t-5 -17v-113q0 -10 6 -13l14 -7v-16q-33 -23 -69.5 -38t-74 -23.5t-75 -10.5t-73.5 -2q-70 0 -127.5 17.5t-98.5 52t-63.5 84t-22.5 112.5t22.5 112.5t63.5 84.5t98.5 53.5t127.5 18.5q44 0 84 -6t71 -13.5t51.5 -14t25.5 -6.5q9 0 14 4t10 7l12 -7zM407 582
h-111l-108 144h93l70 -90l71 90h93z" />
    <glyph glyph-name="gcaron" unicode="&#x1e7;" horiz-adv-x="611" 
d="M471 295l-12 7q2 10 2 11q0 9 -13 19.5t-34 19.5t-47.5 14.5t-53.5 5.5q-37 0 -70 -8.5t-58 -27t-40 -47.5t-15 -71t16 -70.5t41.5 -46t56.5 -25.5t60 -8q43 0 81.5 6t70.5 23v63h-103q-11 0 -19 -4.5t-10 -16.5h-18v103h18q2 -10 10 -13t19 -3h196v-18q-9 -4 -12 -9
t-3 -15v-95q0 -9 2.5 -12.5t12.5 -7.5v-12q-9 -6 -28.5 -16.5t-49 -20.5t-68.5 -16.5t-87 -6.5q-65 0 -117.5 14.5t-89 43.5t-56 70.5t-19.5 94.5t19.5 94.5t56 71t89 45t117.5 15.5q39 0 69 -7t52 -15q23 -8 37 -15t21 -7q8 0 12 1.5t10 6.5l12 -6zM347 496h-111l-108 144
h93l70 -90l71 90h93z" />
    <glyph glyph-name="Kcaron" unicode="&#x1e8;" 
d="M209 36q0 -9 6 -13.5t14 -4.5v-18h-156v18q22 0 22 18v454q0 18 -22 18v18h156v-18q-8 0 -14 -4.5t-6 -13.5v-190l207 163q14 12 22 19.5t8 12.5q0 7 -4.5 10t-10.5 3v18h210v-18q-18 0 -36 -15l-230 -183l210 -243q13 -15 30.5 -29.5t34.5 -19.5v-18h-185v18q13 0 13 7
q0 5 -14 22l-171 197l-84 -65v-143zM391 576h-111l-108 144h93l70 -90l71 90h93z" />
    <glyph glyph-name="kcaron" unicode="&#x1e9;" horiz-adv-x="556" 
d="M186 33q0 -15 19 -15v-18h-131v18q16 0 16 15v374q0 15 -16 15v18h131v-18q-19 0 -19 -15v-163q34 28 70 56.5t65 52.5t48 40.5t19 20.5q0 5 -5.5 8t-10.5 3v15h165v-18q-12 -4 -36 -23l-167 -135l158 -196q12 -15 26 -30.5t28 -19.5v-18h-148v18q11 0 11 6q0 4 -4.5 11
t-17.5 22l-123 150l-78 -62v-112zM352 493h-111l-108 144h93l70 -90l71 90h93z" />
    <glyph glyph-name="Oogonek" unicode="&#x1ea;" horiz-adv-x="778" 
d="M389 440q-38 0 -76 -12t-68.5 -34.5t-49.5 -55.5t-19 -75t19 -75t49.5 -55.5t68.5 -34.5t76 -12t76 12t68.5 34.5t49.5 55.5t19 75t-19 75t-49.5 55.5t-68.5 34.5t-76 12zM389 532q55 0 112 -16.5t104 -49.5t77 -83.5t30 -119.5t-30 -119.5t-77 -83.5t-104 -48t-112 -15
t-112 15t-104 48t-77 83.5t-30 119.5t30 119.5t77 83.5t104 49.5t112 16.5zM472 8q-19 -7 -44.5 -16t-47.5 -24t-37.5 -34.5t-15.5 -44.5q0 -29 15 -40t40 -11q11 0 24 4t26.5 10.5t26 13.5t21.5 13l16 -32q-30 -21 -69.5 -40t-77.5 -19q-21 0 -39.5 5.5t-33 16t-23 27
t-8.5 39.5q0 39 24.5 64t60 41t74.5 24t68 14v-11z" />
    <glyph glyph-name="oogonek" unicode="&#x1eb;" horiz-adv-x="611" 
d="M305 372q-32 0 -62.5 -10.5t-54.5 -30t-38.5 -47.5t-14.5 -64t14.5 -64t38.5 -47.5t54.5 -30t62.5 -10.5t62.5 10.5t54.5 30t38.5 47.5t14.5 64t-14.5 64t-38.5 47.5t-54.5 30t-62.5 10.5zM305 446q55 0 103.5 -14t84.5 -42t57 -70.5t21 -99.5t-21 -99.5t-57 -70.5
t-84.5 -40.5t-103.5 -12.5t-103.5 12.5t-84.5 40.5t-57 70.5t-21 99.5t21 99.5t57 70.5t84.5 42t103.5 14zM384 8q-19 -7 -44.5 -16t-47.5 -24t-37.5 -34.5t-15.5 -44.5q0 -29 15 -40t40 -11q11 0 24 4t26.5 10.5t26 13.5t21.5 13l16 -32q-30 -21 -69.5 -40t-77.5 -19
q-21 0 -39.5 5.5t-33 16t-23 27t-8.5 39.5q0 39 24.5 64t60 41t74.5 24t68 14v-11z" />
    <glyph glyph-name="Oogonekmacron" unicode="&#x1ec;" horiz-adv-x="778" 
d="M389 440q-38 0 -76 -12t-68.5 -34.5t-49.5 -55.5t-19 -75t19 -75t49.5 -55.5t68.5 -34.5t76 -12t76 12t68.5 34.5t49.5 55.5t19 75t-19 75t-49.5 55.5t-68.5 34.5t-76 12zM389 532q55 0 112 -16.5t104 -49.5t77 -83.5t30 -119.5t-30 -119.5t-77 -83.5t-104 -48t-112 -15
t-112 15t-104 48t-77 83.5t-30 119.5t30 119.5t77 83.5t104 49.5t112 16.5zM478 13q-19 -7 -44.5 -16t-47.5 -24t-37.5 -34.5t-15.5 -44.5q0 -29 15 -40t40 -11q11 0 24 4t26.5 10.5t26 13.5t21.5 13l16 -32q-30 -21 -69.5 -40t-77.5 -19q-21 0 -39.5 5.5t-33 16t-23 27
t-8.5 39.5q0 39 24.5 64t60 41t74.5 24t68 14v-11zM226 648h327v-66h-327v66z" />
    <glyph glyph-name="oogonekmacron" unicode="&#x1ed;" horiz-adv-x="611" 
d="M305 372q-32 0 -62.5 -10.5t-54.5 -30t-38.5 -47.5t-14.5 -64t14.5 -64t38.5 -47.5t54.5 -30t62.5 -10.5t62.5 10.5t54.5 30t38.5 47.5t14.5 64t-14.5 64t-38.5 47.5t-54.5 30t-62.5 10.5zM305 446q55 0 103.5 -14t84.5 -42t57 -70.5t21 -99.5t-21 -99.5t-57 -70.5
t-84.5 -40.5t-103.5 -12.5t-103.5 12.5t-84.5 40.5t-57 70.5t-21 99.5t21 99.5t57 70.5t84.5 42t103.5 14zM387 8q-19 -7 -44.5 -16t-47.5 -24t-37.5 -34.5t-15.5 -44.5q0 -29 15 -40t40 -11q11 0 24 4t26.5 10.5t26 13.5t21.5 13l16 -32q-30 -21 -69.5 -40t-77.5 -19
q-21 0 -39.5 5.5t-33 16t-23 27t-8.5 39.5q0 39 24.5 64t60 41t74.5 24t68 14v-11zM142 562h327v-66h-327v66z" />
    <glyph glyph-name="DZ" unicode="&#x1f1;" horiz-adv-x="1333" 
d="M366 86q47 0 82 8t58 28.5t34.5 54.5t11.5 86t-11.5 86t-34.5 54.5t-58 28.5t-82 8h-155v-354h155zM406 526q55 0 102.5 -16t82.5 -48.5t55 -82t20 -116.5t-20 -116.5t-55 -82t-82.5 -48.5t-102.5 -16h-332v18q23 0 23 18v454q0 18 -23 18v18h332zM1094 440h-272
q-30 0 -30 -28h-18v138h18q0 -24 30 -24h461v-28l-318 -406h272q28 0 28 22h18v-133h-18q0 19 -28 19h-466v28z" />
    <glyph glyph-name="Dz" unicode="&#x1f2;" horiz-adv-x="1278" 
d="M366 86q47 0 82 8t58 28.5t34.5 54.5t11.5 86t-11.5 86t-34.5 54.5t-58 28.5t-82 8h-155v-354h155zM406 526q55 0 102.5 -16t82.5 -48.5t55 -82t20 -116.5t-20 -116.5t-55 -82t-82.5 -48.5t-102.5 -16h-332v18q23 0 23 18v454q0 18 -23 18v18h332zM1051 366h-229
q-13 0 -19 -6t-6 -14h-18v117h18q0 -23 25 -23h398v-18l-279 -348h239q23 0 23 21h18v-105h-18q0 10 -23 10h-401v18z" />
    <glyph glyph-name="dz" unicode="&#x1f3;" horiz-adv-x="1167" 
d="M316 74q31 0 59 4.5t49 20t33.5 45t12.5 79.5t-12.5 78.5t-33.5 43t-49 18t-59 3.5h-130v-292h130zM67 18q23 0 23 15v374q0 15 -23 15v18h278q59 0 101 -19t68.5 -49.5t39 -70t12.5 -81.5t-12 -81.5t-38 -70t-67 -49.5t-100 -19h-282v18zM940 366h-229q-13 0 -19 -6
t-6 -14h-18v117h18q0 -23 25 -23h398v-18l-279 -348h239q23 0 23 21h18v-105h-18q0 10 -23 10h-401v18z" />
    <glyph glyph-name="Gacute" unicode="&#x1f4;" horiz-adv-x="722" 
d="M565 364l-20 6q2 6 2 12q0 15 -18.5 27t-47 20.5t-62 12.5t-63.5 4q-37 0 -73.5 -10.5t-65 -32.5t-46 -57t-17.5 -85q0 -49 17.5 -84.5t46 -57.5t65 -32.5t73.5 -10.5q57 0 102.5 9.5t77.5 20.5v86h-128q-14 0 -21 -6t-9 -26h-18v128h18q2 -17 9 -21.5t21 -4.5h250v-18
q-20 -3 -25 -7t-5 -17v-113q0 -10 6 -13l14 -7v-16q-33 -23 -69.5 -38t-74 -23.5t-75 -10.5t-73.5 -2q-70 0 -127.5 17.5t-98.5 52t-63.5 84t-22.5 112.5t22.5 112.5t63.5 84.5t98.5 53.5t127.5 18.5q44 0 84 -6t71 -13.5t51.5 -14t25.5 -6.5q9 0 14 4t10 7l12 -7zM386 572
h-84l91 144h135z" />
    <glyph glyph-name="gacute" unicode="&#x1f5;" horiz-adv-x="611" 
d="M471 295l-12 7q2 10 2 11q0 9 -13 19.5t-34 19.5t-47.5 14.5t-53.5 5.5q-37 0 -70 -8.5t-58 -27t-40 -47.5t-15 -71t16 -70.5t41.5 -46t56.5 -25.5t60 -8q43 0 81.5 6t70.5 23v63h-103q-11 0 -19 -4.5t-10 -16.5h-18v103h18q2 -10 10 -13t19 -3h196v-18q-9 -4 -12 -9
t-3 -15v-95q0 -9 2.5 -12.5t12.5 -7.5v-12q-9 -6 -28.5 -16.5t-49 -20.5t-68.5 -16.5t-87 -6.5q-65 0 -117.5 14.5t-89 43.5t-56 70.5t-19.5 94.5t19.5 94.5t56 71t89 45t117.5 15.5q39 0 69 -7t52 -15q23 -8 37 -15t21 -7q8 0 12 1.5t10 6.5l12 -6zM320 495h-84l91 144h135
z" />
    <glyph glyph-name="Ngrave" unicode="&#x1f8;" horiz-adv-x="778" 
d="M91 18q19 0 19 18v454q0 18 -19 18v18h171v-18q-8 0 -8 -10q0 -8 20 -28l287 -298v318q0 18 -26 18v18h151v-18q-19 0 -19 -18v-454q0 -18 19 -18v-18h-162v18q13 0 13 9q0 7 -16 23l-305 318v-332q0 -18 23 -18v-18h-148v18zM468 575h-82l-144 144h136z" />
    <glyph glyph-name="ngrave" unicode="&#x1f9;" 
d="M81 18q18 0 18 15v374q0 15 -18 15v18h147v-18q-7 -1 -7 -5q0 -5 22 -27l240 -254v271q0 15 -20 15v18h122v-18q-18 0 -18 -15v-374q0 -15 18 -15v-18h-130v18q7 0 7 5q0 4 -9.5 14t-21.5 23l-248 264v-291q0 -15 21 -15v-18h-123v18zM402 486h-82l-144 144h136z" />
    <glyph glyph-name="Aringacute" unicode="&#x1fa;" 
d="M398 204l-84 186l-94 -186h178zM21 18q13 2 20.5 13t14.5 25l185 389q7 13 12.5 24t5.5 19q0 10 -7 14t-15 6v18h169v-18q-7 -2 -14 -5.5t-7 -14.5q0 -8 3.5 -16t10.5 -21l208 -407q5 -11 13.5 -16t19.5 -10v-18h-176v18q4 0 10 3t6 9q0 10 -8 26l-38 74h-244l-36 -71
q-10 -21 -10 -30q0 -11 19 -11v-18h-142v18zM334 716q-25 0 -42 -17t-17 -42t17 -42t42 -17t42 17t17 42t-17 42t-42 17zM334 760q22 0 40.5 -8t32.5 -22t22 -33t8 -40t-8 -40t-22 -33t-32.5 -22t-40.5 -8t-40.5 8t-32.5 22t-22 33t-8 40t8 40t22 33t32.5 22t40.5 8z
M530 608h-84l91 144h135z" />
    <glyph glyph-name="aringacute" unicode="&#x1fb;" horiz-adv-x="556" 
d="M349 184l-81 168l-71 -168h152zM15 18q12 2 19.5 11.5t11.5 17.5l149 325q6 14 9.5 22.5t3.5 16.5q0 6 -2.5 7.5t-5.5 3.5v18h151v-18q-3 -2 -6.5 -3t-3.5 -8q0 -6 4.5 -14.5t9.5 -19.5l162 -340q5 -9 11 -13t13 -6v-18h-142v15q5 0 10.5 3t5.5 11q0 6 -2 11t-5 13
l-27 57h-214l-28 -54q-4 -8 -6.5 -14.5t-2.5 -11.5q0 -8 5 -10t14 -2v-18h-134v18zM278 645q-25 0 -42 -17t-17 -42t17 -42t42 -17t42 17t17 42t-17 42t-42 17zM278 689q22 0 40.5 -8t32.5 -22t22 -33t8 -40t-8 -40t-22 -33t-32.5 -22t-40.5 -8t-40.5 8t-32.5 22t-22 33
t-8 40t8 40t22 33t32.5 22t40.5 8zM481 599h-84l91 144h135z" />
    <glyph glyph-name="AEacute" unicode="&#x1fc;" horiz-adv-x="1000" 
d="M432 252v186q0 38 -10 38q-11 0 -19 -11t-16 -23l-130 -190h175zM-17 18q8 3 12.5 6t9.5 9.5t12 17l19 28.5l246 369q12 17 19 26.5t7 20.5q0 10 -8 11.5t-18 1.5v18h587q21 0 29.5 6.5t8.5 17.5h18v-138h-18q0 14 -8.5 21t-29.5 7h-323v-124h195q20 0 31 6.5t11 27.5h18
v-156h-18q0 23 -11 29.5t-31 6.5h-195v-138h333q15 0 24.5 7t9.5 19h18v-137h-18q0 15 -9.5 17t-24.5 2h-467v18q8 0 14 4.5t6 13.5v142h-219l-80 -113q-11 -14 -13 -20t-2 -12q0 -11 19 -15v-18h-154v18zM514 577h-84l91 144h135z" />
    <glyph glyph-name="aeacute" unicode="&#x1fd;" horiz-adv-x="889" 
d="M422 380q0 20 -12 20q-8 0 -16 -9t-14 -17l-142 -184h184v190zM2 18q14 4 25 18.5t22 29.5l230 309q11 15 16 21t5 13q0 8 -6 10.5t-14 2.5v18h506q32 0 32 24h18v-119h-18q0 21 -32 21h-268v-100h181q19 0 19 15h18v-107h-18q0 18 -25 18h-175v-118h279q24 0 24 13h18
v-96h-18q0 8 -9 8.5t-22 0.5h-390v18q9 0 15.5 3.5t6.5 11.5v83h-237l-42 -58q-8 -11 -11.5 -17.5t-3.5 -10.5q0 -8 6 -10t13 -2v-18h-145v18zM468 489h-84l91 144h135z" />
    <glyph glyph-name="Oslashacute" unicode="&#x1fe;" horiz-adv-x="778" 
d="M193 48q-55 32 -91 85.5t-36 129.5q0 69 30 119.5t77 83.5t104 49.5t112 16.5q35 0 70 -6t69 -20l73 100h67l-89 -123q57 -32 95 -87t38 -133q0 -69 -30 -119.5t-77 -83.5t-104 -48t-112 -15q-36 0 -73.5 5.5t-72.5 20.5l-84 -112h-68zM301 103q43 -17 88 -17q38 0 76 12
t68.5 34.5t49.5 55.5t19 75q0 48 -23 82.5t-59 56.5zM469 426q-20 8 -40 11t-40 3q-38 0 -76 -12t-68.5 -34.5t-49.5 -55.5t-19 -75q0 -45 20.5 -78.5t54.5 -56.5zM414 596h-84l91 144h135z" />
    <glyph glyph-name="oslashacute" unicode="&#x1ff;" horiz-adv-x="611" 
d="M132 40q-42 27 -67.5 72t-25.5 108q0 57 21 99.5t57 70.5t84.5 42t103.5 14q64 0 116 -18l81 107h63l-97 -129q48 -27 75.5 -73.5t27.5 -112.5q0 -57 -21 -99.5t-57 -70.5t-84.5 -40.5t-103.5 -12.5q-35 0 -67 4t-61 16l-87 -113h-62zM228 85q37 -17 77 -17
q32 0 62.5 10.5t54.5 30t38.5 47.5t14.5 64q0 38 -16 67t-43 49zM371 360q-31 12 -66 12q-32 0 -62.5 -10.5t-54.5 -30t-38.5 -47.5t-14.5 -64q0 -34 13.5 -61.5t36.5 -47.5zM322 520h-84l91 144h135z" />
    <glyph glyph-name="Hcaron" unicode="&#x21e;" horiz-adv-x="778" 
d="M550 490q0 18 -22 18v18h154v-18q-7 0 -12.5 -4.5t-5.5 -13.5v-454q0 -9 5.5 -13.5t12.5 -4.5v-18h-154v18q22 0 22 18v188h-322v-188q0 -9 5.5 -13.5t12.5 -4.5v-18h-151v18q19 0 19 18v454q0 18 -19 18v18h151v-18q-7 0 -12.5 -4.5t-5.5 -13.5v-170h322v170zM446 560
h-111l-108 144h93l70 -90l71 90h93z" />
    <glyph glyph-name="hcaron" unicode="&#x21f;" 
d="M199 33q0 -8 4.5 -11.5t10.5 -3.5v-18h-126v18q6 0 10.5 3.5t4.5 11.5v374q0 8 -4.5 11.5t-10.5 3.5v18h126v-18q-6 0 -10.5 -3.5t-4.5 -11.5v-141h268v141q0 8 -4.5 11.5t-10.5 3.5v18h126v-18q-6 0 -10.5 -3.5t-4.5 -11.5v-374q0 -8 4.5 -11.5t10.5 -3.5v-18h-126v18
q6 0 10.5 3.5t4.5 11.5v151h-268v-151zM393 482h-111l-108 144h93l70 -90l71 90h93z" />
    <glyph glyph-name="Adotaccent" unicode="&#x226;" 
d="M398 204l-84 186l-94 -186h178zM21 18q13 2 20.5 13t14.5 25l185 389q7 13 12.5 24t5.5 19q0 10 -7 14t-15 6v18h169v-18q-7 -2 -14 -5.5t-7 -14.5q0 -8 3.5 -16t10.5 -21l208 -407q5 -11 13.5 -16t19.5 -10v-18h-176v18q4 0 10 3t6 9q0 10 -8 26l-38 74h-244l-36 -71
q-10 -21 -10 -30q0 -11 19 -11v-18h-142v18zM275 686h110v-110h-110v110z" />
    <glyph glyph-name="adotaccent" unicode="&#x227;" horiz-adv-x="556" 
d="M349 184l-81 168l-71 -168h152zM15 18q12 2 19.5 11.5t11.5 17.5l149 325q6 14 9.5 22.5t3.5 16.5q0 6 -2.5 7.5t-5.5 3.5v18h151v-18q-3 -2 -6.5 -3t-3.5 -8q0 -6 4.5 -14.5t9.5 -19.5l162 -340q5 -9 11 -13t13 -6v-18h-142v15q5 0 10.5 3t5.5 11q0 6 -2 11t-5 13
l-27 57h-214l-28 -54q-4 -8 -6.5 -14.5t-2.5 -11.5q0 -8 5 -10t14 -2v-18h-134v18zM223 600h110v-110h-110v110z" />
    <glyph glyph-name="Ecedilla" unicode="&#x228;" 
d="M580 418q0 11 -8.5 16.5t-29.5 5.5h-324v-124h196q20 0 31 5.5t11 28.5h18v-156h-18q0 23 -11 29.5t-31 6.5h-196v-138h334q15 0 24.5 7t9.5 19h18v-137h-18q0 15 -9.5 17t-24.5 2h-466v18q7 0 12.5 4.5t5.5 13.5v454q0 9 -5.5 13.5t-12.5 4.5v18h456q21 0 29.5 6.5
t8.5 17.5h18v-132h-18zM254 -154q15 -6 31.5 -11t33.5 -5q22 0 41 7t19 33q0 19 -12 27.5t-29 8.5q-11 0 -22.5 -1.5t-20.5 -5.5l-22 19l66 85h49l-44 -55l2 -2q9 4 24 4q17 0 33.5 -5t29 -14.5t20.5 -23.5t8 -33q0 -27 -11.5 -45t-29.5 -29t-41 -15.5t-46 -4.5q-22 0 -50 8
t-47 18z" />
    <glyph glyph-name="ecedilla" unicode="&#x229;" horiz-adv-x="556" 
d="M468 347q0 19 -31 19h-244v-100h154q17 0 25 2.5t8 13.5h18v-106h-20q3 11 -8 13.5t-31 2.5h-146v-118h256q12 0 20 5.5t8 14.5h18v-105h-18q0 9 -8 10t-20 1h-367v18q5 0 10 3.5t5 11.5v374q0 8 -5 11.5t-10 3.5v18h355q31 0 31 18h18v-111h-18zM198 -152
q15 -6 31.5 -11t33.5 -5q22 0 41 7t19 33q0 19 -12 27.5t-29 8.5q-11 0 -22.5 -1.5t-20.5 -5.5l-22 19l66 85h49l-44 -55l2 -2q9 4 24 4q17 0 33.5 -5t29 -14.5t20.5 -23.5t8 -33q0 -27 -11.5 -45t-29.5 -29t-41 -15.5t-46 -4.5q-22 0 -50 8t-47 18z" />
    <glyph glyph-name="Odieresismacron" unicode="&#x22a;" horiz-adv-x="778" 
d="M389 440q-38 0 -76 -12t-68.5 -34.5t-49.5 -55.5t-19 -75t19 -75t49.5 -55.5t68.5 -34.5t76 -12t76 12t68.5 34.5t49.5 55.5t19 75t-19 75t-49.5 55.5t-68.5 34.5t-76 12zM389 532q55 0 112 -16.5t104 -49.5t77 -83.5t30 -119.5t-30 -119.5t-77 -83.5t-104 -48t-112 -15
t-112 15t-104 48t-77 83.5t-30 119.5t30 119.5t77 83.5t104 49.5t112 16.5zM247 692h110v-110h-110v110zM422 692h110v-110h-110v110zM226 801h327v-66h-327v66z" />
    <glyph glyph-name="odieresismacron" unicode="&#x22b;" horiz-adv-x="611" 
d="M305 372q-32 0 -62.5 -10.5t-54.5 -30t-38.5 -47.5t-14.5 -64t14.5 -64t38.5 -47.5t54.5 -30t62.5 -10.5t62.5 10.5t54.5 30t38.5 47.5t14.5 64t-14.5 64t-38.5 47.5t-54.5 30t-62.5 10.5zM305 446q55 0 103.5 -14t84.5 -42t57 -70.5t21 -99.5t-21 -99.5t-57 -70.5
t-84.5 -40.5t-103.5 -12.5t-103.5 12.5t-84.5 40.5t-57 70.5t-21 99.5t21 99.5t57 70.5t84.5 42t103.5 14zM163 606h110v-110h-110v110zM338 606h110v-110h-110v110zM142 722h327v-66h-327v66z" />
    <glyph glyph-name="Otildemacron" unicode="&#x22c;" horiz-adv-x="778" 
d="M389 440q-38 0 -76 -12t-68.5 -34.5t-49.5 -55.5t-19 -75t19 -75t49.5 -55.5t68.5 -34.5t76 -12t76 12t68.5 34.5t49.5 55.5t19 75t-19 75t-49.5 55.5t-68.5 34.5t-76 12zM389 532q55 0 112 -16.5t104 -49.5t77 -83.5t30 -119.5t-30 -119.5t-77 -83.5t-104 -48t-112 -15
t-112 15t-104 48t-77 83.5t-30 119.5t30 119.5t77 83.5t104 49.5t112 16.5zM565 704q-5 -23 -13 -44t-21 -37t-32 -25.5t-46 -9.5q-15 0 -34 6t-38.5 13t-38 13t-32.5 6q-20 0 -29 -14t-14 -30h-53q8 47 29 79t73 38q16 2 35 -4t38.5 -13.5t38.5 -14.5t34 -7q19 0 30.5 13.5
t15.5 30.5h57zM226 820h327v-66h-327v66z" />
    <glyph glyph-name="otildemacron" unicode="&#x22d;" horiz-adv-x="611" 
d="M305 372q-32 0 -62.5 -10.5t-54.5 -30t-38.5 -47.5t-14.5 -64t14.5 -64t38.5 -47.5t54.5 -30t62.5 -10.5t62.5 10.5t54.5 30t38.5 47.5t14.5 64t-14.5 64t-38.5 47.5t-54.5 30t-62.5 10.5zM305 446q55 0 103.5 -14t84.5 -42t57 -70.5t21 -99.5t-21 -99.5t-57 -70.5
t-84.5 -40.5t-103.5 -12.5t-103.5 12.5t-84.5 40.5t-57 70.5t-21 99.5t21 99.5t57 70.5t84.5 42t103.5 14zM481 618q-5 -23 -13 -44t-21 -37t-32 -25.5t-46 -9.5q-15 0 -34 6t-38.5 13t-38 13t-32.5 6q-20 0 -29 -14t-14 -30h-53q8 47 29 79t73 38q16 2 35 -4t38.5 -13.5
t38.5 -14.5t34 -7q19 0 30.5 13.5t15.5 30.5h57zM142 734h327v-66h-327v66z" />
    <glyph glyph-name="Odotaccent" unicode="&#x22e;" horiz-adv-x="778" 
d="M389 440q-38 0 -76 -12t-68.5 -34.5t-49.5 -55.5t-19 -75t19 -75t49.5 -55.5t68.5 -34.5t76 -12t76 12t68.5 34.5t49.5 55.5t19 75t-19 75t-49.5 55.5t-68.5 34.5t-76 12zM389 532q55 0 112 -16.5t104 -49.5t77 -83.5t30 -119.5t-30 -119.5t-77 -83.5t-104 -48t-112 -15
t-112 15t-104 48t-77 83.5t-30 119.5t30 119.5t77 83.5t104 49.5t112 16.5zM334 692h110v-110h-110v110z" />
    <glyph glyph-name="odotaccent" unicode="&#x22f;" horiz-adv-x="611" 
d="M305 372q-32 0 -62.5 -10.5t-54.5 -30t-38.5 -47.5t-14.5 -64t14.5 -64t38.5 -47.5t54.5 -30t62.5 -10.5t62.5 10.5t54.5 30t38.5 47.5t14.5 64t-14.5 64t-38.5 47.5t-54.5 30t-62.5 10.5zM305 446q55 0 103.5 -14t84.5 -42t57 -70.5t21 -99.5t-21 -99.5t-57 -70.5
t-84.5 -40.5t-103.5 -12.5t-103.5 12.5t-84.5 40.5t-57 70.5t-21 99.5t21 99.5t57 70.5t84.5 42t103.5 14zM250 606h110v-110h-110v110z" />
    <glyph glyph-name="Odotaccentmacron" unicode="&#x230;" horiz-adv-x="778" 
d="M389 440q-38 0 -76 -12t-68.5 -34.5t-49.5 -55.5t-19 -75t19 -75t49.5 -55.5t68.5 -34.5t76 -12t76 12t68.5 34.5t49.5 55.5t19 75t-19 75t-49.5 55.5t-68.5 34.5t-76 12zM389 532q55 0 112 -16.5t104 -49.5t77 -83.5t30 -119.5t-30 -119.5t-77 -83.5t-104 -48t-112 -15
t-112 15t-104 48t-77 83.5t-30 119.5t30 119.5t77 83.5t104 49.5t112 16.5zM334 692h110v-110h-110v110zM226 808h327v-66h-327v66z" />
    <glyph glyph-name="odotaccentmacron" unicode="&#x231;" horiz-adv-x="611" 
d="M305 372q-32 0 -62.5 -10.5t-54.5 -30t-38.5 -47.5t-14.5 -64t14.5 -64t38.5 -47.5t54.5 -30t62.5 -10.5t62.5 10.5t54.5 30t38.5 47.5t14.5 64t-14.5 64t-38.5 47.5t-54.5 30t-62.5 10.5zM305 446q55 0 103.5 -14t84.5 -42t57 -70.5t21 -99.5t-21 -99.5t-57 -70.5
t-84.5 -40.5t-103.5 -12.5t-103.5 12.5t-84.5 40.5t-57 70.5t-21 99.5t21 99.5t57 70.5t84.5 42t103.5 14zM250 606h110v-110h-110v110zM142 722h327v-66h-327v66z" />
    <glyph glyph-name="Ymacron" unicode="&#x232;" horiz-adv-x="611" 
d="M219 526v-18q-9 0 -17 -2.5t-8 -12.5q0 -6 14.5 -28.5t34 -51t40.5 -58.5t34 -51l117 161q8 12 13 19t5 13q0 7 -9.5 9t-17.5 2v18h175v-18q-8 0 -15 -1.5t-14.5 -7t-16 -16t-20.5 -28.5l-170 -241v-178q0 -18 23 -18v-18h-158v18q9 0 15 4.5t6 13.5v178l-193 270
q-7 10 -21.5 17t-24.5 7v18h208zM142 642h327v-66h-327v66z" />
    <glyph glyph-name="ymacron" unicode="&#x233;" horiz-adv-x="556" 
d="M60 405q-7 9 -17 13t-19 4v18h165v-18q-5 0 -11 -3.5t-6 -9.5t4 -11t9 -12l101 -132l89 124l13.5 19.5t4.5 12.5q0 8 -5 10t-10 2v18h153v-18q-12 0 -26.5 -13.5t-25.5 -27.5l-153 -198v-150q0 -15 19 -15v-18h-133v18q18 0 18 15v154zM114 556h327v-66h-327v66z" />
    <glyph glyph-name="commaturnedmod" unicode="&#x2bb;" horiz-adv-x="278" 
d="M232 518q-15 -4 -33.5 -15.5t-34.5 -27t-26 -33.5t-8 -36q2 -7 11 -8t17 -1q25 0 43.5 -16.5t18.5 -46.5q0 -29 -20.5 -50t-46.5 -21q-40 0 -60.5 29t-20.5 71q0 33 13.5 63.5t35.5 55.5t51 43t60 25v-32z" />
    <glyph glyph-name="afii57929" unicode="&#x2bc;" horiz-adv-x="278" 
d="M46 287q15 4 34 15.5t34.5 27t25.5 33.5t8 36q-2 7 -11 8t-17 1q-25 0 -43.5 16.5t-18.5 46.5q0 29 20.5 50t46.5 21q40 0 60.5 -29t20.5 -71q0 -33 -13.5 -63.5t-35.5 -55.5t-51 -43t-60 -25v32z" />
    <glyph glyph-name="uni02EE" unicode="&#x2ee;" horiz-adv-x="500" 
d="M283 287q15 4 34 15.5t34.5 27t25.5 33.5t8 36q-2 7 -11 8t-17 1q-25 0 -43.5 16.5t-18.5 46.5q0 29 20.5 50t46.5 21q40 0 60.5 -29t20.5 -71q0 -33 -13.5 -63.5t-35.5 -55.5t-51 -43t-60 -25v32zM42 287q15 4 34 15.5t34.5 27t25.5 33.5t8 36q-2 7 -11 8t-17 1
q-25 0 -43.5 16.5t-18.5 46.5q0 29 20.5 50t46.5 21q40 0 60.5 -29t20.5 -71q0 -33 -13.5 -63.5t-35.5 -55.5t-51 -43t-60 -25v32z" />
    <glyph glyph-name="palochkacyrillic" unicode="&#x4c0;" horiz-adv-x="333" 
d="M83 18q26 0 26 18v454q0 18 -26 18v18h166v-18q-26 0 -26 -18v-454q0 -18 26 -18v-18h-166v18z" />
    <glyph glyph-name="Aringbelow" unicode="&#x1e00;" 
d="M398 204l-84 186l-94 -186h178zM21 18q13 2 20.5 13t14.5 25l185 389q7 13 12.5 24t5.5 19q0 10 -7 14t-15 6v18h169v-18q-7 -2 -14 -5.5t-7 -14.5q0 -8 3.5 -16t10.5 -21l208 -407q5 -11 13.5 -16t19.5 -10v-18h-176v18q4 0 10 3t6 9q0 10 -8 26l-38 74h-244l-36 -71
q-10 -21 -10 -30q0 -11 19 -11v-18h-142v18zM325 -70q-25 0 -42 -17t-17 -42t17 -42t42 -17t42 17t17 42t-17 42t-42 17zM325 -26q22 0 40.5 -8t32.5 -22t22 -33t8 -40t-8 -40t-22 -33t-32.5 -22t-40.5 -8t-40.5 8t-32.5 22t-22 33t-8 40t8 40t22 33t32.5 22t40.5 8z" />
    <glyph glyph-name="aringbelow" unicode="&#x1e01;" horiz-adv-x="556" 
d="M349 184l-81 168l-71 -168h152zM15 18q12 2 19.5 11.5t11.5 17.5l149 325q6 14 9.5 22.5t3.5 16.5q0 6 -2.5 7.5t-5.5 3.5v18h151v-18q-3 -2 -6.5 -3t-3.5 -8q0 -6 4.5 -14.5t9.5 -19.5l162 -340q5 -9 11 -13t13 -6v-18h-142v15q5 0 10.5 3t5.5 11q0 6 -2 11t-5 13
l-27 57h-214l-28 -54q-4 -8 -6.5 -14.5t-2.5 -11.5q0 -8 5 -10t14 -2v-18h-134v18zM277 -66q-25 0 -42 -17t-17 -42t17 -42t42 -17t42 17t17 42t-17 42t-42 17zM277 -22q22 0 40.5 -8t32.5 -22t22 -33t8 -40t-8 -40t-22 -33t-32.5 -22t-40.5 -8t-40.5 8t-32.5 22t-22 33
t-8 40t8 40t22 33t32.5 22t40.5 8z" />
    <glyph glyph-name="Bdotaccent" unicode="&#x1e02;" horiz-adv-x="722" 
d="M416 320q45 0 74.5 11.5t29.5 48.5t-29.5 48.5t-74.5 11.5h-191v-120h191zM416 92q63 0 90.5 19.5t27.5 51.5t-27.5 51.5t-90.5 19.5h-191v-142h191zM396 526q46 0 89 -7.5t76 -24t53 -43t20 -65.5q0 -47 -29 -72.5t-69 -39.5v-2q47 -14 79.5 -44.5t32.5 -87.5
q0 -30 -13 -55.5t-38.5 -44.5t-62.5 -29.5t-84 -10.5h-367v18q28 0 28 18v454q0 18 -28 18v18h313zM310 686h110v-110h-110v110z" />
    <glyph glyph-name="bdotaccent" unicode="&#x1e03;" horiz-adv-x="611" 
d="M367 266q24 0 45 10t21 41q0 16 -6 25.5t-15 15t-21 7t-24 1.5h-178v-100h178zM365 74q46 0 63 15t17 42q0 31 -22 46t-74 15h-160v-118h176zM93 407q0 8 -7.5 11.5t-15.5 3.5v18h311q38 0 65.5 -9t46 -24.5t27.5 -35.5t9 -42q0 -18 -6 -33.5t-15.5 -28t-21 -22.5
t-23.5 -16v-1q14 -6 28 -16t25 -24t18 -32t7 -39q0 -24 -9 -45t-28.5 -37t-51 -25.5t-75.5 -9.5h-307v18q8 0 15.5 3.5t7.5 11.5v374zM250 600h110v-110h-110v110z" />
    <glyph glyph-name="Bdotbelow" unicode="&#x1e04;" horiz-adv-x="722" 
d="M416 320q45 0 74.5 11.5t29.5 48.5t-29.5 48.5t-74.5 11.5h-191v-120h191zM416 92q63 0 90.5 19.5t27.5 51.5t-27.5 51.5t-90.5 19.5h-191v-142h191zM396 526q46 0 89 -7.5t76 -24t53 -43t20 -65.5q0 -47 -29 -72.5t-69 -39.5v-2q47 -14 79.5 -44.5t32.5 -87.5
q0 -30 -13 -55.5t-38.5 -44.5t-62.5 -29.5t-84 -10.5h-367v18q28 0 28 18v454q0 18 -28 18v18h313zM310 -50h110v-110h-110v110z" />
    <glyph glyph-name="bdotbelow" unicode="&#x1e05;" horiz-adv-x="611" 
d="M367 266q24 0 45 10t21 41q0 16 -6 25.5t-15 15t-21 7t-24 1.5h-178v-100h178zM365 74q46 0 63 15t17 42q0 31 -22 46t-74 15h-160v-118h176zM93 407q0 8 -7.5 11.5t-15.5 3.5v18h311q38 0 65.5 -9t46 -24.5t27.5 -35.5t9 -42q0 -18 -6 -33.5t-15.5 -28t-21 -22.5
t-23.5 -16v-1q14 -6 28 -16t25 -24t18 -32t7 -39q0 -24 -9 -45t-28.5 -37t-51 -25.5t-75.5 -9.5h-307v18q8 0 15.5 3.5t7.5 11.5v374zM250 -50h110v-110h-110v110z" />
    <glyph glyph-name="Blinebelow" unicode="&#x1e06;" horiz-adv-x="722" 
d="M416 320q45 0 74.5 11.5t29.5 48.5t-29.5 48.5t-74.5 11.5h-191v-120h191zM416 92q63 0 90.5 19.5t27.5 51.5t-27.5 51.5t-90.5 19.5h-191v-142h191zM396 526q46 0 89 -7.5t76 -24t53 -43t20 -65.5q0 -47 -29 -72.5t-69 -39.5v-2q47 -14 79.5 -44.5t32.5 -87.5
q0 -30 -13 -55.5t-38.5 -44.5t-62.5 -29.5t-84 -10.5h-367v18q28 0 28 18v454q0 18 -28 18v18h313zM202 -50h327v-66h-327v66z" />
    <glyph glyph-name="blinebelow" unicode="&#x1e07;" horiz-adv-x="611" 
d="M367 266q24 0 45 10t21 41q0 16 -6 25.5t-15 15t-21 7t-24 1.5h-178v-100h178zM365 74q46 0 63 15t17 42q0 31 -22 46t-74 15h-160v-118h176zM93 407q0 8 -7.5 11.5t-15.5 3.5v18h311q38 0 65.5 -9t46 -24.5t27.5 -35.5t9 -42q0 -18 -6 -33.5t-15.5 -28t-21 -22.5
t-23.5 -16v-1q14 -6 28 -16t25 -24t18 -32t7 -39q0 -24 -9 -45t-28.5 -37t-51 -25.5t-75.5 -9.5h-307v18q8 0 15.5 3.5t7.5 11.5v374zM142 -50h327v-66h-327v66z" />
    <glyph glyph-name="Ccedillaacute" unicode="&#x1e08;" horiz-adv-x="722" 
d="M641 72q-3 0 -5.5 0.5t-5.5 0.5q-5 0 -24.5 -10.5t-49.5 -24t-68 -25.5t-81 -13l-41 -55l2 -2q9 4 24 4q17 0 33.5 -5t29 -14.5t20.5 -23.5t8 -33q0 -27 -11.5 -45t-29.5 -29t-41 -15.5t-46 -4.5q-22 0 -50 8t-47 18l18 40q15 -6 31.5 -11t33.5 -5q22 0 41 7t19 33
q0 19 -12 27.5t-29 8.5q-11 0 -22.5 -1.5t-20.5 -5.5l-22 19l62 83q-61 2 -116 19t-96.5 50.5t-66 82.5t-24.5 113q0 66 26 116.5t70.5 84.5t102.5 51t121 17q51 0 92.5 -8t72.5 -17t49 -17t22 -8q5 0 8.5 5t5.5 8l15 -12l-78 -121l-10 7q0 3 -0.5 6t-1.5 7q-2 11 -20 22.5
t-44.5 20.5t-56 15t-54.5 6q-42 0 -80.5 -12t-67 -35t-45.5 -56.5t-17 -76.5t17 -76.5t45.5 -56.5t67 -35t80.5 -12q32 0 67 7.5t64 19t48.5 26t19.5 27.5q0 7 -4 12l14 8l66 -106zM393 573h-84l91 144h135z" />
    <glyph glyph-name="ccedillaacute" unicode="&#x1e09;" horiz-adv-x="556" 
d="M429 314q0 2 -0.5 4t-0.5 5q0 5 -10 13.5t-28.5 16.5t-43.5 13.5t-55 5.5q-36 0 -65.5 -9.5t-51.5 -28.5t-34 -47t-12 -64t13.5 -64.5t35.5 -49t50 -31t57 -10.5q27 0 55 7t51 16.5t37.5 20.5t14.5 20v8q0 6 -1 10l11 10l74 -106l-10 -5q-12 5 -17 5q-7 0 -22 -7.5
t-37 -17.5t-51 -19t-65 -10l-41 -55l2 -2q9 4 24 4q17 0 33.5 -5t29 -14.5t20.5 -23.5t8 -33q0 -27 -11.5 -45t-29.5 -29t-41 -15.5t-46 -4.5q-22 0 -50 8t-47 18l18 40q15 -6 31.5 -11t33.5 -5q22 0 41 7t19 33q0 19 -12 27.5t-29 8.5q-11 0 -22.5 -1.5t-20.5 -5.5l-22 19
l62 83q-45 1 -88.5 14.5t-77.5 41.5t-55 70t-21 97q0 56 22 98t58 70.5t82.5 42.5t95.5 14q38 0 69.5 -7t55.5 -16t40 -16t23 -7q5 0 8.5 3t7.5 5l12 -7l-66 -95zM302 493h-84l91 144h135z" />
    <glyph glyph-name="Ddotaccent" unicode="&#x1e0a;" horiz-adv-x="722" 
d="M366 86q47 0 82 8t58 28.5t34.5 54.5t11.5 86t-11.5 86t-34.5 54.5t-58 28.5t-82 8h-155v-354h155zM406 526q55 0 102.5 -16t82.5 -48.5t55 -82t20 -116.5t-20 -116.5t-55 -82t-82.5 -48.5t-102.5 -16h-332v18q23 0 23 18v454q0 18 -23 18v18h332zM315 686h110v-110h-110
v110z" />
    <glyph glyph-name="ddotaccent" unicode="&#x1e0b;" horiz-adv-x="611" 
d="M316 74q31 0 59 4.5t49 20t33.5 45t12.5 79.5t-12.5 78.5t-33.5 43t-49 18t-59 3.5h-130v-292h130zM67 18q23 0 23 15v374q0 15 -23 15v18h278q59 0 101 -19t68.5 -49.5t39 -70t12.5 -81.5t-12 -81.5t-38 -70t-67 -49.5t-100 -19h-282v18zM261 600h110v-110h-110v110z
" />
    <glyph glyph-name="Ddotbelow" unicode="&#x1e0c;" horiz-adv-x="722" 
d="M366 86q47 0 82 8t58 28.5t34.5 54.5t11.5 86t-11.5 86t-34.5 54.5t-58 28.5t-82 8h-155v-354h155zM406 526q55 0 102.5 -16t82.5 -48.5t55 -82t20 -116.5t-20 -116.5t-55 -82t-82.5 -48.5t-102.5 -16h-332v18q23 0 23 18v454q0 18 -23 18v18h332zM315 -50h110v-110h-110
v110z" />
    <glyph glyph-name="ddotbelow" unicode="&#x1e0d;" horiz-adv-x="611" 
d="M316 74q31 0 59 4.5t49 20t33.5 45t12.5 79.5t-12.5 78.5t-33.5 43t-49 18t-59 3.5h-130v-292h130zM67 18q23 0 23 15v374q0 15 -23 15v18h278q59 0 101 -19t68.5 -49.5t39 -70t12.5 -81.5t-12 -81.5t-38 -70t-67 -49.5t-100 -19h-282v18zM261 -50h110v-110h-110v110z
" />
    <glyph glyph-name="Dlinebelow" unicode="&#x1e0e;" horiz-adv-x="722" 
d="M366 86q47 0 82 8t58 28.5t34.5 54.5t11.5 86t-11.5 86t-34.5 54.5t-58 28.5t-82 8h-155v-354h155zM406 526q55 0 102.5 -16t82.5 -48.5t55 -82t20 -116.5t-20 -116.5t-55 -82t-82.5 -48.5t-102.5 -16h-332v18q23 0 23 18v454q0 18 -23 18v18h332zM207 -50h327v-66h-327
v66z" />
    <glyph glyph-name="dlinebelow" unicode="&#x1e0f;" horiz-adv-x="611" 
d="M316 74q31 0 59 4.5t49 20t33.5 45t12.5 79.5t-12.5 78.5t-33.5 43t-49 18t-59 3.5h-130v-292h130zM67 18q23 0 23 15v374q0 15 -23 15v18h278q59 0 101 -19t68.5 -49.5t39 -70t12.5 -81.5t-12 -81.5t-38 -70t-67 -49.5t-100 -19h-282v18zM153 -50h327v-66h-327v66z" />
    <glyph glyph-name="Dcircumflexbelow" unicode="&#x1e12;" horiz-adv-x="722" 
d="M366 86q47 0 82 8t58 28.5t34.5 54.5t11.5 86t-11.5 86t-34.5 54.5t-58 28.5t-82 8h-155v-354h155zM406 526q55 0 102.5 -16t82.5 -48.5t55 -82t20 -116.5t-20 -116.5t-55 -82t-82.5 -48.5t-102.5 -16h-332v18q23 0 23 18v454q0 18 -23 18v18h332zM207 -194l108 144h111
l108 -144h-93l-70 90l-71 -90h-93z" />
    <glyph glyph-name="dcircumflexbelow" unicode="&#x1e13;" horiz-adv-x="611" 
d="M316 74q31 0 59 4.5t49 20t33.5 45t12.5 79.5t-12.5 78.5t-33.5 43t-49 18t-59 3.5h-130v-292h130zM67 18q23 0 23 15v374q0 15 -23 15v18h278q59 0 101 -19t68.5 -49.5t39 -70t12.5 -81.5t-12 -81.5t-38 -70t-67 -49.5t-100 -19h-282v18zM153 -194l108 144h111l108 -144
h-93l-70 90l-71 -90h-93z" />
    <glyph glyph-name="Emacrongrave" unicode="&#x1e14;" 
d="M580 418q0 11 -8.5 16.5t-29.5 5.5h-324v-124h196q20 0 31 5.5t11 28.5h18v-156h-18q0 23 -11 29.5t-31 6.5h-196v-138h334q15 0 24.5 7t9.5 19h18v-137h-18q0 15 -9.5 17t-24.5 2h-466v18q7 0 12.5 4.5t5.5 13.5v454q0 9 -5.5 13.5t-12.5 4.5v18h456q21 0 29.5 6.5
t8.5 17.5h18v-132h-18zM183 651h327v-66h-327v66zM407 692h-82l-144 144h136z" />
    <glyph glyph-name="emacrongrave" unicode="&#x1e15;" horiz-adv-x="556" 
d="M468 347q0 19 -31 19h-244v-100h154q17 0 25 2.5t8 13.5h18v-106h-20q3 11 -8 13.5t-31 2.5h-146v-118h256q12 0 20 5.5t8 14.5h18v-105h-18q0 9 -8 10t-20 1h-367v18q5 0 10 3.5t5 11.5v374q0 8 -5 11.5t-10 3.5v18h355q31 0 31 18h18v-111h-18zM131 561h327v-66h-327
v66zM355 609h-82l-144 144h136z" />
    <glyph glyph-name="Emacronacute" unicode="&#x1e16;" 
d="M580 418q0 11 -8.5 16.5t-29.5 5.5h-324v-124h196q20 0 31 5.5t11 28.5h18v-156h-18q0 23 -11 29.5t-31 6.5h-196v-138h334q15 0 24.5 7t9.5 19h18v-137h-18q0 15 -9.5 17t-24.5 2h-466v18q7 0 12.5 4.5t5.5 13.5v454q0 9 -5.5 13.5t-12.5 4.5v18h456q21 0 29.5 6.5
t8.5 17.5h18v-132h-18zM173 640h327v-66h-327v66zM347 660h-84l91 144h135z" />
    <glyph glyph-name="emacronacute" unicode="&#x1e17;" horiz-adv-x="556" 
d="M468 347q0 19 -31 19h-244v-100h154q17 0 25 2.5t8 13.5h18v-106h-20q3 11 -8 13.5t-31 2.5h-146v-118h256q12 0 20 5.5t8 14.5h18v-105h-18q0 9 -8 10t-20 1h-367v18q5 0 10 3.5t5 11.5v374q0 8 -5 11.5t-10 3.5v18h355q31 0 31 18h18v-111h-18zM119 552h327v-66h-327
v66zM306 588h-84l91 144h135z" />
    <glyph glyph-name="Ecircumflexbelow" unicode="&#x1e18;" 
d="M580 418q0 11 -8.5 16.5t-29.5 5.5h-324v-124h196q20 0 31 5.5t11 28.5h18v-156h-18q0 23 -11 29.5t-31 6.5h-196v-138h334q15 0 24.5 7t9.5 19h18v-137h-18q0 15 -9.5 17t-24.5 2h-466v18q7 0 12.5 4.5t5.5 13.5v454q0 9 -5.5 13.5t-12.5 4.5v18h456q21 0 29.5 6.5
t8.5 17.5h18v-132h-18zM189 -195l108 144h111l108 -144h-93l-70 90l-71 -90h-93z" />
    <glyph glyph-name="ecircumflexbelow" unicode="&#x1e19;" horiz-adv-x="556" 
d="M468 347q0 19 -31 19h-244v-100h154q17 0 25 2.5t8 13.5h18v-106h-20q3 11 -8 13.5t-31 2.5h-146v-118h256q12 0 20 5.5t8 14.5h18v-105h-18q0 9 -8 10t-20 1h-367v18q5 0 10 3.5t5 11.5v374q0 8 -5 11.5t-10 3.5v18h355q31 0 31 18h18v-111h-18zM126 -192l108 144h111
l108 -144h-93l-70 90l-71 -90h-93z" />
    <glyph glyph-name="Etildebelow" unicode="&#x1e1a;" 
d="M580 418q0 11 -8.5 16.5t-29.5 5.5h-324v-124h196q20 0 31 5.5t11 28.5h18v-156h-18q0 23 -11 29.5t-31 6.5h-196v-138h334q15 0 24.5 7t9.5 19h18v-137h-18q0 15 -9.5 17t-24.5 2h-466v18q7 0 12.5 4.5t5.5 13.5v454q0 9 -5.5 13.5t-12.5 4.5v18h456q21 0 29.5 6.5
t8.5 17.5h18v-132h-18zM543 -71q-5 -23 -13 -44t-21 -37t-32 -25.5t-46 -9.5q-15 0 -34 6t-38.5 13t-38 13t-32.5 6q-20 0 -29 -14t-14 -30h-53q8 47 29 79t73 38q16 2 35 -4t38.5 -13.5t38.5 -14.5t34 -7q19 0 30.5 13.5t15.5 30.5h57z" />
    <glyph glyph-name="etildebelow" unicode="&#x1e1b;" horiz-adv-x="556" 
d="M468 347q0 19 -31 19h-244v-100h154q17 0 25 2.5t8 13.5h18v-106h-20q3 11 -8 13.5t-31 2.5h-146v-118h256q12 0 20 5.5t8 14.5h18v-105h-18q0 9 -8 10t-20 1h-367v18q5 0 10 3.5t5 11.5v374q0 8 -5 11.5t-10 3.5v18h355q31 0 31 18h18v-111h-18zM464 -61q-5 -23 -13 -44
t-21 -37t-32 -25.5t-46 -9.5q-15 0 -34 6t-38.5 13t-38 13t-32.5 6q-20 0 -29 -14t-14 -30h-53q8 47 29 79t73 38q16 2 35 -4t38.5 -13.5t38.5 -14.5t34 -7q19 0 30.5 13.5t15.5 30.5h57z" />
    <glyph glyph-name="Ecedillabreve" unicode="&#x1e1c;" 
d="M580 418q0 11 -8.5 16.5t-29.5 5.5h-324v-124h196q20 0 31 5.5t11 28.5h18v-156h-18q0 23 -11 29.5t-31 6.5h-196v-138h334q15 0 24.5 7t9.5 19h18v-137h-18q0 15 -9.5 17t-24.5 2h-466v18q7 0 12.5 4.5t5.5 13.5v454q0 9 -5.5 13.5t-12.5 4.5v18h456q21 0 29.5 6.5
t8.5 17.5h18v-132h-18zM512 714q-3 -33 -16 -60t-34.5 -45.5t-50 -28.5t-61.5 -10t-61.5 10t-50 28.5t-34.5 45.5t-16 60h58q5 -24 15 -39t24 -23t30.5 -11t34.5 -3t34.5 3t30.5 11t24 23t15 39h58zM258 -152q15 -6 31.5 -11t33.5 -5q22 0 41 7t19 33q0 19 -12 27.5t-29 8.5
q-11 0 -22.5 -1.5t-20.5 -5.5l-22 19l66 85h49l-44 -55l2 -2q9 4 24 4q17 0 33.5 -5t29 -14.5t20.5 -23.5t8 -33q0 -27 -11.5 -45t-29.5 -29t-41 -15.5t-46 -4.5q-22 0 -50 8t-47 18z" />
    <glyph glyph-name="ecedillabreve" unicode="&#x1e1d;" horiz-adv-x="556" 
d="M468 347q0 19 -31 19h-244v-100h154q17 0 25 2.5t8 13.5h18v-106h-20q3 11 -8 13.5t-31 2.5h-146v-118h256q12 0 20 5.5t8 14.5h18v-105h-18q0 9 -8 10t-20 1h-367v18q5 0 10 3.5t5 11.5v374q0 8 -5 11.5t-10 3.5v18h355q31 0 31 18h18v-111h-18zM462 626q-3 -33 -16 -60
t-34.5 -45.5t-50 -28.5t-61.5 -10t-61.5 10t-50 28.5t-34.5 45.5t-16 60h58q5 -24 15 -39t24 -23t30.5 -11t34.5 -3t34.5 3t30.5 11t24 23t15 39h58zM194 -153q15 -6 31.5 -11t33.5 -5q22 0 41 7t19 33q0 19 -12 27.5t-29 8.5q-11 0 -22.5 -1.5t-20.5 -5.5l-22 19l66 85h49
l-44 -55l2 -2q9 4 24 4q17 0 33.5 -5t29 -14.5t20.5 -23.5t8 -33q0 -27 -11.5 -45t-29.5 -29t-41 -15.5t-46 -4.5q-22 0 -50 8t-47 18z" />
    <glyph glyph-name="Fdotaccent" unicode="&#x1e1e;" horiz-adv-x="611" 
d="M568 418q0 11 -8.5 16.5t-29.5 5.5h-324v-124h196q20 0 31 4t11 18h18v-144h-18q0 23 -11 29.5t-31 6.5h-196v-194q0 -9 8.5 -13.5t21.5 -4.5v-18h-170v18q26 0 26 18v454q0 18 -26 18v18h464q21 0 29.5 6.5t8.5 17.5h18v-132h-18zM271 710h110v-110h-110v110z" />
    <glyph glyph-name="fdotaccent" unicode="&#x1e1f;" horiz-adv-x="556" 
d="M494 352q0 5 -7 9.5t-24 4.5h-271v-106h176q17 0 21 3.5t5 11.5h18v-105h-18q-1 8 -5 12t-21 4h-176v-153q0 -8 7 -11.5t16 -3.5v-18h-138v18q19 0 19 15v374q0 15 -21 15v18h388q17 0 24 5t7 13h18v-106h-18zM238 618h110v-110h-110v110z" />
    <glyph glyph-name="Gmacron" unicode="&#x1e20;" horiz-adv-x="722" 
d="M565 364l-20 6q2 6 2 12q0 15 -18.5 27t-47 20.5t-62 12.5t-63.5 4q-37 0 -73.5 -10.5t-65 -32.5t-46 -57t-17.5 -85q0 -49 17.5 -84.5t46 -57.5t65 -32.5t73.5 -10.5q57 0 102.5 9.5t77.5 20.5v86h-128q-14 0 -21 -6t-9 -26h-18v128h18q2 -17 9 -21.5t21 -4.5h250v-18
q-20 -3 -25 -7t-5 -17v-113q0 -10 6 -13l14 -7v-16q-33 -23 -69.5 -38t-74 -23.5t-75 -10.5t-73.5 -2q-70 0 -127.5 17.5t-98.5 52t-63.5 84t-22.5 112.5t22.5 112.5t63.5 84.5t98.5 53.5t127.5 18.5q44 0 84 -6t71 -13.5t51.5 -14t25.5 -6.5q9 0 14 4t10 7l12 -7zM188 648
h327v-66h-327v66z" />
    <glyph glyph-name="gmacron" unicode="&#x1e21;" horiz-adv-x="611" 
d="M471 295l-12 7q2 10 2 11q0 9 -13 19.5t-34 19.5t-47.5 14.5t-53.5 5.5q-37 0 -70 -8.5t-58 -27t-40 -47.5t-15 -71t16 -70.5t41.5 -46t56.5 -25.5t60 -8q43 0 81.5 6t70.5 23v63h-103q-11 0 -19 -4.5t-10 -16.5h-18v103h18q2 -10 10 -13t19 -3h196v-18q-9 -4 -12 -9
t-3 -15v-95q0 -9 2.5 -12.5t12.5 -7.5v-12q-9 -6 -28.5 -16.5t-49 -20.5t-68.5 -16.5t-87 -6.5q-65 0 -117.5 14.5t-89 43.5t-56 70.5t-19.5 94.5t19.5 94.5t56 71t89 45t117.5 15.5q39 0 69 -7t52 -15q23 -8 37 -15t21 -7q8 0 12 1.5t10 6.5l12 -6zM128 562h327v-66h-327
v66z" />
    <glyph glyph-name="Hdotaccent" unicode="&#x1e22;" horiz-adv-x="778" 
d="M550 490q0 18 -22 18v18h154v-18q-7 0 -12.5 -4.5t-5.5 -13.5v-454q0 -9 5.5 -13.5t12.5 -4.5v-18h-154v18q22 0 22 18v188h-322v-188q0 -9 5.5 -13.5t12.5 -4.5v-18h-151v18q19 0 19 18v454q0 18 -19 18v18h151v-18q-7 0 -12.5 -4.5t-5.5 -13.5v-170h322v170zM333 686
h110v-110h-110v110z" />
    <glyph glyph-name="hdotaccent" unicode="&#x1e23;" 
d="M199 33q0 -8 4.5 -11.5t10.5 -3.5v-18h-126v18q6 0 10.5 3.5t4.5 11.5v374q0 8 -4.5 11.5t-10.5 3.5v18h126v-18q-6 0 -10.5 -3.5t-4.5 -11.5v-141h268v141q0 8 -4.5 11.5t-10.5 3.5v18h126v-18q-6 0 -10.5 -3.5t-4.5 -11.5v-374q0 -8 4.5 -11.5t10.5 -3.5v-18h-126v18
q6 0 10.5 3.5t4.5 11.5v151h-268v-151zM278 600h110v-110h-110v110z" />
    <glyph glyph-name="Hdotbelow" unicode="&#x1e24;" horiz-adv-x="778" 
d="M550 490q0 18 -22 18v18h154v-18q-7 0 -12.5 -4.5t-5.5 -13.5v-454q0 -9 5.5 -13.5t12.5 -4.5v-18h-154v18q22 0 22 18v188h-322v-188q0 -9 5.5 -13.5t12.5 -4.5v-18h-151v18q19 0 19 18v454q0 18 -19 18v18h151v-18q-7 0 -12.5 -4.5t-5.5 -13.5v-170h322v170zM333 -50
h110v-110h-110v110z" />
    <glyph glyph-name="hdotbelow" unicode="&#x1e25;" 
d="M199 33q0 -8 4.5 -11.5t10.5 -3.5v-18h-126v18q6 0 10.5 3.5t4.5 11.5v374q0 8 -4.5 11.5t-10.5 3.5v18h126v-18q-6 0 -10.5 -3.5t-4.5 -11.5v-141h268v141q0 8 -4.5 11.5t-10.5 3.5v18h126v-18q-6 0 -10.5 -3.5t-4.5 -11.5v-374q0 -8 4.5 -11.5t10.5 -3.5v-18h-126v18
q6 0 10.5 3.5t4.5 11.5v151h-268v-151zM278 -50h110v-110h-110v110z" />
    <glyph glyph-name="Hdieresis" unicode="&#x1e26;" horiz-adv-x="778" 
d="M550 490q0 18 -22 18v18h154v-18q-7 0 -12.5 -4.5t-5.5 -13.5v-454q0 -9 5.5 -13.5t12.5 -4.5v-18h-154v18q22 0 22 18v188h-322v-188q0 -9 5.5 -13.5t12.5 -4.5v-18h-151v18q19 0 19 18v454q0 18 -19 18v18h151v-18q-7 0 -12.5 -4.5t-5.5 -13.5v-170h322v170zM246 686
h110v-110h-110v110zM421 686h110v-110h-110v110z" />
    <glyph glyph-name="hdieresis" unicode="&#x1e27;" 
d="M199 33q0 -8 4.5 -11.5t10.5 -3.5v-18h-126v18q6 0 10.5 3.5t4.5 11.5v374q0 8 -4.5 11.5t-10.5 3.5v18h126v-18q-6 0 -10.5 -3.5t-4.5 -11.5v-141h268v141q0 8 -4.5 11.5t-10.5 3.5v18h126v-18q-6 0 -10.5 -3.5t-4.5 -11.5v-374q0 -8 4.5 -11.5t10.5 -3.5v-18h-126v18
q6 0 10.5 3.5t4.5 11.5v151h-268v-151zM191 600h110v-110h-110v110zM366 600h110v-110h-110v110z" />
    <glyph glyph-name="Hcedilla" unicode="&#x1e28;" horiz-adv-x="778" 
d="M550 490q0 18 -22 18v18h154v-18q-7 0 -12.5 -4.5t-5.5 -13.5v-454q0 -9 5.5 -13.5t12.5 -4.5v-18h-154v18q22 0 22 18v188h-322v-188q0 -9 5.5 -13.5t12.5 -4.5v-18h-151v18q19 0 19 18v454q0 18 -19 18v18h151v-18q-7 0 -12.5 -4.5t-5.5 -13.5v-170h322v170zM113 -157
q15 -6 31.5 -11t33.5 -5q22 0 41 7t19 33q0 19 -12 27.5t-29 8.5q-11 0 -22.5 -1.5t-20.5 -5.5l-22 19l66 85h49l-44 -55l2 -2q9 4 24 4q17 0 33.5 -5t29 -14.5t20.5 -23.5t8 -33q0 -27 -11.5 -45t-29.5 -29t-41 -15.5t-46 -4.5q-22 0 -50 8t-47 18z" />
    <glyph glyph-name="hcedilla" unicode="&#x1e29;" 
d="M199 33q0 -8 4.5 -11.5t10.5 -3.5v-18h-126v18q6 0 10.5 3.5t4.5 11.5v374q0 8 -4.5 11.5t-10.5 3.5v18h126v-18q-6 0 -10.5 -3.5t-4.5 -11.5v-141h268v141q0 8 -4.5 11.5t-10.5 3.5v18h126v-18q-6 0 -10.5 -3.5t-4.5 -11.5v-374q0 -8 4.5 -11.5t10.5 -3.5v-18h-126v18
q6 0 10.5 3.5t4.5 11.5v151h-268v-151zM80 -158q15 -6 31.5 -11t33.5 -5q22 0 41 7t19 33q0 19 -12 27.5t-29 8.5q-11 0 -22.5 -1.5t-20.5 -5.5l-22 19l66 85h49l-44 -55l2 -2q9 4 24 4q17 0 33.5 -5t29 -14.5t20.5 -23.5t8 -33q0 -27 -11.5 -45t-29.5 -29t-41 -15.5
t-46 -4.5q-22 0 -50 8t-47 18z" />
    <glyph glyph-name="Hbrevebelow" unicode="&#x1e2a;" horiz-adv-x="778" 
d="M550 490q0 18 -22 18v18h154v-18q-7 0 -12.5 -4.5t-5.5 -13.5v-454q0 -9 5.5 -13.5t12.5 -4.5v-18h-154v18q22 0 22 18v188h-322v-188q0 -9 5.5 -13.5t12.5 -4.5v-18h-151v18q19 0 19 18v454q0 18 -19 18v18h151v-18q-7 0 -12.5 -4.5t-5.5 -13.5v-170h322v170zM550 -50
q-3 -33 -16 -60t-34.5 -45.5t-50 -28.5t-61.5 -10t-61.5 10t-50 28.5t-34.5 45.5t-16 60h58q5 -24 15 -39t24 -23t30.5 -11t34.5 -3t34.5 3t30.5 11t24 23t15 39h58z" />
    <glyph glyph-name="hbrevebelow" unicode="&#x1e2b;" 
d="M199 33q0 -8 4.5 -11.5t10.5 -3.5v-18h-126v18q6 0 10.5 3.5t4.5 11.5v374q0 8 -4.5 11.5t-10.5 3.5v18h126v-18q-6 0 -10.5 -3.5t-4.5 -11.5v-141h268v141q0 8 -4.5 11.5t-10.5 3.5v18h126v-18q-6 0 -10.5 -3.5t-4.5 -11.5v-374q0 -8 4.5 -11.5t10.5 -3.5v-18h-126v18
q6 0 10.5 3.5t4.5 11.5v151h-268v-151zM495 -50q-3 -33 -16 -60t-34.5 -45.5t-50 -28.5t-61.5 -10t-61.5 10t-50 28.5t-34.5 45.5t-16 60h58q5 -24 15 -39t24 -23t30.5 -11t34.5 -3t34.5 3t30.5 11t24 23t15 39h58z" />
    <glyph glyph-name="Itildebelow" unicode="&#x1e2c;" horiz-adv-x="333" 
d="M83 18q26 0 26 18v454q0 18 -26 18v18h166v-18q-26 0 -26 -18v-454q0 -18 26 -18v-18h-166v18zM342 -50q-5 -23 -13 -44t-21 -37t-32 -25.5t-46 -9.5q-15 0 -34 6t-38.5 13t-38 13t-32.5 6q-20 0 -29 -14t-14 -30h-53q8 47 29 79t73 38q16 2 35 -4t38.5 -13.5t38.5 -14.5
t34 -7q19 0 30.5 13.5t15.5 30.5h57z" />
    <glyph glyph-name="itildebelow" unicode="&#x1e2d;" horiz-adv-x="333" 
d="M90 18q16 0 22 3.5t6 11.5v374q0 8 -6 11.5t-22 3.5v18h152v-18q-28 0 -28 -15v-374q0 -15 28 -15v-18h-152v18zM342 -50q-5 -23 -13 -44t-21 -37t-32 -25.5t-46 -9.5q-15 0 -34 6t-38.5 13t-38 13t-32.5 6q-20 0 -29 -14t-14 -30h-53q8 47 29 79t73 38q16 2 35 -4
t38.5 -13.5t38.5 -14.5t34 -7q19 0 30.5 13.5t15.5 30.5h57z" />
    <glyph glyph-name="Idieresisacute" unicode="&#x1e2e;" horiz-adv-x="333" 
d="M83 18q26 0 26 18v454q0 18 -26 18v18h166v-18q-26 0 -26 -18v-454q0 -18 26 -18v-18h-166v18zM24 659h109v-93h-109v93zM197 659h109v-93h-109v93zM192 690h-84l91 144h135z" />
    <glyph glyph-name="idieresisacute" unicode="&#x1e2f;" horiz-adv-x="333" 
d="M90 18q16 0 22 3.5t6 11.5v374q0 8 -6 11.5t-22 3.5v18h152v-18q-28 0 -28 -15v-374q0 -15 28 -15v-18h-152v18zM24 589h109v-99h-109v99zM197 589h109v-99h-109v99zM193 628h-84l91 144h135z" />
    <glyph glyph-name="Kacute" unicode="&#x1e30;" 
d="M209 36q0 -9 6 -13.5t14 -4.5v-18h-156v18q22 0 22 18v454q0 18 -22 18v18h156v-18q-8 0 -14 -4.5t-6 -13.5v-190l207 163q14 12 22 19.5t8 12.5q0 7 -4.5 10t-10.5 3v18h210v-18q-18 0 -36 -15l-230 -183l210 -243q13 -15 30.5 -29.5t34.5 -19.5v-18h-185v18q13 0 13 7
q0 5 -14 22l-171 197l-84 -65v-143zM366 560h-84l91 144h135z" />
    <glyph glyph-name="kacute" unicode="&#x1e31;" horiz-adv-x="556" 
d="M186 33q0 -15 19 -15v-18h-131v18q16 0 16 15v374q0 15 -16 15v18h131v-18q-19 0 -19 -15v-163q34 28 70 56.5t65 52.5t48 40.5t19 20.5q0 5 -5.5 8t-10.5 3v15h165v-18q-12 -4 -36 -23l-167 -135l158 -196q12 -15 26 -30.5t28 -19.5v-18h-148v18q11 0 11 6q0 4 -4.5 11
t-17.5 22l-123 150l-78 -62v-112zM323 462h-84l91 144h135z" />
    <glyph glyph-name="Kdotbelow" unicode="&#x1e32;" 
d="M209 36q0 -9 6 -13.5t14 -4.5v-18h-156v18q22 0 22 18v454q0 18 -22 18v18h156v-18q-8 0 -14 -4.5t-6 -13.5v-190l207 163q14 12 22 19.5t8 12.5q0 7 -4.5 10t-10.5 3v18h210v-18q-18 0 -36 -15l-230 -183l210 -243q13 -15 30.5 -29.5t34.5 -19.5v-18h-185v18q13 0 13 7
q0 5 -14 22l-171 197l-84 -65v-143zM306 -50h110v-110h-110v110z" />
    <glyph glyph-name="kdotbelow" unicode="&#x1e33;" horiz-adv-x="556" 
d="M186 33q0 -15 19 -15v-18h-131v18q16 0 16 15v374q0 15 -16 15v18h131v-18q-19 0 -19 -15v-163q34 28 70 56.5t65 52.5t48 40.5t19 20.5q0 5 -5.5 8t-10.5 3v15h165v-18q-12 -4 -36 -23l-167 -135l158 -196q12 -15 26 -30.5t28 -19.5v-18h-148v18q11 0 11 6q0 4 -4.5 11
t-17.5 22l-123 150l-78 -62v-112zM235 -51h110v-110h-110v110z" />
    <glyph glyph-name="Klinebelow" unicode="&#x1e34;" 
d="M209 36q0 -9 6 -13.5t14 -4.5v-18h-156v18q22 0 22 18v454q0 18 -22 18v18h156v-18q-8 0 -14 -4.5t-6 -13.5v-190l207 163q14 12 22 19.5t8 12.5q0 7 -4.5 10t-10.5 3v18h210v-18q-18 0 -36 -15l-230 -183l210 -243q13 -15 30.5 -29.5t34.5 -19.5v-18h-185v18q13 0 13 7
q0 5 -14 22l-171 197l-84 -65v-143zM198 -50h327v-66h-327v66z" />
    <glyph glyph-name="klinebelow" unicode="&#x1e35;" horiz-adv-x="556" 
d="M186 33q0 -15 19 -15v-18h-131v18q16 0 16 15v374q0 15 -16 15v18h131v-18q-19 0 -19 -15v-163q34 28 70 56.5t65 52.5t48 40.5t19 20.5q0 5 -5.5 8t-10.5 3v15h165v-18q-12 -4 -36 -23l-167 -135l158 -196q12 -15 26 -30.5t28 -19.5v-18h-148v18q11 0 11 6q0 4 -4.5 11
t-17.5 22l-123 150l-78 -62v-112zM147 -50h327v-66h-327v66z" />
    <glyph glyph-name="Ldotbelow" unicode="&#x1e36;" horiz-adv-x="611" 
d="M574 -19q0 15 -9.5 17t-24.5 2h-476v18q30 0 30 18v454q0 18 -30 18v18h172v-18q-28 0 -28 -18v-398h332q15 0 24.5 7t9.5 19h18v-137h-18zM273 -69h110v-110h-110v110z" />
    <glyph glyph-name="ldotbelow" unicode="&#x1e37;" horiz-adv-x="556" 
d="M221 440v-18q-23 0 -23 -15v-333h270q12 0 20 5.5t8 15.5h18v-105h-18q0 8 -8 9t-20 1h-392v18q26 0 26 15v374q0 15 -26 15v18h145zM240 -60h110v-110h-110v110z" />
    <glyph glyph-name="Ldotbelowmacron" unicode="&#x1e38;" horiz-adv-x="611" 
d="M574 -19q0 15 -9.5 17t-24.5 2h-476v18q30 0 30 18v454q0 18 -30 18v18h172v-18q-28 0 -28 -18v-398h332q15 0 24.5 7t9.5 19h18v-137h-18zM273 -69h110v-110h-110v110zM165 642h327v-66h-327v66z" />
    <glyph glyph-name="ldotbelowmacron" unicode="&#x1e39;" horiz-adv-x="556" 
d="M221 440v-18q-23 0 -23 -15v-333h270q12 0 20 5.5t8 15.5h18v-105h-18q0 8 -8 9t-20 1h-392v18q26 0 26 15v374q0 15 -26 15v18h145zM240 -60h110v-110h-110v110zM132 556h327v-66h-327v66z" />
    <glyph glyph-name="Llinebelow" unicode="&#x1e3a;" horiz-adv-x="611" 
d="M574 -19q0 15 -9.5 17t-24.5 2h-476v18q30 0 30 18v454q0 18 -30 18v18h172v-18q-28 0 -28 -18v-398h332q15 0 24.5 7t9.5 19h18v-137h-18zM165 -69h327v-66h-327v66z" />
    <glyph glyph-name="llinebelow" unicode="&#x1e3b;" horiz-adv-x="556" 
d="M221 440v-18q-23 0 -23 -15v-333h270q12 0 20 5.5t8 15.5h18v-105h-18q0 8 -8 9t-20 1h-392v18q26 0 26 15v374q0 15 -26 15v18h145zM132 -60h327v-66h-327v66z" />
    <glyph glyph-name="Lcircumflexbelow" unicode="&#x1e3c;" horiz-adv-x="611" 
d="M574 -19q0 15 -9.5 17t-24.5 2h-476v18q30 0 30 18v454q0 18 -30 18v18h172v-18q-28 0 -28 -18v-398h332q15 0 24.5 7t9.5 19h18v-137h-18zM160 -192l108 144h111l108 -144h-93l-70 90l-71 -90h-93z" />
    <glyph glyph-name="lcircumflexbelow" unicode="&#x1e3d;" horiz-adv-x="556" 
d="M221 440v-18q-23 0 -23 -15v-333h270q12 0 20 5.5t8 15.5h18v-105h-18q0 8 -8 9t-20 1h-392v18q26 0 26 15v374q0 15 -26 15v18h145zM132 -199l108 144h111l108 -144h-93l-70 90l-71 -90h-93z" />
    <glyph glyph-name="Macute" unicode="&#x1e3e;" horiz-adv-x="833" 
d="M88 18q8 0 14 4.5t6 13.5v456q0 9 -6 12.5t-14 3.5v18h187v-18q-5 0 -10.5 -3t-5.5 -9q0 -5 4 -13t9 -17l143 -260l144 257q7 13 10.5 20.5t3.5 13.5q0 11 -13 11v18h185v-18q-8 0 -14 -3.5t-6 -12.5v-456q0 -9 6 -13.5t14 -4.5v-18h-157v18q27 0 27 18v332h-2l-201 -368
h-3l-197 369h-2v-333q0 -18 28 -18v-18h-150v18zM451 552h-84l91 144h135z" />
    <glyph glyph-name="macute" unicode="&#x1e3f;" horiz-adv-x="722" 
d="M93 18q5 1 8.5 4t3.5 14v366q0 14 -2.5 17t-9.5 3v18h139v-18q-10 0 -10 -9q0 -4 3.5 -10.5t10.5 -18.5l122 -225l123 224q7 12 11 19.5t4 10.5q0 9 -8 9v18h141v-18q-5 0 -9.5 -2.5t-4.5 -10.5v-376q0 -8 4.5 -11.5t9.5 -3.5v-18h-116v18q21 0 18 15v281h-2l-170 -314
h-8l-161 314h1h-2v-281q0 -15 17 -15v-18h-113v18zM399 469h-84l91 144h135z" />
    <glyph glyph-name="Mdotaccent" unicode="&#x1e40;" horiz-adv-x="833" 
d="M88 18q8 0 14 4.5t6 13.5v456q0 9 -6 12.5t-14 3.5v18h187v-18q-5 0 -10.5 -3t-5.5 -9q0 -5 4 -13t9 -17l143 -260l144 257q7 13 10.5 20.5t3.5 13.5q0 11 -13 11v18h185v-18q-8 0 -14 -3.5t-6 -12.5v-456q0 -9 6 -13.5t14 -4.5v-18h-157v18q27 0 27 18v332h-2l-201 -368
h-3l-197 369h-2v-333q0 -18 28 -18v-18h-150v18zM383 673h110v-110h-110v110z" />
    <glyph glyph-name="mdotaccent" unicode="&#x1e41;" horiz-adv-x="722" 
d="M93 18q5 1 8.5 4t3.5 14v366q0 14 -2.5 17t-9.5 3v18h139v-18q-10 0 -10 -9q0 -4 3.5 -10.5t10.5 -18.5l122 -225l123 224q7 12 11 19.5t4 10.5q0 9 -8 9v18h141v-18q-5 0 -9.5 -2.5t-4.5 -10.5v-376q0 -8 4.5 -11.5t9.5 -3.5v-18h-116v18q21 0 18 15v281h-2l-170 -314
h-8l-161 314h1h-2v-281q0 -15 17 -15v-18h-113v18zM318 590h110v-110h-110v110z" />
    <glyph glyph-name="Mdotbelow" unicode="&#x1e42;" horiz-adv-x="833" 
d="M88 18q8 0 14 4.5t6 13.5v456q0 9 -6 12.5t-14 3.5v18h187v-18q-5 0 -10.5 -3t-5.5 -9q0 -5 4 -13t9 -17l143 -260l144 257q7 13 10.5 20.5t3.5 13.5q0 11 -13 11v18h185v-18q-8 0 -14 -3.5t-6 -12.5v-456q0 -9 6 -13.5t14 -4.5v-18h-157v18q27 0 27 18v332h-2l-201 -368
h-3l-197 369h-2v-333q0 -18 28 -18v-18h-150v18zM361 -50h110v-110h-110v110z" />
    <glyph glyph-name="mdotbelow" unicode="&#x1e43;" horiz-adv-x="722" 
d="M93 18q5 1 8.5 4t3.5 14v366q0 14 -2.5 17t-9.5 3v18h139v-18q-10 0 -10 -9q0 -4 3.5 -10.5t10.5 -18.5l122 -225l123 224q7 12 11 19.5t4 10.5q0 9 -8 9v18h141v-18q-5 0 -9.5 -2.5t-4.5 -10.5v-376q0 -8 4.5 -11.5t9.5 -3.5v-18h-116v18q21 0 18 15v281h-2l-170 -314
h-8l-161 314h1h-2v-281q0 -15 17 -15v-18h-113v18zM306 -50h110v-110h-110v110z" />
    <glyph glyph-name="Ndotaccent" unicode="&#x1e44;" horiz-adv-x="778" 
d="M91 18q19 0 19 18v454q0 18 -19 18v18h171v-18q-8 0 -8 -10q0 -8 20 -28l287 -298v318q0 18 -26 18v18h151v-18q-19 0 -19 -18v-454q0 -18 19 -18v-18h-162v18q13 0 13 9q0 7 -16 23l-305 318v-332q0 -18 23 -18v-18h-148v18zM358 682h110v-110h-110v110z" />
    <glyph glyph-name="ndotaccent" unicode="&#x1e45;" 
d="M81 18q18 0 18 15v374q0 15 -18 15v18h147v-18q-7 -1 -7 -5q0 -5 22 -27l240 -254v271q0 15 -20 15v18h122v-18q-18 0 -18 -15v-374q0 -15 18 -15v-18h-130v18q7 0 7 5q0 4 -9.5 14t-21.5 23l-248 264v-291q0 -15 21 -15v-18h-123v18zM306 591h110v-110h-110v110z" />
    <glyph glyph-name="Ndotbelow" unicode="&#x1e46;" horiz-adv-x="778" 
d="M91 18q19 0 19 18v454q0 18 -19 18v18h171v-18q-8 0 -8 -10q0 -8 20 -28l287 -298v318q0 18 -26 18v18h151v-18q-19 0 -19 -18v-454q0 -18 19 -18v-18h-162v18q13 0 13 9q0 7 -16 23l-305 318v-332q0 -18 23 -18v-18h-148v18zM341 -44h110v-110h-110v110z" />
    <glyph glyph-name="ndotbelow" unicode="&#x1e47;" 
d="M81 18q18 0 18 15v374q0 15 -18 15v18h147v-18q-7 -1 -7 -5q0 -5 22 -27l240 -254v271q0 15 -20 15v18h122v-18q-18 0 -18 -15v-374q0 -15 18 -15v-18h-130v18q7 0 7 5q0 4 -9.5 14t-21.5 23l-248 264v-291q0 -15 21 -15v-18h-123v18zM284 -50h110v-110h-110v110z" />
    <glyph glyph-name="Nlinebelow" unicode="&#x1e48;" horiz-adv-x="778" 
d="M91 18q19 0 19 18v454q0 18 -19 18v18h171v-18q-8 0 -8 -10q0 -8 20 -28l287 -298v318q0 18 -26 18v18h151v-18q-19 0 -19 -18v-454q0 -18 19 -18v-18h-162v18q13 0 13 9q0 7 -16 23l-305 318v-332q0 -18 23 -18v-18h-148v18zM225 -50h327v-66h-327v66z" />
    <glyph glyph-name="nlinebelow" unicode="&#x1e49;" 
d="M81 18q18 0 18 15v374q0 15 -18 15v18h147v-18q-7 -1 -7 -5q0 -5 22 -27l240 -254v271q0 15 -20 15v18h122v-18q-18 0 -18 -15v-374q0 -15 18 -15v-18h-130v18q7 0 7 5q0 4 -9.5 14t-21.5 23l-248 264v-291q0 -15 21 -15v-18h-123v18zM170 -50h327v-66h-327v66z" />
    <glyph glyph-name="Ncircumflexbelow" unicode="&#x1e4a;" horiz-adv-x="778" 
d="M91 18q19 0 19 18v454q0 18 -19 18v18h171v-18q-8 0 -8 -10q0 -8 20 -28l287 -298v318q0 18 -26 18v18h151v-18q-19 0 -19 -18v-454q0 -18 19 -18v-18h-162v18q13 0 13 9q0 7 -16 23l-305 318v-332q0 -18 23 -18v-18h-148v18zM225 -194l108 144h111l108 -144h-93l-70 90
l-71 -90h-93z" />
    <glyph glyph-name="ncircumflexbelow" unicode="&#x1e4b;" 
d="M81 18q18 0 18 15v374q0 15 -18 15v18h147v-18q-7 -1 -7 -5q0 -5 22 -27l240 -254v271q0 15 -20 15v18h122v-18q-18 0 -18 -15v-374q0 -15 18 -15v-18h-130v18q7 0 7 5q0 4 -9.5 14t-21.5 23l-248 264v-291q0 -15 21 -15v-18h-123v18zM170 -194l108 144h111l108 -144h-93
l-70 90l-71 -90h-93z" />
    <glyph glyph-name="Otildeacute" unicode="&#x1e4c;" horiz-adv-x="778" 
d="M389 440q-38 0 -76 -12t-68.5 -34.5t-49.5 -55.5t-19 -75t19 -75t49.5 -55.5t68.5 -34.5t76 -12t76 12t68.5 34.5t49.5 55.5t19 75t-19 75t-49.5 55.5t-68.5 34.5t-76 12zM389 532q55 0 112 -16.5t104 -49.5t77 -83.5t30 -119.5t-30 -119.5t-77 -83.5t-104 -48t-112 -15
t-112 15t-104 48t-77 83.5t-30 119.5t30 119.5t77 83.5t104 49.5t112 16.5zM570 680q-5 -23 -13 -44t-21 -37t-32 -25.5t-46 -9.5q-15 0 -34 6t-38.5 13t-38 13t-32.5 6q-20 0 -29 -14t-14 -30h-53q8 47 29 79t73 38q16 2 35 -4t38.5 -13.5t38.5 -14.5t34 -7q19 0 30.5 13.5
t15.5 30.5h57zM430 692h-84l91 144h135z" />
    <glyph glyph-name="otildeacute" unicode="&#x1e4d;" horiz-adv-x="611" 
d="M305 372q-32 0 -62.5 -10.5t-54.5 -30t-38.5 -47.5t-14.5 -64t14.5 -64t38.5 -47.5t54.5 -30t62.5 -10.5t62.5 10.5t54.5 30t38.5 47.5t14.5 64t-14.5 64t-38.5 47.5t-54.5 30t-62.5 10.5zM305 446q55 0 103.5 -14t84.5 -42t57 -70.5t21 -99.5t-21 -99.5t-57 -70.5
t-84.5 -40.5t-103.5 -12.5t-103.5 12.5t-84.5 40.5t-57 70.5t-21 99.5t21 99.5t57 70.5t84.5 42t103.5 14zM484 611q-5 -23 -13 -44t-21 -37t-32 -25.5t-46 -9.5q-15 0 -34 6t-38.5 13t-38 13t-32.5 6q-20 0 -29 -14t-14 -30h-53q8 47 29 79t73 38q16 2 35 -4t38.5 -13.5
t38.5 -14.5t34 -7q19 0 30.5 13.5t15.5 30.5h57zM354 638h-84l91 144h135z" />
    <glyph glyph-name="Otildedieresis" unicode="&#x1e4e;" horiz-adv-x="778" 
d="M389 440q-38 0 -76 -12t-68.5 -34.5t-49.5 -55.5t-19 -75t19 -75t49.5 -55.5t68.5 -34.5t76 -12t76 12t68.5 34.5t49.5 55.5t19 75t-19 75t-49.5 55.5t-68.5 34.5t-76 12zM389 532q55 0 112 -16.5t104 -49.5t77 -83.5t30 -119.5t-30 -119.5t-77 -83.5t-104 -48t-112 -15
t-112 15t-104 48t-77 83.5t-30 119.5t30 119.5t77 83.5t104 49.5t112 16.5zM565 682q-5 -23 -13 -44t-21 -37t-32 -25.5t-46 -9.5q-15 0 -34 6t-38.5 13t-38 13t-32.5 6q-20 0 -29 -14t-14 -30h-53q8 47 29 79t73 38q16 2 35 -4t38.5 -13.5t38.5 -14.5t34 -7q19 0 30.5 13.5
t15.5 30.5h57zM249 816h110v-110h-110v110zM424 816h110v-110h-110v110z" />
    <glyph glyph-name="otildedieresis" unicode="&#x1e4f;" horiz-adv-x="611" 
d="M305 372q-32 0 -62.5 -10.5t-54.5 -30t-38.5 -47.5t-14.5 -64t14.5 -64t38.5 -47.5t54.5 -30t62.5 -10.5t62.5 10.5t54.5 30t38.5 47.5t14.5 64t-14.5 64t-38.5 47.5t-54.5 30t-62.5 10.5zM305 446q55 0 103.5 -14t84.5 -42t57 -70.5t21 -99.5t-21 -99.5t-57 -70.5
t-84.5 -40.5t-103.5 -12.5t-103.5 12.5t-84.5 40.5t-57 70.5t-21 99.5t21 99.5t57 70.5t84.5 42t103.5 14zM482 602q-5 -23 -13 -44t-21 -37t-32 -25.5t-46 -9.5q-15 0 -34 6t-38.5 13t-38 13t-32.5 6q-20 0 -29 -14t-14 -30h-53q8 47 29 79t73 38q16 2 35 -4t38.5 -13.5
t38.5 -14.5t34 -7q19 0 30.5 13.5t15.5 30.5h57zM165 753h110v-110h-110v110zM340 753h110v-110h-110v110z" />
    <glyph glyph-name="Omacrongrave" unicode="&#x1e50;" horiz-adv-x="778" 
d="M389 440q-38 0 -76 -12t-68.5 -34.5t-49.5 -55.5t-19 -75t19 -75t49.5 -55.5t68.5 -34.5t76 -12t76 12t68.5 34.5t49.5 55.5t19 75t-19 75t-49.5 55.5t-68.5 34.5t-76 12zM389 532q55 0 112 -16.5t104 -49.5t77 -83.5t30 -119.5t-30 -119.5t-77 -83.5t-104 -48t-112 -15
t-112 15t-104 48t-77 83.5t-30 119.5t30 119.5t77 83.5t104 49.5t112 16.5zM230 639h327v-66h-327v66zM463 666h-82l-144 144h136z" />
    <glyph glyph-name="omacrongrave" unicode="&#x1e51;" horiz-adv-x="611" 
d="M305 372q-32 0 -62.5 -10.5t-54.5 -30t-38.5 -47.5t-14.5 -64t14.5 -64t38.5 -47.5t54.5 -30t62.5 -10.5t62.5 10.5t54.5 30t38.5 47.5t14.5 64t-14.5 64t-38.5 47.5t-54.5 30t-62.5 10.5zM305 446q55 0 103.5 -14t84.5 -42t57 -70.5t21 -99.5t-21 -99.5t-57 -70.5
t-84.5 -40.5t-103.5 -12.5t-103.5 12.5t-84.5 40.5t-57 70.5t-21 99.5t21 99.5t57 70.5t84.5 42t103.5 14zM145 547h327v-66h-327v66zM365 584h-82l-144 144h136z" />
    <glyph glyph-name="Omacronacute" unicode="&#x1e52;" horiz-adv-x="778" 
d="M389 440q-38 0 -76 -12t-68.5 -34.5t-49.5 -55.5t-19 -75t19 -75t49.5 -55.5t68.5 -34.5t76 -12t76 12t68.5 34.5t49.5 55.5t19 75t-19 75t-49.5 55.5t-68.5 34.5t-76 12zM389 532q55 0 112 -16.5t104 -49.5t77 -83.5t30 -119.5t-30 -119.5t-77 -83.5t-104 -48t-112 -15
t-112 15t-104 48t-77 83.5t-30 119.5t30 119.5t77 83.5t104 49.5t112 16.5zM226 639h327v-66h-327v66zM421 664h-84l91 144h135z" />
    <glyph glyph-name="omacronacute" unicode="&#x1e53;" horiz-adv-x="611" 
d="M305 372q-32 0 -62.5 -10.5t-54.5 -30t-38.5 -47.5t-14.5 -64t14.5 -64t38.5 -47.5t54.5 -30t62.5 -10.5t62.5 10.5t54.5 30t38.5 47.5t14.5 64t-14.5 64t-38.5 47.5t-54.5 30t-62.5 10.5zM305 446q55 0 103.5 -14t84.5 -42t57 -70.5t21 -99.5t-21 -99.5t-57 -70.5
t-84.5 -40.5t-103.5 -12.5t-103.5 12.5t-84.5 40.5t-57 70.5t-21 99.5t21 99.5t57 70.5t84.5 42t103.5 14zM143 557h327v-66h-327v66zM347 595h-84l91 144h135z" />
    <glyph glyph-name="Pacute" unicode="&#x1e54;" 
d="M440 306q33 0 56.5 13t23.5 51t-23.5 51t-56.5 13h-213v-128h213zM76 0v18q37 0 37 18v454q0 18 -37 18v18h352q96 0 151 -35.5t55 -120.5t-55 -120.5t-151 -35.5h-201v-178q0 -18 32 -18v-18h-183zM364 562h-84l91 144h135z" />
    <glyph glyph-name="pacute" unicode="&#x1e55;" horiz-adv-x="556" 
d="M356 257q29 0 48.5 10.5t19.5 42.5q0 31 -19.5 43.5t-48.5 12.5h-168v-109h168zM92 407q0 15 -25 15v18h291q81 0 121.5 -29t40.5 -101t-40.5 -99.5t-121.5 -27.5h-170v-150q0 -15 21 -15v-18h-142v18q25 0 25 15v374zM312 473h-84l91 144h135z" />
    <glyph glyph-name="Pdotaccent" unicode="&#x1e56;" 
d="M440 306q33 0 56.5 13t23.5 51t-23.5 51t-56.5 13h-213v-128h213zM76 0v18q37 0 37 18v454q0 18 -37 18v18h352q96 0 151 -35.5t55 -120.5t-55 -120.5t-151 -35.5h-201v-178q0 -18 32 -18v-18h-183zM300 686h110v-110h-110v110z" />
    <glyph glyph-name="pdotaccent" unicode="&#x1e57;" horiz-adv-x="556" 
d="M356 257q29 0 48.5 10.5t19.5 42.5q0 31 -19.5 43.5t-48.5 12.5h-168v-109h168zM92 407q0 15 -25 15v18h291q81 0 121.5 -29t40.5 -101t-40.5 -99.5t-121.5 -27.5h-170v-150q0 -15 21 -15v-18h-142v18q25 0 25 15v374zM238 600h110v-110h-110v110z" />
    <glyph glyph-name="Rdotaccent" unicode="&#x1e58;" horiz-adv-x="722" 
d="M396 292q36 0 60 5.5t38 15.5t20 23.5t6 29.5t-6 29.5t-20 23.5t-38 15.5t-60 5.5h-173v-148h173zM422 526q48 0 87 -8.5t67 -27t43 -48t15 -72.5q0 -66 -39 -101t-105 -47l133 -190q7 -10 16.5 -12t17.5 -2v-18h-187v18q9 0 15.5 3t6.5 8t-4 11.5t-12 17.5l-110 156
h-143v-178q0 -9 6.5 -13.5t23.5 -4.5v-18h-173v18q29 0 29 18v454q0 18 -29 18v18h342zM313 686h110v-110h-110v110z" />
    <glyph glyph-name="rdotaccent" unicode="&#x1e59;" horiz-adv-x="611" 
d="M352 250q98 0 98 62q0 25 -23.5 39.5t-74.5 14.5h-158v-116h158zM354 440q89 0 139 -29.5t50 -100.5q0 -27 -10 -48t-26.5 -36.5t-36.5 -25t-41 -14.5l98 -143q8 -11 17.5 -16.5t20.5 -8.5v-18h-153v18q13 0 13 9q0 10 -15 31l-79 118h-139v-143q0 -8 6.5 -11.5
t12.5 -3.5v-18h-133v18q18 0 18 15v374q0 15 -18 15v18h276zM266 600h110v-110h-110v110z" />
    <glyph glyph-name="Rdotbelow" unicode="&#x1e5a;" horiz-adv-x="722" 
d="M396 292q36 0 60 5.5t38 15.5t20 23.5t6 29.5t-6 29.5t-20 23.5t-38 15.5t-60 5.5h-173v-148h173zM422 526q48 0 87 -8.5t67 -27t43 -48t15 -72.5q0 -66 -39 -101t-105 -47l133 -190q7 -10 16.5 -12t17.5 -2v-18h-187v18q9 0 15.5 3t6.5 8t-4 11.5t-12 17.5l-110 156
h-143v-178q0 -9 6.5 -13.5t23.5 -4.5v-18h-173v18q29 0 29 18v454q0 18 -29 18v18h342zM313 -50h110v-110h-110v110z" />
    <glyph glyph-name="rdotbelow" unicode="&#x1e5b;" horiz-adv-x="611" 
d="M352 250q98 0 98 62q0 25 -23.5 39.5t-74.5 14.5h-158v-116h158zM354 440q89 0 139 -29.5t50 -100.5q0 -27 -10 -48t-26.5 -36.5t-36.5 -25t-41 -14.5l98 -143q8 -11 17.5 -16.5t20.5 -8.5v-18h-153v18q13 0 13 9q0 10 -15 31l-79 118h-139v-143q0 -8 6.5 -11.5
t12.5 -3.5v-18h-133v18q18 0 18 15v374q0 15 -18 15v18h276zM266 -50h110v-110h-110v110z" />
    <glyph glyph-name="Rdotbelowmacron" unicode="&#x1e5c;" horiz-adv-x="722" 
d="M396 292q36 0 60 5.5t38 15.5t20 23.5t6 29.5t-6 29.5t-20 23.5t-38 15.5t-60 5.5h-173v-148h173zM422 526q48 0 87 -8.5t67 -27t43 -48t15 -72.5q0 -66 -39 -101t-105 -47l133 -190q7 -10 16.5 -12t17.5 -2v-18h-187v18q9 0 15.5 3t6.5 8t-4 11.5t-12 17.5l-110 156
h-143v-178q0 -9 6.5 -13.5t23.5 -4.5v-18h-173v18q29 0 29 18v454q0 18 -29 18v18h342zM193 642h327v-66h-327v66zM313 -50h110v-110h-110v110z" />
    <glyph glyph-name="rdotbelowmacron" unicode="&#x1e5d;" horiz-adv-x="611" 
d="M352 250q98 0 98 62q0 25 -23.5 39.5t-74.5 14.5h-158v-116h158zM354 440q89 0 139 -29.5t50 -100.5q0 -27 -10 -48t-26.5 -36.5t-36.5 -25t-41 -14.5l98 -143q8 -11 17.5 -16.5t20.5 -8.5v-18h-153v18q13 0 13 9q0 10 -15 31l-79 118h-139v-143q0 -8 6.5 -11.5
t12.5 -3.5v-18h-133v18q18 0 18 15v374q0 15 -18 15v18h276zM158 556h327v-66h-327v66zM266 -50h110v-110h-110v110z" />
    <glyph glyph-name="Rlinebelow" unicode="&#x1e5e;" horiz-adv-x="722" 
d="M396 292q36 0 60 5.5t38 15.5t20 23.5t6 29.5t-6 29.5t-20 23.5t-38 15.5t-60 5.5h-173v-148h173zM422 526q48 0 87 -8.5t67 -27t43 -48t15 -72.5q0 -66 -39 -101t-105 -47l133 -190q7 -10 16.5 -12t17.5 -2v-18h-187v18q9 0 15.5 3t6.5 8t-4 11.5t-12 17.5l-110 156
h-143v-178q0 -9 6.5 -13.5t23.5 -4.5v-18h-173v18q29 0 29 18v454q0 18 -29 18v18h342zM205 -50h327v-66h-327v66z" />
    <glyph glyph-name="rlinebelow" unicode="&#x1e5f;" horiz-adv-x="611" 
d="M352 250q98 0 98 62q0 25 -23.5 39.5t-74.5 14.5h-158v-116h158zM354 440q89 0 139 -29.5t50 -100.5q0 -27 -10 -48t-26.5 -36.5t-36.5 -25t-41 -14.5l98 -143q8 -11 17.5 -16.5t20.5 -8.5v-18h-153v18q13 0 13 9q0 10 -15 31l-79 118h-139v-143q0 -8 6.5 -11.5
t12.5 -3.5v-18h-133v18q18 0 18 15v374q0 15 -18 15v18h276zM158 -50h327v-66h-327v66z" />
    <glyph glyph-name="Sdotaccent" unicode="&#x1e60;" 
d="M125 165l10 -5q0 -9 4 -16q7 -12 27.5 -23.5t47 -20.5t55.5 -14.5t52 -5.5q17 0 44 2.5t53 10.5t45 22t19 37t-17.5 34t-46 16t-65 6.5t-74.5 4.5t-74.5 10t-65 23.5t-46 45t-17.5 74.5q0 31 14.5 61t44.5 53t76 37.5t108 14.5q53 0 92 -8t67.5 -17t48 -17t32.5 -8
q14 0 20 6l12 -8l-69 -125l-10 4q-2 14 -8 23q-8 12 -26.5 23.5t-43.5 20.5t-54 14.5t-58 5.5q-22 0 -45.5 -3.5t-42.5 -10.5t-31.5 -18.5t-12.5 -28.5q0 -24 17.5 -36t46 -18t65 -8t74.5 -5t74.5 -10.5t65 -24t46 -44.5t17.5 -73q0 -52 -27.5 -85t-68.5 -52t-88.5 -25.5
t-88.5 -6.5q-57 0 -95.5 6.5t-64 16t-40.5 17t-26 7.5q-7 0 -13 -8l-14 8zM278 692h110v-110h-110v110z" />
    <glyph glyph-name="sdotaccent" unicode="&#x1e61;" horiz-adv-x="556" 
d="M111 153q0 -4 -0.5 -8.5t-0.5 -9.5q0 -15 19 -27.5t45.5 -21t53 -13.5t41.5 -5q14 0 34.5 2t40.5 8.5t34 18t14 30.5q0 22 -24.5 32t-61.5 15.5t-80 11t-80 18t-61.5 36t-24.5 66.5q0 64 53 102t149 38q47 0 80.5 -7.5t56.5 -16.5t37.5 -16.5t21.5 -7.5q8 0 12 2.5
t10 5.5l11 -11l-50 -94l-18 6l-2 12t-9 12q-20 17 -62 29t-94 12q-20 0 -38 -2.5t-32 -8.5t-22 -15.5t-8 -23.5q0 -22 24.5 -31.5t61.5 -15t80 -11t80 -18.5t61.5 -38t24.5 -69t-21.5 -72t-53.5 -44t-70.5 -21t-72.5 -5t-67.5 6.5t-61 15t-46.5 16t-23 7.5q-7 0 -12 -6
l-14 10l46 112zM213 606h110v-110h-110v110z" />
    <glyph glyph-name="Sdotbelow" unicode="&#x1e62;" 
d="M125 165l10 -5q0 -9 4 -16q7 -12 27.5 -23.5t47 -20.5t55.5 -14.5t52 -5.5q17 0 44 2.5t53 10.5t45 22t19 37t-17.5 34t-46 16t-65 6.5t-74.5 4.5t-74.5 10t-65 23.5t-46 45t-17.5 74.5q0 31 14.5 61t44.5 53t76 37.5t108 14.5q53 0 92 -8t67.5 -17t48 -17t32.5 -8
q14 0 20 6l12 -8l-69 -125l-10 4q-2 14 -8 23q-8 12 -26.5 23.5t-43.5 20.5t-54 14.5t-58 5.5q-22 0 -45.5 -3.5t-42.5 -10.5t-31.5 -18.5t-12.5 -28.5q0 -24 17.5 -36t46 -18t65 -8t74.5 -5t74.5 -10.5t65 -24t46 -44.5t17.5 -73q0 -52 -27.5 -85t-68.5 -52t-88.5 -25.5
t-88.5 -6.5q-57 0 -95.5 6.5t-64 16t-40.5 17t-26 7.5q-7 0 -13 -8l-14 8zM278 -53h110v-110h-110v110z" />
    <glyph glyph-name="sdotbelow" unicode="&#x1e63;" horiz-adv-x="556" 
d="M111 153q0 -4 -0.5 -8.5t-0.5 -9.5q0 -15 19 -27.5t45.5 -21t53 -13.5t41.5 -5q14 0 34.5 2t40.5 8.5t34 18t14 30.5q0 22 -24.5 32t-61.5 15.5t-80 11t-80 18t-61.5 36t-24.5 66.5q0 64 53 102t149 38q47 0 80.5 -7.5t56.5 -16.5t37.5 -16.5t21.5 -7.5q8 0 12 2.5
t10 5.5l11 -11l-50 -94l-18 6l-2 12t-9 12q-20 17 -62 29t-94 12q-20 0 -38 -2.5t-32 -8.5t-22 -15.5t-8 -23.5q0 -22 24.5 -31.5t61.5 -15t80 -11t80 -18.5t61.5 -38t24.5 -69t-21.5 -72t-53.5 -44t-70.5 -21t-72.5 -5t-67.5 6.5t-61 15t-46.5 16t-23 7.5q-7 0 -12 -6
l-14 10l46 112zM213 -53h110v-110h-110v110z" />
    <glyph glyph-name="Sacutedotaccent" unicode="&#x1e64;" 
d="M125 165l10 -5q0 -9 4 -16q7 -12 27.5 -23.5t47 -20.5t55.5 -14.5t52 -5.5q17 0 44 2.5t53 10.5t45 22t19 37t-17.5 34t-46 16t-65 6.5t-74.5 4.5t-74.5 10t-65 23.5t-46 45t-17.5 74.5q0 31 14.5 61t44.5 53t76 37.5t108 14.5q53 0 92 -8t67.5 -17t48 -17t32.5 -8
q14 0 20 6l12 -8l-69 -125l-10 4q-2 14 -8 23q-8 12 -26.5 23.5t-43.5 20.5t-54 14.5t-58 5.5q-22 0 -45.5 -3.5t-42.5 -10.5t-31.5 -18.5t-12.5 -28.5q0 -24 17.5 -36t46 -18t65 -8t74.5 -5t74.5 -10.5t65 -24t46 -44.5t17.5 -73q0 -52 -27.5 -85t-68.5 -52t-88.5 -25.5
t-88.5 -6.5q-57 0 -95.5 6.5t-64 16t-40.5 17t-26 7.5q-7 0 -13 -8l-14 8zM329 558h-87l94 122h138zM290 820h110v-110h-110v110z" />
    <glyph glyph-name="sacutedotaccent" unicode="&#x1e65;" horiz-adv-x="556" 
d="M111 153q0 -4 -0.5 -8.5t-0.5 -9.5q0 -15 19 -27.5t45.5 -21t53 -13.5t41.5 -5q14 0 34.5 2t40.5 8.5t34 18t14 30.5q0 22 -24.5 32t-61.5 15.5t-80 11t-80 18t-61.5 36t-24.5 66.5q0 64 53 102t149 38q47 0 80.5 -7.5t56.5 -16.5t37.5 -16.5t21.5 -7.5q8 0 12 2.5
t10 5.5l11 -11l-50 -94l-18 6l-2 12t-9 12q-20 17 -62 29t-94 12q-20 0 -38 -2.5t-32 -8.5t-22 -15.5t-8 -23.5q0 -22 24.5 -31.5t61.5 -15t80 -11t80 -18.5t61.5 -38t24.5 -69t-21.5 -72t-53.5 -44t-70.5 -21t-72.5 -5t-67.5 6.5t-61 15t-46.5 16t-23 7.5q-7 0 -12 -6
l-14 10l46 112zM275 476h-83l90 121h134zM237 747h110v-110h-110v110z" />
    <glyph glyph-name="Scarondotaccent" unicode="&#x1e66;" 
d="M125 165l10 -5q0 -9 4 -16q7 -12 27.5 -23.5t47 -20.5t55.5 -14.5t52 -5.5q17 0 44 2.5t53 10.5t45 22t19 37t-17.5 34t-46 16t-65 6.5t-74.5 4.5t-74.5 10t-65 23.5t-46 45t-17.5 74.5q0 31 14.5 61t44.5 53t76 37.5t108 14.5q53 0 92 -8t67.5 -17t48 -17t32.5 -8
q14 0 20 6l12 -8l-69 -125l-10 4q-2 14 -8 23q-8 12 -26.5 23.5t-43.5 20.5t-54 14.5t-58 5.5q-22 0 -45.5 -3.5t-42.5 -10.5t-31.5 -18.5t-12.5 -28.5q0 -24 17.5 -36t46 -18t65 -8t74.5 -5t74.5 -10.5t65 -24t46 -44.5t17.5 -73q0 -52 -27.5 -85t-68.5 -52t-88.5 -25.5
t-88.5 -6.5q-57 0 -95.5 6.5t-64 16t-40.5 17t-26 7.5q-7 0 -13 -8l-14 8zM386 563h-110l-107 126h92l69 -79l71 79h92zM282 827h110v-110h-110v110z" />
    <glyph glyph-name="scarondotaccent" unicode="&#x1e67;" horiz-adv-x="556" 
d="M111 153q0 -4 -0.5 -8.5t-0.5 -9.5q0 -15 19 -27.5t45.5 -21t53 -13.5t41.5 -5q14 0 34.5 2t40.5 8.5t34 18t14 30.5q0 22 -24.5 32t-61.5 15.5t-80 11t-80 18t-61.5 36t-24.5 66.5q0 64 53 102t149 38q47 0 80.5 -7.5t56.5 -16.5t37.5 -16.5t21.5 -7.5q8 0 12 2.5
t10 5.5l11 -11l-50 -94l-18 6l-2 12t-9 12q-20 17 -62 29t-94 12q-20 0 -38 -2.5t-32 -8.5t-22 -15.5t-8 -23.5q0 -22 24.5 -31.5t61.5 -15t80 -11t80 -18.5t61.5 -38t24.5 -69t-21.5 -72t-53.5 -44t-70.5 -21t-72.5 -5t-67.5 6.5t-61 15t-46.5 16t-23 7.5q-7 0 -12 -6
l-14 10l46 112zM320 480h-109l-107 120h92l69 -75l70 75h92zM213 756h110v-110h-110v110z" />
    <glyph glyph-name="Sdotbelowdotaccent" unicode="&#x1e68;" 
d="M125 165l10 -5q0 -9 4 -16q7 -12 27.5 -23.5t47 -20.5t55.5 -14.5t52 -5.5q17 0 44 2.5t53 10.5t45 22t19 37t-17.5 34t-46 16t-65 6.5t-74.5 4.5t-74.5 10t-65 23.5t-46 45t-17.5 74.5q0 31 14.5 61t44.5 53t76 37.5t108 14.5q53 0 92 -8t67.5 -17t48 -17t32.5 -8
q14 0 20 6l12 -8l-69 -125l-10 4q-2 14 -8 23q-8 12 -26.5 23.5t-43.5 20.5t-54 14.5t-58 5.5q-22 0 -45.5 -3.5t-42.5 -10.5t-31.5 -18.5t-12.5 -28.5q0 -24 17.5 -36t46 -18t65 -8t74.5 -5t74.5 -10.5t65 -24t46 -44.5t17.5 -73q0 -52 -27.5 -85t-68.5 -52t-88.5 -25.5
t-88.5 -6.5q-57 0 -95.5 6.5t-64 16t-40.5 17t-26 7.5q-7 0 -13 -8l-14 8zM278 -53h110v-110h-110v110zM278 692h110v-110h-110v110z" />
    <glyph glyph-name="sdotbelowdotaccent" unicode="&#x1e69;" horiz-adv-x="556" 
d="M111 153q0 -4 -0.5 -8.5t-0.5 -9.5q0 -15 19 -27.5t45.5 -21t53 -13.5t41.5 -5q14 0 34.5 2t40.5 8.5t34 18t14 30.5q0 22 -24.5 32t-61.5 15.5t-80 11t-80 18t-61.5 36t-24.5 66.5q0 64 53 102t149 38q47 0 80.5 -7.5t56.5 -16.5t37.5 -16.5t21.5 -7.5q8 0 12 2.5
t10 5.5l11 -11l-50 -94l-18 6l-2 12t-9 12q-20 17 -62 29t-94 12q-20 0 -38 -2.5t-32 -8.5t-22 -15.5t-8 -23.5q0 -22 24.5 -31.5t61.5 -15t80 -11t80 -18.5t61.5 -38t24.5 -69t-21.5 -72t-53.5 -44t-70.5 -21t-72.5 -5t-67.5 6.5t-61 15t-46.5 16t-23 7.5q-7 0 -12 -6
l-14 10l46 112zM213 -53h110v-110h-110v110zM213 606h110v-110h-110v110z" />
    <glyph glyph-name="Tdotaccent" unicode="&#x1e6a;" horiz-adv-x="611" 
d="M362 36q0 -18 22 -18v-18h-154v18q7 0 12.5 4.5t5.5 13.5v398h-165q-9 0 -17.5 -5t-8.5 -19h-18v140h18q0 -14 8.5 -19t17.5 -5h444q9 0 17.5 5t8.5 19h18v-140h-18q0 14 -8.5 19t-17.5 5h-165v-398zM250 710h110v-110h-110v110z" />
    <glyph glyph-name="tdotaccent" unicode="&#x1e6b;" horiz-adv-x="500" 
d="M187 18q5 0 10 3.5t5 11.5v333h-130q-8 0 -15 -4t-7 -13h-18v115h18q0 -14 7 -19t15 -5h356q8 0 15 5t7 19h18v-115h-18q0 9 -7 13t-15 4h-130v-333q0 -15 18 -15v-18h-129v18zM195 624h110v-110h-110v110z" />
    <glyph glyph-name="Tdotbelow" unicode="&#x1e6c;" horiz-adv-x="611" 
d="M362 36q0 -18 22 -18v-18h-154v18q7 0 12.5 4.5t5.5 13.5v398h-165q-9 0 -17.5 -5t-8.5 -19h-18v140h18q0 -14 8.5 -19t17.5 -5h444q9 0 17.5 5t8.5 19h18v-140h-18q0 14 -8.5 19t-17.5 5h-165v-398zM250 -50h110v-110h-110v110z" />
    <glyph glyph-name="tdotbelow" unicode="&#x1e6d;" horiz-adv-x="500" 
d="M187 18q5 0 10 3.5t5 11.5v333h-130q-8 0 -15 -4t-7 -13h-18v115h18q0 -14 7 -19t15 -5h356q8 0 15 5t7 19h18v-115h-18q0 9 -7 13t-15 4h-130v-333q0 -15 18 -15v-18h-129v18zM195 -50h110v-110h-110v110z" />
    <glyph glyph-name="Tlinebelow" unicode="&#x1e6e;" horiz-adv-x="611" 
d="M362 36q0 -18 22 -18v-18h-154v18q7 0 12.5 4.5t5.5 13.5v398h-165q-9 0 -17.5 -5t-8.5 -19h-18v140h18q0 -14 8.5 -19t17.5 -5h444q9 0 17.5 5t8.5 19h18v-140h-18q0 14 -8.5 19t-17.5 5h-165v-398zM142 -50h327v-66h-327v66z" />
    <glyph glyph-name="tlinebelow" unicode="&#x1e6f;" horiz-adv-x="500" 
d="M187 18q5 0 10 3.5t5 11.5v333h-130q-8 0 -15 -4t-7 -13h-18v115h18q0 -14 7 -19t15 -5h356q8 0 15 5t7 19h18v-115h-18q0 9 -7 13t-15 4h-130v-333q0 -15 18 -15v-18h-129v18zM87 -50h327v-66h-327v66z" />
    <glyph glyph-name="Tcircumflexbelow" unicode="&#x1e70;" horiz-adv-x="611" 
d="M362 36q0 -18 22 -18v-18h-154v18q7 0 12.5 4.5t5.5 13.5v398h-165q-9 0 -17.5 -5t-8.5 -19h-18v140h18q0 -14 8.5 -19t17.5 -5h444q9 0 17.5 5t8.5 19h18v-140h-18q0 14 -8.5 19t-17.5 5h-165v-398zM142 -194l108 144h111l108 -144h-93l-70 90l-71 -90h-93z" />
    <glyph glyph-name="tcircumflexbelow" unicode="&#x1e71;" horiz-adv-x="500" 
d="M187 18q5 0 10 3.5t5 11.5v333h-130q-8 0 -15 -4t-7 -13h-18v115h18q0 -14 7 -19t15 -5h356q8 0 15 5t7 19h18v-115h-18q0 9 -7 13t-15 4h-130v-333q0 -15 18 -15v-18h-129v18zM87 -194l108 144h111l108 -144h-93l-70 90l-71 -90h-93z" />
    <glyph glyph-name="Udieresisbelow" unicode="&#x1e72;" horiz-adv-x="722" 
d="M230 508q-22 0 -22 -18v-300q0 -63 40.5 -86.5t118.5 -23.5t118.5 23.5t40.5 86.5v300q0 18 -30 18v18h160v-18q-24 0 -24 -18v-295q0 -59 -17 -97.5t-51 -61.5t-84.5 -31t-116.5 -8t-116.5 8t-84.5 31t-51 61.5t-17 97.5v295q0 18 -28 18v18h164v-18zM219 -53h110v-110
h-110v110zM394 -53h110v-110h-110v110z" />
    <glyph glyph-name="udieresisbelow" unicode="&#x1e73;" 
d="M217 422q-22 0 -22 -15v-229q0 -48 35 -77t107 -29t107 29t35 77v229q0 15 -25 15v18h139v-18q-22 0 -22 -15v-253q0 -31 -14 -59.5t-42.5 -50.5t-73 -34.5t-104.5 -12.5t-104.5 12.5t-73 34.5t-42.5 50.5t-14 59.5v253q0 8 -6 11.5t-23 3.5v18h143v-18zM191 -53h110
v-110h-110v110zM366 -53h110v-110h-110v110z" />
    <glyph glyph-name="Utildebelow" unicode="&#x1e74;" horiz-adv-x="722" 
d="M230 508q-22 0 -22 -18v-300q0 -63 40.5 -86.5t118.5 -23.5t118.5 23.5t40.5 86.5v300q0 18 -30 18v18h160v-18q-24 0 -24 -18v-295q0 -59 -17 -97.5t-51 -61.5t-84.5 -31t-116.5 -8t-116.5 8t-84.5 31t-51 61.5t-17 97.5v295q0 18 -28 18v18h164v-18zM537 -53
q-5 -23 -13 -44t-21 -37t-32 -25.5t-46 -9.5q-15 0 -34 6t-38.5 13t-38 13t-32.5 6q-20 0 -29 -14t-14 -30h-53q8 47 29 79t73 38q16 2 35 -4t38.5 -13.5t38.5 -14.5t34 -7q19 0 30.5 13.5t15.5 30.5h57z" />
    <glyph glyph-name="utildebelow" unicode="&#x1e75;" 
d="M217 422q-22 0 -22 -15v-229q0 -48 35 -77t107 -29t107 29t35 77v229q0 15 -25 15v18h139v-18q-22 0 -22 -15v-253q0 -31 -14 -59.5t-42.5 -50.5t-73 -34.5t-104.5 -12.5t-104.5 12.5t-73 34.5t-42.5 50.5t-14 59.5v253q0 8 -6 11.5t-23 3.5v18h143v-18zM509 -53
q-5 -23 -13 -44t-21 -37t-32 -25.5t-46 -9.5q-15 0 -34 6t-38.5 13t-38 13t-32.5 6q-20 0 -29 -14t-14 -30h-53q8 47 29 79t73 38q16 2 35 -4t38.5 -13.5t38.5 -14.5t34 -7q19 0 30.5 13.5t15.5 30.5h57z" />
    <glyph glyph-name="Ucircumflexbelow" unicode="&#x1e76;" horiz-adv-x="722" 
d="M230 508q-22 0 -22 -18v-300q0 -63 40.5 -86.5t118.5 -23.5t118.5 23.5t40.5 86.5v300q0 18 -30 18v18h160v-18q-24 0 -24 -18v-295q0 -59 -17 -97.5t-51 -61.5t-84.5 -31t-116.5 -8t-116.5 8t-84.5 31t-51 61.5t-17 97.5v295q0 18 -28 18v18h164v-18zM198 -197l108 144
h111l108 -144h-93l-70 90l-71 -90h-93z" />
    <glyph glyph-name="ucircumflexbelow" unicode="&#x1e77;" 
d="M217 422q-22 0 -22 -15v-229q0 -48 35 -77t107 -29t107 29t35 77v229q0 15 -25 15v18h139v-18q-22 0 -22 -15v-253q0 -31 -14 -59.5t-42.5 -50.5t-73 -34.5t-104.5 -12.5t-104.5 12.5t-73 34.5t-42.5 50.5t-14 59.5v253q0 8 -6 11.5t-23 3.5v18h143v-18zM170 -197
l108 144h111l108 -144h-93l-70 90l-71 -90h-93z" />
    <glyph glyph-name="Utildeacute" unicode="&#x1e78;" horiz-adv-x="722" 
d="M230 508q-22 0 -22 -18v-300q0 -63 40.5 -86.5t118.5 -23.5t118.5 23.5t40.5 86.5v300q0 18 -30 18v18h160v-18q-24 0 -24 -18v-295q0 -59 -17 -97.5t-51 -61.5t-84.5 -31t-116.5 -8t-116.5 8t-84.5 31t-51 61.5t-17 97.5v295q0 18 -28 18v18h164v-18zM545 663
q-5 -20 -13 -38.5t-21 -32.5t-31.5 -22.5t-45.5 -8.5q-15 0 -34 5.5t-38.5 11.5t-38 11t-32.5 5q-19 0 -28 -12t-14 -26h-53q8 41 29 69t72 33q16 2 35 -3t38.5 -12t38.5 -13t34 -6q19 0 30 12t15 27h57zM380 683h-84l91 144h135z" />
    <glyph glyph-name="utildeacute" unicode="&#x1e79;" 
d="M217 422q-22 0 -22 -15v-229q0 -48 35 -77t107 -29t107 29t35 77v229q0 15 -25 15v18h139v-18q-22 0 -22 -15v-253q0 -31 -14 -59.5t-42.5 -50.5t-73 -34.5t-104.5 -12.5t-104.5 12.5t-73 34.5t-42.5 50.5t-14 59.5v253q0 8 -6 11.5t-23 3.5v18h143v-18zM509 612
q-5 -23 -13 -44t-21 -37t-32 -25.5t-46 -9.5q-15 0 -34 6t-38.5 13t-38 13t-32.5 6q-20 0 -29 -14t-14 -30h-53q8 47 29 79t73 38q16 2 35 -4t38.5 -13.5t38.5 -14.5t34 -7q19 0 30.5 13.5t15.5 30.5h57zM344 631h-84l91 144h135z" />
    <glyph glyph-name="Umacrondieresis" unicode="&#x1e7a;" horiz-adv-x="722" 
d="M230 508q-22 0 -22 -18v-300q0 -63 40.5 -86.5t118.5 -23.5t118.5 23.5t40.5 86.5v300q0 18 -30 18v18h160v-18q-24 0 -24 -18v-295q0 -59 -17 -97.5t-51 -61.5t-84.5 -31t-116.5 -8t-116.5 8t-84.5 31t-51 61.5t-17 97.5v295q0 18 -28 18v18h164v-18zM198 642h327v-66
h-327v66zM219 780h110v-88h-110v88zM393 780h110v-88h-110v88z" />
    <glyph glyph-name="umacrondieresis" unicode="&#x1e7b;" 
d="M217 422q-22 0 -22 -15v-229q0 -48 35 -77t107 -29t107 29t35 77v229q0 15 -25 15v18h139v-18q-22 0 -22 -15v-253q0 -31 -14 -59.5t-42.5 -50.5t-73 -34.5t-104.5 -12.5t-104.5 12.5t-73 34.5t-42.5 50.5t-14 59.5v253q0 8 -6 11.5t-23 3.5v18h143v-18zM170 556h327v-66
h-327v66zM191 699h110v-93h-110v93zM366 699h110v-93h-110v93z" />
    <glyph glyph-name="Vtilde" unicode="&#x1e7c;" 
d="M644 508q-20 0 -29 -14.5t-13 -23.5l-177 -389q-9 -20 -15 -32t-6 -17t2.5 -8t6.5 -6v-18h-153v18q9 4 9 14q0 5 -7.5 20.5t-18.5 38.5l-180 391q-5 11 -14 16t-26 10v18h179v-18q-7 0 -13.5 -3.5t-6.5 -13.5q0 -11 8.5 -28t20.5 -42l128 -275l125 271q12 26 22.5 46.5
t10.5 28.5q0 16 -28 16v18h175v-18zM525 696q-5 -23 -13 -44t-21 -37t-32 -25.5t-46 -9.5q-15 0 -34 6t-38.5 13t-38 13t-32.5 6q-20 0 -29 -14t-14 -30h-53q8 47 29 79t73 38q16 2 35 -4t38.5 -13.5t38.5 -14.5t34 -7q19 0 30.5 13.5t15.5 30.5h57z" />
    <glyph glyph-name="vtilde" unicode="&#x1e7d;" horiz-adv-x="556" 
d="M532 422q-14 0 -25 -23l-146 -323q-11 -26 -16.5 -35t-5.5 -14q0 -6 18 -9v-18h-151v18q5 2 9.5 4.5t4.5 7.5t-6.5 16t-15.5 30l-152 327q-4 9 -10.5 14t-12.5 5v18h141v-18q-12 0 -12 -13q0 -7 5.5 -19.5t12.5 -27.5l115 -249l109 242q11 24 17 36t5 19q-1 12 -15 12v18
h131v-18zM453 612q-5 -23 -13 -44t-21 -37t-32 -25.5t-46 -9.5q-15 0 -34 6t-38.5 13t-38 13t-32.5 6q-20 0 -29 -14t-14 -30h-53q8 47 29 79t73 38q16 2 35 -4t38.5 -13.5t38.5 -14.5t34 -7q19 0 30.5 13.5t15.5 30.5h57z" />
    <glyph glyph-name="Vdotbelow" unicode="&#x1e7e;" 
d="M644 508q-20 0 -29 -14.5t-13 -23.5l-177 -389q-9 -20 -15 -32t-6 -17t2.5 -8t6.5 -6v-18h-153v18q9 4 9 14q0 5 -7.5 20.5t-18.5 38.5l-180 391q-5 11 -14 16t-26 10v18h179v-18q-7 0 -13.5 -3.5t-6.5 -13.5q0 -11 8.5 -28t20.5 -42l128 -275l125 271q12 26 22.5 46.5
t10.5 28.5q0 16 -28 16v18h175v-18zM278 -50h110v-110h-110v110z" />
    <glyph glyph-name="vdotbelow" unicode="&#x1e7f;" horiz-adv-x="556" 
d="M532 422q-14 0 -25 -23l-146 -323q-11 -26 -16.5 -35t-5.5 -14q0 -6 18 -9v-18h-151v18q5 2 9.5 4.5t4.5 7.5t-6.5 16t-15.5 30l-152 327q-4 9 -10.5 14t-12.5 5v18h141v-18q-12 0 -12 -13q0 -7 5.5 -19.5t12.5 -27.5l115 -249l109 242q11 24 17 36t5 19q-1 12 -15 12v18
h131v-18zM222 -50h110v-110h-110v110z" />
    </font>
</defs>
</svg>
