<?xml version="1.0" encoding="utf-8"?>
<!-- Generator: Adobe Illustrator 16.0.0, SVG Export Plug-In . SVG Version: 6.00 Build 0)  -->
<!DOCTYPE svg PUBLIC "-//W3C//DTD SVG 1.1//EN" "http://www.w3.org/Graphics/SVG/1.1/DTD/svg11.dtd">
<svg version="1.1" id="Calque_1" xmlns="http://www.w3.org/2000/svg" xmlns:xlink="http://www.w3.org/1999/xlink" x="0px" y="0px"
	 width="2200px" height="550px" viewBox="0 0 2200 550" enable-background="new 0 0 2200 550" xml:space="preserve">
<symbol  id="earth_1_" viewBox="-1.5 -300.5 302.05 302">
	<g>
		<g id="Calque_3_1_">
			<path fill-rule="evenodd" clip-rule="evenodd" fill="#214A7E" d="M298.8-139.75c0.167-3.2,0.25-6.45,0.25-9.75
				c0-41.267-14.6-76.5-43.8-105.7c-12.133-12.134-25.3-21.75-39.5-28.85c-20-9.967-42.067-14.95-66.2-14.95
				c-41.3,0-76.55,14.6-105.75,43.8C14.6-226,0-190.767,0-149.5c0,14.5,1.8,28.25,5.4,41.25l0.4-26.55l3-23.75l3.25-5.75
				c1.633-4.1,0.3-8.184-4-12.25c2.733-40.233,25.4-68.65,68-85.25c1.9,0.633,3.483,2.8,4.75,6.5c-2.433,2.167-3.267,4.333-2.5,6.5
				c1.633,3.033,4.467,4.867,8.5,5.5c1.367,2.267,1.367,4.85,0,7.75c-7.333,5.733-16.417,11.733-27.25,18
				c-3.933,1.966-5.933,4.883-6,8.75c-2.9,2.7-4.233,6.033-4,10c-6,1.533-9.75,5.617-11.25,12.25c-2.333,2.267-3.333,5.183-3,8.75
				c-6.466,2.966-11.3,7.883-14.5,14.75l-7.5,2.5c-2.867,5.833-3.783,11.667-2.75,17.5v7.75l-2.5,4c-0.2,3.033,1.467,5.45,5,7.25
				c6.6-5.2,7.767-11.034,3.5-17.5c2.4-5.934,7.817-10.35,16.25-13.25c-7.033,10.133-11.617,20.55-13.75,31.25l-6.5,5.75l-4.5-4
				c-1.2,8.233,1.633,16.483,8.5,24.75h3.25v-4.5h3v-2.75l2.5-2.5l-3.5-7.25v-9.5l5.75,14.25c2.934,3.2,6.184,4.533,9.75,4l2.5,4.5
				h2.5l3.75,5.5l4.75-2.5l2.5,4.5c3.4,0.966,6.483,0.966,9.25,0l-2.75-4.5h9.25c-5.466,3.233-5.466,6.483,0,9.75L63.8-85.3
				l4.75,2.75l6.5-4.6h6.4l-8.4-7.15l6-7.5l3.75,6.25l-2.75,2.5l1.4,5.9l2.6,10.85l4.5,11.5l-6-4v6h3.5v7l3.75,2.3v-8.8
				c8.434,1.033,15.933,5.2,22.5,12.5v4.5c-1.567-1.534-3.15-1.534-4.75,0c0.667,7.233,5,10.15,13,8.75l-2.5-6h3
				c-2.733-9.733-7.983-16.65-15.75-20.75l-3-9.25l3.25-5h2.75l8.5,9.75h5.75l5.5,4.25h7.25l6.5,10l3,13.25v5.75l5.25-4.25
				c9.633-0.467,15.383,2.617,17.25,9.25h5.25l-3,4.5v3.75l5.25,2.5v3.75h-6.25v3h0.05l3.45,2.75l5.25-3.5l5.5-2.5v-8.25l7.25-3.75
				v-3.5h4.75l-3.25-5.5l8.5-3.5v-3.75l-2.75-4.5v-4l-2.75-3.25c-5.967-0.567-11.3,0.433-16,3l-6.5-7.25v-14l-5.5-6
				c2.5-0.733,3.417-2.733,2.75-6h3l3,3.75l2.5-2.75l-3.25-3.5l2.5-9h-4.5c-2.767-7.2-7.35-12.284-13.75-15.25
				c5.567-2.833,7.65-6.917,6.25-12.25c-4.733-1.6-9.483-1.6-14.25,0c1.667-5.434,1.667-10.85,0-16.25h13.5l6.25,4.75L167.7-131
				c2.8,0.633,4.717,2.717,5.75,6.25h5.1l5.75,6.3l6.85-5.7h9.15l-4.55-8.3l4.55-4.3v12.6c-6.1,2-9.917,5.617-11.45,10.85
				c5.267-4.733,11.167-6.633,17.7-5.7v-6.3l9.75-9.15v6.85c-3.2,1.833-5.117,4.317-5.75,7.45h6.3c2.067-4.867,5.5-8.1,10.3-9.7
				v4.55H234c-2.8,1.9-2.8,3.8,0,5.7c2.667,0.766,4.767-3.984,6.3-14.25c-8.033-2.3-9.95-4.6-5.75-6.9H218
				c-4.6-1.5-6.5-4.084-5.7-7.75c-5.7,3.233-11.417,3.733-17.15,1.5c-3.167,2.067-3.167,4.15,0,6.25l-5.7,5.75
				c-9.033-1.334-16.467-4.584-22.3-9.75h-6.3l-12-10.25v-5.15c-8.567-6.1-14.283-12.767-17.15-20c2.333-4.967,2.333-9.917,0-14.85
				l5.75-17.15l14.3-8h17.7l13.1,5.7c5.2,0.067,7.117-1.833,5.75-5.7c6.733,3.2,9.783,3.2,9.15,0c3.333-0.1,3.333-3.533,0-10.3
				c5.167-3.467,8.967-8.034,11.4-13.7c-0.9-6-3.75-11.334-8.55-16c4.2-3.533,6.1-7.717,5.7-12.55
				c18.933,2,36.617,15.716,53.05,41.15c1.233,3.433,1.233,7.183,0,11.25c14.033,27.1,20.033,46.183,18,57.25
				c-2.267-5.067-5.517-9.15-9.75-12.25c-11.1,8.2-20.517,18.367-28.25,30.5l3,2.75c5.667-3.167,9.833-7.583,12.5-13.25
				c6.5-1.934,10.5-6.6,12-14c10.267,13.233,14.35,26.483,12.25,39.75l-6.5,2.5c0.033-4.5-1.467-7.167-4.5-8v4.5
				c-4.267-0.7-7.6,0.466-10,3.5l2.5,4.5c3.167-2.733,6.333-3.817,9.5-3.25v4.75l2.75-3.5c4.333,2.667,6.333,6.667,6,12l4.25-5.5
				l3.25,4L298.8-139.75z M243.3-85.05v-4.75l8.5-7.75l5.25-8.25c-1.233-2.333-3.067-3.5-5.5-3.5l-2.5,4l-7,4.25h6.25l-10.75,4.25
				l-4.25,5c-2.967,5.533-1.883,9.617,3.25,12.25C238.75-82.417,241-84.25,243.3-85.05z M184.55-72.55l4.75-4.75l3.75,4.5l2.75-2.5
				l-3.75-6.75v-10.5l-3,3c-2.033-4.2-4.7-5.2-8-3l4.25,5.25l-2.75,3.25l3.5,4.5l-4.25,2.5v14.75l2.75-3V-72.55z M223.05-102.3
				c-0.733,2.566,0.183,5.15,2.75,7.75v-6.75l7.75-2.5h2.5v-3l-4.25-3.25h-6.75c-0.9-4.667-3.317-6.333-7.25-5
				c-2.967,4.2-4.05,9.033-3.25,14.5l8.5-4.75V-102.3z M164.55-104.55l3,4.5l-10,14.5l-4.75-4.5l7.5-8.25l-4.75-5.25l2.5-3.5
				L164.55-104.55z M134.55-4.15l-0.45-0.8c-0.333-2.167-2.35-3.367-6.05-3.6c-0.167,0-0.333,0-0.5,0
				c-2.333,2.667-7.6,4.017-15.8,4.05c5.6,1.4,11.333,2.467,17.2,3.2L134.55-4.15z M113.65-21.55
				c-4.633,0.933-9.583-0.483-14.85-4.25c-0.9,3,1.433,6,7,9l9.85,6.25l2.75-0.15l-8.1-7.85h3.5v-3.5
				C113.767-22.05,113.717-21.883,113.65-21.55z M144.05-69.55l-9.5,0.75l3-7l7.25,2.25L144.05-69.55z M83.55-44.55
				c-2.3-4.3-2.383-7.633-0.25-10l-6.75-5.25c-0.933-3.333-3.683-5.167-8.25-5.5l-7-6.5c-0.8,3.167,0.95,6.333,5.25,9.5
				C66.65-49.333,72.317-43.417,83.55-44.55z M153.8-95.55l-4-3v-6l4,2.75V-95.55z M48.25-39.5c18.767,17.433,39.933,29.1,63.5,35
				C92.217-17.5,71.05-29.167,48.25-39.5z M47.8-68.3h5.75l-3.25-6.5L47.8-68.3z"/>
			<path fill-rule="evenodd" clip-rule="evenodd" fill="#578ECF" d="M243.3-85.05c-2.3,0.8-4.55,2.633-6.75,5.5
				c-5.133-2.633-6.216-6.717-3.25-12.25l4.25-5l10.75-4.25h-6.25l7-4.25l2.5-4c2.433,0,4.267,1.167,5.5,3.5l-5.25,8.25l-8.5,7.75
				V-85.05z M298.8-139.75l-12.75,25.7l-3.25-4l-4.25,5.5c0.333-5.333-1.667-9.333-6-12l-2.75,3.5v-4.75
				c-3.167-0.567-6.333,0.517-9.5,3.25l-2.5-4.5c2.4-3.033,5.733-4.2,10-3.5v-4.5c3.034,0.833,4.534,3.5,4.5,8l6.5-2.5
				c2.1-13.267-1.983-26.517-12.25-39.75c-1.5,7.4-5.5,12.067-12,14c-2.667,5.667-6.833,10.083-12.5,13.25l-3-2.75
				c7.733-12.133,17.15-22.3,28.25-30.5c4.233,3.1,7.483,7.183,9.75,12.25c2.034-11.067-3.966-30.15-18-57.25
				c1.233-4.067,1.233-7.817,0-11.25c-16.433-25.433-34.117-39.15-53.05-41.15c0.4,4.833-1.5,9.017-5.7,12.55
				c4.8,4.667,7.65,10,8.55,16c-2.433,5.667-6.233,10.233-11.4,13.7c3.333,6.767,3.333,10.2,0,10.3c0.634,3.2-2.417,3.2-9.15,0
				c1.367,3.867-0.55,5.767-5.75,5.7l-13.1-5.7h-17.7l-14.3,8L131.7-195c2.333,4.933,2.333,9.883,0,14.85
				c2.867,7.233,8.583,13.9,17.15,20v5.15l12,10.25h6.3c5.833,5.167,13.267,8.417,22.3,9.75l5.7-5.75c-3.167-2.1-3.167-4.183,0-6.25
				c5.733,2.233,11.45,1.733,17.15-1.5c-0.8,3.667,1.1,6.25,5.7,7.75h16.55c-4.2,2.3-2.283,4.6,5.75,6.9
				c-1.533,10.267-3.633,15.017-6.3,14.25c-2.8-1.9-2.8-3.8,0-5.7h-6.85v-4.55c-4.8,1.6-8.233,4.833-10.3,9.7h-6.3
				c0.633-3.133,2.55-5.617,5.75-7.45v-6.85l-9.75,9.15v6.3c-6.533-0.933-12.433,0.967-17.7,5.7c1.533-5.233,5.35-8.85,11.45-10.85
				v-12.6l-4.55,4.3l4.55,8.3h-9.15l-6.85,5.7l-5.75-6.3h-5.1c-1.033-3.533-2.95-5.617-5.75-6.25l2.85-5.05l-6.25-4.75h-13.5
				c1.667,5.4,1.667,10.817,0,16.25c4.767-1.6,9.517-1.6,14.25,0c1.4,5.333-0.683,9.417-6.25,12.25
				c6.4,2.967,10.983,8.05,13.75,15.25h4.5l-2.5,9l3.25,3.5l-2.5,2.75l-3-3.75h-3c0.667,3.267-0.25,5.267-2.75,6l5.5,6v14l6.5,7.25
				c4.7-2.567,10.034-3.567,16-3l2.75,3.25v4l2.75,4.5v3.75l-8.5,3.5l3.25,5.5h-4.75v3.5l-7.25,3.75v8.25l-5.5,2.5l-5.25,3.5
				l-3.45-2.75c-8.667,4.9-20.016,7.533-34.05,7.9l-5.6,2.85c6.7,0.867,13.567,1.3,20.6,1.3c41.267,0,76.5-14.6,105.7-43.8
				C282.117-70.667,296.633-102.65,298.8-139.75z M47.8-68.3l2.5-6.5l3.25,6.5H47.8z M48.25-39.5c22.8,10.333,43.967,22,63.5,35
				c8.2-0.033,13.467-1.383,15.8-4.05c0.167,0,0.333,0,0.5,0l-9.65-2.15l0.15,0.15h-2.9l-9.85-6.25c-5.566-3-7.9-6-7-9
				c5.267,3.767,10.217,5.183,14.85,4.25c-5.066-6.633-12.033-10.684-20.9-12.15c2.767-6.633,1.783-13.233-2.95-19.8l-3.75-2.3v-7
				h-3.5v-6l6,4l-4.5-11.5l-2.6-10.85l-1.4-5.9l2.75-2.5l-3.75-6.25l-6,7.5l8.4,7.15h-6.4l-6.5,4.6L63.8-85.3l5.25-2.75
				c-5.466-3.267-5.466-6.517,0-9.75H59.8l2.75,4.5c-2.767,0.966-5.85,0.966-9.25,0l-2.5-4.5l-4.75,2.5l-3.75-5.5h-2.5l-2.5-4.5
				c-3.566,0.533-6.816-0.8-9.75-4l-5.75-14.25v9.5l3.5,7.25l-2.5,2.5v2.75h-3v4.5h-3.25c-6.867-8.267-9.7-16.517-8.5-24.75l4.5,4
				l6.5-5.75c2.133-10.7,6.717-21.117,13.75-31.25c-8.433,2.9-13.85,7.317-16.25,13.25c4.267,6.467,3.1,12.3-3.5,17.5
				c-3.533-1.8-5.2-4.217-5-7.25l2.5-4v-7.75c-1.033-5.833-0.117-11.667,2.75-17.5l7.5-2.5c3.2-6.867,8.034-11.783,14.5-14.75
				c-0.333-3.567,0.667-6.483,3-8.75c1.5-6.633,5.25-10.717,11.25-12.25c-0.233-3.967,1.1-7.3,4-10c0.067-3.867,2.067-6.783,6-8.75
				c10.833-6.267,19.917-12.267,27.25-18c1.367-2.9,1.367-5.483,0-7.75c-4.033-0.633-6.867-2.467-8.5-5.5
				c-0.767-2.167,0.067-4.333,2.5-6.5c-1.267-3.7-2.85-5.867-4.75-6.5c-42.6,16.6-65.267,45.017-68,85.25
				c4.3,4.067,5.633,8.15,4,12.25l-3.25,5.75l-3,23.75l-0.4,26.55c6.667,24.033,19.467,45.517,38.4,64.45
				C45.267-42.333,46.75-40.9,48.25-39.5z M223.05-102.3v-3l-8.5,4.75c-0.8-5.467,0.284-10.3,3.25-14.5
				c3.933-1.333,6.35,0.333,7.25,5h6.75l4.25,3.25v3h-2.5l-7.75,2.5v6.75C223.233-97.15,222.317-99.733,223.05-102.3z M184.55-72.55
				v7.25l-2.75,3v-14.75l4.25-2.5l-3.5-4.5l2.75-3.25l-4.25-5.25c3.3-2.2,5.967-1.2,8,3l3-3v10.5l3.75,6.75l-2.75,2.5l-3.75-4.5
				L184.55-72.55z M164.55-104.55l-6.5-2.5l-2.5,3.5l4.75,5.25l-7.5,8.25l4.75,4.5l10-14.5L164.55-104.55z M153.8-95.55v-6.25
				l-4-2.75v6L153.8-95.55z M83.55-44.55c-11.233,1.133-16.9-4.784-17-17.75c-4.3-3.167-6.05-6.333-5.25-9.5l7,6.5
				c4.567,0.333,7.317,2.167,8.25,5.5l6.75,5.25C81.167-52.183,81.25-48.85,83.55-44.55z"/>
			
				<path fill-rule="evenodd" clip-rule="evenodd" fill="none" stroke="#578ECF" stroke-width="3" stroke-linecap="round" stroke-linejoin="round" stroke-miterlimit="3" d="
				M5.4-108.25C1.8-121.25,0-135,0-149.5c0-41.267,14.6-76.5,43.8-105.7C73-284.4,108.25-299,149.55-299
				c24.133,0,46.2,4.983,66.2,14.95c14.2,7.1,27.367,16.717,39.5,28.85c29.2,29.2,43.8,64.433,43.8,105.7
				c0,3.3-0.083,6.55-0.25,9.75 M128.95-1.3c6.7,0.867,13.567,1.3,20.6,1.3c41.267,0,76.5-14.6,105.7-43.8
				c26.867-26.867,41.383-58.85,43.55-95.95 M128.95-1.3c-5.867-0.733-11.6-1.8-17.2-3.2 M5.4-108.25
				c6.667,24.033,19.467,45.517,38.4,64.45c1.467,1.466,2.95,2.9,4.45,4.3c18.767,17.433,39.933,29.1,63.5,35"/>
		</g>
		<g>
			<path fill-rule="evenodd" clip-rule="evenodd" fill="#578ECF" d="M172.55-29.55h-5.25c-1.867-6.633-7.617-9.717-17.25-9.25
				l-5.25,4.25v-5.75l-3-13.25l-6.5-10h-7.25l-5.5-4.25h-5.75l-8.5-9.75h-2.75l-3.25,5l3,9.25c7.767,4.1,13.017,11.017,15.75,20.75
				h-3l2.5,6c-8,1.4-12.333-1.517-13-8.75c1.6-1.534,3.184-1.534,4.75,0v-4.5c-6.566-7.3-14.066-11.467-22.5-12.5v8.8
				c4.733,6.567,5.717,13.167,2.95,19.8c8.867,1.467,15.833,5.517,20.9,12.15c0.067-0.333,0.117-0.5,0.15-0.5v3.5h-3.5l8.1,7.85
				l9.65,2.15c3.7,0.233,5.717,1.433,6.05,3.6l0.45,0.8c14.034-0.367,25.383-3,34.05-7.9h-0.05v-3h6.25v-3.75l-5.25-2.5v-3.75
				L172.55-29.55z M144.05-69.55l0.75-4l-7.25-2.25l-3,7L144.05-69.55z"/>
		</g>
	</g>
</symbol>
<symbol  id="logo_1_" viewBox="-6 -396 447.9 397">
	<g>
		<g id="Calque_3_4_">
			
				<path fill-rule="evenodd" clip-rule="evenodd" fill="none" stroke="#578ECF" stroke-width="12" stroke-linecap="round" stroke-linejoin="round" stroke-miterlimit="3" d="
				M291.85-154.3c13.933-23.567,21.067-49.917,21.4-79.05c-0.333-29.167-7.467-55.517-21.4-79.05
				c-13.9-23.567-32.617-42.3-56.15-56.2c-23.567-13.933-49.933-21.067-79.1-21.4c-29.167,0.333-55.517,7.467-79.05,21.4
				c-23.533,13.9-42.25,32.617-56.15,56.15C7.467-288.883,0.333-262.517,0-233.35c0.333,29.167,7.467,55.517,21.4,79.05
				c13.9,23.533,32.617,42.25,56.15,56.15c23.567,13.933,49.917,21.066,79.05,21.4c29.167-0.333,55.517-7.467,79.05-21.4
				C259.217-112.05,277.95-130.767,291.85-154.3z"/>
		</g>
		<g>
			<path fill-rule="evenodd" clip-rule="evenodd" fill="#578ECF" d="M430.7-165.95c0.633-16.333-0.65-32.85-3.85-49.55
				c-2.9-14.733-7.133-28.767-12.7-42.1h-12.4c6.2,13.934,10.833,28.684,13.9,44.25c2.467,12.733,3.733,25.35,3.8,37.85
				L430.7-165.95z"/>
		</g>
		<g>
			<path fill-rule="evenodd" clip-rule="evenodd" fill="#578ECF" d="M419.45-175.5l-60.4-51.1l31.8-30.25l-70.7-1.4l99.3,83
				C419.45-175.317,419.45-175.4,419.45-175.5z"/>
		</g>
		<g>
			<path fill-rule="evenodd" clip-rule="evenodd" fill="#214A7E" d="M440.6-157.55l-9.9-8.3c0,0.033-0.017,0.05-0.05,0.05
				l-11.25-9.4c-0.033,0-0.05-0.017-0.05-0.05l-99.45-83l-191.75-3.8c-0.167,0.233-0.35,0.466-0.55,0.7L440.6-157.55z"/>
		</g>
		<g>
			<path fill-rule="evenodd" clip-rule="evenodd" fill="#214A7E" d="M344.85-292.4l16.8-24.65c-0.066-0.067-0.133-0.117-0.2-0.15
				l-41.25,58.95l70.7,1.4L344.85-292.4z"/>
		</g>
		<g>
			<polygon fill-rule="evenodd" clip-rule="evenodd" fill="#214A7E" points="359.75,-150.7 298.85,-145.55 389.1,-84.5 			"/>
		</g>
		<g>
			<polygon fill-rule="evenodd" clip-rule="evenodd" fill="#010101" points="419.45,-175.2 430.7,-165.8 430.7,-165.85 
				419.45,-175.25 			"/>
		</g>
		<g>
			<polygon fill-rule="evenodd" clip-rule="evenodd" fill="#578ECF" points="430.15,-156.55 440.6,-157.5 127.6,-261.3 
				298.85,-145.5 418.65,-155.6 418.65,-155.65 429.65,-156.6 430.2,-156.6 			"/>
		</g>
		<g>
			<path fill-rule="evenodd" clip-rule="evenodd" fill="#578ECF" d="M363.25-16.8c17.4-16.6,31.683-35.534,42.85-56.8l-9.55-6.35
				c-10.1,19.534-23,37.034-38.7,52.5L363.25-16.8z"/>
		</g>
		<g>
			<path fill-rule="evenodd" clip-rule="evenodd" fill="#FFFFFF" d="M371.95-332.15l-3.85,5.45c0.033,0.034,0.066,0.067,0.1,0.1
				L371.95-332.15z"/>
		</g>
		<g>
			<path fill-rule="evenodd" clip-rule="evenodd" fill="#FFFFFF" d="M368.1-326.65l-6.65,9.45c0.066,0.067,0.117,0.133,0.15,0.2
				l6.55-9.6C368.15-326.633,368.133-326.65,368.1-326.65z"/>
		</g>
		<g>
			<path fill-rule="evenodd" clip-rule="evenodd" fill="#FFFFFF" d="M357.85-27.45c-0.067,0.067-0.133,0.133-0.2,0.2L363-16.6
				c0.067-0.066,0.133-0.133,0.2-0.2L357.85-27.45z"/>
		</g>
		<g>
			<path fill-rule="evenodd" clip-rule="evenodd" fill="#214A7E" d="M363.05-16.6l-5.4-10.65c0.067-0.067,0.133-0.117,0.2-0.15
				L298-145.45l-170.4-115.9l233.7,246.4C361.867-15.483,362.45-16.033,363.05-16.6z"/>
		</g>
		<g>
			<path fill-rule="evenodd" clip-rule="evenodd" fill="#FFFFFF" d="M363.05-16.6c-0.566,0.567-1.15,1.117-1.75,1.65l6.2,6.55
				l-4.25-8.4C363.183-16.733,363.117-16.667,363.05-16.6z"/>
		</g>
		<g>
			<polygon fill-rule="evenodd" clip-rule="evenodd" fill="#578ECF" points="389.1,-84.5 298.85,-145.55 298,-145.45 327.55,-87.2 
							"/>
		</g>
		<g>
			<path fill-rule="evenodd" clip-rule="evenodd" fill="#214A7E" d="M335.5-340.55c-0.4-0.034-0.783-0.067-1.15-0.1
				c-40.4-3-78.333,2.5-113.8,16.5c-35.433,14.033-66.183,34.733-92.25,62.1l245.15-72.3C361.15-337.317,348.5-339.383,335.5-340.55
				z"/>
		</g>
		<g>
			
				<path fill-rule="evenodd" clip-rule="evenodd" fill="none" stroke="#578ECF" stroke-width="2" stroke-linecap="round" stroke-linejoin="round" stroke-miterlimit="3" d="
				M334.6-340.65c-7.533-5.467-15.4-10.383-23.6-14.75"/>
		</g>
		<g>
			
				<path fill-rule="evenodd" clip-rule="evenodd" fill="none" stroke="#578ECF" stroke-width="2" stroke-linecap="round" stroke-linejoin="round" stroke-miterlimit="3" d="
				M419.75-175.45c-0.067-12.533-1.333-25.167-3.8-37.9c-3.067-15.566-7.7-30.316-13.9-44.25
				c-10.066-22.467-23.45-42.283-40.15-59.45"/>
		</g>
		<g>
			
				<path fill-rule="evenodd" clip-rule="evenodd" fill="none" stroke="#578ECF" stroke-width="2" stroke-linecap="round" stroke-linejoin="round" stroke-miterlimit="3" d="
				M358.1-27.4c15.7-15.467,28.6-32.967,38.7-52.5c12.2-23.5,19.567-48.75,22.1-75.75"/>
		</g>
		<g>
			
				<path fill-rule="evenodd" clip-rule="evenodd" fill="none" stroke="#578ECF" stroke-width="2" stroke-linecap="round" stroke-linejoin="round" stroke-miterlimit="3" d="
				M323.4,0c7.833-4.933,15.267-10.333,22.3-16.2"/>
		</g>
		<g>
			
				<path fill-rule="evenodd" clip-rule="evenodd" fill="none" stroke="#578ECF" stroke-width="2" stroke-linecap="round" stroke-linejoin="round" stroke-miterlimit="3" d="
				M431-165.95c0.633-16.333-0.667-32.85-3.9-49.55c-2.867-14.733-7.083-28.767-12.65-42.1c-11.133-26.4-26.467-49.416-46-69.05"/>
		</g>
		<g>
			
				<path fill-rule="evenodd" clip-rule="evenodd" fill="none" stroke="#578ECF" stroke-width="2" stroke-linecap="round" stroke-linejoin="round" stroke-miterlimit="3" d="
				M363.55-16.75c17.4-16.633,31.684-35.567,42.85-56.8c13.533-25.7,21.55-53.4,24.05-83.1"/>
		</g>
		<g>
			
				<line fill="none" stroke="#578ECF" stroke-width="2" stroke-linecap="round" stroke-linejoin="round" stroke-miterlimit="3" x1="401.6" y1="-257.6" x2="414.4" y2="-257.6"/>
		</g>
		<g>
			
				<line fill="none" stroke="#578ECF" stroke-width="2" stroke-linecap="round" stroke-linejoin="round" stroke-miterlimit="3" x1="396.85" y1="-79.9" x2="406.4" y2="-73.6"/>
		</g>
		<g>
			
				<line fill="none" stroke="#010101" stroke-width="2" stroke-linecap="round" stroke-linejoin="round" stroke-miterlimit="3" x1="419.55" y1="-175.4" x2="431" y2="-165.8"/>
		</g>
		<g>
			
				<polyline fill-rule="evenodd" clip-rule="evenodd" fill="none" stroke="#578ECF" stroke-width="2" stroke-linecap="round" stroke-linejoin="round" stroke-miterlimit="3" points="
				300.8,-145.7 440.9,-157.55 359.35,-226.6 391.15,-256.85 			"/>
		</g>
		<g>
			
				<line fill="none" stroke="#010101" stroke-width="2" stroke-linecap="round" stroke-linejoin="round" stroke-miterlimit="3" x1="298.3" y1="-145.5" x2="299.1" y2="-145.55"/>
		</g>
		<g>
			
				<line fill="none" stroke="#010101" stroke-width="2" stroke-linecap="round" stroke-linejoin="round" stroke-miterlimit="3" x1="299.1" y1="-145.55" x2="300.75" y2="-145.7"/>
		</g>
		<g>
			
				<polyline fill-rule="evenodd" clip-rule="evenodd" fill="none" stroke="#578ECF" stroke-width="2" stroke-linecap="round" stroke-linejoin="round" stroke-miterlimit="3" points="
				327.8,-87.2 389.35,-84.5 360.05,-150.7 300.8,-145.7 			"/>
		</g>
		<g>
			
				<line fill="none" stroke="#578ECF" stroke-width="2" stroke-linecap="round" stroke-linejoin="round" stroke-miterlimit="3" x1="129.3" y1="-260.35" x2="389.35" y2="-84.5"/>
		</g>
		<g>
			
				<polyline fill-rule="evenodd" clip-rule="evenodd" fill="none" stroke="#578ECF" stroke-width="2" stroke-linecap="round" stroke-linejoin="round" stroke-miterlimit="3" points="
				320.45,-258.25 440.9,-157.55 127.85,-261.35 			"/>
		</g>
		<g>
			
				<line fill="none" stroke="#578ECF" stroke-width="2" stroke-linecap="round" stroke-linejoin="round" stroke-miterlimit="3" x1="373.75" y1="-334.35" x2="320.45" y2="-258.2"/>
		</g>
		<g>
			
				<polyline fill-rule="evenodd" clip-rule="evenodd" fill="none" stroke="#578ECF" stroke-width="2" stroke-linecap="round" stroke-linejoin="round" stroke-miterlimit="3" points="
				320.45,-258.25 391.15,-256.85 345.1,-292.4 373.45,-333.95 			"/>
		</g>
		<g>
			
				<path fill-rule="evenodd" clip-rule="evenodd" fill="none" stroke="#578ECF" stroke-width="2" stroke-linecap="round" stroke-linejoin="round" stroke-miterlimit="3" d="
				M345.7-16.15c-14.833-5.533-29.467-11.483-43.9-17.85c-31.033-13.7-59.467-31.517-85.3-53.45
				c-11.067-9.367-20.95-19.816-29.65-31.35c-16.067-21.667-28.667-44.267-37.8-67.8c-9.133-23.5-16.2-48.417-21.2-74.75L367.75-8.4
				c-3.267-1.1-6.517-2.217-9.75-3.35C353.867-13.183,349.767-14.65,345.7-16.15z M335.75-340.55c13,1.167,25.65,3.233,37.95,6.2
				l-245.15,72.3c26.067-27.367,56.817-48.067,92.25-62.1c35.467-14,73.4-19.5,113.8-16.5
				C334.967-340.617,335.35-340.584,335.75-340.55z M127.85-261.35c0.233-0.234,0.467-0.467,0.7-0.7l191.85,3.8"/>
		</g>
		<g>
			
				<line fill="none" stroke="#010101" stroke-width="2" stroke-linecap="round" stroke-linejoin="round" stroke-miterlimit="3" x1="127.85" y1="-261.35" x2="129.3" y2="-260.4"/>
		</g>
		<g>
			
				<polyline fill-rule="evenodd" clip-rule="evenodd" fill="none" stroke="#578ECF" stroke-width="2" stroke-linecap="round" stroke-linejoin="round" stroke-miterlimit="3" points="
				367.8,-8.4 298.3,-145.45 129.3,-260.4 			"/>
		</g>
		<g>
			<polygon fill-rule="evenodd" clip-rule="evenodd" fill="#578ECF" points="128.3,-262.2 320.2,-258.6 373.45,-334.35 			"/>
		</g>
		<g>
			<path fill-rule="evenodd" clip-rule="evenodd" fill="#578ECF" d="M358-11.7c0.2-0.2,0.416-0.4,0.65-0.6c2.933,1,5.867,2,8.8,3
				l-6.2-6.55c-0.1,0.1-0.2,0.2-0.3,0.3l-233.1-245.8c5,26.333,12.066,51.266,21.2,74.8c9.133,23.5,21.733,46.083,37.8,67.75
				c8.7,11.533,18.583,21.983,29.65,31.35c25.833,21.967,54.267,39.784,85.3,53.45c14.433,6.4,29.067,12.35,43.9,17.85
				C349.767-14.65,353.867-13.167,358-11.7z"/>
		</g>
	</g>
</symbol>
<symbol  id="spi_1_" viewBox="11.55 -371.635 255.34 404.135">
	<g>
		<g id="Calque_3_3_">
			<path fill-rule="evenodd" clip-rule="evenodd" fill="#214A7E" d="M251.35-159.2c18.5-60.3,18.717-130.55,0.65-210.75
				c-80.467-2.4-159.983,18.533-238.55,62.8c104.5-22.033,188.467-4.55,251.899,52.45l-11.85-1.95
				c-32.233-1.333-64.333-0.55-96.3,2.35C193.9-230.2,225.283-198.5,251.35-159.2z M13.15-307c-0.033,0-0.066,0.017-0.1,0.05
				c27.7,20,52.717,40.717,75.05,62.15c22.967-4.267,46-7.433,69.1-9.5C118.133-279.933,70.117-297.5,13.15-307z M27.75-162.9
				c51.033-8.333,91.967-11.883,122.8-10.65c-17.767-24.567-38.583-48.317-62.45-71.25c-16.6,3.133-39.717,8.35-69.35,15.65
				C21.117-207.017,24.117-184.933,27.75-162.9z M40.25-97.75C49.717-54.683,61.6-11.767,75.9,31
				C132.533,3.167,176.467-31.583,207.7-73.25c19.467-25.933,34.017-54.567,43.65-85.9c-35.9-8.3-69.5-13.1-100.8-14.4
				c22.1,30.667,41.15,64.1,57.15,100.3C165.567-89.15,109.75-97.317,40.25-97.75z"/>
			<path fill-rule="evenodd" clip-rule="evenodd" fill="#578ECF" d="M251.35-159.15v-0.05c-26.067-39.3-57.45-71-94.15-95.1
				c31.967-2.9,64.067-3.683,96.3-2.35l11.85,1.95c-63.433-57-147.4-74.483-251.9-52.45c-0.1,0.033-0.2,0.083-0.3,0.15
				c0.1-0.067,0.2-0.117,0.3-0.15c-0.2,0.033-0.383,0.067-0.55,0.1c0.067,0.133,0.133,0.267,0.2,0.4
				c1.033,25.867,2.917,51.683,5.65,77.45v0.05c29.633-7.3,52.75-12.517,69.35-15.65c23.867,22.933,44.683,46.683,62.45,71.25
				c-30.833-1.233-71.767,2.316-122.8,10.65c3.533,21.733,7.7,43.433,12.5,65.1l-0.05,0.05h0.05v-0.05v0.05
				c69.5,0.433,125.317,8.6,167.45,24.5c-16-36.2-35.05-69.633-57.15-100.3C181.85-172.25,215.45-167.45,251.35-159.15z M13.15-307
				c56.967,9.5,104.983,27.067,144.05,52.7c-23.1,2.067-46.133,5.233-69.1,9.5c-22.333-21.433-47.35-42.15-75.05-62.15
				c-0.033-0.033-0.083-0.067-0.15-0.1C13-307.05,13.083-307.033,13.15-307z M13.1-306.65c-0.033-0.1-0.05-0.2-0.05-0.3
				C13.05-306.85,13.067-306.75,13.1-306.65z"/>
			
				<path fill-rule="evenodd" clip-rule="evenodd" fill="none" stroke="#578ECF" stroke-width="3" stroke-linecap="round" stroke-linejoin="round" stroke-miterlimit="3" d="
				M251.35-159.2c18.5-60.3,18.717-130.55,0.65-210.75c-80.467-2.4-159.983,18.533-238.55,62.8 M13.1-306.65
				c1.033,25.867,2.917,51.683,5.65,77.45v0.05c2.367,22.133,5.367,44.217,9,66.25c3.533,21.733,7.7,43.433,12.5,65.1 M40.25-97.75
				C49.717-54.683,61.6-11.767,75.9,31C132.533,3.167,176.467-31.583,207.7-73.25c19.467-25.933,34.017-54.567,43.65-85.9
				 M40.25-97.75v-0.05 M13.05-306.95c0.034-0.033,0.067-0.05,0.1-0.05c0.1-0.067,0.2-0.117,0.3-0.15 M13.1-306.65
				c-0.033-0.1-0.05-0.2-0.05-0.3"/>
			
				<path fill-rule="evenodd" clip-rule="evenodd" fill="none" stroke="#578ECF" stroke-linecap="round" stroke-linejoin="round" stroke-miterlimit="3" d="
				M251.35-159.15v-0.05 M13.45-307.15c-0.2,0.033-0.383,0.067-0.55,0.1 M40.2-97.75h0.05 M13.05-306.95
				c-0.033-0.033-0.083-0.067-0.15-0.1c0.1,0,0.184,0.017,0.25,0.05"/>
		</g>
	</g>
</symbol>
<symbol  id="wind_x5F_rose" viewBox="-1.5 -505.2 506.2 506.7">
	<g id="wind_rose_1_">
		<g id="Calque_3_2_">
			<path fill-rule="evenodd" clip-rule="evenodd" fill="#578ECF" d="M347.9-19.15l-52.1-125.9L327.85-128L429.2-74L310.4-192.85
				l-14.6,47.8l-10.85,35.55L347.9-19.15z M393.05-218.05L503.2-251.6H251.7h-0.05l58.75,58.75l47.9-14.6l17.45,32.8l108.3,19.3
				l-125.75-52.1L393.05-218.05z M358.65-295.9l34.45,10.3l90.95-62.25l-125.4,51.9V-295.9v-0.05l17.05-32.1l53.8-101.45
				L310.35-310.35L358.65-295.9z M218.3-110.25L251.6-0.5v-251.05h-0.05L193.1-193.1l14.5,47.75L218.3-110.25z M155.35-19.15
				l52.25-126.2l-32.65,17.45L155.35-19.15z M109.65-218.4l-90.5,63.1l126.2-52.3l-17.3,32.4L73.95-73.95L193.1-193.1l-47.75-14.5
				L109.65-218.4z M174.55-376.05L73.7-429.5l118.9,118.9L144.55-296l-17-32.05l-0.5,0.3l-107.9-20.2L144.55-296l-35.1,10.65
				L0-252.1l0.1,0.5h251.45v-0.05L192.6-310.6l14.7-48.05L174.55-376.05z M310.35-310.35L295.8-358.2L285-393.7l-33.4-109.5v251.5
				l0.05,0.05L310.35-310.35z M218.05-393.75l-0.5-0.15l-62.2-90.15l51.95,125.4L218.05-393.75z M295.8-358.2l32.75-17.5
				l19.35-108.35L295.8-358.2z"/>
			<path fill-rule="evenodd" clip-rule="evenodd" fill="#214A7E" d="M310.4-192.85l-58.75-58.75l-0.05,0.05V-0.5l33.35-109
				l10.85-35.55L310.4-192.85L429.2-74l-53.45-100.65l-0.65-0.1l0.65,0.1l-17.45-32.8L310.4-192.85z M295.8-145.05l52.1,125.9
				L327.85-128L295.8-145.05z M358.65-295.9l-48.3-14.45l-58.7,58.7l0.05,0.05h251.5c0-0.167,0-0.333,0-0.5s0-0.35,0-0.55
				L393.1-285.6L358.65-295.9z M393.05-218.05l-34.75,10.6l125.75,52.1L393.05-218.05z M328.55-375.7l-32.75,17.5l52.1-125.85
				L285-393.7l10.8,35.5l14.55,47.85L429.5-429.5L328.55-375.7z M484.05-347.85l-108.35,19.8l-17.05,32.1L484.05-347.85z
				 M155.35-19.15l62.95-91.1l-10.7-35.1l-14.5-47.75l58.45-58.45v-0.05H0.1l109.55,33.2l35.7,10.8l47.75,14.5L73.95-73.95
				l101-53.95l32.65-17.45L155.35-19.15z M128.05-175.2l17.3-32.4l-126.2,52.3L128.05-175.2z M144.55-296l-125.4-51.95l90.3,62.6
				L144.55-296z M251.6-503.2l-33.55,109.45l-10.75,35.1l-51.95-125.4l19.2,108l32.75,17.4l-14.7,48.05L73.7-429.5l53.85,101.45
				l17,32.05l48.05-14.6l58.95,58.95l0.05-0.05V-503.2z"/>
			
				<path fill-rule="evenodd" clip-rule="evenodd" fill="none" stroke="#578ECF" stroke-width="3" stroke-linecap="round" stroke-linejoin="round" stroke-miterlimit="3" d="
				M429.2-74l0.1,0.05C380.2-24.983,320.967-0.5,251.6-0.5l33.35-109l62.95,90.35L327.85-128L429.2-74z M429.3-73.95
				c0.1-0.1,0.183-0.183,0.25-0.25c48.967-48.967,73.517-108.1,73.65-177.4c0-0.167,0-0.333,0-0.5s0-0.35,0-0.55
				c-0.067-34.333-6.133-66.2-18.2-95.6v-0.05c-12.267-29.7-30.667-56.867-55.2-81.5c-0.1-0.1-0.183-0.183-0.25-0.25
				c-24.5-24.5-51.533-42.883-81.1-55.15c-0.033,0-0.067-0.017-0.1-0.05c-29.7-12.3-61.95-18.45-96.75-18.45
				c-34.8,0-67.033,6.15-96.7,18.45h-0.05c-29.6,12.3-56.65,30.7-81.15,55.2c-0.1,0.1-0.184,0.183-0.25,0.25
				c-24.534,24.6-42.917,51.75-55.15,81.45c-0.033,0-0.05,0.017-0.05,0.05C6.083-318.767,0-286.7,0-252.1c0,0.167,0,0.333,0,0.5
				c0.033,26.067,3.55,50.7,10.55,73.9c11.534,38.467,32.583,72.967,63.15,103.5c0.066,0.067,0.15,0.15,0.25,0.25
				c30.467,30.434,64.867,51.4,103.2,62.9C200.517-4.017,225.333-0.5,251.6-0.5V0 M375.1-174.75l0.65,0.1L429.2-74 M310.4-192.85
				l47.9-14.6l17.45,32.8l108.3,19.3l-91-62.7L503.2-251.6 M358.65-295.9l-48.3-14.45 M429.5-429.5l-53.8,101.45l-17.05,32.1
				 M358.3-207.45l34.75-10.6 M358.65-295.9l34.45,10.3l110.1,32.95 M484.05-347.85l-108.35,19.8 M393.1-285.6l90.95-62.25
				 M218.3-110.25l-10.7-35.1l-14.5-47.75l-47.75-14.5l-35.7-10.8L0.1-251.6H0 M251.6-0.5l-33.3-109.75 M207.6-145.35l-32.65,17.45
				l-101,53.95 M310.4-192.85l-14.6,47.8l-10.85,35.55 M128.05-175.2l-108.9,19.9 M145.35-207.6l-17.3,32.4L73.95-73.95 M144.55-296
				l-35.1,10.65l-90.3-62.6 M127.05-327.75l-107.9-20.2 M192.6-310.6L144.55-296l-17-32.05L73.7-429.5 M109.45-285.35L0-252.1
				 M251.6-503.2L285-393.7l10.8,35.5l14.55,47.85 M218.05-393.75l-10.75,35.1 M155.35-484.05l62.2,90.15 M192.6-310.6l14.7-48.05
				l-32.75-17.4l-19.2-108 M155.35-19.15l62.95-91.1 M174.95-127.9l-19.6,108.75 M109.65-218.4l-90.5,63.1 M295.8-145.05L327.85-128
				 M174.55-376.05L73.7-429.5 M218.05-393.75L251.6-503.2 M347.9-484.05L285-393.7 M328.55-375.7l100.95-53.8 M347.9-484.05
				L328.55-375.7l-32.75,17.5"/>
			
				<line fill="none" stroke="#578ECF" stroke-linecap="round" stroke-linejoin="round" stroke-miterlimit="3" x1="358.65" y1="-295.95" x2="358.65" y2="-295.9"/>
			
				<path fill-rule="evenodd" clip-rule="evenodd" fill="none" stroke="#578ECF" stroke-width="2" stroke-linecap="round" stroke-linejoin="round" stroke-miterlimit="3" d="
				M251.6-251.6l0.05-0.05v0.05H251.6v-0.05h0.05l-0.05-0.05v0.05 M251.7-251.6l-0.05-0.05 M251.55-251.55l0.05-0.05v0.05l0.05-0.05
				h0.05 M251.6-251.6l-0.05-0.05h0.05 M251.55-251.6h0.05"/>
		</g>
	</g>
</symbol>
<g>
	<g id="earth">
		
			<use xlink:href="#earth_1_"  width="302.05" height="302" x="-1.5" y="-300.5" transform="matrix(1.8209 0 0 -1.8212 2.7314 2.7314)" overflow="visible"/>
	</g>
</g>
<g>
	<g id="wind_rose">
		
			<use xlink:href="#wind_x5F_rose"  width="506.2" height="506.7" x="-1.5" y="-505.2" transform="matrix(1.0865 0 0 -1.0855 551.6226 1.6279)" overflow="visible"/>
	</g>
</g>
<g>
	<g id="spi">
		
			<use xlink:href="#spi_1_"  width="255.34" height="404.135" x="11.55" y="-371.635" transform="matrix(1.3609 0 0 -1.3609 1185.5176 44.2305)" overflow="visible"/>
	</g>
</g>
<g>
	<g id="logo">
		
			<use xlink:href="#logo_1_"  width="447.9" height="397" x="-6" y="-396" transform="matrix(1.228 0 0 -1.2278 1657.3457 32.5127)" overflow="visible"/>
	</g>
</g>
</svg>
